<svg width="200" height="257" viewBox="0 0 200 257" fill="none" xmlns="http://www.w3.org/2000/svg">
<path d="M94.7368 -369.588C94.7368 -336.278 77.193 -318.746 64.9123 -306.474C54.386 -295.955 50.8772 -290.695 50.8772 -280.176C50.8772 -269.657 54.386 -264.398 64.9123 -253.879C77.193 -241.607 94.7368 -224.075 94.7368 -190.765C94.7368 -157.454 77.193 -139.923 64.9123 -127.651C54.386 -117.131 50.8772 -111.872 50.8772 -101.353C50.8772 -90.8339 54.386 -85.5744 64.9123 -75.0554C77.193 -62.7831 94.7368 -45.2514 94.7368 -11.9412C94.7368 21.3691 77.193 38.9008 64.9123 51.173C54.386 61.6921 50.8772 66.9516 50.8772 77.4706C50.8772 87.9896 54.386 93.2491 64.9123 103.768C77.193 116.04 94.7368 133.572 94.7368 166.882C94.7368 200.193 77.193 217.724 64.9123 229.997C54.386 240.516 50.8772 245.775 50.8772 256.294H0C0 222.984 17.5439 205.452 29.8246 193.18C40.3509 182.661 43.8596 177.401 43.8596 166.882C43.8596 156.363 40.3509 151.104 29.8246 140.585C17.5439 128.313 0 110.781 0 77.4706C0 44.1603 17.5439 26.6286 29.8246 14.3564C40.3509 3.83737 43.8596 -1.42212 43.8596 -11.9412C43.8596 -22.4602 40.3509 -27.7197 29.8246 -38.2387C17.5439 -50.511 0 -68.0427 0 -101.353C0 -134.663 17.5439 -152.195 29.8246 -164.467C40.3509 -174.986 43.8596 -180.246 43.8596 -190.765C43.8596 -201.284 40.3509 -206.543 29.8246 -217.062C17.5439 -229.334 0 -246.866 0 -280.176C0 -313.487 17.5439 -331.018 29.8246 -343.291C40.3509 -353.81 43.8596 -359.069 43.8596 -369.588C43.8596 -380.107 40.3509 -385.367 29.8246 -395.886C17.5439 -408.158 0 -425.69 0 -459H50.8772C50.8772 -448.481 54.386 -443.221 64.9123 -432.702C78.9474 -420.43 94.7368 -402.898 94.7368 -369.588Z" fill="#E5E515"/>
<path d="M200 -369.588C200 -336.278 182.456 -318.746 170.175 -306.474C159.649 -295.955 156.14 -290.695 156.14 -280.176C156.14 -269.657 159.649 -264.398 170.175 -253.879C182.456 -241.607 200 -224.075 200 -190.765C200 -157.454 182.456 -139.923 170.175 -127.651C159.649 -117.131 156.14 -111.872 156.14 -101.353C156.14 -90.8339 159.649 -85.5744 170.175 -75.0554C182.456 -62.7831 200 -45.2514 200 -11.9412C200 21.3691 182.456 38.9008 170.175 51.173C159.649 61.6921 156.14 66.9516 156.14 77.4706C156.14 87.9896 159.649 93.2491 170.175 103.768C182.456 116.04 200 133.572 200 166.882C200 200.193 182.456 217.724 170.175 229.997C159.649 240.516 156.14 245.775 156.14 256.294H105.263C105.263 222.984 122.807 205.452 135.088 193.18C145.614 182.661 149.123 177.401 149.123 166.882C149.123 156.363 145.614 151.104 135.088 140.585C121.053 128.313 105.263 110.781 105.263 77.4706C105.263 44.1603 122.807 26.6286 135.088 14.3564C145.614 3.83737 149.123 -1.42212 149.123 -11.9412C149.123 -22.4602 143.86 -27.7197 133.333 -38.2387C121.053 -50.511 105.263 -68.0427 105.263 -101.353C105.263 -134.663 122.807 -152.195 135.088 -164.467C145.614 -174.986 149.123 -180.246 149.123 -190.765C149.123 -201.284 145.614 -206.543 135.088 -217.062C121.053 -229.334 105.263 -246.866 105.263 -280.176C105.263 -313.487 122.807 -331.018 135.088 -343.291C143.86 -353.81 149.123 -359.069 149.123 -369.588C149.123 -380.107 145.614 -385.367 135.088 -395.886C121.053 -408.158 105.263 -425.69 105.263 -459H156.14C156.14 -448.481 159.649 -443.221 170.175 -432.702C182.456 -420.43 200 -402.898 200 -369.588Z" fill="#E5E515"/>
</svg>
