<svg width="517" height="505" viewBox="0 0 517 505" fill="none" xmlns="http://www.w3.org/2000/svg">
<g clip-path="url(#clip0)">
<path d="M19.758 10.4943C19.758 13.762 16.465 17.0296 12.0743 17.0296C8.78134 17.0296 5.48834 13.762 5.48834 10.4943C5.48834 7.22665 8.78134 3.959 12.0743 3.959C16.465 2.86978 19.758 6.13743 19.758 10.4943Z" fill="white"/>
<path d="M51.5902 10.4943C51.5902 13.762 48.2972 17.0296 45.0043 17.0296C41.7113 17.0296 38.4183 13.762 38.4183 10.4943C38.4183 7.22665 41.7113 3.959 45.0043 3.959C48.2972 3.959 51.5902 7.22665 51.5902 10.4943Z" fill="white"/>
<path d="M48.2992 40.9926C48.2992 44.2603 45.0062 47.5279 41.7132 47.5279C38.4202 47.5279 35.1272 44.2603 35.1272 40.9926C35.1272 37.7249 38.4202 34.4573 41.7132 34.4573C46.1038 34.4573 48.2992 37.7249 48.2992 40.9926Z" fill="white"/>
<path d="M17.5641 48.617C17.5641 51.8847 14.2711 55.1523 10.9781 55.1523C7.68508 55.1523 4.39209 51.8847 4.39209 48.617C4.39209 45.3493 7.68508 42.0817 10.9781 42.0817C14.2711 42.0817 17.5641 45.3493 17.5641 48.617Z" fill="white"/>
<path d="M18.6603 86.7397C18.6603 90.0073 15.3673 93.275 12.0743 93.275C8.78134 93.275 5.48834 90.0073 5.48834 86.7397C5.48834 83.472 8.78134 80.2044 12.0743 80.2044C15.3673 79.1151 18.6603 82.3828 18.6603 86.7397Z" fill="white"/>
<path d="M18.6603 122.684C18.6603 125.952 15.3673 129.219 12.0743 129.219C8.78134 129.219 5.48834 125.952 5.48834 122.684C5.48834 119.416 8.78134 116.149 12.0743 116.149C15.3673 116.149 18.6603 119.416 18.6603 122.684Z" fill="white"/>
<path d="M18.6603 158.628C18.6603 161.896 15.3673 165.164 12.0743 165.164C8.78134 165.164 5.48834 161.896 5.48834 158.628C5.48834 155.361 8.78134 152.093 12.0743 152.093C15.3673 152.093 18.6603 154.271 18.6603 158.628Z" fill="white"/>
<path d="M48.2992 142.29C48.2992 145.558 45.0062 148.825 41.7132 148.825C38.4202 148.825 35.1272 145.558 35.1272 142.29C35.1272 139.022 38.4202 135.755 41.7132 135.755C45.0062 135.755 48.2992 139.022 48.2992 142.29Z" fill="white"/>
<path d="M48.2992 107.435C48.2992 110.703 45.0062 113.97 41.7132 113.97C38.4202 113.97 35.1272 110.703 35.1272 107.435C35.1272 104.167 38.4202 100.9 41.7132 100.9C45.0062 100.9 48.2992 104.167 48.2992 107.435Z" fill="white"/>
<path d="M48.2992 73.6692C48.2992 76.9369 45.0062 80.2045 41.7132 80.2045C38.4202 80.2045 35.1272 76.9369 35.1272 73.6692C35.1272 70.4015 38.4202 67.1339 41.7132 67.1339C46.1038 67.1339 48.2992 70.4015 48.2992 73.6692Z" fill="white"/>
<path d="M81.2291 60.5985C81.2291 63.8661 77.9361 67.1338 74.6431 67.1338C71.3501 67.1338 68.0571 63.8661 68.0571 60.5985C68.0571 57.3308 71.3501 54.0631 74.6431 54.0631C77.9361 54.0631 81.2291 57.3308 81.2291 60.5985Z" fill="white"/>
<path d="M80.1305 94.3643C80.1305 97.632 76.8375 100.9 73.5445 100.9C70.2515 100.9 66.9585 97.632 66.9585 94.3643C66.9585 91.0967 70.2515 87.829 73.5445 87.829C76.8375 87.829 80.1305 90.0074 80.1305 94.3643Z" fill="white"/>
<path d="M79.0319 127.041C79.0319 130.309 75.7389 133.576 72.4459 133.576C69.1529 133.576 65.8599 130.309 65.8599 127.041C65.8599 123.773 69.1529 120.506 72.4459 120.506C75.7389 120.506 79.0319 123.773 79.0319 127.041Z" fill="white"/>
<path d="M108.671 146.647C108.671 149.914 105.378 153.182 102.085 153.182C98.7917 153.182 95.4987 149.914 95.4987 146.647C95.4987 143.379 98.7917 140.111 102.085 140.111C105.378 140.111 108.671 142.29 108.671 146.647Z" fill="white"/>
<path d="M110.866 112.881C110.866 116.149 107.573 119.416 104.28 119.416C100.987 119.416 97.6935 116.149 97.6935 112.881C97.6935 109.613 100.987 106.346 104.28 106.346C107.573 106.346 110.866 109.613 110.866 112.881Z" fill="white"/>
<path d="M111.962 80.2046C111.962 83.4722 108.669 86.7399 105.376 86.7399C102.083 86.7399 98.7899 83.4722 98.7899 80.2046C98.7899 76.9369 102.083 73.6693 105.376 73.6693C109.767 73.6693 111.962 76.9369 111.962 80.2046Z" fill="white"/>
<path d="M113.06 46.4387C113.06 49.7064 109.767 52.974 106.474 52.974C102.084 52.974 99.8884 49.7064 99.8884 46.4387C99.8884 43.1711 103.181 39.9034 106.474 39.9034C109.767 39.9034 113.06 43.1711 113.06 46.4387Z" fill="white"/>
<path d="M143.796 66.0446C143.796 69.3122 140.503 72.5799 137.21 72.5799C133.917 72.5799 130.624 69.3122 130.624 66.0446C130.624 62.7769 133.917 59.5092 137.21 59.5092C141.6 59.5092 143.796 62.7769 143.796 66.0446Z" fill="white"/>
<path d="M143.796 99.8104C143.796 103.078 140.503 106.346 137.21 106.346C133.917 106.346 130.624 103.078 130.624 99.8104C130.624 96.5428 133.917 93.2751 137.21 93.2751C140.503 92.1859 143.796 95.4536 143.796 99.8104Z" fill="white"/>
<path d="M141.601 132.487C141.601 135.755 138.308 139.022 135.015 139.022C131.722 139.022 128.429 135.755 128.429 132.487C128.429 129.219 131.722 125.952 135.015 125.952C138.308 125.952 141.601 128.13 141.601 132.487Z" fill="white"/>
<path d="M138.307 165.164C138.307 168.431 135.014 171.699 131.721 171.699C128.428 171.699 125.135 168.431 125.135 165.164C125.135 161.896 128.428 158.628 131.721 158.628C135.014 158.628 138.307 161.896 138.307 165.164Z" fill="white"/>
<path d="M106.473 180.413C106.473 183.68 103.18 186.948 99.8875 186.948C96.5945 186.948 93.3015 183.68 93.3015 180.413C93.3015 177.145 96.5945 173.877 99.8875 173.877C103.18 172.788 106.473 176.056 106.473 180.413Z" fill="white"/>
<path d="M77.9357 161.896C77.9357 165.163 74.6427 168.431 71.3497 168.431C68.0567 168.431 64.7637 165.163 64.7637 161.896C64.7637 158.628 68.0567 155.36 71.3497 155.36C74.6427 154.271 77.9357 157.539 77.9357 161.896Z" fill="white"/>
<path d="M47.2006 177.145C47.2006 180.413 43.9076 183.68 40.6146 183.68C37.3216 183.68 34.0286 180.413 34.0286 177.145C34.0286 173.877 37.3216 170.61 40.6146 170.61C43.9076 170.61 47.2006 173.877 47.2006 177.145Z" fill="white"/>
<path d="M18.6603 193.483C18.6603 196.751 15.3673 200.019 12.0743 200.019C8.78134 200.019 5.48834 196.751 5.48834 193.483C5.48834 190.216 8.78134 186.948 12.0743 186.948C15.3673 186.948 18.6603 190.216 18.6603 193.483Z" fill="white"/>
<path d="M45.0057 212C45.0057 215.268 41.7127 218.535 38.4197 218.535C35.1267 218.535 31.8337 215.268 31.8337 212C31.8337 208.732 35.1267 205.465 38.4197 205.465C42.8103 205.465 45.0057 207.643 45.0057 212Z" fill="white"/>
<path d="M72.4473 230.517C72.4473 233.784 69.1543 237.052 65.8613 237.052C62.5683 237.052 59.2753 233.784 59.2753 230.517C59.2753 227.249 61.4707 223.981 65.8613 223.981C69.1543 223.981 72.4473 226.16 72.4473 230.517Z" fill="white"/>
<path d="M98.7903 249.034C98.7903 253.39 95.4973 256.658 92.2043 256.658C88.9113 256.658 85.6183 253.39 85.6183 250.123C85.6183 246.855 88.9113 243.587 92.2043 243.587C95.4973 242.498 98.7903 245.766 98.7903 249.034Z" fill="white"/>
<path d="M95.4969 284.978C95.4969 288.245 92.2039 291.513 88.9109 291.513C85.6179 291.513 82.3249 288.245 82.3249 284.978C82.3249 281.71 85.6179 278.442 88.9109 278.442C92.2039 277.353 95.4969 280.621 95.4969 284.978Z" fill="white"/>
<path d="M69.1539 265.372C69.1539 268.639 65.8609 271.907 62.5679 271.907C59.2749 271.907 55.9819 268.639 55.9819 265.372C55.9819 262.104 59.2749 258.837 62.5679 258.837C65.8609 258.837 69.1539 262.104 69.1539 265.372Z" fill="white"/>
<path d="M42.8108 246.855C42.8108 250.123 39.5178 253.39 36.2248 253.39C32.9318 253.39 29.6388 250.123 29.6388 246.855C29.6388 243.587 32.9318 240.32 36.2248 240.32C39.5178 240.32 42.8108 243.587 42.8108 246.855Z" fill="white"/>
<path d="M16.4655 228.338C16.4655 231.606 13.1725 234.874 9.87951 234.874C6.58651 234.874 3.29352 231.606 3.29352 228.338C3.29352 225.071 6.58651 221.803 9.87951 221.803C13.1725 221.803 16.4655 225.071 16.4655 228.338Z" fill="white"/>
<path d="M14.2706 265.372C14.2706 268.639 10.9776 271.907 7.68462 271.907C4.39163 271.907 1.09863 268.639 1.09863 265.372C1.09863 262.104 4.39163 258.837 7.68462 258.837C10.9776 258.837 14.2706 262.104 14.2706 265.372Z" fill="white"/>
<path d="M39.5173 282.799C39.5173 286.067 36.2243 289.334 32.9313 289.334C29.6383 289.334 26.3453 286.067 26.3453 282.799C26.3453 279.532 29.6383 276.264 32.9313 276.264C36.2243 276.264 39.5173 279.532 39.5173 282.799Z" fill="white"/>
<path d="M14.2706 305.673C14.2706 308.94 10.9776 312.208 7.68462 312.208C4.39163 312.208 1.09863 308.94 1.09863 305.673C1.09863 302.405 4.39163 299.137 7.68462 299.137C10.9776 298.048 14.2706 301.316 14.2706 305.673Z" fill="white"/>
<path d="M38.4187 318.744C38.4187 322.011 35.1257 325.279 31.8328 325.279C28.5398 325.279 25.2468 322.011 25.2468 318.744C25.2468 315.476 28.5398 312.208 31.8328 312.208C35.1257 311.119 38.4187 314.387 38.4187 318.744Z" fill="white"/>
<path d="M19.7589 345.974C19.7589 349.242 16.466 352.509 13.173 352.509C9.87997 352.509 6.58698 349.242 6.58698 345.974C6.58698 342.706 9.87997 339.439 13.173 339.439C16.466 339.439 19.7589 342.706 19.7589 345.974Z" fill="white"/>
<path d="M47.2006 368.848C47.2006 372.115 43.9076 375.383 40.6146 375.383C37.3216 375.383 34.0286 372.115 34.0286 368.848C34.0286 365.58 37.3216 362.312 40.6146 362.312C43.9076 362.312 47.2006 365.58 47.2006 368.848Z" fill="white"/>
<path d="M17.5641 385.186C17.5641 388.454 14.2711 391.721 10.9781 391.721C7.68508 391.721 4.39209 388.454 4.39209 385.186C4.39209 381.918 7.68508 378.651 10.9781 378.651C14.2711 378.651 17.5641 380.829 17.5641 385.186Z" fill="white"/>
<path d="M43.9079 404.792C43.9079 408.059 40.6149 411.327 37.3219 411.327C34.0289 411.327 30.7359 408.059 30.7359 404.792C29.6383 401.524 32.9313 398.257 36.2243 398.257C40.6149 398.257 43.9079 401.524 43.9079 404.792Z" fill="white"/>
<path d="M17.5641 425.487C17.5641 428.755 14.2711 432.022 10.9781 432.022C7.68508 432.022 4.39209 428.755 4.39209 425.487C4.39209 422.219 7.68508 418.952 10.9781 418.952C14.2711 418.952 17.5641 422.219 17.5641 425.487Z" fill="white"/>
<path d="M17.5641 462.52C17.5641 465.788 14.2711 469.056 10.9781 469.056C7.68508 469.056 4.39209 465.788 4.39209 462.52C4.39209 459.253 7.68508 455.985 10.9781 455.985C15.3687 455.985 17.5641 459.253 17.5641 462.52Z" fill="white"/>
<path d="M14.2706 498.465C14.2706 501.732 10.9776 505 7.68462 505C4.39163 505 1.09863 501.732 1.09863 498.465C1.09863 495.197 4.39163 491.929 7.68462 491.929C10.9776 491.929 14.2706 495.197 14.2706 498.465Z" fill="white"/>
<path d="M50.494 474.502C50.494 477.769 47.201 481.037 43.908 481.037C40.615 481.037 37.322 477.769 37.322 474.502C37.322 471.234 40.615 467.966 43.908 467.966C48.2987 467.966 50.494 471.234 50.494 474.502Z" fill="white"/>
<path d="M47.2006 442.914C47.2006 446.182 43.9076 449.45 40.6146 449.45C37.3216 449.45 34.0286 446.182 34.0286 442.914C34.0286 439.647 37.3216 436.379 40.6146 436.379C43.9076 436.379 47.2006 438.558 47.2006 442.914Z" fill="white"/>
<path d="M84.5202 452.717C84.5202 455.985 81.2272 459.253 77.9343 459.253C74.6413 459.253 71.3483 455.985 71.3483 452.717C71.3483 449.45 74.6413 446.182 77.9343 446.182C81.2272 446.182 84.5202 448.361 84.5202 452.717Z" fill="white"/>
<path d="M70.2524 423.309C70.2524 426.576 66.9594 429.844 63.6664 429.844C60.3734 429.844 57.0804 426.576 57.0804 423.309C57.0804 420.041 60.3734 416.773 63.6664 416.773C68.0571 416.773 70.2524 420.041 70.2524 423.309Z" fill="white"/>
<path d="M99.8889 413.506C99.8889 416.773 96.5959 420.041 93.303 420.041C90.01 420.041 86.717 416.773 86.717 413.506C86.717 410.238 90.01 406.97 93.303 406.97C96.5959 405.881 99.8889 409.149 99.8889 413.506Z" fill="white"/>
<path d="M120.744 435.29C120.744 438.557 117.451 441.825 114.158 441.825C110.865 441.825 107.572 438.557 107.572 435.29C107.572 432.022 110.865 428.755 114.158 428.755C117.451 428.755 120.744 432.022 120.744 435.29Z" fill="white"/>
<path d="M155.868 417.863C155.868 421.13 152.575 424.398 149.282 424.398C145.989 424.398 142.696 421.13 142.696 417.863C142.696 414.595 145.989 411.327 149.282 411.327C152.575 411.327 155.868 414.595 155.868 417.863Z" fill="white"/>
<path d="M130.624 399.346C130.624 402.613 127.331 405.881 124.038 405.881C120.745 405.881 117.452 402.613 117.452 399.346C117.452 396.078 120.745 392.81 124.038 392.81C127.331 392.81 130.624 396.078 130.624 399.346Z" fill="white"/>
<path d="M73.5436 389.543C73.5436 392.811 70.2506 396.078 66.9576 396.078C63.6646 396.078 60.3716 392.811 60.3716 389.543C60.3716 386.275 63.6646 383.007 66.9576 383.007C70.2506 383.007 73.5436 386.275 73.5436 389.543Z" fill="white"/>
<path d="M106.473 378.651C106.473 381.918 103.18 385.186 99.8875 385.186C96.5945 385.186 93.3015 381.918 93.3015 378.651C93.3015 375.383 96.5945 372.115 99.8875 372.115C103.18 371.026 106.473 374.294 106.473 378.651Z" fill="white"/>
<path d="M113.06 341.617C113.06 344.885 109.767 348.153 106.474 348.153C103.181 348.153 99.8884 344.885 99.8884 341.617C99.8884 338.35 103.181 335.082 106.474 335.082C109.767 335.082 113.06 338.35 113.06 341.617Z" fill="white"/>
<path d="M82.3253 356.866C82.3253 360.134 79.0324 363.402 75.7394 363.402C72.4464 363.402 69.1534 360.134 69.1534 356.866C69.1534 353.599 72.4464 350.331 75.7394 350.331C79.0324 350.331 82.3253 353.599 82.3253 356.866Z" fill="white"/>
<path d="M58.1772 338.349C58.1772 341.617 54.8842 344.885 51.5912 344.885C48.2982 344.885 45.0052 341.617 45.0052 338.349C45.0052 335.082 48.2982 331.814 51.5912 331.814C54.8842 331.814 58.1772 333.992 58.1772 338.349Z" fill="white"/>
<path d="M65.8604 300.227C65.8604 303.494 62.5674 306.762 59.2744 306.762C55.9814 306.762 52.6884 303.494 52.6884 300.227C52.6884 296.959 55.9814 293.691 59.2744 293.691C62.5674 293.691 65.8604 296.959 65.8604 300.227Z" fill="white"/>
<path d="M88.9122 322.011C88.9122 325.279 85.6192 328.546 82.3262 328.546C79.0332 328.546 75.7402 325.279 75.7402 322.011C75.7402 318.743 79.0332 315.476 82.3262 315.476C85.6192 314.387 88.9122 317.654 88.9122 322.011Z" fill="white"/>
<path d="M118.549 305.673C118.549 308.94 115.256 312.208 111.963 312.208C108.67 312.208 105.377 308.94 105.377 305.673C105.377 302.405 108.67 299.137 111.963 299.137C115.256 298.048 118.549 301.316 118.549 305.673Z" fill="white"/>
<path d="M142.697 325.279C142.697 328.547 139.404 331.814 136.111 331.814C132.818 331.814 129.525 328.547 129.525 325.279C129.525 322.011 132.818 318.744 136.111 318.744C139.404 318.744 142.697 322.011 142.697 325.279Z" fill="white"/>
<path d="M165.749 345.974C165.749 349.242 162.456 352.509 159.163 352.509C155.87 352.509 152.577 349.242 152.577 345.974C152.577 342.706 155.87 339.439 159.163 339.439C162.456 338.35 165.749 341.617 165.749 345.974Z" fill="white"/>
<path d="M136.112 362.312C136.112 365.58 132.819 368.848 129.526 368.848C126.233 368.848 122.94 365.58 122.94 362.312C122.94 359.045 126.233 355.777 129.526 355.777C132.819 355.777 136.112 359.045 136.112 362.312Z" fill="white"/>
<path d="M160.26 381.918C160.26 385.186 156.967 388.453 153.674 388.453C150.381 388.453 147.088 385.186 147.088 381.918C147.088 378.65 150.381 375.383 153.674 375.383C156.967 375.383 160.26 377.561 160.26 381.918Z" fill="white"/>
<path d="M187.702 397.167C187.702 400.435 184.409 403.702 181.116 403.702C177.823 403.702 174.53 400.435 174.53 397.167C174.53 393.9 177.823 390.632 181.116 390.632C184.409 390.632 187.702 392.81 187.702 397.167Z" fill="white"/>
<path d="M190.995 363.401C190.995 366.669 187.702 369.937 184.409 369.937C181.116 369.937 177.823 366.669 177.823 363.401C177.823 360.134 181.116 356.866 184.409 356.866C187.702 355.777 190.995 359.044 190.995 363.401Z" fill="white"/>
<path d="M218.437 378.651C218.437 381.918 215.144 385.186 211.851 385.186C208.558 385.186 205.265 381.918 205.265 378.651C205.265 375.383 208.558 372.115 211.851 372.115C215.144 371.026 218.437 374.294 218.437 378.651Z" fill="white"/>
<path d="M251.367 362.312C251.367 365.58 248.074 368.848 244.781 368.848C241.488 368.848 238.195 365.58 238.195 362.312C238.195 359.045 241.488 355.777 244.781 355.777C248.074 355.777 251.367 359.045 251.367 362.312Z" fill="white"/>
<path d="M222.827 345.974C222.827 349.242 219.534 352.509 216.241 352.509C212.948 352.509 209.655 349.242 209.655 345.974C209.655 342.706 212.948 339.439 216.241 339.439C219.534 339.439 222.827 342.706 222.827 345.974Z" fill="white"/>
<path d="M254.658 330.725C254.658 333.992 251.365 337.26 248.072 337.26C244.779 337.26 241.486 333.992 241.486 330.725C241.486 327.457 244.779 324.189 248.072 324.189C251.365 323.1 254.658 326.368 254.658 330.725Z" fill="white"/>
<path d="M283.198 343.795C283.198 347.063 279.905 350.331 276.612 350.331C273.319 350.331 270.026 347.063 270.026 343.795C270.026 340.528 273.319 337.26 276.612 337.26C279.905 337.26 283.198 340.528 283.198 343.795Z" fill="white"/>
<path d="M257.952 298.048C257.952 301.316 254.659 304.583 251.366 304.583C248.073 304.583 244.78 301.316 244.78 298.048C244.78 294.781 248.073 291.513 251.366 291.513C254.659 290.424 257.952 293.691 257.952 298.048Z" fill="white"/>
<path d="M235.998 278.442C235.998 281.71 232.705 284.978 229.412 284.978C226.119 284.978 222.826 281.71 222.826 278.442C222.826 275.175 226.119 271.907 229.412 271.907C233.803 271.907 235.998 275.175 235.998 278.442Z" fill="white"/>
<path d="M212.949 258.836C212.949 262.104 209.656 265.372 206.363 265.372C203.07 265.372 199.777 262.104 199.777 258.836C199.777 255.569 203.07 252.301 206.363 252.301C209.656 252.301 212.949 255.569 212.949 258.836Z" fill="white"/>
<path d="M180.019 274.086C180.019 277.353 176.726 280.621 173.433 280.621C170.14 280.621 166.847 277.353 166.847 274.086C166.847 270.818 170.14 267.55 173.433 267.55C176.726 266.461 180.019 269.729 180.019 274.086Z" fill="white"/>
<path d="M204.167 293.691C204.167 296.959 200.874 300.227 197.581 300.227C194.288 300.227 190.995 296.959 190.995 293.691C190.995 290.424 194.288 287.156 197.581 287.156C200.874 287.156 204.167 289.334 204.167 293.691Z" fill="white"/>
<path d="M227.217 313.298C227.217 316.565 223.924 319.833 220.631 319.833C217.338 319.833 214.045 316.565 214.045 313.298C214.045 310.03 217.338 306.762 220.631 306.762C225.021 306.762 227.217 308.941 227.217 313.298Z" fill="white"/>
<path d="M196.484 328.546C196.484 331.814 193.191 335.082 189.898 335.082C186.605 335.082 183.312 331.814 183.312 328.546C183.312 325.279 186.605 322.011 189.898 322.011C193.191 322.011 196.484 325.279 196.484 328.546Z" fill="white"/>
<path d="M172.333 308.941C172.333 312.208 169.04 315.476 165.747 315.476C162.454 315.476 159.161 312.208 159.161 308.941C159.161 305.673 162.454 302.405 165.747 302.405C170.138 302.405 172.333 305.673 172.333 308.941Z" fill="white"/>
<path d="M149.284 289.334C149.284 292.602 145.991 295.87 142.698 295.87C139.405 295.87 136.112 292.602 136.112 289.334C136.112 286.067 139.405 282.799 142.698 282.799C145.991 282.799 149.284 284.978 149.284 289.334Z" fill="white"/>
<path d="M125.136 268.639C125.136 271.907 121.843 275.175 118.55 275.175C115.257 275.175 111.964 271.907 111.964 268.639C111.964 265.372 115.257 262.104 118.55 262.104C121.843 262.104 125.136 265.372 125.136 268.639Z" fill="white"/>
<path d="M155.868 253.39C155.868 256.658 152.575 259.926 149.282 259.926C145.989 259.926 142.696 256.658 142.696 253.39C142.696 250.123 145.989 246.855 149.282 246.855C152.575 246.855 155.868 250.123 155.868 253.39Z" fill="white"/>
<path d="M129.525 233.784C129.525 237.052 126.232 240.32 122.939 240.32C119.646 240.32 116.353 237.052 116.353 233.784C116.353 230.517 119.646 227.249 122.939 227.249C126.232 227.249 129.525 229.427 129.525 233.784Z" fill="white"/>
<path d="M103.182 214.178C103.182 217.446 99.8894 220.714 96.5964 220.714C93.3034 220.714 90.0104 217.446 90.0104 214.178C90.0104 210.911 93.3034 207.643 96.5964 207.643C99.8894 207.643 103.182 210.911 103.182 214.178Z" fill="white"/>
<path d="M75.7407 195.662C75.7407 198.929 72.4477 202.197 69.1547 202.197C65.8617 202.197 62.5687 198.929 62.5687 195.662C62.5687 192.394 65.8617 189.126 69.1547 189.126C72.4477 189.126 75.7407 191.305 75.7407 195.662Z" fill="white"/>
<path d="M133.915 198.929C133.915 202.197 130.622 205.465 127.329 205.465C124.036 205.465 120.743 202.197 120.743 198.929C120.743 195.662 124.036 192.394 127.329 192.394C130.622 192.394 133.915 195.662 133.915 198.929Z" fill="white"/>
<path d="M161.357 219.625C161.357 222.892 158.064 226.16 154.771 226.16C151.478 226.16 148.185 222.892 148.185 219.625C148.185 216.357 151.478 213.089 154.771 213.089C158.064 212 161.357 215.268 161.357 219.625Z" fill="white"/>
<path d="M187.702 239.23C187.702 242.498 184.409 245.766 181.116 245.766C177.823 245.766 174.53 242.498 174.53 239.23C174.53 235.963 177.823 232.695 181.116 232.695C184.409 232.695 187.702 234.874 187.702 239.23Z" fill="white"/>
<path d="M221.728 227.249C221.728 230.517 218.435 233.784 215.142 233.784C211.849 233.784 208.556 230.517 208.556 227.249C208.556 223.981 211.849 220.714 215.142 220.714C218.435 219.624 221.728 222.892 221.728 227.249Z" fill="white"/>
<path d="M253.562 214.178C253.562 217.446 250.269 220.714 246.976 220.714C243.683 220.714 240.39 217.446 240.39 214.178C240.39 210.911 243.683 207.643 246.976 207.643C250.269 207.643 253.562 210.911 253.562 214.178Z" fill="white"/>
<path d="M286.492 202.197C286.492 205.465 283.199 208.732 279.906 208.732C276.613 208.732 273.32 205.465 273.32 202.197C273.32 198.929 276.613 195.662 279.906 195.662C283.199 194.572 286.492 197.84 286.492 202.197Z" fill="white"/>
<path d="M282.1 237.052C282.1 240.32 278.807 243.587 275.514 243.587C272.221 243.587 268.928 240.32 268.928 237.052C268.928 233.784 272.221 230.517 275.514 230.517C278.807 230.517 282.1 233.784 282.1 237.052Z" fill="white"/>
<path d="M249.17 249.034C249.17 252.301 245.877 255.569 242.584 255.569C239.291 255.569 235.998 252.301 235.998 249.034C235.998 245.766 239.291 242.498 242.584 242.498C245.877 242.498 249.17 245.766 249.17 249.034Z" fill="white"/>
<path d="M278.809 271.907C278.809 275.175 275.516 278.442 272.223 278.442C268.93 278.442 265.637 275.175 265.637 271.907C265.637 268.639 268.93 265.372 272.223 265.372C275.516 265.372 278.809 268.639 278.809 271.907Z" fill="white"/>
<path d="M311.739 290.424C311.739 293.691 308.446 296.959 305.153 296.959C301.86 296.959 298.567 293.691 298.567 290.424C298.567 287.156 301.86 283.888 305.153 283.888C308.446 283.888 311.739 286.067 311.739 290.424Z" fill="white"/>
<path d="M285.393 308.941C285.393 312.208 282.1 315.476 278.807 315.476C275.514 315.476 272.221 312.208 272.221 308.941C272.221 305.673 275.514 302.405 278.807 302.405C282.1 302.405 285.393 305.673 285.393 308.941Z" fill="white"/>
<path d="M312.835 325.279C312.835 328.546 309.542 331.814 306.249 331.814C302.956 331.814 299.663 328.546 299.663 325.279C299.663 322.011 302.956 318.743 306.249 318.743C309.542 317.654 312.835 320.922 312.835 325.279Z" fill="white"/>
<path d="M343.57 307.851C343.57 311.119 340.277 314.387 336.984 314.387C333.691 314.387 330.398 311.119 330.398 307.851C330.398 304.584 333.691 301.316 336.984 301.316C340.277 301.316 343.57 304.584 343.57 307.851Z" fill="white"/>
<path d="M344.669 275.175C344.669 278.442 341.376 281.71 338.083 281.71C334.79 281.71 331.497 278.442 331.497 275.175C331.497 271.907 334.79 268.639 338.083 268.639C341.376 268.639 344.669 271.907 344.669 275.175Z" fill="white"/>
<path d="M343.57 243.587C343.57 246.855 340.277 250.123 336.984 250.123C333.691 250.123 330.398 246.855 330.398 243.587C330.398 240.32 333.691 237.052 336.984 237.052C341.375 235.963 343.57 239.23 343.57 243.587Z" fill="white"/>
<path d="M378.695 258.837C378.695 262.104 375.402 265.372 372.109 265.372C368.816 265.372 365.523 262.104 365.523 258.837C365.523 255.569 368.816 252.301 372.109 252.301C375.402 251.212 378.695 254.48 378.695 258.837Z" fill="white"/>
<path d="M376.5 290.424C376.5 293.692 373.207 296.959 369.914 296.959C366.621 296.959 363.328 293.692 363.328 290.424C363.328 287.156 366.621 283.889 369.914 283.889C374.305 282.799 376.5 286.067 376.5 290.424Z" fill="white"/>
<path d="M411.625 267.55C411.625 270.818 408.332 274.085 405.039 274.085C401.746 274.085 398.453 270.818 398.453 267.55C398.453 264.282 401.746 261.015 405.039 261.015C408.332 259.926 411.625 263.193 411.625 267.55Z" fill="white"/>
<path d="M444.555 246.855C444.555 250.123 441.262 253.39 437.969 253.39C434.676 253.39 431.383 250.123 431.383 246.855C431.383 243.587 434.676 240.32 437.969 240.32C441.262 240.32 444.555 243.587 444.555 246.855Z" fill="white"/>
<path d="M411.625 229.427C411.625 232.695 408.332 235.963 405.039 235.963C401.746 235.963 398.453 232.695 398.453 229.427C398.453 226.16 401.746 222.892 405.039 222.892C408.332 222.892 411.625 226.16 411.625 229.427Z" fill="white"/>
<path d="M418.212 192.394C418.212 195.662 414.919 198.929 411.626 198.929C408.333 198.929 405.04 195.662 405.04 192.394C405.04 189.126 408.333 185.859 411.626 185.859C414.919 184.77 418.212 188.037 418.212 192.394Z" fill="white"/>
<path d="M446.749 212C446.749 215.268 443.456 218.535 440.163 218.535C436.87 218.535 433.578 215.268 433.578 212C433.578 208.732 436.87 205.465 440.163 205.465C443.456 205.465 446.749 207.643 446.749 212Z" fill="white"/>
<path d="M480.778 229.427C480.778 232.695 477.485 235.963 474.192 235.963C470.899 235.963 467.606 232.695 467.606 229.427C467.606 226.16 470.899 222.892 474.192 222.892C477.485 221.803 480.778 225.071 480.778 229.427Z" fill="white"/>
<path d="M517.001 209.822C517.001 213.089 514.806 215.268 511.513 215.268C508.22 215.268 506.024 213.089 506.024 209.822C506.024 206.554 508.22 204.376 511.513 204.376C514.806 204.376 517.001 206.554 517.001 209.822Z" fill="white"/>
<path d="M481.877 195.662C481.877 198.929 478.584 202.197 475.291 202.197C471.998 202.197 468.705 198.929 468.705 195.662C468.705 192.394 471.998 189.126 475.291 189.126C478.584 189.126 481.877 191.305 481.877 195.662Z" fill="white"/>
<path d="M451.142 174.966C451.142 178.234 447.849 181.502 444.556 181.502C441.263 181.502 437.97 178.234 437.97 174.966C437.97 171.699 441.263 168.431 444.556 168.431C448.946 168.431 451.142 170.61 451.142 174.966Z" fill="white"/>
<path d="M419.308 155.361C419.308 158.628 416.015 161.896 412.722 161.896C409.429 161.896 406.136 158.628 406.136 155.361C406.136 152.093 409.429 148.825 412.722 148.825C416.015 148.825 419.308 152.093 419.308 155.361Z" fill="white"/>
<path d="M386.378 167.342C386.378 170.61 383.085 173.877 379.792 173.877C376.499 173.877 373.206 170.61 373.206 167.342C373.206 164.074 376.499 160.807 379.792 160.807C383.085 160.807 386.378 164.074 386.378 167.342Z" fill="white"/>
<path d="M384.183 200.019C384.183 203.286 380.89 206.554 377.597 206.554C374.304 206.554 371.011 203.286 371.011 200.019C371.011 196.751 374.304 193.483 377.597 193.483C380.89 193.483 384.183 195.662 384.183 200.019Z" fill="white"/>
<path d="M375.401 229.427C375.401 232.695 372.108 235.963 368.815 235.963C365.522 235.963 362.229 232.695 362.229 229.427C362.229 226.16 365.522 222.892 368.815 222.892C373.206 221.803 375.401 225.071 375.401 229.427Z" fill="white"/>
<path d="M347.96 209.822C347.96 213.089 344.667 216.357 341.374 216.357C338.081 216.357 334.788 213.089 334.788 209.822C334.788 206.554 338.081 203.286 341.374 203.286C344.667 202.197 347.96 205.465 347.96 209.822Z" fill="white"/>
<path d="M310.64 257.747C310.64 261.015 307.347 264.283 304.054 264.283C300.761 264.283 297.468 261.015 297.468 257.747C297.468 254.48 300.761 251.212 304.054 251.212C308.445 250.123 310.64 253.39 310.64 257.747Z" fill="white"/>
<path d="M313.933 222.892C313.933 226.16 310.64 229.427 307.347 229.427C304.054 229.427 300.761 226.16 300.761 222.892C300.761 219.624 304.054 216.357 307.347 216.357C311.738 216.357 313.933 219.624 313.933 222.892Z" fill="white"/>
<path d="M318.323 189.127C318.323 192.394 315.03 195.662 311.737 195.662C308.444 195.662 305.151 192.394 305.151 189.127C305.151 185.859 308.444 182.591 311.737 182.591C315.03 182.591 318.323 184.77 318.323 189.127Z" fill="white"/>
<path d="M353.448 177.145C353.448 180.413 350.155 183.68 346.862 183.68C343.569 183.68 340.276 180.413 340.276 177.145C340.276 173.877 343.569 170.61 346.862 170.61C350.155 170.61 353.448 173.877 353.448 177.145Z" fill="white"/>
<path d="M354.547 144.468C354.547 147.736 351.254 151.004 347.961 151.004C344.668 151.004 341.375 147.736 341.375 144.468C341.375 141.201 344.668 137.933 347.961 137.933C351.254 136.844 354.547 140.112 354.547 144.468Z" fill="white"/>
<path d="M385.282 134.666C385.282 137.933 381.989 141.201 378.696 141.201C375.403 141.201 372.11 137.933 372.11 134.666C372.11 131.398 375.403 128.13 378.696 128.13C381.989 129.219 385.282 131.398 385.282 134.666Z" fill="white"/>
<path d="M351.253 110.703C351.253 113.97 349.057 116.149 345.764 116.149C342.471 116.149 340.276 113.97 340.276 110.703C340.276 107.435 342.471 105.257 345.764 105.257C349.057 105.257 351.253 107.435 351.253 110.703Z" fill="white"/>
<path d="M324.91 120.506C324.91 123.773 321.617 127.041 318.324 127.041C315.031 127.041 311.738 123.773 311.738 120.506C311.738 117.238 315.031 113.97 318.324 113.97C321.617 113.97 324.91 116.149 324.91 120.506Z" fill="white"/>
<path d="M322.715 155.361C322.715 158.628 319.422 161.896 316.129 161.896C312.836 161.896 309.543 158.628 309.543 155.361C309.543 152.093 312.836 148.825 316.129 148.825C319.422 148.825 322.715 151.004 322.715 155.361Z" fill="white"/>
<path d="M294.175 130.308C294.175 133.576 290.882 136.844 287.589 136.844C284.296 136.844 281.003 133.576 281.003 130.308C281.003 127.041 284.296 123.773 287.589 123.773C290.882 123.773 294.175 127.041 294.175 130.308Z" fill="white"/>
<path d="M306.25 93.275C306.25 96.5427 302.957 99.8104 299.664 99.8104C296.371 99.8104 293.078 96.5427 293.078 93.275C293.078 90.0074 296.371 86.7397 299.664 86.7397C302.957 86.7397 306.25 90.0074 306.25 93.275Z" fill="white"/>
<path d="M274.417 71.4907C274.417 74.7583 271.124 78.026 267.831 78.026C264.538 78.026 261.245 74.7583 261.245 71.4907C261.245 68.223 264.538 64.9554 267.831 64.9554C271.124 64.9554 274.417 68.223 274.417 71.4907Z" fill="white"/>
<path d="M240.39 52.9741C240.39 56.2418 237.097 59.5094 233.804 59.5094C230.511 59.5094 227.219 56.2418 227.219 52.9741C227.219 49.7064 230.511 46.4388 233.804 46.4388C237.097 46.4388 240.39 48.6172 240.39 52.9741Z" fill="white"/>
<path d="M240.39 87.829C240.39 91.0966 237.097 94.3643 233.804 94.3643C230.511 94.3643 227.219 91.0966 227.219 87.829C227.219 84.5613 230.511 81.2936 233.804 81.2936C238.195 80.2044 240.39 83.4721 240.39 87.829Z" fill="white"/>
<path d="M271.123 106.346C271.123 109.613 267.83 112.881 264.537 112.881C261.244 112.881 257.951 109.613 257.951 106.346C257.951 103.078 261.244 99.8105 264.537 99.8105C267.83 99.8105 271.123 103.078 271.123 106.346Z" fill="white"/>
<path d="M263.44 143.379C263.44 146.647 260.147 149.915 256.854 149.915C253.561 149.915 250.268 146.647 250.268 143.379C250.268 140.112 253.561 136.844 256.854 136.844C260.147 136.844 263.44 140.112 263.44 143.379Z" fill="white"/>
<path d="M289.785 166.253C289.785 169.521 286.492 172.788 283.199 172.788C279.906 172.788 276.613 169.521 276.613 166.253C276.613 162.985 279.906 159.718 283.199 159.718C286.492 159.718 289.785 162.985 289.785 166.253Z" fill="white"/>
<path d="M257.952 179.323C257.952 182.591 254.659 185.859 251.366 185.859C248.073 185.859 244.78 182.591 244.78 179.323C244.78 176.056 248.073 172.788 251.366 172.788C254.659 172.788 257.952 176.056 257.952 179.323Z" fill="white"/>
<path d="M226.12 192.394C226.12 195.662 222.827 198.929 219.534 198.929C216.241 198.929 212.948 195.662 212.948 192.394C212.948 189.126 216.241 185.859 219.534 185.859C222.827 185.859 226.12 189.126 226.12 192.394Z" fill="white"/>
<path d="M198.679 171.699C198.679 174.967 195.386 178.234 192.093 178.234C188.8 178.234 185.507 174.967 185.507 171.699C185.507 168.431 188.8 165.164 192.093 165.164C195.386 164.074 198.679 167.342 198.679 171.699Z" fill="white"/>
<path d="M194.287 205.465C194.287 208.732 190.994 212 187.701 212C184.408 212 181.115 208.732 181.115 205.465C181.115 202.197 184.408 198.929 187.701 198.929C190.994 198.929 194.287 202.197 194.287 205.465Z" fill="white"/>
<path d="M166.845 184.769C166.845 188.037 163.552 191.305 160.259 191.305C156.966 191.305 153.673 188.037 153.673 184.769C153.673 181.502 156.966 178.234 160.259 178.234C163.552 178.234 166.845 181.502 166.845 184.769Z" fill="white"/>
<path d="M171.237 152.093C171.237 155.361 167.944 158.628 164.651 158.628C161.358 158.628 158.065 155.361 158.065 152.093C158.065 148.825 161.358 145.558 164.651 145.558C167.944 144.468 171.237 147.736 171.237 152.093Z" fill="white"/>
<path d="M174.531 118.327C174.531 121.595 171.238 124.863 167.945 124.863C164.652 124.863 161.359 121.595 161.359 118.327C161.359 115.06 164.652 111.792 167.945 111.792C171.238 111.792 174.531 113.97 174.531 118.327Z" fill="white"/>
<path d="M203.068 136.844C203.068 140.111 199.775 143.379 196.482 143.379C193.189 143.379 189.896 140.111 189.896 136.844C189.896 133.576 193.189 130.308 196.482 130.308C200.873 130.308 203.068 133.576 203.068 136.844Z" fill="white"/>
<path d="M231.609 157.539C231.609 160.807 228.316 164.074 225.023 164.074C221.73 164.074 218.437 160.807 218.437 157.539C218.437 154.271 221.73 151.004 225.023 151.004C228.316 151.004 231.609 153.182 231.609 157.539Z" fill="white"/>
<path d="M237.097 121.595C237.097 124.862 233.804 128.13 230.511 128.13C227.218 128.13 223.925 124.862 223.925 121.595C223.925 118.327 227.218 115.059 230.511 115.059C233.804 115.059 237.097 118.327 237.097 121.595Z" fill="white"/>
<path d="M207.461 103.078C207.461 106.346 204.168 109.613 200.875 109.613C197.582 109.613 194.289 106.346 194.289 103.078C194.289 99.8103 197.582 96.5426 200.875 96.5426C204.168 96.5426 207.461 99.8103 207.461 103.078Z" fill="white"/>
<path d="M176.725 84.5614C176.725 87.8291 173.432 91.0967 170.139 91.0967C166.846 91.0967 163.553 87.8291 163.553 84.5614C163.553 81.2937 166.846 78.0261 170.139 78.0261C173.432 78.0261 176.725 81.2937 176.725 84.5614Z" fill="white"/>
<path d="M175.627 51.8848C175.627 55.1525 172.334 58.4202 169.041 58.4202C165.748 58.4202 162.455 55.1525 162.455 51.8848C162.455 48.6172 165.748 45.3495 169.041 45.3495C172.334 44.2603 175.627 47.528 175.627 51.8848Z" fill="white"/>
<path d="M208.557 69.3124C208.557 72.5801 205.264 75.8477 201.971 75.8477C198.678 75.8477 195.385 72.5801 195.385 69.3124C195.385 66.0447 198.678 62.7771 201.971 62.7771C205.264 62.7771 208.557 66.0447 208.557 69.3124Z" fill="white"/>
<path d="M207.461 35.5465C207.461 38.8142 204.168 42.0818 200.875 42.0818C197.582 42.0818 194.289 38.8142 194.289 35.5465C194.289 32.2789 197.582 29.0112 200.875 29.0112C204.168 29.0112 207.461 31.1896 207.461 35.5465Z" fill="white"/>
<path d="M175.627 17.0297C175.627 20.2973 172.334 23.565 169.041 23.565C165.748 23.565 162.455 20.2973 162.455 17.0297C162.455 13.762 165.748 10.4944 169.041 10.4944C172.334 10.4944 175.627 13.762 175.627 17.0297Z" fill="white"/>
<path d="M143.796 32.2787C143.796 35.5463 140.503 38.814 137.21 38.814C133.917 38.814 130.624 35.5463 130.624 32.2787C130.624 29.011 133.917 25.7434 137.21 25.7434C140.503 25.7434 143.796 29.011 143.796 32.2787Z" fill="white"/>
<path d="M142.697 -1.48687C142.697 1.78079 139.404 5.04845 136.111 5.04845C132.818 5.04845 129.525 1.78079 129.525 -1.48687C129.525 -4.75452 132.818 -8.02219 136.111 -8.02219C139.404 -8.02219 142.697 -4.75452 142.697 -1.48687Z" fill="white"/>
<path d="M111.962 11.5836C111.962 14.8512 108.669 18.1189 105.376 18.1189C102.083 18.1189 98.7899 15.9405 98.7899 11.5836C98.7899 8.31593 102.083 5.04828 105.376 5.04828C109.767 5.04828 111.962 8.31593 111.962 11.5836Z" fill="white"/>
<path d="M82.3253 27.9219C82.3253 31.1895 79.0324 34.4572 75.7394 34.4572C72.4464 34.4572 69.1534 31.1895 69.1534 27.9219C69.1534 24.6542 72.4464 21.3866 75.7394 21.3866C79.0324 21.3866 82.3253 24.6542 82.3253 27.9219Z" fill="white"/>
</g>
<defs>
<clipPath id="clip0">
<rect width="517" height="586" fill="white" transform="translate(0 -81)"/>
</clipPath>
</defs>
</svg>
