<svg width="528" height="197" viewBox="0 0 528 197" fill="none" xmlns="http://www.w3.org/2000/svg">
<path d="M439.375 93.3158C406.358 93.3158 388.98 76.0351 376.816 63.9386C366.39 53.5702 361.176 50.1141 350.75 50.1141C340.324 50.1141 335.11 53.5702 324.684 63.9386C312.52 76.0351 295.142 93.3158 262.125 93.3158C229.108 93.3158 211.73 76.0351 199.566 63.9386C189.14 53.5702 183.926 50.1141 173.5 50.1141C163.074 50.1141 157.86 53.5702 147.434 63.9386C135.27 76.0351 117.892 93.3158 84.875 93.3158C51.8578 93.3158 34.4804 76.0351 22.3162 63.9386C11.8897 53.5702 6.67646 50.1141 -3.75001 50.1141C-14.1765 50.1141 -19.3897 53.5702 -29.8162 63.9386C-41.9804 76.0351 -59.3579 93.3158 -92.375 93.3158C-125.392 93.3158 -142.77 76.0351 -154.934 63.9386C-165.36 53.5702 -170.574 50.114 -181 50.114L-181 -2.19976e-07C-147.983 1.21143e-06 -130.605 17.2807 -118.441 29.3772C-108.015 39.7456 -102.801 43.2018 -92.375 43.2018C-81.9485 43.2018 -76.7353 39.7456 -66.3088 29.3772C-54.1446 17.2807 -36.7672 6.03301e-06 -3.75001 7.46441e-06C29.2672 8.89582e-06 46.6446 17.2807 58.8088 29.3772C69.2353 39.7456 74.4485 43.2018 84.875 43.2018C95.3015 43.2018 100.515 39.7456 110.941 29.3772C123.105 17.2807 140.483 1.37174e-05 173.5 1.51488e-05C206.517 1.65802e-05 223.895 17.2807 236.059 29.3772C246.485 39.7456 251.699 43.2018 262.125 43.2018C272.551 43.2018 277.765 39.7456 288.191 29.3772C300.355 17.2807 317.733 2.14018e-05 350.75 2.28332e-05C383.767 2.42646e-05 401.145 17.2807 413.309 29.3772C423.735 39.7456 428.949 43.2018 439.375 43.2018C449.801 43.2018 455.015 39.7456 465.441 29.3772C477.605 17.2807 494.983 2.90862e-05 528 3.05176e-05L528 50.1141C517.574 50.1141 512.36 53.5702 501.934 63.9386C489.77 77.7632 472.392 93.3158 439.375 93.3158Z" fill="#E5E515"/>
<path d="M439.375 197C406.358 197 388.98 179.719 376.816 167.623C366.39 157.254 361.176 153.798 350.75 153.798C340.324 153.798 335.11 157.254 324.684 167.623C312.52 179.719 295.142 197 262.125 197C229.108 197 211.73 179.719 199.566 167.623C189.14 157.254 183.926 153.798 173.5 153.798C163.074 153.798 157.86 157.254 147.434 167.623C135.27 179.719 117.892 197 84.875 197C51.8578 197 34.4804 179.719 22.3162 167.623C11.8897 157.254 6.67646 153.798 -3.75001 153.798C-14.1765 153.798 -19.3897 157.254 -29.8162 167.623C-41.9804 179.719 -59.3579 197 -92.375 197C-125.392 197 -142.77 179.719 -154.934 167.623C-165.36 157.254 -170.574 153.798 -181 153.798L-181 103.684C-147.983 103.684 -130.605 120.965 -118.441 133.061C-108.015 143.43 -102.801 146.886 -92.375 146.886C-81.9485 146.886 -76.7353 143.43 -66.3088 133.061C-54.1446 119.237 -36.7672 103.684 -3.75001 103.684C29.2672 103.684 46.6446 120.965 58.8088 133.061C69.2353 143.43 74.4485 146.886 84.875 146.886C95.3015 146.886 100.515 141.702 110.941 131.333C123.105 119.237 140.483 103.684 173.5 103.684C206.517 103.684 223.895 120.965 236.059 133.061C246.485 143.43 251.699 146.886 262.125 146.886C272.551 146.886 277.765 143.43 288.191 133.061C300.355 119.237 317.733 103.684 350.75 103.684C383.767 103.684 401.145 120.965 413.309 133.061C423.735 141.702 428.949 146.886 439.375 146.886C449.801 146.886 455.015 143.43 465.441 133.061C477.605 119.237 494.983 103.684 528 103.684L528 153.798C517.574 153.798 512.36 157.254 501.934 167.623C489.77 179.719 472.392 197 439.375 197Z" fill="#E5E515"/>
</svg>
