<svg width="400" height="205" viewBox="0 0 400 205" fill="none" xmlns="http://www.w3.org/2000/svg">
<g clip-path="url(#clip0)">
<path d="M365.18 200C365.18 197.77 367.727 195.539 370.275 195.539C372.823 195.539 375.371 197.77 375.371 200C375.371 202.231 372.823 204.461 370.275 204.461C366.878 204.461 365.18 202.974 365.18 200Z" fill="#131313"/>
<path d="M343.948 187.361C343.948 185.13 346.496 182.9 349.044 182.9C351.591 182.9 354.139 185.13 354.139 187.361C354.139 189.591 352.441 191.822 349.044 191.822C346.496 191.822 343.948 190.335 343.948 187.361Z" fill="#131313"/>
<path d="M323.566 174.721C323.566 171.747 326.114 169.517 328.662 169.517C331.21 169.517 333.757 171.747 333.757 173.978C333.757 176.208 331.21 178.439 328.662 178.439C326.114 179.182 323.566 176.952 323.566 174.721Z" fill="#131313"/>
<path d="M326.115 150.186C326.115 147.955 328.662 145.725 331.21 145.725C333.758 145.725 336.306 147.955 336.306 150.186C336.306 152.416 333.758 154.647 331.21 154.647C328.662 155.39 326.115 153.16 326.115 150.186Z" fill="#131313"/>
<path d="M346.496 163.569C346.496 161.338 349.044 159.108 351.591 159.108C354.139 159.108 356.687 161.338 356.687 163.569C356.687 165.799 354.139 168.03 351.591 168.03C349.044 168.03 346.496 165.799 346.496 163.569Z" fill="#131313"/>
<path d="M366.877 176.208C366.877 173.978 369.425 171.747 371.973 171.747C374.521 171.747 377.068 173.978 377.068 176.208C377.068 178.439 374.521 180.669 371.973 180.669C369.425 180.669 366.877 178.439 366.877 176.208Z" fill="#131313"/>
<path d="M387.261 188.848C387.261 186.617 389.808 184.387 392.356 184.387C394.904 184.387 397.452 186.617 397.452 188.848C397.452 191.078 394.904 193.309 392.356 193.309C389.808 193.309 387.261 191.078 387.261 188.848Z" fill="#131313"/>
<path d="M388.959 163.569C388.959 161.338 391.507 159.108 394.054 159.108C396.602 159.108 399.15 161.338 399.15 163.569C399.15 165.799 396.602 168.03 394.054 168.03C391.507 168.03 388.959 165.799 388.959 163.569Z" fill="#131313"/>
<path d="M369.426 151.673C369.426 149.442 371.973 147.212 374.521 147.212C377.069 147.212 379.617 149.442 379.617 151.673C379.617 153.903 377.069 156.134 374.521 156.134C371.973 156.134 369.426 153.903 369.426 151.673Z" fill="#131313"/>
<path d="M388.959 136.06C388.959 133.829 391.507 131.599 394.054 131.599C396.602 131.599 399.15 133.829 399.15 136.06C399.15 138.29 396.602 140.521 394.054 140.521C391.507 141.264 388.959 139.034 388.959 136.06Z" fill="#131313"/>
<path d="M370.276 127.138C370.276 124.907 372.823 122.677 375.371 122.677C377.919 122.677 380.467 124.907 380.467 127.138C380.467 129.368 377.919 131.599 375.371 131.599C372.823 132.342 370.276 130.112 370.276 127.138Z" fill="#131313"/>
<path d="M384.713 108.55C384.713 106.32 387.26 104.089 389.808 104.089C392.356 104.089 394.904 106.32 394.904 108.55C394.904 110.781 392.356 113.011 389.808 113.011C387.26 113.011 384.713 110.781 384.713 108.55Z" fill="#131313"/>
<path d="M363.481 92.9368C363.481 90.7063 366.029 88.4758 368.577 88.4758C371.125 88.4758 373.672 90.7063 373.672 92.9368C373.672 95.1673 371.125 97.3977 368.577 97.3977C366.029 97.3977 363.481 95.1673 363.481 92.9368Z" fill="#131313"/>
<path d="M386.411 81.7843C386.411 79.5539 388.959 77.3234 391.507 77.3234C394.054 77.3234 396.602 79.5539 396.602 81.7843C396.602 84.0148 394.054 86.2453 391.507 86.2453C388.959 86.2453 386.411 84.7583 386.411 81.7843Z" fill="#131313"/>
<path d="M366.029 68.4015C366.029 66.1711 368.576 63.9406 371.124 63.9406C373.672 63.9406 376.22 66.1711 376.22 68.4015C377.069 70.632 374.521 72.8625 371.973 72.8625C368.576 72.8625 366.029 70.632 366.029 68.4015Z" fill="#131313"/>
<path d="M386.411 54.2752C386.411 52.0447 388.959 49.8143 391.507 49.8143C394.054 49.8143 396.602 52.0447 396.602 54.2752C396.602 56.5057 394.054 58.7362 391.507 58.7362C388.959 58.7362 386.411 56.5057 386.411 54.2752Z" fill="#131313"/>
<path d="M386.411 28.9964C386.411 26.7659 388.959 24.5355 391.507 24.5355C394.054 24.5355 396.602 26.7659 396.602 28.9964C396.602 31.2269 394.054 33.4574 391.507 33.4574C388.109 33.4574 386.411 31.2269 386.411 28.9964Z" fill="#131313"/>
<path d="M388.959 4.46095C388.959 2.23047 391.507 -6.682e-07 394.054 -4.45466e-07C396.602 -2.22733e-07 399.15 2.23047 399.15 4.46095C399.15 6.69144 396.602 8.92194 394.054 8.92194C391.507 8.92194 388.959 6.69144 388.959 4.46095Z" fill="#131313"/>
<path d="M360.933 20.818C360.933 18.5875 363.481 16.357 366.028 16.357C368.576 16.357 371.124 18.5875 371.124 20.818C371.124 23.0485 368.576 25.2789 366.028 25.2789C362.631 25.2789 360.933 23.0485 360.933 20.818Z" fill="#131313"/>
<path d="M363.481 42.3793C363.481 40.1488 366.029 37.9183 368.577 37.9183C371.125 37.9183 373.672 40.1488 373.672 42.3793C373.672 44.6097 371.125 46.8402 368.577 46.8402C366.029 46.8402 363.481 45.3532 363.481 42.3793Z" fill="#131313"/>
<path d="M334.607 35.6879C334.607 33.4574 337.155 31.2269 339.703 31.2269C342.251 31.2269 344.798 33.4574 344.798 35.6879C344.798 37.9183 342.251 40.1488 339.703 40.1488C337.155 40.1488 334.607 38.6618 334.607 35.6879Z" fill="#131313"/>
<path d="M345.646 55.7621C345.646 53.5316 348.194 51.3011 350.741 51.3011C353.289 51.3011 355.837 53.5316 355.837 55.7621C355.837 57.9925 353.289 60.223 350.741 60.223C347.344 60.223 345.646 57.9925 345.646 55.7621Z" fill="#131313"/>
<path d="M322.717 62.4536C322.717 60.2231 325.264 57.9927 327.812 57.9927C330.36 57.9927 332.908 60.2231 332.908 62.4536C332.908 64.6841 330.36 66.9146 327.812 66.9146C325.264 67.6581 322.717 65.4276 322.717 62.4536Z" fill="#131313"/>
<path d="M306.581 47.5838C306.581 45.3533 309.129 43.1228 311.677 43.1228C314.225 43.1228 316.772 45.3533 316.772 47.5838C316.772 49.8143 314.225 52.0448 311.677 52.0448C309.129 52.0448 306.581 49.8143 306.581 47.5838Z" fill="#131313"/>
<path d="M279.406 59.4795C279.406 57.2491 281.953 55.0186 284.501 55.0186C287.049 55.0186 289.597 57.2491 289.597 59.4795C289.597 61.71 287.049 63.9405 284.501 63.9405C281.953 63.9405 279.406 61.71 279.406 59.4795Z" fill="#131313"/>
<path d="M298.937 72.119C298.937 69.8885 301.485 67.658 304.032 67.658C306.58 67.658 309.128 69.8885 309.128 72.119C309.128 74.3495 306.58 76.58 304.032 76.58C301.485 76.58 298.937 74.3495 298.937 72.119Z" fill="#131313"/>
<path d="M343.1 78.8104C343.1 76.5799 345.648 74.3494 348.195 74.3494C350.743 74.3494 353.291 76.5799 353.291 78.8104C353.291 81.0409 350.743 83.2714 348.195 83.2714C345.648 83.2714 343.1 81.0409 343.1 78.8104Z" fill="#131313"/>
<path d="M317.622 86.2453C317.622 84.0149 320.17 81.7844 322.717 81.7844C325.265 81.7844 327.813 84.0149 327.813 86.2453C327.813 88.4758 325.265 90.7063 322.717 90.7063C320.17 91.4498 317.622 89.2193 317.622 86.2453Z" fill="#131313"/>
<path d="M312.526 111.524C312.526 109.294 315.073 107.063 317.621 107.063C320.169 107.063 322.717 109.294 322.717 111.524C322.717 113.755 320.169 115.985 317.621 115.985C315.073 115.985 312.526 113.755 312.526 111.524Z" fill="#131313"/>
<path d="M336.306 101.115C336.306 98.8848 338.853 96.6543 341.401 96.6543C343.949 96.6543 346.497 98.8848 346.497 101.115C346.497 103.346 343.949 105.576 341.401 105.576C338.853 105.576 336.306 103.346 336.306 101.115Z" fill="#131313"/>
<path d="M354.989 113.755C354.989 111.524 357.536 109.294 360.084 109.294C362.632 109.294 365.18 111.524 365.18 113.755C365.18 115.985 362.632 118.216 360.084 118.216C357.536 118.216 354.989 116.729 354.989 113.755Z" fill="#131313"/>
<path d="M349.044 139.777C349.044 137.547 351.592 135.316 354.14 135.316C356.688 135.316 359.235 137.547 359.235 139.777C359.235 142.008 356.688 144.238 354.14 144.238C351.592 144.238 349.044 142.008 349.044 139.777Z" fill="#131313"/>
<path d="M331.209 124.907C331.209 122.677 333.757 120.446 336.304 120.446C338.852 120.446 341.4 122.677 341.4 124.907C341.4 127.138 338.852 129.368 336.304 129.368C333.757 130.112 331.209 127.881 331.209 124.907Z" fill="#131313"/>
<path d="M308.28 136.06C308.28 133.829 310.827 131.599 313.375 131.599C315.923 131.599 318.471 133.829 318.471 136.06C318.471 138.29 315.923 140.521 313.375 140.521C310.827 141.264 308.28 139.034 308.28 136.06Z" fill="#131313"/>
<path d="M289.596 122.677C289.596 120.446 292.144 118.216 294.692 118.216C297.239 118.216 299.787 120.446 299.787 122.677C299.787 124.907 297.239 127.138 294.692 127.138C292.144 127.138 289.596 124.907 289.596 122.677Z" fill="#131313"/>
<path d="M271.761 108.55C271.761 106.32 274.309 104.089 276.857 104.089C279.404 104.089 281.952 106.32 281.952 108.55C281.952 110.781 279.404 113.011 276.857 113.011C274.309 113.755 271.761 111.524 271.761 108.55Z" fill="#131313"/>
<path d="M294.691 97.3978C294.691 95.1673 297.239 92.9368 299.786 92.9368C302.334 92.9368 304.882 95.1673 304.882 97.3978C304.882 99.6282 302.334 101.859 299.786 101.859C297.239 101.859 294.691 99.6282 294.691 97.3978Z" fill="#131313"/>
<path d="M276.007 84.015C276.007 81.7845 278.555 79.554 281.103 79.554C283.65 79.554 286.198 81.7845 286.198 84.015C286.198 86.2455 283.65 88.4759 281.103 88.4759C278.555 88.4759 276.007 86.9889 276.007 84.015Z" fill="#131313"/>
<path d="M254.776 73.6061C254.776 71.3756 257.323 69.1451 259.871 69.1451C262.419 69.1451 264.967 71.3756 264.967 73.6061C264.967 75.8365 262.419 78.067 259.871 78.067C257.323 78.067 254.776 76.58 254.776 73.6061Z" fill="#131313"/>
<path d="M252.228 96.6545C252.228 94.424 254.776 92.1935 257.323 92.1935C259.871 92.1935 262.419 94.424 262.419 96.6545C262.419 98.8849 259.871 101.115 257.323 101.115C254.776 101.859 252.228 99.6284 252.228 96.6545Z" fill="#131313"/>
<path d="M230.996 86.2453C230.996 84.0149 233.544 81.7844 236.092 81.7844C238.64 81.7844 241.188 84.0149 241.188 86.2453C241.188 88.4758 238.64 90.7063 236.092 90.7063C233.544 91.4498 230.996 89.2193 230.996 86.2453Z" fill="#131313"/>
<path d="M205.518 97.3977C205.518 95.1673 208.066 92.9368 210.614 92.9368C213.162 92.9368 215.709 95.1673 215.709 97.3977C215.709 99.6282 213.162 101.859 210.614 101.859C208.066 101.859 205.518 99.6282 205.518 97.3977Z" fill="#131313"/>
<path d="M227.6 108.55C227.6 106.32 230.148 104.089 232.695 104.089C235.243 104.089 237.791 106.32 237.791 108.55C237.791 110.781 235.243 113.011 232.695 113.011C230.148 113.011 227.6 110.781 227.6 108.55Z" fill="#131313"/>
<path d="M202.972 118.959C202.972 116.729 205.52 114.498 208.068 114.498C210.616 114.498 213.164 116.729 213.164 118.959C213.164 121.19 210.616 123.42 208.068 123.42C205.52 124.164 202.972 121.933 202.972 118.959Z" fill="#131313"/>
<path d="M180.891 110.037C180.891 107.807 183.439 105.576 185.986 105.576C188.534 105.576 191.082 107.807 191.082 110.037C191.082 112.268 188.534 114.498 185.986 114.498C183.439 114.498 180.891 112.268 180.891 110.037Z" fill="#131313"/>
<path d="M200.424 141.264C200.424 139.034 202.972 136.803 205.52 136.803C208.067 136.803 210.615 139.034 210.615 141.264C210.615 143.495 208.067 145.725 205.52 145.725C202.972 146.469 200.424 144.238 200.424 141.264Z" fill="#131313"/>
<path d="M217.409 154.647C217.409 152.416 219.957 150.186 222.505 150.186C225.053 150.186 227.601 152.416 227.601 154.647C227.601 156.877 225.053 159.108 222.505 159.108C219.108 159.108 217.409 156.877 217.409 154.647Z" fill="#131313"/>
<path d="M235.243 168.03C235.243 165.799 237.79 163.569 240.338 163.569C242.886 163.569 245.434 165.799 245.434 168.03C245.434 170.26 242.886 172.491 240.338 172.491C237.79 172.491 235.243 170.26 235.243 168.03Z" fill="#131313"/>
<path d="M260.721 157.621C260.721 155.39 263.268 153.16 265.816 153.16C268.364 153.16 270.912 155.39 270.912 157.621C270.912 159.851 268.364 162.082 265.816 162.082C263.268 162.825 260.721 160.595 260.721 157.621Z" fill="#131313"/>
<path d="M242.037 144.238C242.037 142.008 244.585 139.777 247.132 139.777C249.68 139.777 252.228 142.008 252.228 144.238C252.228 146.469 249.68 148.699 247.132 148.699C244.585 148.699 242.037 147.212 242.037 144.238Z" fill="#131313"/>
<path d="M224.204 130.855C224.204 128.625 226.752 126.394 229.299 126.394C231.847 126.394 234.395 128.625 234.395 130.855C234.395 133.086 231.847 135.316 229.299 135.316C225.902 135.316 224.204 133.829 224.204 130.855Z" fill="#131313"/>
<path d="M247.981 120.446C247.981 118.216 250.529 115.985 253.077 115.985C255.625 115.985 258.172 118.216 258.172 120.446C258.172 122.677 255.625 124.907 253.077 124.907C250.529 124.907 247.981 122.677 247.981 120.446Z" fill="#131313"/>
<path d="M266.666 133.829C266.666 131.598 269.214 129.368 271.762 129.368C274.31 129.368 276.857 131.598 276.857 133.829C276.857 136.059 274.31 138.29 271.762 138.29C268.365 138.29 266.666 136.059 266.666 133.829Z" fill="#131313"/>
<path d="M284.5 147.212C284.5 144.982 287.048 142.751 289.595 142.751C292.143 142.751 294.691 144.982 294.691 147.212C294.691 149.443 292.143 151.673 289.595 151.673C287.048 151.673 284.5 150.186 284.5 147.212Z" fill="#131313"/>
<path d="M303.183 161.338C303.183 159.108 305.731 156.877 308.278 156.877C310.826 156.877 313.374 159.108 313.374 161.338C313.374 163.569 310.826 165.799 308.278 165.799C305.731 165.799 303.183 163.569 303.183 161.338Z" fill="#131313"/>
<path d="M279.406 171.747C279.406 169.517 281.953 167.286 284.501 167.286C287.049 167.286 289.597 169.517 289.597 171.747C289.597 173.978 287.049 176.208 284.501 176.208C281.953 176.208 279.406 173.978 279.406 171.747Z" fill="#131313"/>
<path d="M299.787 185.13C299.787 182.9 302.335 180.669 304.882 180.669C307.43 180.669 309.978 182.9 309.978 185.13C309.978 187.361 307.43 189.591 304.882 189.591C302.335 189.591 299.787 188.104 299.787 185.13Z" fill="#131313"/>
<path d="M320.168 198.513C320.168 196.283 322.716 194.052 325.264 194.052C327.812 194.052 330.359 196.283 330.359 198.513C330.359 200.744 327.812 202.974 325.264 202.974C322.716 202.974 320.168 200.744 320.168 198.513Z" fill="#131313"/>
<path d="M296.39 208.922C296.39 206.691 298.938 204.461 301.486 204.461C304.034 204.461 306.582 206.691 306.582 208.922C306.582 211.152 304.034 213.383 301.486 213.383C298.938 213.383 296.39 211.152 296.39 208.922Z" fill="#131313"/>
<path d="M275.159 194.796C275.159 192.565 277.707 190.335 280.255 190.335C282.802 190.335 285.35 192.565 285.35 194.796C285.35 197.026 282.802 199.257 280.255 199.257C277.707 200 275.159 197.77 275.159 194.796Z" fill="#131313"/>
<path d="M254.776 181.413C254.776 179.182 257.323 176.952 259.871 176.952C262.419 176.952 264.967 179.182 264.967 181.413C264.967 183.643 262.419 185.874 259.871 185.874C257.323 185.874 254.776 184.387 254.776 181.413Z" fill="#131313"/>
<path d="M228.45 189.591C228.45 187.361 230.998 185.13 233.546 185.13C236.093 185.13 238.641 187.361 238.641 189.591C238.641 191.822 236.093 194.052 233.546 194.052C230.998 194.796 228.45 192.565 228.45 189.591Z" fill="#131313"/>
<path d="M203.821 198.513C203.821 196.283 206.368 194.052 208.916 194.052C211.464 194.052 214.012 196.283 214.012 198.513C214.012 200.744 211.464 202.974 208.916 202.974C206.368 202.974 203.821 200.744 203.821 198.513Z" fill="#131313"/>
<path d="M178.343 206.691C178.343 204.461 180.89 202.231 183.438 202.231C185.986 202.231 188.534 204.461 188.534 206.691C188.534 208.922 185.986 211.152 183.438 211.152C180.89 211.896 178.343 209.665 178.343 206.691Z" fill="#131313"/>
<path d="M181.741 182.9C181.741 180.669 184.289 178.439 186.837 178.439C189.384 178.439 191.932 180.669 191.932 182.9C191.932 185.13 189.384 187.361 186.837 187.361C184.289 187.361 181.741 185.13 181.741 182.9Z" fill="#131313"/>
<path d="M207.219 174.721C207.219 172.491 209.766 170.26 212.314 170.26C214.862 170.26 217.41 172.491 217.41 174.721C217.41 176.952 214.862 179.182 212.314 179.182C209.766 179.182 207.219 176.952 207.219 174.721Z" fill="#131313"/>
<path d="M184.287 159.108C184.287 156.877 186.835 154.647 189.383 154.647C191.93 154.647 194.478 156.877 194.478 159.108C194.478 161.338 191.93 163.569 189.383 163.569C186.835 163.569 184.287 161.338 184.287 159.108Z" fill="#131313"/>
<path d="M158.809 146.468C158.809 144.238 161.357 142.007 163.905 142.007C166.453 142.007 169 144.238 169 146.468C169 148.699 166.453 150.929 163.905 150.929C161.357 150.929 158.809 149.442 158.809 146.468Z" fill="#131313"/>
<path d="M179.193 133.829C179.193 131.598 181.74 129.368 184.288 129.368C186.836 129.368 189.384 131.598 189.384 133.829C189.384 136.059 186.836 138.29 184.288 138.29C181.74 138.29 179.193 136.059 179.193 133.829Z" fill="#131313"/>
<path d="M157.961 122.677C157.961 120.446 160.509 118.216 163.057 118.216C165.605 118.216 168.152 120.446 168.152 122.677C168.152 124.907 165.605 127.138 163.057 127.138C160.509 127.881 157.961 125.651 157.961 122.677Z" fill="#131313"/>
<path d="M134.182 134.572C134.182 132.342 136.73 130.112 139.278 130.112C141.825 130.112 144.373 132.342 144.373 134.572C144.373 136.803 141.825 139.033 139.278 139.033C136.73 139.033 134.182 136.803 134.182 134.572Z" fill="#131313"/>
<path d="M133.332 156.877C133.332 154.647 135.88 152.416 138.427 152.416C140.975 152.416 143.523 154.647 143.523 156.877C143.523 159.108 140.975 161.338 138.427 161.338C135.88 161.338 133.332 159.108 133.332 156.877Z" fill="#131313"/>
<path d="M134.182 178.439C134.182 176.208 136.73 173.978 139.278 173.978C141.825 173.978 144.373 176.208 144.373 178.439C144.373 180.669 141.825 182.9 139.278 182.9C135.88 183.643 134.182 181.413 134.182 178.439Z" fill="#131313"/>
<path d="M107.006 168.03C107.006 165.799 109.553 163.569 112.101 163.569C114.649 163.569 117.197 165.799 117.197 168.03C117.197 170.26 114.649 172.491 112.101 172.491C109.553 173.234 107.006 171.004 107.006 168.03Z" fill="#131313"/>
<path d="M108.704 146.468C108.704 144.238 111.252 142.007 113.799 142.007C116.347 142.007 118.895 144.238 118.895 146.468C118.895 148.699 116.347 150.929 113.799 150.929C110.402 151.673 108.704 149.442 108.704 146.468Z" fill="#131313"/>
<path d="M81.5281 162.082C81.5281 159.851 84.0759 157.621 86.6237 157.621C89.1714 157.621 91.7192 159.851 91.7192 162.082C91.7192 164.312 89.1714 166.543 86.6237 166.543C84.0759 167.286 81.5281 165.056 81.5281 162.082Z" fill="#131313"/>
<path d="M56.0506 176.208C56.0506 173.978 58.5984 171.747 61.1461 171.747C63.6939 171.747 66.2417 173.978 66.2417 176.208C66.2417 178.439 63.6939 180.669 61.1461 180.669C58.5984 180.669 56.0506 178.439 56.0506 176.208Z" fill="#131313"/>
<path d="M81.5281 188.104C81.5281 185.874 84.0759 183.643 86.6237 183.643C89.1714 183.643 91.7192 185.874 91.7192 188.104C91.7192 190.335 89.1714 192.565 86.6237 192.565C84.0759 192.565 81.5281 190.335 81.5281 188.104Z" fill="#131313"/>
<path d="M54.3524 200C54.3524 197.77 56.9002 195.539 59.4479 195.539C61.9957 195.539 64.5435 197.77 64.5435 200C64.5435 202.231 61.9957 204.461 59.4479 204.461C56.9002 204.461 54.3524 202.974 54.3524 200Z" fill="#131313"/>
<path d="M28.0248 188.104C28.0248 185.874 30.5725 183.643 33.1203 183.643C35.668 183.643 38.2158 185.874 38.2158 188.104C38.2158 190.335 35.668 192.565 33.1203 192.565C30.5725 193.309 28.0247 191.078 28.0248 188.104Z" fill="#131313"/>
<path d="M-0.000884685 201.487C-0.00088449 199.256 1.69763 197.769 4.24541 197.769C6.79318 197.769 8.4917 199.256 8.4917 201.487C8.4917 203.717 6.79318 205.204 4.24541 205.204C1.69763 205.204 -0.00088488 203.717 -0.000884685 201.487Z" fill="#131313"/>
<path d="M102.76 208.178C102.76 205.948 105.307 203.717 107.855 203.717C110.403 203.717 112.951 205.948 112.951 208.178C112.951 210.409 110.403 212.639 107.855 212.639C105.307 212.639 102.76 211.152 102.76 208.178Z" fill="#131313"/>
<path d="M109.554 188.104C109.554 185.874 112.102 183.643 114.65 183.643C117.197 183.643 119.745 185.874 119.745 188.104C119.745 190.335 117.197 192.565 114.65 192.565C111.253 193.309 109.554 191.078 109.554 188.104Z" fill="#131313"/>
<path d="M130.785 201.487C130.785 199.256 133.333 197.026 135.881 197.026C138.429 197.026 140.977 199.256 140.977 201.487C140.977 203.717 138.429 205.948 135.881 205.948C133.333 206.691 130.785 204.461 130.785 201.487Z" fill="#131313"/>
<path d="M159.66 168.773C159.66 166.543 162.207 164.312 164.755 164.312C167.303 164.312 169.851 166.543 169.851 168.773C169.851 171.004 167.303 173.234 164.755 173.234C161.358 173.978 159.66 171.747 159.66 168.773Z" fill="#131313"/>
<path d="M157.111 192.565C157.111 190.335 159.659 188.104 162.207 188.104C164.754 188.104 167.302 190.335 167.302 192.565C167.302 194.796 164.754 197.026 162.207 197.026C158.81 197.026 157.111 194.796 157.111 192.565Z" fill="#131313"/>
<path d="M249.681 204.461C249.681 202.23 252.229 200 254.777 200C257.325 200 259.873 202.23 259.873 204.461C259.873 206.691 257.325 208.922 254.777 208.922C252.229 208.922 249.681 206.691 249.681 204.461Z" fill="#131313"/>
</g>
<defs>
<clipPath id="clip0">
<rect width="400" height="400" fill="white" transform="translate(400 400) rotate(-180)"/>
</clipPath>
</defs>
</svg>
