<svg width="1180" height="159" viewBox="0 0 1180 159" fill="none" xmlns="http://www.w3.org/2000/svg">
<path d="M1028.25 159C971.716 159 941.961 129.702 921.132 109.193C903.279 91.6141 894.353 85.7545 876.5 85.7545C858.647 85.7545 849.721 91.6141 831.868 109.193C811.039 129.702 781.284 159 724.75 159C668.216 159 638.461 129.702 617.632 109.193C599.779 91.6141 590.853 85.7544 573 85.7544C555.147 85.7544 546.221 91.6141 528.368 109.193C507.539 129.702 477.784 159 421.25 159C364.716 159 334.961 129.702 314.132 109.193C296.279 91.6141 287.353 85.7544 269.5 85.7544C251.647 85.7544 242.721 91.6141 224.868 109.193C204.039 129.702 174.284 159 117.75 159C61.2157 159 31.4608 129.702 10.6324 109.193C-7.22057 91.6141 -16.147 85.7544 -34 85.7544L-34 0.789498C22.5343 0.789501 52.2892 30.0877 73.1176 50.5965C90.9706 68.1755 99.897 74.0351 117.75 74.0351C135.603 74.0351 144.529 68.1755 162.382 50.5965C183.211 27.1579 212.966 0.789509 269.5 0.789511C326.034 0.789514 355.789 30.0878 376.618 50.5965C394.471 68.1755 403.397 74.0351 421.25 74.0351C439.103 74.0351 448.029 65.2457 465.882 47.6667C486.711 27.1579 516.466 0.789522 573 0.789524C629.534 0.789527 659.289 30.0878 680.118 50.5965C697.971 68.1755 706.897 74.0352 724.75 74.0352C742.603 74.0352 751.529 68.1755 769.382 50.5966C790.211 27.158 819.966 0.789535 876.5 0.789538C933.034 0.78954 962.789 30.0878 983.618 50.5966C1001.47 65.2457 1010.4 74.0352 1028.25 74.0352C1046.1 74.0352 1055.03 68.1755 1072.88 50.5966C1093.71 27.158 1123.47 0.789548 1180 0.789551L1180 85.7545C1162.15 85.7545 1153.22 91.6141 1135.37 109.193C1114.54 129.702 1084.78 159 1028.25 159Z" fill="#E5E515"/>
</svg>
