<svg width="166" height="166" viewBox="0 0 166 166" fill="none" xmlns="http://www.w3.org/2000/svg">
<path d="M16.6281 60.035C16.6281 58.7731 15.6186 57.7637 14.3568 57.7637C13.0949 57.7637 12.0854 58.7731 12.0854 60.035C12.0854 61.2968 13.0949 62.3062 14.3568 62.3062C15.6186 62.3062 16.6281 61.2968 16.6281 60.035Z" fill="#131313"/>
<path d="M35.0508 60.0345C35.0508 61.2963 36.0602 62.3058 37.3221 62.3058C38.5839 62.3058 39.5934 61.2963 39.5934 60.0345C39.5934 58.7726 38.5839 57.7632 37.3221 57.7632C36.0602 57.7632 35.0508 58.7726 35.0508 60.0345Z" fill="#131313"/>
<path d="M57.7637 60.0345C57.7637 61.2963 58.7731 62.3058 60.035 62.3058C61.2968 62.3058 62.3063 61.2963 62.3063 60.0345C62.3063 58.7726 61.2968 57.7632 60.035 57.7632C58.7731 57.7632 57.7637 58.7726 57.7637 60.0345Z" fill="#131313"/>
<path d="M80.7285 60.0345C80.7285 61.2963 81.738 62.3058 82.9998 62.3058C84.2617 62.3058 85.2711 61.2963 85.2711 60.0345C85.2711 58.7726 84.2617 57.7632 82.9998 57.7632C81.738 57.7632 80.7285 58.7726 80.7285 60.0345Z" fill="#131313"/>
<path d="M103.442 60.0345C103.442 61.2963 104.451 62.3058 105.713 62.3058C106.975 62.3058 107.984 61.2963 107.984 60.0345C107.984 58.7726 106.975 57.7632 105.713 57.7632C104.451 57.7632 103.442 58.7726 103.442 60.0345Z" fill="#131313"/>
<path d="M12.0854 82.9998C12.0854 84.2616 13.0949 85.2711 14.3568 85.2711C15.6186 85.2711 16.6281 84.2616 16.6281 82.9998C16.6281 81.738 15.6186 80.7285 14.3568 80.7285C13.0949 80.7285 12.0854 81.738 12.0854 82.9998Z" fill="#131313"/>
<path d="M35.0508 82.9998C35.0508 84.2616 36.0602 85.2711 37.3221 85.2711C38.5839 85.2711 39.5934 84.2616 39.5934 82.9998C39.5934 81.738 38.5839 80.7285 37.3221 80.7285C36.0602 80.7285 35.0508 81.738 35.0508 82.9998Z" fill="#131313"/>
<path d="M60.035 85.2711C61.2894 85.2711 62.3063 84.2542 62.3063 82.9998C62.3063 81.7454 61.2894 80.7285 60.035 80.7285C58.7806 80.7285 57.7637 81.7454 57.7637 82.9998C57.7637 84.2542 58.7806 85.2711 60.035 85.2711Z" fill="#131313"/>
<path d="M80.7285 82.9998C80.7285 84.2616 81.738 85.2711 82.9998 85.2711C84.2617 85.2711 85.2711 84.2616 85.2711 82.9998C85.2711 81.738 84.2617 80.7285 82.9998 80.7285C81.738 80.7285 80.7285 81.738 80.7285 82.9998Z" fill="#131313"/>
<path d="M103.442 82.9998C103.442 84.2616 104.451 85.2711 105.713 85.2711C106.975 85.2711 107.984 84.2616 107.984 82.9998C107.984 81.738 106.975 80.7285 105.713 80.7285C104.451 80.7285 103.442 81.738 103.442 82.9998Z" fill="#131313"/>
<path d="M12.0854 105.713C12.0854 106.975 13.0949 107.984 14.3568 107.984C15.6186 107.984 16.6281 106.975 16.6281 105.713C16.6281 104.451 15.6186 103.441 14.3568 103.441C13.0949 103.441 12.0854 104.451 12.0854 105.713Z" fill="#131313"/>
<path d="M35.0508 105.713C35.0508 106.975 36.0602 107.984 37.3221 107.984C38.5839 107.984 39.5934 106.975 39.5934 105.713C39.5934 104.451 38.5839 103.441 37.3221 103.441C36.0602 103.441 35.0508 104.451 35.0508 105.713Z" fill="#131313"/>
<path d="M57.7637 105.713C57.7637 106.975 58.7731 107.984 60.035 107.984C61.2968 107.984 62.3063 106.975 62.3063 105.713C62.3063 104.451 61.2968 103.441 60.035 103.441C58.7731 103.441 57.7637 104.451 57.7637 105.713Z" fill="#131313"/>
<path d="M80.7285 105.713C80.7285 106.975 81.738 107.984 82.9998 107.984C84.2617 107.984 85.2711 106.975 85.2711 105.713C85.2711 104.451 84.2617 103.441 82.9998 103.441C81.738 103.441 80.7285 104.451 80.7285 105.713Z" fill="#131313"/>
<path d="M103.442 105.713C103.442 106.975 104.451 107.984 105.713 107.984C106.975 107.984 107.984 106.975 107.984 105.713C107.984 104.451 106.975 103.441 105.713 103.441C104.451 103.441 103.442 104.451 103.442 105.713Z" fill="#131313"/>
<path d="M12.0854 128.678C12.0854 129.94 13.0949 130.949 14.3568 130.949C15.6186 130.949 16.6281 129.94 16.6281 128.678C16.6281 127.416 15.6186 126.407 14.3568 126.407C13.0949 126.407 12.0854 127.416 12.0854 128.678Z" fill="#131313"/>
<path d="M35.0508 128.678C35.0508 129.94 36.0602 130.949 37.3221 130.949C38.5839 130.949 39.5934 129.94 39.5934 128.678C39.5934 127.416 38.5839 126.407 37.3221 126.407C36.0602 126.407 35.0508 127.416 35.0508 128.678Z" fill="#131313"/>
<path d="M57.7637 128.678C57.7637 129.94 58.7731 130.949 60.035 130.949C61.2968 130.949 62.3063 129.94 62.3063 128.678C62.3063 127.416 61.2968 126.407 60.035 126.407C58.7731 126.407 57.7637 127.416 57.7637 128.678Z" fill="#131313"/>
<path d="M80.7285 128.678C80.7285 129.94 81.738 130.949 82.9998 130.949C84.2617 130.949 85.2711 129.94 85.2711 128.678C85.2711 127.416 84.2617 126.407 82.9998 126.407C81.738 126.407 80.7285 127.416 80.7285 128.678Z" fill="#131313"/>
<path d="M103.442 128.678C103.442 129.94 104.451 130.949 105.713 130.949C106.975 130.949 107.984 129.94 107.984 128.678C107.984 127.416 106.975 126.407 105.713 126.407C104.451 126.407 103.442 127.416 103.442 128.678Z" fill="#131313"/>
<path d="M12.0854 151.643C12.0854 152.905 13.0949 153.915 14.3568 153.915C15.6186 153.915 16.6281 152.905 16.6281 151.643C16.6281 150.382 15.6186 149.372 14.3568 149.372C13.0949 149.372 12.0854 150.382 12.0854 151.643Z" fill="#131313"/>
<path d="M35.0508 151.643C35.0508 152.905 36.0602 153.915 37.3221 153.915C38.5839 153.915 39.5934 152.905 39.5934 151.643C39.5934 150.382 38.5839 149.372 37.3221 149.372C36.0602 149.372 35.0508 150.382 35.0508 151.643Z" fill="#131313"/>
<path d="M57.7637 151.643C57.7637 152.905 58.7731 153.915 60.035 153.915C61.2968 153.915 62.3063 152.905 62.3063 151.643C62.3063 150.382 61.2968 149.372 60.035 149.372C58.7731 149.372 57.7637 150.382 57.7637 151.643Z" fill="#131313"/>
<path d="M80.7285 151.643C80.7285 152.905 81.738 153.915 82.9998 153.915C84.2617 153.915 85.2711 152.905 85.2711 151.643C85.2711 150.382 84.2617 149.372 82.9998 149.372C81.738 149.372 80.7285 150.382 80.7285 151.643Z" fill="#131313"/>
<path d="M103.442 151.643C103.442 152.905 104.451 153.915 105.713 153.915C106.975 153.915 107.984 152.905 107.984 151.643C107.984 150.382 106.975 149.372 105.713 149.372C104.451 149.372 103.442 150.382 103.442 151.643Z" fill="#131313"/>
<path d="M52.9683 19.4038L33.2838 39.0883L30.003 42.3691L23.6938 48.6782H30.003L33.2838 45.3975L36.5645 42.3691L56.2491 22.6845L59.2774 19.4038L75.9336 3H69.3721L56.2491 16.123L52.9683 19.4038Z" fill="#131313"/>
<path d="M33.2839 18.3943L32.2744 19.4038L10.3186 41.1072L9.30914 42.3691L3 48.6782H7.29022L10.3186 45.3975L13.5994 42.3691L33.2839 22.6845L36.5646 19.4038L52.9684 3H48.6782L33.2839 18.3943Z" fill="#131313"/>
<path d="M75.6811 19.4038L56.249 39.0883L52.9682 42.3691L46.4067 48.6782H52.9682L56.249 45.3975L59.2774 42.3691L78.9619 22.6845L82.2426 19.4038L98.6464 3H92.3372L78.9619 16.123L75.6811 19.4038Z" fill="#131313"/>
<path d="M98.647 19.4038L78.9625 39.0883L75.6817 42.3691L69.3726 48.6782H75.9341L78.9625 45.3975L82.2432 42.3691L101.928 22.6845L105.209 19.4038L121.612 3H115.051L101.928 16.123L98.647 19.4038Z" fill="#131313"/>
<path d="M121.612 19.4038L101.927 39.0883L98.6466 42.3691L92.3374 48.6782H98.6466L101.927 45.3975L105.208 42.3691L124.64 22.6845L127.921 19.4038L144.325 3H138.016L124.64 16.123L121.612 19.4038Z" fill="#131313"/>
<path d="M144.325 19.4038L124.64 39.0883L121.612 42.3691L115.05 48.6782H117.322V52.9684L124.64 45.3975L127.921 42.3691L147.605 22.6845L150.886 19.4038L163 7.29022V3H160.728L147.605 16.123L144.325 19.4038Z" fill="#131313"/>
<path d="M144.325 42.3692L124.641 61.8013L121.612 65.0821L117.322 69.3723V75.9338L124.641 68.3628L127.922 65.0821L147.606 45.3975L150.887 42.3692L163 30.0032V23.6941L147.606 39.0884L144.325 42.3692Z" fill="#131313"/>
<path d="M144.325 65.0821L124.641 84.7666L121.612 88.0474L117.322 92.3376V98.6467L124.641 91.3281L127.922 88.0474L147.606 68.3628L150.887 65.0821L163 52.9685V46.407L147.606 61.8013L144.325 65.0821Z" fill="#131313"/>
<path d="M144.325 88.0471L124.641 107.479L121.612 110.76L117.322 115.05V121.612L124.641 114.041L127.922 110.76L147.606 91.3279L150.887 88.0471L163 75.9336V69.3721L147.606 84.7664L144.325 88.0471Z" fill="#131313"/>
<path d="M144.325 110.76L124.641 130.445L121.612 133.725L117.322 138.016V144.325L124.641 137.006L127.922 133.725L147.606 114.041L150.887 110.76L163 98.6466V92.3374L147.606 107.479L144.325 110.76Z" fill="#131313"/>
<path d="M144.325 133.725L124.641 153.41L121.612 156.438L117.322 160.729V163L123.631 156.438L124.641 155.429L146.597 133.725L147.606 132.716L163 117.322V115.05L147.606 130.445L144.325 133.725Z" fill="#131313"/>
<path d="M3 48.6782H117.322V163" stroke="#131313" stroke-width="5" stroke-miterlimit="10"/>
<path d="M163 3V117.322L117.322 163H3V48.6782L48.6782 3H163Z" stroke="#131313" stroke-width="5" stroke-miterlimit="10"/>
</svg>
