<svg width="400" height="259" viewBox="0 0 400 259" fill="none" xmlns="http://www.w3.org/2000/svg">
<g clip-path="url(#clip0)">
<path d="M14.4377 -1.96652C14.4377 0.26396 11.8899 2.49443 9.34212 2.49443C6.79435 2.49443 4.24658 0.26396 4.24658 -1.96652C4.24658 -4.19701 6.79435 -6.42749 9.34212 -6.42749C11.8899 -6.42749 14.4377 -4.19701 14.4377 -1.96652Z" fill="#131313"/>
<path d="M14.4377 22.5688C14.4377 24.7992 11.8899 27.0297 9.34212 27.0297C6.79435 27.0297 4.24658 24.7992 4.24658 22.5688C4.24658 20.3383 6.79435 18.1078 9.34212 18.1078C11.8899 18.1078 14.4377 19.5948 14.4377 22.5688Z" fill="#131313"/>
<path d="M37.3688 11.4163C37.3688 13.6468 34.821 15.8773 32.2733 15.8773C29.7255 15.8773 27.1777 13.6468 27.1777 11.4163C27.1777 9.18581 29.7255 6.95532 32.2733 6.95532C34.821 6.95532 37.3688 9.18581 37.3688 11.4163Z" fill="#131313"/>
<path d="M61.1466 1.00748C61.1466 3.23797 58.5989 5.46846 56.0511 5.46846C53.5033 5.46846 50.9556 3.23797 50.9556 1.00748C50.9556 -1.223 53.5033 -3.45349 56.0511 -3.45349C58.5989 -3.45349 61.1466 -1.223 61.1466 1.00748Z" fill="#131313"/>
<path d="M84.0778 14.3903C84.0778 16.6208 81.53 18.8512 78.9823 18.8512C76.4345 18.8512 73.8867 16.6208 73.8867 14.3903C73.8867 12.1598 76.4345 9.92932 78.9823 9.92932C81.53 9.92932 84.0778 11.4163 84.0778 14.3903Z" fill="#131313"/>
<path d="M109.556 4.72489C109.556 6.95538 107.008 9.18587 104.46 9.18587C101.913 9.18587 99.3647 6.95538 99.3647 4.72489C99.3647 2.49441 101.913 0.263916 104.46 0.263916C107.008 0.263916 109.556 1.75091 109.556 4.72489Z" fill="#131313"/>
<path d="M107.007 27.0297C107.007 29.2602 104.46 31.4907 101.912 31.4907C99.3642 31.4907 96.8164 29.2602 96.8164 27.0297C96.8164 24.7992 99.3642 22.5687 101.912 22.5687C104.46 22.5687 107.007 24.7992 107.007 27.0297Z" fill="#131313"/>
<path d="M82.3781 37.4387C82.3781 39.6692 79.8303 41.8997 77.2826 41.8997C74.7348 41.8997 72.187 39.6692 72.187 37.4387C72.187 35.2082 74.7348 32.9777 77.2826 32.9777C79.8303 32.2342 82.3781 34.4647 82.3781 37.4387Z" fill="#131313"/>
<path d="M60.2985 24.7991C60.2985 27.0296 57.7507 29.2601 55.203 29.2601C52.6552 29.2601 50.1074 27.0296 50.1074 24.7991C50.1074 22.5687 52.6552 20.3382 55.203 20.3382C57.7507 19.5947 60.2985 21.8252 60.2985 24.7991Z" fill="#131313"/>
<path d="M36.5187 35.2083C36.5187 37.4388 33.971 39.6693 31.4232 39.6693C28.8754 39.6693 26.3276 37.4388 26.3276 35.2083C26.3276 32.9778 28.8754 30.7473 31.4232 30.7473C33.971 30.7473 36.5187 32.9778 36.5187 35.2083Z" fill="#131313"/>
<path d="M14.4377 46.3606C14.4377 48.5911 11.8899 50.8216 9.34212 50.8216C6.79435 50.8216 4.24658 48.5911 4.24658 46.3606C4.24658 44.1301 6.79435 41.8997 9.34212 41.8997C11.8899 41.8997 14.4377 44.1301 14.4377 46.3606Z" fill="#131313"/>
<path d="M34.821 58.9999C34.821 61.2304 32.2732 63.4609 29.7254 63.4609C27.1777 63.4609 24.6299 61.2304 24.6299 58.9999C24.6299 56.7694 27.1777 54.5389 29.7254 54.5389C33.1225 54.5389 34.821 56.0259 34.821 58.9999Z" fill="#131313"/>
<path d="M56.0519 71.6394C56.0519 73.8699 53.5042 76.1004 50.9564 76.1004C48.4086 76.1004 45.8608 73.8699 45.8608 71.6394C45.8608 69.409 47.5594 67.1785 50.9564 67.1785C53.5042 67.1785 56.0519 68.6655 56.0519 71.6394Z" fill="#131313"/>
<path d="M76.4338 84.2788C76.4338 87.2528 73.886 89.4833 71.3382 89.4833C68.7904 89.4833 66.2427 87.2528 66.2427 85.0223C66.2427 82.7919 68.7904 80.5614 71.3382 80.5614C73.886 79.8179 76.4338 82.0484 76.4338 84.2788Z" fill="#131313"/>
<path d="M73.8854 108.814C73.8854 111.045 71.3377 113.275 68.7899 113.275C66.2421 113.275 63.6943 111.045 63.6943 108.814C63.6943 106.584 66.2421 104.353 68.7899 104.353C71.3377 103.61 73.8854 105.84 73.8854 108.814Z" fill="#131313"/>
<path d="M53.5041 95.4313C53.5041 97.6618 50.9563 99.8923 48.4085 99.8923C45.8608 99.8923 43.313 97.6618 43.313 95.4313C43.313 93.2008 45.8608 90.9703 48.4085 90.9703C50.9563 90.9703 53.5041 93.2008 53.5041 95.4313Z" fill="#131313"/>
<path d="M33.1227 82.7918C33.1227 85.0223 30.575 87.2527 28.0272 87.2527C25.4794 87.2527 22.9316 85.0223 22.9316 82.7918C22.9316 80.5613 25.4794 78.3308 28.0272 78.3308C30.575 78.3308 33.1227 80.5613 33.1227 82.7918Z" fill="#131313"/>
<path d="M12.7394 70.1524C12.7394 72.3829 10.1917 74.6133 7.64388 74.6133C5.09611 74.6133 2.54834 72.3829 2.54834 70.1524C2.54834 67.9219 5.09611 65.6914 7.64388 65.6914C10.1917 65.6914 12.7394 67.9219 12.7394 70.1524Z" fill="#131313"/>
<path d="M11.0412 95.4313C11.0412 97.6618 8.49341 99.8923 5.94564 99.8923C3.39787 99.8923 0.850098 97.6618 0.850098 95.4313C0.850098 93.2008 3.39787 90.9703 5.94564 90.9703C8.49341 90.9703 11.0412 93.2008 11.0412 95.4313Z" fill="#131313"/>
<path d="M30.5744 107.327C30.5744 109.558 28.0266 111.788 25.4788 111.788C22.9311 111.788 20.3833 109.558 20.3833 107.327C20.3833 105.097 22.9311 102.866 25.4788 102.866C28.0266 102.866 30.5744 105.097 30.5744 107.327Z" fill="#131313"/>
<path d="M11.0412 122.941C11.0412 125.171 8.49341 127.401 5.94564 127.401C3.39787 127.401 0.850098 125.171 0.850098 122.941C0.850098 120.71 3.39787 118.48 5.94564 118.48C8.49341 117.736 11.0412 119.967 11.0412 122.941Z" fill="#131313"/>
<path d="M29.7243 131.863C29.7243 134.093 27.1765 136.323 24.6287 136.323C22.081 136.323 19.5332 134.093 19.5332 131.863C19.5332 129.632 22.081 127.402 24.6287 127.402C27.1765 126.658 29.7243 128.889 29.7243 131.863Z" fill="#131313"/>
<path d="M15.2873 150.45C15.2873 152.68 12.7395 154.911 10.1917 154.911C7.64396 154.911 5.09619 152.68 5.09619 150.45C5.09619 148.219 7.64396 145.989 10.1917 145.989C12.7395 145.989 15.2873 148.219 15.2873 150.45Z" fill="#131313"/>
<path d="M36.5187 166.063C36.5187 168.294 33.971 170.524 31.4232 170.524C28.8754 170.524 26.3276 168.294 26.3276 166.063C26.3276 163.833 28.8754 161.602 31.4232 161.602C33.971 161.602 36.5187 163.833 36.5187 166.063Z" fill="#131313"/>
<path d="M13.5895 177.216C13.5895 179.446 11.0418 181.677 8.49398 181.677C5.94621 181.677 3.39844 179.446 3.39844 177.216C3.39844 174.985 5.94621 172.755 8.49398 172.755C11.0418 172.755 13.5895 174.242 13.5895 177.216Z" fill="#131313"/>
<path d="M33.9714 190.599C33.9714 192.829 31.4237 195.06 28.8759 195.06C26.3281 195.06 23.7804 192.829 23.7804 190.599C22.9311 188.368 25.4789 186.138 28.0266 186.138C31.4237 186.138 33.9714 188.368 33.9714 190.599Z" fill="#131313"/>
<path d="M13.5895 204.725C13.5895 206.955 11.0418 209.186 8.49398 209.186C5.94621 209.186 3.39844 206.955 3.39844 204.725C3.39844 202.494 5.94621 200.264 8.49398 200.264C11.0418 200.264 13.5895 202.494 13.5895 204.725Z" fill="#131313"/>
<path d="M13.5895 230.004C13.5895 232.234 11.0418 234.465 8.49398 234.465C5.94621 234.465 3.39844 232.234 3.39844 230.004C3.39844 227.773 5.94621 225.543 8.49398 225.543C11.891 225.543 13.5895 227.773 13.5895 230.004Z" fill="#131313"/>
<path d="M11.0412 254.539C11.0412 256.77 8.49341 259 5.94564 259C3.39787 259 0.850098 256.77 0.850098 254.539C0.850098 252.309 3.39787 250.078 5.94564 250.078C8.49341 250.078 11.0412 252.309 11.0412 254.539Z" fill="#131313"/>
<path d="M39.0671 238.182C39.0671 240.413 36.5193 242.643 33.9715 242.643C31.4237 242.643 28.876 240.413 28.876 238.182C28.876 235.952 31.4237 233.721 33.9715 233.721C37.3685 233.721 39.0671 235.952 39.0671 238.182Z" fill="#131313"/>
<path d="M36.5187 216.621C36.5187 218.851 33.971 221.082 31.4232 221.082C28.8754 221.082 26.3276 218.851 26.3276 216.621C26.3276 214.39 28.8754 212.16 31.4232 212.16C33.971 212.16 36.5187 213.647 36.5187 216.621Z" fill="#131313"/>
<path d="M65.3927 223.312C65.3927 225.543 62.845 227.773 60.2972 227.773C57.7494 227.773 55.2017 225.543 55.2017 223.312C55.2017 221.082 57.7494 218.851 60.2972 218.851C62.845 218.851 65.3927 220.338 65.3927 223.312Z" fill="#131313"/>
<path d="M54.3542 203.238C54.3542 205.469 51.8064 207.699 49.2586 207.699C46.7109 207.699 44.1631 205.469 44.1631 203.238C44.1631 201.008 46.7109 198.777 49.2586 198.777C52.6557 198.777 54.3542 201.008 54.3542 203.238Z" fill="#131313"/>
<path d="M77.2834 196.546C77.2834 198.777 74.7356 201.007 72.1878 201.007C69.6401 201.007 67.0923 198.777 67.0923 196.546C67.0923 194.316 69.6401 192.086 72.1878 192.086C74.7356 191.342 77.2834 193.573 77.2834 196.546Z" fill="#131313"/>
<path d="M93.4186 211.416C93.4186 213.647 90.8708 215.877 88.3231 215.877C85.7753 215.877 83.2275 213.647 83.2275 211.416C83.2275 209.186 85.7753 206.955 88.3231 206.955C90.8708 206.955 93.4186 209.186 93.4186 211.416Z" fill="#131313"/>
<path d="M120.594 199.521C120.594 201.751 118.047 203.982 115.499 203.982C112.951 203.982 110.403 201.751 110.403 199.521C110.403 197.29 112.951 195.06 115.499 195.06C118.047 195.06 120.594 197.29 120.594 199.521Z" fill="#131313"/>
<path d="M101.063 186.881C101.063 189.112 98.5154 191.342 95.9676 191.342C93.4198 191.342 90.8721 189.112 90.8721 186.881C90.8721 184.651 93.4198 182.42 95.9676 182.42C98.5154 182.42 101.063 184.651 101.063 186.881Z" fill="#131313"/>
<path d="M56.9006 180.19C56.9006 182.42 54.3528 184.651 51.805 184.651C49.2572 184.651 46.7095 182.42 46.7095 180.19C46.7095 177.959 49.2572 175.729 51.805 175.729C54.3528 175.729 56.9006 177.959 56.9006 180.19Z" fill="#131313"/>
<path d="M82.3781 172.755C82.3781 174.985 79.8303 177.216 77.2826 177.216C74.7348 177.216 72.187 174.985 72.187 172.755C72.187 170.524 74.7348 168.294 77.2826 168.294C79.8303 167.55 82.3781 169.781 82.3781 172.755Z" fill="#131313"/>
<path d="M87.4743 147.476C87.4743 149.706 84.9265 151.937 82.3787 151.937C79.831 151.937 77.2832 149.706 77.2832 147.476C77.2832 145.245 79.831 143.015 82.3787 143.015C84.9265 143.015 87.4743 145.245 87.4743 147.476Z" fill="#131313"/>
<path d="M63.695 157.885C63.695 160.115 61.1472 162.346 58.5994 162.346C56.0517 162.346 53.5039 160.115 53.5039 157.885C53.5039 155.654 56.0517 153.424 58.5994 153.424C61.1472 153.424 63.695 155.654 63.695 157.885Z" fill="#131313"/>
<path d="M45.0114 145.245C45.0114 147.476 42.4636 149.706 39.9159 149.706C37.3681 149.706 34.8203 147.476 34.8203 145.245C34.8203 143.015 37.3681 140.784 39.9159 140.784C42.4636 140.784 45.0114 142.271 45.0114 145.245Z" fill="#131313"/>
<path d="M50.9557 119.223C50.9557 121.453 48.408 123.684 45.8602 123.684C43.3124 123.684 40.7646 121.453 40.7646 119.223C40.7646 116.992 43.3124 114.762 45.8602 114.762C48.408 114.762 50.9557 116.992 50.9557 119.223Z" fill="#131313"/>
<path d="M68.7912 134.093C68.7912 136.323 66.2434 138.554 63.6956 138.554C61.1479 138.554 58.6001 136.323 58.6001 134.093C58.6001 131.862 61.1479 129.632 63.6956 129.632C66.2434 128.888 68.7912 131.119 68.7912 134.093Z" fill="#131313"/>
<path d="M91.7204 122.941C91.7204 125.171 89.1726 127.401 86.6248 127.401C84.0771 127.401 81.5293 125.171 81.5293 122.941C81.5293 120.71 84.0771 118.48 86.6248 118.48C89.1726 117.736 91.7204 119.967 91.7204 122.941Z" fill="#131313"/>
<path d="M110.404 136.324C110.404 138.554 107.856 140.784 105.308 140.784C102.761 140.784 100.213 138.554 100.213 136.324C100.213 134.093 102.761 131.863 105.308 131.863C107.856 131.863 110.404 134.093 110.404 136.324Z" fill="#131313"/>
<path d="M128.239 150.45C128.239 152.68 125.691 154.911 123.143 154.911C120.596 154.911 118.048 152.68 118.048 150.45C118.048 148.219 120.596 145.989 123.143 145.989C125.691 145.245 128.239 147.476 128.239 150.45Z" fill="#131313"/>
<path d="M105.309 161.602C105.309 163.833 102.761 166.063 100.214 166.063C97.6659 166.063 95.1182 163.833 95.1182 161.602C95.1182 159.372 97.6659 157.141 100.214 157.141C102.761 157.141 105.309 159.372 105.309 161.602Z" fill="#131313"/>
<path d="M123.993 174.985C123.993 177.216 121.445 179.446 118.897 179.446C116.35 179.446 113.802 177.216 113.802 174.985C113.802 172.755 116.35 170.524 118.897 170.524C121.445 170.524 123.993 172.011 123.993 174.985Z" fill="#131313"/>
<path d="M145.224 185.394C145.224 187.624 142.677 189.855 140.129 189.855C137.581 189.855 135.033 187.624 135.033 185.394C135.033 183.163 137.581 180.933 140.129 180.933C142.677 180.933 145.224 182.42 145.224 185.394Z" fill="#131313"/>
<path d="M147.772 162.346C147.772 164.576 145.224 166.807 142.677 166.807C140.129 166.807 137.581 164.576 137.581 162.346C137.581 160.115 140.129 157.885 142.677 157.885C145.224 157.141 147.772 159.372 147.772 162.346Z" fill="#131313"/>
<path d="M169.004 172.755C169.004 174.985 166.456 177.216 163.908 177.216C161.36 177.216 158.812 174.985 158.812 172.755C158.812 170.524 161.36 168.294 163.908 168.294C166.456 167.55 169.004 169.781 169.004 172.755Z" fill="#131313"/>
<path d="M194.482 161.602C194.482 163.833 191.934 166.063 189.386 166.063C186.838 166.063 184.291 163.833 184.291 161.602C184.291 159.372 186.838 157.141 189.386 157.141C191.934 157.141 194.482 159.372 194.482 161.602Z" fill="#131313"/>
<path d="M172.4 150.45C172.4 152.68 169.852 154.911 167.305 154.911C164.757 154.911 162.209 152.68 162.209 150.45C162.209 148.219 164.757 145.989 167.305 145.989C169.852 145.989 172.4 148.219 172.4 150.45Z" fill="#131313"/>
<path d="M197.028 140.041C197.028 142.271 194.48 144.502 191.932 144.502C189.384 144.502 186.836 142.271 186.836 140.041C186.836 137.81 189.384 135.58 191.932 135.58C194.48 134.836 197.028 137.067 197.028 140.041Z" fill="#131313"/>
<path d="M219.109 148.963C219.109 151.193 216.561 153.424 214.014 153.424C211.466 153.424 208.918 151.193 208.918 148.963C208.918 146.732 211.466 144.502 214.014 144.502C216.561 144.502 219.109 146.732 219.109 148.963Z" fill="#131313"/>
<path d="M199.576 117.736C199.576 119.966 197.028 122.197 194.48 122.197C191.933 122.197 189.385 119.966 189.385 117.736C189.385 115.505 191.933 113.275 194.48 113.275C197.028 112.531 199.576 114.762 199.576 117.736Z" fill="#131313"/>
<path d="M182.591 104.353C182.591 106.584 180.043 108.814 177.495 108.814C174.947 108.814 172.399 106.584 172.399 104.353C172.399 102.123 174.947 99.8921 177.495 99.8921C180.892 99.8921 182.591 102.123 182.591 104.353Z" fill="#131313"/>
<path d="M164.757 90.9702C164.757 93.2007 162.21 95.4312 159.662 95.4312C157.114 95.4312 154.566 93.2007 154.566 90.9702C154.566 88.7398 157.114 86.5093 159.662 86.5093C162.21 86.5093 164.757 88.7398 164.757 90.9702Z" fill="#131313"/>
<path d="M139.279 101.379C139.279 103.61 136.732 105.84 134.184 105.84C131.636 105.84 129.088 103.61 129.088 101.379C129.088 99.1487 131.636 96.9183 134.184 96.9183C136.732 96.1748 139.279 98.4053 139.279 101.379Z" fill="#131313"/>
<path d="M157.963 114.762C157.963 116.992 155.415 119.223 152.868 119.223C150.32 119.223 147.772 116.992 147.772 114.762C147.772 112.532 150.32 110.301 152.868 110.301C155.415 110.301 157.963 111.788 157.963 114.762Z" fill="#131313"/>
<path d="M175.797 128.145C175.797 130.376 173.249 132.606 170.701 132.606C168.153 132.606 165.605 130.376 165.605 128.145C165.605 125.915 168.153 123.684 170.701 123.684C174.098 123.684 175.797 125.171 175.797 128.145Z" fill="#131313"/>
<path d="M152.019 138.554C152.019 140.784 149.471 143.015 146.923 143.015C144.375 143.015 141.828 140.784 141.828 138.554C141.828 136.323 144.375 134.093 146.923 134.093C149.471 134.093 152.019 136.323 152.019 138.554Z" fill="#131313"/>
<path d="M133.334 125.171C133.334 127.402 130.786 129.632 128.238 129.632C125.69 129.632 123.143 127.402 123.143 125.171C123.143 122.941 125.69 120.71 128.238 120.71C131.635 120.71 133.334 122.941 133.334 125.171Z" fill="#131313"/>
<path d="M115.5 111.788C115.5 114.019 112.952 116.249 110.405 116.249C107.857 116.249 105.309 114.019 105.309 111.788C105.309 109.558 107.857 107.327 110.405 107.327C112.952 107.327 115.5 108.814 115.5 111.788Z" fill="#131313"/>
<path d="M96.817 97.6616C96.817 99.8921 94.2693 102.123 91.7215 102.123C89.1737 102.123 86.626 99.8921 86.626 97.6616C86.626 95.4312 89.1737 93.2007 91.7215 93.2007C94.2693 93.2007 96.817 95.4312 96.817 97.6616Z" fill="#131313"/>
<path d="M120.594 87.2528C120.594 89.4833 118.047 91.7138 115.499 91.7138C112.951 91.7138 110.403 89.4833 110.403 87.2528C110.403 85.0224 112.951 82.7919 115.499 82.7919C118.047 82.7919 120.594 85.0224 120.594 87.2528Z" fill="#131313"/>
<path d="M100.213 73.8698C100.213 76.1003 97.6653 78.3307 95.1175 78.3307C92.5697 78.3307 90.022 76.1003 90.022 73.8698C90.022 71.6393 92.5697 69.4088 95.1175 69.4088C97.6653 69.4088 100.213 70.8958 100.213 73.8698Z" fill="#131313"/>
<path d="M79.8317 60.487C79.8317 62.7175 77.2839 64.9479 74.7362 64.9479C72.1884 64.9479 69.6406 62.7175 69.6406 60.487C69.6406 58.2565 72.1884 56.026 74.7362 56.026C77.2839 56.026 79.8317 58.2565 79.8317 60.487Z" fill="#131313"/>
<path d="M58.6003 47.8475C58.6003 50.0779 56.0525 52.3084 53.5047 52.3084C50.957 52.3084 48.4092 50.0779 48.4092 47.8475C48.4092 45.617 50.957 43.3865 53.5047 43.3865C56.0525 43.3865 58.6003 44.8735 58.6003 47.8475Z" fill="#131313"/>
<path d="M103.61 50.0782C103.61 52.3086 101.062 54.5391 98.514 54.5391C95.9662 54.5391 93.4185 52.3086 93.4185 50.0782C93.4185 47.8477 95.9662 45.6172 98.514 45.6172C101.062 45.6172 103.61 47.8477 103.61 50.0782Z" fill="#131313"/>
<path d="M124.841 64.2044C124.841 66.4349 122.293 68.6654 119.745 68.6654C117.198 68.6654 114.65 66.4349 114.65 64.2044C114.65 61.974 117.198 59.7435 119.745 59.7435C122.293 59 124.841 61.2305 124.841 64.2044Z" fill="#131313"/>
<path d="M145.224 77.5873C145.224 79.8178 142.677 82.0483 140.129 82.0483C137.581 82.0483 135.033 79.8178 135.033 77.5873C135.033 75.3568 137.581 73.1263 140.129 73.1263C142.677 73.1263 145.224 74.6133 145.224 77.5873Z" fill="#131313"/>
<path d="M171.55 69.4088C171.55 71.6392 169.002 73.8697 166.454 73.8697C163.907 73.8697 161.359 71.6392 161.359 69.4088C161.359 67.1783 163.907 64.9478 166.454 64.9478C169.002 64.2043 171.55 66.4348 171.55 69.4088Z" fill="#131313"/>
<path d="M196.179 60.487C196.179 62.7175 193.632 64.9479 191.084 64.9479C188.536 64.9479 185.988 62.7175 185.988 60.487C185.988 58.2565 188.536 56.026 191.084 56.026C193.632 56.026 196.179 58.2565 196.179 60.487Z" fill="#131313"/>
<path d="M221.657 52.3086C221.657 54.539 219.11 56.7695 216.562 56.7695C214.014 56.7695 211.466 54.539 211.466 52.3086C211.466 50.0781 214.014 47.8476 216.562 47.8476C219.11 47.1041 221.657 49.3346 221.657 52.3086Z" fill="#131313"/>
<path d="M218.259 76.1004C218.259 78.3309 215.711 80.5613 213.163 80.5613C210.616 80.5613 208.068 78.3309 208.068 76.1004C208.068 73.8699 210.616 71.6394 213.163 71.6394C215.711 71.6394 218.259 73.8699 218.259 76.1004Z" fill="#131313"/>
<path d="M192.781 84.2788C192.781 86.5093 190.234 88.7398 187.686 88.7398C185.138 88.7398 182.59 86.5093 182.59 84.2788C182.59 82.0483 185.138 79.8179 187.686 79.8179C190.234 79.8179 192.781 82.0483 192.781 84.2788Z" fill="#131313"/>
<path d="M215.713 99.8921C215.713 102.123 213.165 104.353 210.617 104.353C208.07 104.353 205.522 102.123 205.522 99.8921C205.522 97.6616 208.07 95.4312 210.617 95.4312C213.165 95.4312 215.713 97.6616 215.713 99.8921Z" fill="#131313"/>
<path d="M241.191 112.532C241.191 114.762 238.643 116.993 236.095 116.993C233.547 116.993 231 114.762 231 112.532C231 110.301 233.547 108.071 236.095 108.071C238.643 108.071 241.191 109.558 241.191 112.532Z" fill="#131313"/>
<path d="M220.807 125.171C220.807 127.402 218.26 129.632 215.712 129.632C213.164 129.632 210.616 127.402 210.616 125.171C210.616 122.941 213.164 120.71 215.712 120.71C218.26 120.71 220.807 122.941 220.807 125.171Z" fill="#131313"/>
<path d="M242.039 136.323C242.039 138.554 239.491 140.784 236.943 140.784C234.395 140.784 231.848 138.554 231.848 136.323C231.848 134.093 234.395 131.862 236.943 131.862C239.491 131.119 242.039 133.349 242.039 136.323Z" fill="#131313"/>
<path d="M265.818 124.428C265.818 126.658 263.27 128.888 260.722 128.888C258.175 128.888 255.627 126.658 255.627 124.428C255.627 122.197 258.175 119.967 260.722 119.967C263.27 119.967 265.818 122.197 265.818 124.428Z" fill="#131313"/>
<path d="M266.668 102.123C266.668 104.353 264.12 106.584 261.573 106.584C259.025 106.584 256.477 104.353 256.477 102.123C256.477 99.8922 259.025 97.6617 261.573 97.6617C264.12 97.6617 266.668 99.8922 266.668 102.123Z" fill="#131313"/>
<path d="M265.818 80.5612C265.818 82.7917 263.27 85.0222 260.722 85.0222C258.175 85.0222 255.627 82.7917 255.627 80.5612C255.627 78.3308 258.175 76.1003 260.722 76.1003C264.12 75.3568 265.818 77.5873 265.818 80.5612Z" fill="#131313"/>
<path d="M292.994 90.9703C292.994 93.2008 290.447 95.4313 287.899 95.4313C285.351 95.4313 282.803 93.2008 282.803 90.9703C282.803 88.7398 285.351 86.5093 287.899 86.5093C290.447 85.7658 292.994 87.9963 292.994 90.9703Z" fill="#131313"/>
<path d="M291.296 112.532C291.296 114.762 288.748 116.993 286.201 116.993C283.653 116.993 281.105 114.762 281.105 112.532C281.105 110.301 283.653 108.071 286.201 108.071C289.598 107.327 291.296 109.558 291.296 112.532Z" fill="#131313"/>
<path d="M318.472 96.9182C318.472 99.1487 315.924 101.379 313.376 101.379C310.829 101.379 308.281 99.1487 308.281 96.9182C308.281 94.6877 310.829 92.4572 313.376 92.4572C315.924 91.7137 318.472 93.9442 318.472 96.9182Z" fill="#131313"/>
<path d="M343.949 82.7918C343.949 85.0223 341.402 87.2527 338.854 87.2527C336.306 87.2527 333.758 85.0223 333.758 82.7918C333.758 80.5613 336.306 78.3308 338.854 78.3308C341.402 78.3308 343.949 80.5613 343.949 82.7918Z" fill="#131313"/>
<path d="M318.472 70.8959C318.472 73.1264 315.924 75.3569 313.376 75.3569C310.829 75.3569 308.281 73.1264 308.281 70.8959C308.281 68.6654 310.829 66.4349 313.376 66.4349C315.924 66.4349 318.472 68.6654 318.472 70.8959Z" fill="#131313"/>
<path d="M323.568 45.6172C323.568 47.8476 321.02 50.0781 318.472 50.0781C315.925 50.0781 313.377 47.8476 313.377 45.6172C313.377 43.3867 315.925 41.1562 318.472 41.1562C321.02 40.4127 323.568 42.6432 323.568 45.6172Z" fill="#131313"/>
<path d="M345.648 58.9999C345.648 61.2304 343.1 63.4609 340.552 63.4609C338.004 63.4609 335.457 61.2304 335.457 58.9999C335.457 56.7694 338.004 54.5389 340.552 54.5389C343.1 54.5389 345.648 56.0259 345.648 58.9999Z" fill="#131313"/>
<path d="M371.975 70.8958C371.975 73.1263 369.427 75.3568 366.88 75.3568C364.332 75.3568 361.784 73.1263 361.784 70.8958C361.784 68.6654 364.332 66.4349 366.88 66.4349C369.427 65.6914 371.975 67.9219 371.975 70.8958Z" fill="#131313"/>
<path d="M400.001 57.5131C400.001 59.7436 398.302 61.2306 395.755 61.2306C393.207 61.2306 391.508 59.7436 391.508 57.5131C391.508 55.2826 393.207 53.7957 395.755 53.7957C398.302 53.7957 400.001 55.2826 400.001 57.5131Z" fill="#131313"/>
<path d="M372.825 47.8475C372.825 50.0779 370.278 52.3084 367.73 52.3084C365.182 52.3084 362.634 50.0779 362.634 47.8475C362.634 45.617 365.182 43.3865 367.73 43.3865C370.278 43.3865 372.825 44.8735 372.825 47.8475Z" fill="#131313"/>
<path d="M349.046 33.7211C349.046 35.9516 346.498 38.1821 343.95 38.1821C341.402 38.1821 338.854 35.9516 338.854 33.7211C338.854 31.4906 341.402 29.2601 343.95 29.2601C347.347 29.2601 349.046 30.7471 349.046 33.7211Z" fill="#131313"/>
<path d="M324.416 20.3384C324.416 22.5689 321.868 24.7994 319.321 24.7994C316.773 24.7994 314.225 22.5689 314.225 20.3384C314.225 18.1079 316.773 15.8774 319.321 15.8774C321.868 15.8774 324.416 18.1079 324.416 20.3384Z" fill="#131313"/>
<path d="M298.939 28.5169C298.939 30.7473 296.391 32.9778 293.843 32.9778C291.295 32.9778 288.748 30.7473 288.748 28.5169C288.748 26.2864 291.295 24.0559 293.843 24.0559C296.391 24.0559 298.939 26.2864 298.939 28.5169Z" fill="#131313"/>
<path d="M297.24 50.8217C297.24 53.0522 294.693 55.2826 292.145 55.2826C289.597 55.2826 287.049 53.0522 287.049 50.8217C287.049 48.5912 289.597 46.3607 292.145 46.3607C294.693 46.3607 297.24 47.8477 297.24 50.8217Z" fill="#131313"/>
<path d="M290.446 70.8958C290.446 73.1263 287.898 75.3568 285.35 75.3568C282.803 75.3568 280.255 73.1263 280.255 70.8958C280.255 68.6654 282.803 66.4349 285.35 66.4349C288.747 65.6914 290.446 67.9219 290.446 70.8958Z" fill="#131313"/>
<path d="M269.215 57.513C269.215 59.7435 266.667 61.974 264.119 61.974C261.571 61.974 259.023 59.7435 259.023 57.513C259.023 55.2825 261.571 53.0521 264.119 53.0521C266.667 52.3086 269.215 54.5391 269.215 57.513Z" fill="#131313"/>
<path d="M240.34 90.2268C240.34 92.4573 237.793 94.6877 235.245 94.6877C232.697 94.6877 230.149 92.4573 230.149 90.2268C230.149 87.9963 232.697 85.7658 235.245 85.7658C238.642 85.0223 240.34 87.2528 240.34 90.2268Z" fill="#131313"/>
<path d="M242.889 66.4348C242.889 68.6653 240.341 70.8958 237.793 70.8958C235.246 70.8958 232.698 68.6653 232.698 66.4348C232.698 64.2044 235.246 61.9739 237.793 61.9739C241.19 61.9739 242.889 64.2044 242.889 66.4348Z" fill="#131313"/>
<path d="M246.285 43.3867C246.285 45.6172 243.737 47.8477 241.189 47.8477C238.642 47.8477 236.094 45.6172 236.094 43.3867C236.094 41.1563 238.642 38.9258 241.189 38.9258C243.737 38.9258 246.285 40.4128 246.285 43.3867Z" fill="#131313"/>
<path d="M273.461 35.2083C273.461 37.4388 270.913 39.6693 268.365 39.6693C265.817 39.6693 263.27 37.4388 263.27 35.2083C263.27 32.9778 265.817 30.7473 268.365 30.7473C270.913 30.7473 273.461 32.9778 273.461 35.2083Z" fill="#131313"/>
<path d="M274.311 12.9034C274.311 15.1339 271.763 17.3644 269.215 17.3644C266.667 17.3644 264.12 15.1339 264.12 12.9034C264.12 10.6729 266.667 8.44244 269.215 8.44244C271.763 7.69895 274.311 9.92943 274.311 12.9034Z" fill="#131313"/>
<path d="M298.09 6.21193C298.09 8.44241 295.543 10.6729 292.995 10.6729C290.447 10.6729 287.899 8.44241 287.899 6.21193C287.899 3.98145 290.447 1.75098 292.995 1.75098C295.543 2.49447 298.09 3.98145 298.09 6.21193Z" fill="#131313"/>
<path d="M251.381 -3.45358C251.381 -1.22309 248.833 1.0074 246.285 1.0074C243.738 1.0074 241.19 -1.22309 241.19 -3.45358C241.19 -5.68406 243.738 -7.91455 246.285 -7.91455C248.833 -7.91455 251.381 -6.42756 251.381 -3.45358Z" fill="#131313"/>
<path d="M249.683 20.3384C249.683 22.5689 247.136 24.7994 244.588 24.7994C242.04 24.7994 239.492 22.5689 239.492 20.3384C239.492 18.1079 242.04 15.8774 244.588 15.8774C247.136 15.8774 249.683 17.3644 249.683 20.3384Z" fill="#131313"/>
<path d="M227.602 3.23783C227.602 5.46832 225.054 7.69881 222.506 7.69881C219.958 7.69881 217.411 5.46832 217.411 3.23783C217.411 1.00734 219.958 -1.22314 222.506 -1.22314C225.054 -1.22314 227.602 1.00734 227.602 3.23783Z" fill="#131313"/>
<path d="M203.822 12.1598C203.822 14.3903 201.274 16.6208 198.726 16.6208C196.179 16.6208 193.631 14.3903 193.631 12.1598C193.631 9.92934 196.179 7.69885 198.726 7.69885C201.274 7.69885 203.822 9.92934 203.822 12.1598Z" fill="#131313"/>
<path d="M224.205 27.7732C224.205 30.0037 221.657 32.2342 219.11 32.2342C216.562 32.2342 214.014 30.0037 214.014 27.7732C214.014 25.5427 216.562 23.3123 219.11 23.3123C221.657 23.3123 224.205 25.5427 224.205 27.7732Z" fill="#131313"/>
<path d="M199.576 36.6951C199.576 38.9256 197.028 41.1561 194.48 41.1561C191.933 41.1561 189.385 38.9256 189.385 36.6951C189.385 34.4646 191.933 32.2341 194.48 32.2341C197.028 32.2341 199.576 34.4646 199.576 36.6951Z" fill="#131313"/>
<path d="M174.948 45.6171C174.948 47.8476 172.4 50.0781 169.852 50.0781C167.305 50.0781 164.757 47.8476 164.757 45.6171C164.757 43.3866 167.305 41.1561 169.852 41.1561C172.4 41.1561 174.948 43.3866 174.948 45.6171Z" fill="#131313"/>
<path d="M153.716 31.4908C153.716 33.7213 151.169 35.9518 148.621 35.9518C146.073 35.9518 143.525 33.7213 143.525 31.4908C143.525 29.2603 146.073 27.0298 148.621 27.0298C151.169 26.2863 153.716 28.5168 153.716 31.4908Z" fill="#131313"/>
<path d="M150.319 54.5391C150.319 56.7696 147.771 59.0001 145.223 59.0001C142.675 59.0001 140.127 56.7696 140.127 54.5391C140.127 52.3086 142.675 50.0781 145.223 50.0781C147.771 50.0781 150.319 52.3086 150.319 54.5391Z" fill="#131313"/>
<path d="M129.087 40.4126C129.087 42.6431 126.539 44.8736 123.992 44.8736C121.444 44.8736 118.896 42.6431 118.896 40.4126C118.896 38.1821 121.444 35.9517 123.992 35.9517C126.539 35.9517 129.087 38.1821 129.087 40.4126Z" fill="#131313"/>
<path d="M132.486 18.1077C132.486 20.3382 129.938 22.5687 127.39 22.5687C124.842 22.5687 122.294 20.3382 122.294 18.1077C122.294 15.8773 124.842 13.6468 127.39 13.6468C129.938 12.9033 132.486 15.1338 132.486 18.1077Z" fill="#131313"/>
<path d="M157.113 7.69888C157.113 9.92937 154.565 12.1599 152.017 12.1599C149.47 12.1599 146.922 9.92937 146.922 7.69888C146.922 5.4684 149.47 3.23792 152.017 3.23792C155.414 3.23792 157.113 5.4684 157.113 7.69888Z" fill="#131313"/>
<path d="M179.195 21.8252C179.195 24.0557 176.647 26.2862 174.099 26.2862C171.551 26.2862 169.003 24.0557 169.003 21.8252C169.003 19.5947 171.551 17.3643 174.099 17.3643C176.647 17.3643 179.195 18.8512 179.195 21.8252Z" fill="#131313"/>
<path d="M183.441 -2.71004C183.441 -0.479558 180.893 1.75093 178.345 1.75093C175.797 1.75093 173.25 -0.479558 173.25 -2.71004C173.25 -4.94053 175.797 -7.17102 178.345 -7.17102C180.893 -7.17102 183.441 -4.94053 183.441 -2.71004Z" fill="#131313"/>
</g>
<defs>
<clipPath id="clip0">
<rect width="400" height="400" fill="white" transform="translate(0 -141)"/>
</clipPath>
</defs>
</svg>
