<svg width="400" height="400" viewBox="0 0 400 400" fill="none" xmlns="http://www.w3.org/2000/svg">
<path d="M123.324 149.921C123.324 145.576 126.541 142.316 130.831 142.316C135.12 142.316 138.338 145.576 138.338 149.921C138.338 154.267 135.12 157.526 130.831 157.526C126.541 157.526 123.324 154.267 123.324 149.921Z" fill="white"/>
<path d="M168.364 191.204C168.364 186.858 171.581 183.599 175.87 183.599C180.16 183.599 183.377 186.858 183.377 191.204C183.377 195.549 180.16 198.809 175.87 198.809C171.581 198.809 168.364 195.549 168.364 191.204Z" fill="white"/>
<path d="M214.477 231.4C214.477 227.054 217.694 223.795 221.983 223.795C226.273 223.795 229.49 227.054 229.49 231.4C229.49 235.745 226.273 239.004 221.983 239.004C217.694 239.004 214.477 235.745 214.477 231.4Z" fill="white"/>
<path d="M107.238 212.932C107.238 208.586 110.455 205.327 114.745 205.327C119.034 205.327 122.252 208.586 122.252 212.932C122.252 217.277 119.034 220.537 114.745 220.537C110.455 220.537 107.238 217.277 107.238 212.932Z" fill="white"/>
<path d="M50.4014 235.746C50.4014 231.4 53.6185 228.141 57.9081 228.141C62.1976 228.141 65.4147 231.4 65.4147 235.746C65.4147 240.091 62.1976 243.35 57.9081 243.35C53.6185 243.35 50.4014 240.091 50.4014 235.746Z" fill="white"/>
<path d="M61.1255 170.562C61.1255 166.217 64.3426 162.958 68.6322 162.958C72.9217 162.958 76.1389 166.217 76.1389 170.562C76.1389 174.908 72.9217 178.167 68.6322 178.167C64.3426 177.081 61.1255 173.821 61.1255 170.562Z" fill="white"/>
<path d="M80.4287 109.725C80.4287 105.38 83.6459 102.121 87.9354 102.121C92.2249 102.121 95.4421 105.38 95.4421 109.725C95.4421 114.071 92.2249 117.33 87.9354 117.33C83.6459 117.33 80.4287 114.071 80.4287 109.725Z" fill="white"/>
<path d="M93.2969 40.1962C93.2969 35.8507 96.514 32.5916 100.804 32.5916C105.093 32.5916 108.31 35.8507 108.31 40.1962C108.31 44.5418 105.093 47.8009 100.804 47.8009C96.514 47.8009 93.2969 44.5418 93.2969 40.1962Z" fill="white"/>
<path d="M137.266 82.5654C137.266 78.2198 140.483 74.9607 144.772 74.9607C149.062 74.9607 152.279 78.2198 152.279 82.5654C152.279 86.9109 149.062 90.1701 144.772 90.1701C140.483 90.1701 137.266 86.9109 137.266 82.5654Z" fill="white"/>
<path d="M181.232 126.021C181.232 121.676 184.449 118.417 188.739 118.417C193.028 118.417 196.245 121.676 196.245 126.021C196.245 130.367 193.028 133.626 188.739 133.626C185.521 133.626 181.232 130.367 181.232 126.021Z" fill="white"/>
<path d="M227.345 167.303C227.345 162.957 230.562 159.698 234.852 159.698C239.141 159.698 242.359 162.957 242.359 167.303C242.359 171.648 239.141 174.908 234.852 174.908C230.562 174.908 227.345 171.648 227.345 167.303Z" fill="white"/>
<path d="M240.213 102.12C240.213 97.7743 243.43 94.5151 247.72 94.5151C252.009 94.5151 255.226 97.7743 255.226 102.12C255.226 106.465 252.009 109.725 247.72 109.725C243.43 109.725 240.213 106.465 240.213 102.12Z" fill="white"/>
<path d="M198.391 63.01C198.391 58.6644 201.608 55.4053 205.898 55.4053C210.187 55.4053 213.404 58.6644 213.404 63.01C213.404 67.3555 210.187 70.6147 205.898 70.6147C201.608 70.6147 198.391 67.3555 198.391 63.01Z" fill="white"/>
<path d="M151.207 18.4685C151.207 14.1229 154.424 10.8638 158.714 10.8638C163.003 10.8638 166.22 14.1229 166.22 18.4685C166.22 22.814 163.003 26.0732 158.714 26.0732C154.424 26.0732 151.207 21.7276 151.207 18.4685Z" fill="white"/>
<path d="M268.096 36.9367C268.096 32.5912 271.313 29.332 275.602 29.332C279.892 29.332 283.109 32.5912 283.109 36.9367C283.109 41.2823 279.892 44.5414 275.602 44.5414C271.313 44.5414 268.096 41.2823 268.096 36.9367Z" fill="white"/>
<path d="M214.477 7.60469C214.477 3.25915 217.694 0 221.983 0C226.273 0 229.49 3.25915 229.49 7.60469C229.49 11.9502 226.273 15.2094 221.983 15.2094C217.694 15.2094 214.477 11.9502 214.477 7.60469Z" fill="white"/>
<path d="M40.751 72.7878C40.751 68.4423 43.9681 65.1831 48.2577 65.1831C52.5472 65.1831 55.7644 68.4423 55.7644 72.7878C55.7644 77.1333 52.5472 80.3925 48.2577 80.3925C43.9681 79.3061 40.751 77.1333 40.751 72.7878Z" fill="white"/>
<path d="M11.7974 129.281C11.7974 124.935 15.0145 122.762 18.2317 122.762C22.5212 122.762 24.666 126.021 24.666 129.281C24.666 133.626 21.4488 135.799 18.2317 135.799C15.0145 135.799 11.7974 132.54 11.7974 129.281Z" fill="white"/>
<path d="M3.21777 192.29C3.21777 187.945 6.43492 184.686 10.7245 184.686C15.014 184.686 18.2311 187.945 18.2311 192.29C18.2311 196.636 15.014 199.895 10.7245 199.895C6.43492 199.895 3.21777 196.636 3.21777 192.29Z" fill="white"/>
<path d="M0 258.56C0 255.301 2.14477 253.128 5.36192 253.128C8.57907 253.128 10.7238 256.387 10.7238 258.56C10.7238 261.819 8.57907 263.992 5.36192 263.992C2.14477 263.992 0 261.819 0 258.56Z" fill="white"/>
<path d="M37.5332 308.533C37.5332 304.187 40.7504 300.928 45.0399 300.928C49.3294 300.928 52.5466 304.187 52.5466 308.533C52.5466 312.878 49.3294 316.138 45.0399 316.138C40.7504 316.138 37.5332 312.878 37.5332 308.533Z" fill="white"/>
<path d="M90.0791 280.287C90.0791 275.942 93.2963 272.683 97.5858 272.683C101.875 272.683 105.092 275.942 105.092 280.287C105.092 284.633 101.875 287.892 97.5858 287.892C93.2963 287.892 90.0791 284.633 90.0791 280.287Z" fill="white"/>
<path d="M81.502 353.075C81.502 348.73 84.7191 345.471 89.0086 345.471C93.2982 345.471 96.5153 348.73 96.5153 353.075C96.5153 357.421 93.2982 360.68 89.0086 360.68C84.7191 360.68 81.502 357.421 81.502 353.075Z" fill="white"/>
<path d="M139.41 384.58C139.41 380.234 142.627 376.975 146.917 376.975C151.206 376.975 154.424 380.234 154.424 384.58C154.424 388.925 151.206 392.184 146.917 392.184C142.627 392.184 139.41 388.925 139.41 384.58Z" fill="white"/>
<path d="M183.378 345.47C183.378 341.125 186.596 337.866 190.885 337.866C195.175 337.866 198.392 341.125 198.392 345.47C198.392 349.816 195.175 353.075 190.885 353.075C186.596 353.075 183.378 349.816 183.378 345.47Z" fill="white"/>
<path d="M134.048 318.31C134.048 313.965 137.265 310.706 141.555 310.706C145.844 310.706 149.061 313.965 149.061 318.31C149.061 322.656 145.844 325.915 141.555 325.915C137.265 324.829 134.048 321.569 134.048 318.31Z" fill="white"/>
<path d="M150.134 254.214C150.134 249.868 153.351 246.609 157.64 246.609C161.93 246.609 165.147 249.868 165.147 254.214C165.147 258.559 161.93 261.818 157.64 261.818C153.351 261.818 150.134 257.473 150.134 254.214Z" fill="white"/>
<path d="M197.318 288.979C197.318 284.633 200.535 281.374 204.825 281.374C209.114 281.374 212.331 284.633 212.331 288.979C212.331 293.324 209.114 296.583 204.825 296.583C200.535 296.583 197.318 293.324 197.318 288.979Z" fill="white"/>
<path d="M243.431 334.606C243.431 330.261 246.648 327.001 250.937 327.001C255.227 327.001 258.444 330.261 258.444 334.606C258.444 338.952 255.227 342.211 250.937 342.211C246.648 342.211 243.431 338.952 243.431 334.606Z" fill="white"/>
<path d="M212.333 393.271C212.333 390.012 215.55 386.753 218.767 386.753C221.984 386.753 225.201 390.012 225.201 393.271C225.201 396.53 221.984 399.79 218.767 399.79C215.55 400.876 212.333 397.617 212.333 393.271Z" fill="white"/>
<path d="M280.964 379.149C280.964 375.89 284.181 372.63 287.398 372.63C290.615 372.63 293.832 375.89 293.832 379.149C293.832 382.408 290.615 385.667 287.398 385.667C283.109 385.667 280.964 382.408 280.964 379.149Z" fill="white"/>
<path d="M307.773 325.916C307.773 321.57 310.991 318.311 315.28 318.311C319.57 318.311 322.787 321.57 322.787 325.916C322.787 330.261 319.57 333.52 315.28 333.52C310.991 333.52 307.773 330.261 307.773 325.916Z" fill="white"/>
<path d="M354.96 295.496C354.96 291.151 358.177 288.978 361.394 288.978C365.684 288.978 367.829 292.237 367.829 295.496C367.829 299.842 364.611 302.015 361.394 302.015C358.177 303.101 354.96 299.842 354.96 295.496Z" fill="white"/>
<path d="M314.209 254.214C314.209 249.868 317.426 246.609 321.716 246.609C326.005 246.609 329.222 249.868 329.222 254.214C329.222 258.559 326.005 261.818 321.716 261.818C317.426 261.818 314.209 258.559 314.209 254.214Z" fill="white"/>
<path d="M371.045 233.573C371.045 229.228 374.263 225.969 378.552 225.969C382.842 225.969 386.059 229.228 386.059 233.573C386.059 237.919 382.842 241.178 378.552 241.178C374.263 241.178 371.045 237.919 371.045 233.573Z" fill="white"/>
<path d="M330.294 187.945C330.294 183.599 333.512 180.34 337.801 180.34C342.091 180.34 345.308 183.599 345.308 187.945C345.308 192.29 342.091 195.549 337.801 195.549C333.512 195.549 330.294 192.29 330.294 187.945Z" fill="white"/>
<path d="M387.131 168.39C387.131 165.131 390.349 161.872 393.566 161.872C396.783 161.872 400 165.131 400 168.39C400 171.649 396.783 174.908 393.566 174.908C390.349 175.995 387.131 172.735 387.131 168.39Z" fill="white"/>
<path d="M346.38 122.761C346.38 118.416 349.598 115.157 353.887 115.157C358.177 115.157 361.394 118.416 361.394 122.761C361.394 127.107 358.177 130.366 353.887 130.366C349.598 130.366 346.38 127.107 346.38 122.761Z" fill="white"/>
<path d="M338.874 57.5779C338.874 54.3187 342.091 51.0596 345.308 51.0596C348.526 51.0596 351.743 54.3187 351.743 57.5779C351.743 60.837 348.526 64.0962 345.308 64.0962C342.091 64.0962 338.874 60.837 338.874 57.5779Z" fill="white"/>
<path d="M294.905 90.1696C294.905 85.8241 298.122 82.5649 302.412 82.5649C306.702 82.5649 309.919 85.8241 309.919 90.1696C309.919 94.5152 306.702 97.7743 302.412 97.7743C298.122 97.7743 294.905 94.5152 294.905 90.1696Z" fill="white"/>
<path d="M286.326 148.835C286.326 144.489 289.543 141.23 293.832 141.23C298.122 141.23 301.339 144.489 301.339 148.835C301.339 153.18 298.122 156.439 293.832 156.439C289.543 156.439 286.326 153.18 286.326 148.835Z" fill="white"/>
<path d="M271.313 210.758C271.313 206.412 274.531 203.153 278.82 203.153C283.11 203.153 286.327 206.412 286.327 210.758C286.327 215.104 283.11 218.363 278.82 218.363C275.603 218.363 271.313 215.104 271.313 210.758Z" fill="white"/>
<path d="M260.59 277.029C260.59 272.683 263.807 269.424 268.097 269.424C272.386 269.424 275.603 272.683 275.603 277.029C275.603 281.374 272.386 284.633 268.097 284.633C263.807 283.547 260.59 280.288 260.59 277.029Z" fill="white"/>
</svg>
