<svg width="538" height="220" viewBox="0 0 538 220" fill="none" xmlns="http://www.w3.org/2000/svg">
<path d="M438 104.211C400.745 104.211 381.137 84.9123 367.412 71.4035C355.647 59.8246 349.765 55.9649 338 55.9649C326.235 55.9649 320.353 59.8246 308.588 71.4035C294.863 84.9123 275.255 104.211 238 104.211C200.745 104.211 181.137 84.9123 167.412 71.4035C155.647 59.8245 149.765 55.9649 138 55.9649C126.235 55.9649 120.353 59.8245 108.588 71.4035C94.8627 84.9123 75.2549 104.211 38 104.211C0.745113 104.211 -18.8627 84.9123 -32.5883 71.4035C-44.353 59.8245 -50.2353 55.9649 -62 55.9649C-73.7647 55.9649 -79.647 59.8245 -91.4117 71.4035C-105.137 84.9123 -124.745 104.211 -162 104.211C-199.255 104.211 -218.863 84.9123 -232.588 71.4035C-244.353 59.8245 -250.235 55.9649 -262 55.9649L-262 -3.46827e-05C-224.745 -3.30676e-05 -205.137 19.2982 -191.412 32.807C-179.647 44.3859 -173.765 48.2456 -162 48.2456C-150.235 48.2456 -144.353 44.3859 -132.588 32.807C-118.863 19.2982 -99.2549 -2.76272e-05 -62 -2.6012e-05C-24.7451 -2.43969e-05 -5.13727 19.2982 8.58826 32.807C20.3529 44.3859 26.2353 48.2456 38 48.2456C49.7647 48.2456 55.6471 44.3859 67.4117 32.807C81.1372 19.2982 100.745 -1.89565e-05 138 -1.73414e-05C175.255 -1.57262e-05 194.863 19.2982 208.588 32.807C220.353 44.386 226.235 48.2456 238 48.2456C249.765 48.2456 255.647 44.386 267.412 32.807C281.137 19.2982 300.745 -1.02858e-05 338 -8.67068e-06C375.255 -7.05555e-06 394.863 19.2982 408.588 32.807C420.353 44.386 426.235 48.2456 438 48.2456C449.765 48.2456 455.647 44.386 467.412 32.807C481.137 19.2982 500.745 -1.61513e-06 538 0L538 55.9649C526.235 55.9649 520.353 59.8246 508.588 71.4035C494.863 86.8421 475.255 104.211 438 104.211Z" fill="#E5E515"/>
<path d="M438 220C400.745 220 381.137 200.702 367.412 187.193C355.647 175.614 349.765 171.754 338 171.754C326.235 171.754 320.353 175.614 308.588 187.193C294.863 200.702 275.255 220 238 220C200.745 220 181.137 200.702 167.412 187.193C155.647 175.614 149.765 171.754 138 171.754C126.235 171.754 120.353 175.614 108.588 187.193C94.8627 200.702 75.2549 220 38 220C0.745113 220 -18.8627 200.702 -32.5883 187.193C-44.353 175.614 -50.2353 171.754 -62 171.754C-73.7647 171.754 -79.647 175.614 -91.4117 187.193C-105.137 200.702 -124.745 220 -162 220C-199.255 220 -218.863 200.702 -232.588 187.193C-244.353 175.614 -250.235 171.754 -262 171.754L-262 115.79C-224.745 115.79 -205.137 135.088 -191.412 148.597C-179.647 160.175 -173.765 164.035 -162 164.035C-150.235 164.035 -144.353 160.175 -132.588 148.597C-118.863 133.158 -99.2549 115.79 -62 115.79C-24.7451 115.79 -5.13727 135.088 8.58826 148.597C20.3529 160.175 26.2353 164.035 38 164.035C49.7647 164.035 55.6471 158.246 67.4117 146.667C81.1372 133.158 100.745 115.79 138 115.79C175.255 115.79 194.863 135.088 208.588 148.597C220.353 160.175 226.235 164.035 238 164.035C249.765 164.035 255.647 160.175 267.412 148.597C281.137 133.158 300.745 115.79 338 115.79C375.255 115.79 394.863 135.088 408.588 148.597C420.353 158.246 426.235 164.035 438 164.035C449.765 164.035 455.647 160.176 467.412 148.597C481.137 133.158 500.745 115.79 538 115.79L538 171.754C526.235 171.754 520.353 175.614 508.588 187.193C494.863 200.702 475.255 220 438 220Z" fill="#E5E515"/>
</svg>
