<svg width="569" height="533" viewBox="0 0 569 533" fill="none" xmlns="http://www.w3.org/2000/svg">
<g clip-path="url(#clip0)">
<path d="M19.3303 11.5929C19.3303 14.7657 15.7061 17.9386 12.0819 17.9386C8.4577 17.9386 4.8335 14.7657 4.8335 11.5929C4.8335 8.42001 8.4577 5.24715 12.0819 5.24715C15.7061 5.24715 19.3303 8.42001 19.3303 11.5929Z" fill="#131313"/>
<path d="M51.9466 23.2268C51.9466 26.3996 48.3224 29.5725 44.6982 29.5725C39.8659 29.5725 36.2417 26.3996 36.2417 23.2268C36.2417 18.9963 39.8659 16.881 44.6982 16.881C48.3224 16.881 51.9466 18.9963 51.9466 23.2268Z" fill="#131313"/>
<path d="M21.7449 52.84C21.7449 56.0129 18.1207 59.1858 13.2884 59.1858C9.66424 59.1858 6.04004 56.0129 6.04004 52.84C6.04004 49.6672 9.66424 46.4943 13.2884 46.4943C18.1207 45.4367 21.7449 48.6096 21.7449 52.84Z" fill="#131313"/>
<path d="M56.779 52.84C56.779 56.0129 53.1548 59.1858 49.5306 59.1858C45.9064 59.1858 42.2822 56.0129 42.2822 52.84C42.2822 49.6672 45.9064 46.4943 49.5306 46.4943C53.1548 46.4943 56.779 49.6672 56.779 52.84Z" fill="#131313"/>
<path d="M53.157 82.4536C53.157 85.6264 49.5328 88.7993 45.9086 88.7993C42.2844 88.7993 38.6602 85.6264 38.6602 82.4536C38.6602 79.2807 42.2844 76.1078 45.9086 76.1078C50.7408 76.1078 53.157 79.2807 53.157 82.4536Z" fill="#131313"/>
<path d="M19.3303 89.8568C19.3303 93.0296 15.7061 96.2025 12.0819 96.2025C8.4577 96.2025 4.8335 93.0296 4.8335 89.8568C4.8335 86.6839 8.4577 83.511 12.0819 83.511C15.7061 83.511 19.3303 86.6839 19.3303 89.8568Z" fill="#131313"/>
<path d="M20.5369 126.874C20.5369 130.046 16.9127 133.219 13.2884 133.219C9.66424 133.219 6.04004 130.046 6.04004 126.874C6.04004 123.701 9.66424 120.528 13.2884 120.528C16.9127 119.47 20.5369 122.643 20.5369 126.874Z" fill="#131313"/>
<path d="M20.5369 161.775C20.5369 164.948 16.9127 168.121 13.2884 168.121C9.66424 168.121 6.04004 164.948 6.04004 161.775C6.04004 158.602 9.66424 155.429 13.2884 155.429C16.9127 155.429 20.5369 158.602 20.5369 161.775Z" fill="#131313"/>
<path d="M20.5369 196.677C20.5369 199.849 16.9127 203.022 13.2884 203.022C9.66424 203.022 6.04004 199.849 6.04004 196.677C6.04004 193.504 9.66424 190.331 13.2884 190.331C16.9127 190.331 20.5369 192.446 20.5369 196.677Z" fill="#131313"/>
<path d="M53.157 180.812C53.157 183.985 49.5328 187.158 45.9086 187.158C42.2844 187.158 38.6602 183.985 38.6602 180.812C38.6602 177.639 42.2844 174.466 45.9086 174.466C49.5328 174.466 53.157 177.639 53.157 180.812Z" fill="#131313"/>
<path d="M53.157 146.968C53.157 150.141 49.5328 153.314 45.9086 153.314C42.2844 153.314 38.6602 150.141 38.6602 146.968C38.6602 143.796 42.2844 140.623 45.9086 140.623C49.5328 140.623 53.157 143.796 53.157 146.968Z" fill="#131313"/>
<path d="M53.157 114.182C53.157 117.355 49.5328 120.528 45.9086 120.528C42.2844 120.528 38.6602 117.355 38.6602 114.182C38.6602 111.009 42.2844 107.837 45.9086 107.837C50.7408 107.837 53.157 111.009 53.157 114.182Z" fill="#131313"/>
<path d="M89.3992 101.491C89.3992 104.664 85.775 107.836 82.1508 107.836C78.5266 107.836 74.9023 104.664 74.9023 101.491C74.9023 98.3178 78.5266 95.1449 82.1508 95.1449C85.775 95.1449 89.3992 98.3178 89.3992 101.491Z" fill="#131313"/>
<path d="M88.1897 134.277C88.1897 137.45 84.5655 140.623 80.9413 140.623C77.3171 140.623 73.6929 137.45 73.6929 134.277C73.6929 131.104 77.3171 127.931 80.9413 127.931C84.5655 127.931 88.1897 130.046 88.1897 134.277Z" fill="#131313"/>
<path d="M86.9807 166.006C86.9807 169.178 83.3565 172.351 79.7323 172.351C76.1081 172.351 72.4839 169.178 72.4839 166.006C72.4839 162.833 76.1081 159.66 79.7323 159.66C83.3565 159.66 86.9807 162.833 86.9807 166.006Z" fill="#131313"/>
<path d="M119.601 185.043C119.601 188.216 115.977 191.388 112.352 191.388C108.728 191.388 105.104 188.216 105.104 185.043C105.104 181.87 108.728 178.697 112.352 178.697C115.977 178.697 119.601 180.812 119.601 185.043Z" fill="#131313"/>
<path d="M122.016 152.257C122.016 155.429 118.392 158.602 114.768 158.602C111.144 158.602 107.52 155.429 107.52 152.257C107.52 149.084 111.144 145.911 114.768 145.911C118.392 145.911 122.016 149.084 122.016 152.257Z" fill="#131313"/>
<path d="M123.223 120.528C123.223 123.701 119.599 126.874 115.974 126.874C112.35 126.874 108.726 123.701 108.726 120.528C108.726 117.355 112.35 114.182 115.974 114.182C120.807 114.182 123.223 117.355 123.223 120.528Z" fill="#131313"/>
<path d="M124.432 87.7417C124.432 90.9146 120.808 94.0874 117.183 94.0874C112.351 94.0874 109.935 90.9146 109.935 87.7417C109.935 84.5688 113.559 81.396 117.183 81.396C120.808 81.396 124.432 84.5688 124.432 87.7417Z" fill="#131313"/>
<path d="M158.259 106.779C158.259 109.952 154.634 113.124 151.01 113.124C147.386 113.124 143.762 109.952 143.762 106.779C143.762 103.606 147.386 100.433 151.01 100.433C155.842 100.433 158.259 103.606 158.259 106.779Z" fill="#131313"/>
<path d="M158.259 139.565C158.259 142.738 154.634 145.911 151.01 145.911C147.386 145.911 143.762 142.738 143.762 139.565C143.762 136.392 147.386 133.219 151.01 133.219C154.634 132.162 158.259 135.335 158.259 139.565Z" fill="#131313"/>
<path d="M155.843 171.294C155.843 174.467 152.219 177.639 148.595 177.639C144.97 177.639 141.346 174.467 141.346 171.294C141.346 168.121 144.97 164.948 148.595 164.948C152.219 164.948 155.843 167.063 155.843 171.294Z" fill="#131313"/>
<path d="M152.218 203.022C152.218 206.195 148.594 209.368 144.97 209.368C141.345 209.368 137.721 206.195 137.721 203.022C137.721 199.849 141.345 196.677 144.97 196.677C148.594 196.677 152.218 199.849 152.218 203.022Z" fill="#131313"/>
<path d="M117.182 217.829C117.182 221.002 113.558 224.175 109.934 224.175C106.31 224.175 102.686 221.002 102.686 217.829C102.686 214.656 106.31 211.483 109.934 211.483C113.558 210.426 117.182 213.598 117.182 217.829Z" fill="#131313"/>
<path d="M85.7742 199.849C85.7742 203.022 82.15 206.195 78.5258 206.195C74.9015 206.195 71.2773 203.022 71.2773 199.849C71.2773 196.676 74.9015 193.504 78.5258 193.504C82.15 192.446 85.7742 195.619 85.7742 199.849Z" fill="#131313"/>
<path d="M51.948 214.656C51.948 217.829 48.3238 221.002 44.6996 221.002C41.0754 221.002 37.4512 217.829 37.4512 214.656C37.4512 211.483 41.0754 208.31 44.6996 208.31C48.3238 208.31 51.948 211.483 51.948 214.656Z" fill="#131313"/>
<path d="M20.5369 230.52C20.5369 233.693 16.9127 236.866 13.2884 236.866C9.66424 236.866 6.04004 233.693 6.04004 230.52C6.04004 227.348 9.66424 224.175 13.2884 224.175C16.9127 224.175 20.5369 227.348 20.5369 230.52Z" fill="#131313"/>
<path d="M49.532 248.5C49.532 251.673 45.9078 254.846 42.2836 254.846C38.6594 254.846 35.0352 251.673 35.0352 248.5C35.0352 245.327 38.6594 242.154 42.2836 242.154C47.1158 242.154 49.532 244.269 49.532 248.5Z" fill="#131313"/>
<path d="M79.7341 266.48C79.7341 269.652 76.1099 272.825 72.4857 272.825C68.8615 272.825 65.2373 269.652 65.2373 266.48C65.2373 263.307 67.6534 260.134 72.4857 260.134C76.1099 260.134 79.7341 262.249 79.7341 266.48Z" fill="#131313"/>
<path d="M108.726 284.459C108.726 288.69 105.102 291.863 101.478 291.863C97.8537 291.863 94.2295 288.69 94.2295 285.517C94.2295 282.344 97.8537 279.171 101.478 279.171C105.102 278.114 108.726 281.286 108.726 284.459Z" fill="#131313"/>
<path d="M105.102 319.361C105.102 322.533 101.478 325.706 97.8534 325.706C94.2292 325.706 90.605 322.533 90.605 319.361C90.605 316.188 94.2292 313.015 97.8534 313.015C101.478 311.957 105.102 315.13 105.102 319.361Z" fill="#131313"/>
<path d="M76.1091 300.324C76.1091 303.496 72.4849 306.669 68.8607 306.669C65.2365 306.669 61.6123 303.496 61.6123 300.324C61.6123 297.151 65.2365 293.978 68.8607 293.978C72.4849 293.978 76.1091 297.151 76.1091 300.324Z" fill="#131313"/>
<path d="M47.1164 282.344C47.1164 285.517 43.4922 288.69 39.868 288.69C36.2438 288.69 32.6196 285.517 32.6196 282.344C32.6196 279.171 36.2438 275.998 39.868 275.998C43.4922 275.998 47.1164 279.171 47.1164 282.344Z" fill="#131313"/>
<path d="M18.1213 264.364C18.1213 267.537 14.4971 270.71 10.8729 270.71C7.24872 270.71 3.62451 267.537 3.62451 264.364C3.62451 261.191 7.24872 258.018 10.8729 258.018C14.4971 258.018 18.1213 261.191 18.1213 264.364Z" fill="#131313"/>
<path d="M15.7058 300.324C15.7058 303.496 12.0816 306.669 8.45739 306.669C4.83319 306.669 1.20898 303.496 1.20898 300.324C1.20898 297.151 4.83319 293.978 8.45739 293.978C12.0816 293.978 15.7058 297.151 15.7058 300.324Z" fill="#131313"/>
<path d="M43.4919 317.245C43.4919 320.418 39.8677 323.591 36.2435 323.591C32.6193 323.591 28.9951 320.418 28.9951 317.245C28.9951 314.072 32.6193 310.9 36.2435 310.9C39.8677 310.9 43.4919 314.072 43.4919 317.245Z" fill="#131313"/>
<path d="M15.7058 339.455C15.7058 342.628 12.0816 345.801 8.45739 345.801C4.83319 345.801 1.20898 342.628 1.20898 339.455C1.20898 336.282 4.83319 333.11 8.45739 333.11C12.0816 332.052 15.7058 335.225 15.7058 339.455Z" fill="#131313"/>
<path d="M42.2829 352.147C42.2829 355.32 38.6587 358.493 35.0345 358.493C31.4103 358.493 27.7861 355.32 27.7861 352.147C27.7861 348.974 31.4103 345.801 35.0345 345.801C38.6587 344.744 42.2829 347.916 42.2829 352.147Z" fill="#131313"/>
<path d="M21.7463 378.587C21.7463 381.76 18.1221 384.933 14.4979 384.933C10.8737 384.933 7.24951 381.76 7.24951 378.587C7.24951 375.415 10.8737 372.242 14.4979 372.242C18.1221 372.242 21.7463 375.415 21.7463 378.587Z" fill="#131313"/>
<path d="M51.948 400.798C51.948 403.97 48.3238 407.143 44.6996 407.143C41.0754 407.143 37.4512 403.97 37.4512 400.798C37.4512 397.625 41.0754 394.452 44.6996 394.452C48.3238 394.452 51.948 397.625 51.948 400.798Z" fill="#131313"/>
<path d="M19.3303 416.662C19.3303 419.835 15.7061 423.008 12.0819 423.008C8.4577 423.008 4.8335 419.835 4.8335 416.662C4.8335 413.489 8.4577 410.316 12.0819 410.316C15.7061 410.316 19.3303 412.431 19.3303 416.662Z" fill="#131313"/>
<path d="M48.3241 435.699C48.3241 438.872 44.6999 442.045 41.0757 442.045C37.4515 442.045 33.8273 438.872 33.8273 435.699C32.6192 432.526 36.2434 429.353 39.8676 429.353C44.6999 429.353 48.3241 432.526 48.3241 435.699Z" fill="#131313"/>
<path d="M19.3303 455.794C19.3303 458.966 15.7061 462.139 12.0819 462.139C8.4577 462.139 4.8335 458.966 4.8335 455.794C4.8335 452.621 8.4577 449.448 12.0819 449.448C15.7061 449.448 19.3303 452.621 19.3303 455.794Z" fill="#131313"/>
<path d="M19.3303 491.753C19.3303 494.926 15.7061 498.098 12.0819 498.098C8.4577 498.098 4.8335 494.926 4.8335 491.753C4.8335 488.58 8.4577 485.407 12.0819 485.407C16.9142 485.407 19.3303 488.58 19.3303 491.753Z" fill="#131313"/>
<path d="M15.7058 526.654C15.7058 529.827 12.0816 533 8.45739 533C4.83319 533 1.20898 529.827 1.20898 526.654C1.20898 523.481 4.83319 520.309 8.45739 520.309C12.0816 520.309 15.7058 523.481 15.7058 526.654Z" fill="#131313"/>
<path d="M55.5725 503.387C55.5725 506.559 51.9483 509.732 48.3241 509.732C44.6999 509.732 41.0757 506.559 41.0757 503.387C41.0757 500.214 44.6999 497.041 48.3241 497.041C53.1564 497.041 55.5725 500.214 55.5725 503.387Z" fill="#131313"/>
<path d="M51.948 472.716C51.948 475.888 48.3238 479.061 44.6996 479.061C41.0754 479.061 37.4512 475.888 37.4512 472.716C37.4512 469.543 41.0754 466.37 44.6996 466.37C48.3238 466.37 51.948 468.485 51.948 472.716Z" fill="#131313"/>
<path d="M93.0212 482.234C93.0212 485.407 89.397 488.58 85.7728 488.58C82.1486 488.58 78.5244 485.407 78.5244 482.234C78.5244 479.061 82.1486 475.888 85.7728 475.888C89.397 475.888 93.0212 478.004 93.0212 482.234Z" fill="#131313"/>
<path d="M77.3181 453.679C77.3181 456.851 73.6939 460.024 70.0697 460.024C66.4455 460.024 62.8213 456.851 62.8213 453.679C62.8213 450.506 66.4455 447.333 70.0697 447.333C74.902 447.333 77.3181 450.506 77.3181 453.679Z" fill="#131313"/>
<path d="M109.936 444.16C109.936 447.333 106.312 450.505 102.687 450.505C99.0632 450.505 95.439 447.333 95.439 444.16C95.439 440.987 99.0632 437.814 102.687 437.814C106.312 436.756 109.936 439.929 109.936 444.16Z" fill="#131313"/>
<path d="M132.888 465.312C132.888 468.485 129.264 471.658 125.64 471.658C122.015 471.658 118.391 468.485 118.391 465.312C118.391 462.139 122.015 458.966 125.64 458.966C129.264 458.966 132.888 462.139 132.888 465.312Z" fill="#131313"/>
<path d="M171.546 448.39C171.546 451.563 167.921 454.736 164.297 454.736C160.673 454.736 157.049 451.563 157.049 448.39C157.049 445.218 160.673 442.045 164.297 442.045C167.921 442.045 171.546 445.218 171.546 448.39Z" fill="#131313"/>
<path d="M143.762 430.411C143.762 433.584 140.138 436.757 136.514 436.757C132.889 436.757 129.265 433.584 129.265 430.411C129.265 427.238 132.889 424.065 136.514 424.065C140.138 424.065 143.762 427.238 143.762 430.411Z" fill="#131313"/>
<path d="M80.9407 420.892C80.9407 424.065 77.3165 427.238 73.6923 427.238C70.068 427.238 66.4438 424.065 66.4438 420.892C66.4438 417.719 70.068 414.547 73.6923 414.547C77.3165 414.547 80.9407 417.719 80.9407 420.892Z" fill="#131313"/>
<path d="M117.182 410.316C117.182 413.489 113.558 416.662 109.934 416.662C106.31 416.662 102.686 413.489 102.686 410.316C102.686 407.143 106.31 403.97 109.934 403.97C113.558 402.913 117.182 406.086 117.182 410.316Z" fill="#131313"/>
<path d="M124.432 374.357C124.432 377.53 120.808 380.703 117.183 380.703C113.559 380.703 109.935 377.53 109.935 374.357C109.935 371.184 113.559 368.011 117.183 368.011C120.808 368.011 124.432 371.184 124.432 374.357Z" fill="#131313"/>
<path d="M90.6057 389.164C90.6057 392.337 86.9815 395.509 83.3573 395.509C79.7331 395.509 76.1089 392.337 76.1089 389.164C76.1089 385.991 79.7331 382.818 83.3573 382.818C86.9815 382.818 90.6057 385.991 90.6057 389.164Z" fill="#131313"/>
<path d="M64.0286 371.184C64.0286 374.357 60.4044 377.53 56.7801 377.53C53.1559 377.53 49.5317 374.357 49.5317 371.184C49.5317 368.011 53.1559 364.838 56.7801 364.838C60.4044 364.838 64.0286 366.953 64.0286 371.184Z" fill="#131313"/>
<path d="M72.4846 334.167C72.4846 337.34 68.8604 340.513 65.2362 340.513C61.612 340.513 57.9878 337.34 57.9878 334.167C57.9878 330.994 61.612 327.821 65.2362 327.821C68.8604 327.821 72.4846 330.994 72.4846 334.167Z" fill="#131313"/>
<path d="M97.8547 355.32C97.8547 358.493 94.2305 361.665 90.6063 361.665C86.9821 361.665 83.3579 358.493 83.3579 355.32C83.3579 352.147 86.9821 348.974 90.6063 348.974C94.2305 347.916 97.8547 351.089 97.8547 355.32Z" fill="#131313"/>
<path d="M130.472 339.455C130.472 342.628 126.848 345.801 123.224 345.801C119.6 345.801 115.976 342.628 115.976 339.455C115.976 336.282 119.6 333.11 123.224 333.11C126.848 332.052 130.472 335.225 130.472 339.455Z" fill="#131313"/>
<path d="M157.049 358.493C157.049 361.666 153.425 364.838 149.801 364.838C146.176 364.838 142.552 361.666 142.552 358.493C142.552 355.32 146.176 352.147 149.801 352.147C153.425 352.147 157.049 355.32 157.049 358.493Z" fill="#131313"/>
<path d="M182.42 378.587C182.42 381.76 178.795 384.933 175.171 384.933C171.547 384.933 167.923 381.76 167.923 378.587C167.923 375.415 171.547 372.242 175.171 372.242C178.795 371.184 182.42 374.357 182.42 378.587Z" fill="#131313"/>
<path d="M149.802 394.452C149.802 397.625 146.178 400.797 142.554 400.797C138.93 400.797 135.306 397.625 135.306 394.452C135.306 391.279 138.93 388.106 142.554 388.106C146.178 388.106 149.802 391.279 149.802 394.452Z" fill="#131313"/>
<path d="M176.379 413.489C176.379 416.662 172.755 419.835 169.131 419.835C165.507 419.835 161.882 416.662 161.882 413.489C161.882 410.316 165.507 407.143 169.131 407.143C172.755 407.143 176.379 409.258 176.379 413.489Z" fill="#131313"/>
<path d="M206.581 428.295C206.581 431.468 202.957 434.641 199.332 434.641C195.708 434.641 192.084 431.468 192.084 428.295C192.084 425.123 195.708 421.95 199.332 421.95C202.957 421.95 206.581 424.065 206.581 428.295Z" fill="#131313"/>
<path d="M210.206 395.509C210.206 398.682 206.582 401.855 202.957 401.855C199.333 401.855 195.709 398.682 195.709 395.509C195.709 392.336 199.333 389.163 202.957 389.163C206.582 388.106 210.206 391.279 210.206 395.509Z" fill="#131313"/>
<path d="M240.407 410.316C240.407 413.489 236.783 416.662 233.159 416.662C229.535 416.662 225.911 413.489 225.911 410.316C225.911 407.143 229.535 403.97 233.159 403.97C236.783 402.913 240.407 406.086 240.407 410.316Z" fill="#131313"/>
<path d="M276.65 394.452C276.65 397.625 273.025 400.797 269.401 400.797C265.777 400.797 262.153 397.625 262.153 394.452C262.153 391.279 265.777 388.106 269.401 388.106C273.025 388.106 276.65 391.279 276.65 394.452Z" fill="#131313"/>
<path d="M245.239 378.587C245.239 381.76 241.615 384.933 237.991 384.933C234.366 384.933 230.742 381.76 230.742 378.587C230.742 375.415 234.366 372.242 237.991 372.242C241.615 372.242 245.239 375.415 245.239 378.587Z" fill="#131313"/>
<path d="M280.272 363.781C280.272 366.953 276.648 370.126 273.023 370.126C269.399 370.126 265.775 366.953 265.775 363.781C265.775 360.608 269.399 357.435 273.023 357.435C276.648 356.377 280.272 359.55 280.272 363.781Z" fill="#131313"/>
<path d="M311.682 376.472C311.682 379.645 308.058 382.818 304.434 382.818C300.81 382.818 297.186 379.645 297.186 376.472C297.186 373.299 300.81 370.126 304.434 370.126C308.058 370.126 311.682 373.299 311.682 376.472Z" fill="#131313"/>
<path d="M283.896 332.052C283.896 335.225 280.272 338.398 276.648 338.398C273.024 338.398 269.399 335.225 269.399 332.052C269.399 328.879 273.024 325.706 276.648 325.706C280.272 324.649 283.896 327.821 283.896 332.052Z" fill="#131313"/>
<path d="M259.735 313.015C259.735 316.188 256.111 319.361 252.487 319.361C248.862 319.361 245.238 316.188 245.238 313.015C245.238 309.842 248.862 306.669 252.487 306.669C257.319 306.669 259.735 309.842 259.735 313.015Z" fill="#131313"/>
<path d="M234.367 293.978C234.367 297.151 230.743 300.323 227.119 300.323C223.494 300.323 219.87 297.151 219.87 293.978C219.87 290.805 223.494 287.632 227.119 287.632C230.743 287.632 234.367 290.805 234.367 293.978Z" fill="#131313"/>
<path d="M198.125 308.784C198.125 311.957 194.501 315.13 190.877 315.13C187.253 315.13 183.628 311.957 183.628 308.784C183.628 305.612 187.253 302.439 190.877 302.439C194.501 301.381 198.125 304.554 198.125 308.784Z" fill="#131313"/>
<path d="M224.702 327.821C224.702 330.994 221.078 334.167 217.453 334.167C213.829 334.167 210.205 330.994 210.205 327.821C210.205 324.649 213.829 321.476 217.453 321.476C221.078 321.476 224.702 323.591 224.702 327.821Z" fill="#131313"/>
<path d="M250.07 346.859C250.07 350.032 246.446 353.205 242.822 353.205C239.197 353.205 235.573 350.032 235.573 346.859C235.573 343.686 239.197 340.513 242.822 340.513C247.654 340.513 250.07 342.628 250.07 346.859Z" fill="#131313"/>
<path d="M216.246 361.665C216.246 364.838 212.622 368.011 208.997 368.011C205.373 368.011 201.749 364.838 201.749 361.665C201.749 358.493 205.373 355.32 208.997 355.32C212.622 355.32 216.246 358.493 216.246 361.665Z" fill="#131313"/>
<path d="M189.667 342.628C189.667 345.801 186.043 348.974 182.418 348.974C178.794 348.974 175.17 345.801 175.17 342.628C175.17 339.456 178.794 336.283 182.418 336.283C187.251 336.283 189.667 339.456 189.667 342.628Z" fill="#131313"/>
<path d="M164.299 323.591C164.299 326.764 160.674 329.937 157.05 329.937C153.426 329.937 149.802 326.764 149.802 323.591C149.802 320.418 153.426 317.245 157.05 317.245C160.674 317.245 164.299 319.36 164.299 323.591Z" fill="#131313"/>
<path d="M137.721 303.496C137.721 306.669 134.097 309.842 130.473 309.842C126.849 309.842 123.225 306.669 123.225 303.496C123.225 300.323 126.849 297.151 130.473 297.151C134.097 297.151 137.721 300.323 137.721 303.496Z" fill="#131313"/>
<path d="M171.546 288.69C171.546 291.863 167.921 295.035 164.297 295.035C160.673 295.035 157.049 291.863 157.049 288.69C157.049 285.517 160.673 282.344 164.297 282.344C167.921 282.344 171.546 285.517 171.546 288.69Z" fill="#131313"/>
<path d="M142.553 269.652C142.553 272.825 138.929 275.998 135.305 275.998C131.68 275.998 128.056 272.825 128.056 269.652C128.056 266.479 131.68 263.307 135.305 263.307C138.929 263.307 142.553 265.422 142.553 269.652Z" fill="#131313"/>
<path d="M113.56 250.615C113.56 253.788 109.936 256.961 106.312 256.961C102.688 256.961 99.0635 253.788 99.0635 250.615C99.0635 247.442 102.688 244.27 106.312 244.27C109.936 244.27 113.56 247.442 113.56 250.615Z" fill="#131313"/>
<path d="M83.3586 232.636C83.3586 235.808 79.7344 238.981 76.1102 238.981C72.486 238.981 68.8618 235.808 68.8618 232.636C68.8618 229.463 72.486 226.29 76.1102 226.29C79.7344 226.29 83.3586 228.405 83.3586 232.636Z" fill="#131313"/>
<path d="M147.384 235.809C147.384 238.981 143.76 242.154 140.136 242.154C136.511 242.154 132.887 238.981 132.887 235.809C132.887 232.636 136.511 229.463 140.136 229.463C143.76 229.463 147.384 232.636 147.384 235.809Z" fill="#131313"/>
<path d="M177.586 255.903C177.586 259.076 173.962 262.249 170.338 262.249C166.714 262.249 163.089 259.076 163.089 255.903C163.089 252.731 166.714 249.558 170.338 249.558C173.962 248.5 177.586 251.673 177.586 255.903Z" fill="#131313"/>
<path d="M206.581 274.94C206.581 278.113 202.957 281.286 199.332 281.286C195.708 281.286 192.084 278.113 192.084 274.94C192.084 271.768 195.708 268.595 199.332 268.595C202.957 268.595 206.581 270.71 206.581 274.94Z" fill="#131313"/>
<path d="M244.029 263.307C244.029 266.479 240.405 269.652 236.781 269.652C233.157 269.652 229.533 266.479 229.533 263.307C229.533 260.134 233.157 256.961 236.781 256.961C240.405 255.903 244.029 259.076 244.029 263.307Z" fill="#131313"/>
<path d="M279.065 250.615C279.065 253.788 275.441 256.961 271.817 256.961C268.193 256.961 264.568 253.788 264.568 250.615C264.568 247.442 268.193 244.27 271.817 244.27C275.441 244.27 279.065 247.442 279.065 250.615Z" fill="#131313"/>
<path d="M315.307 238.981C315.307 242.154 311.683 245.327 308.059 245.327C304.435 245.327 300.811 242.154 300.811 238.981C300.811 235.809 304.435 232.636 308.059 232.636C311.683 231.578 315.307 234.751 315.307 238.981Z" fill="#131313"/>
<path d="M310.473 272.825C310.473 275.998 306.849 279.171 303.225 279.171C299.601 279.171 295.977 275.998 295.977 272.825C295.977 269.652 299.601 266.48 303.225 266.48C306.849 266.48 310.473 269.652 310.473 272.825Z" fill="#131313"/>
<path d="M274.231 284.459C274.231 287.632 270.607 290.805 266.983 290.805C263.359 290.805 259.734 287.632 259.734 284.459C259.734 281.286 263.359 278.114 266.983 278.114C270.607 278.114 274.231 281.286 274.231 284.459Z" fill="#131313"/>
<path d="M306.851 306.669C306.851 309.842 303.227 313.015 299.603 313.015C295.979 313.015 292.354 309.842 292.354 306.669C292.354 303.496 295.979 300.323 299.603 300.323C303.227 300.323 306.851 303.496 306.851 306.669Z" fill="#131313"/>
<path d="M343.093 324.649C343.093 327.822 339.469 330.994 335.845 330.994C332.221 330.994 328.597 327.822 328.597 324.649C328.597 321.476 332.221 318.303 335.845 318.303C339.469 318.303 343.093 320.418 343.093 324.649Z" fill="#131313"/>
<path d="M314.098 342.628C314.098 345.801 310.474 348.974 306.849 348.974C303.225 348.974 299.601 345.801 299.601 342.628C299.601 339.456 303.225 336.283 306.849 336.283C310.474 336.283 314.098 339.456 314.098 342.628Z" fill="#131313"/>
<path d="M344.3 358.492C344.3 361.665 340.676 364.838 337.052 364.838C333.427 364.838 329.803 361.665 329.803 358.492C329.803 355.32 333.427 352.147 337.052 352.147C340.676 351.089 344.3 354.262 344.3 358.492Z" fill="#131313"/>
<path d="M378.126 341.571C378.126 344.744 374.502 347.916 370.878 347.916C367.254 347.916 363.629 344.744 363.629 341.571C363.629 338.398 367.254 335.225 370.878 335.225C374.502 335.225 378.126 338.398 378.126 341.571Z" fill="#131313"/>
<path d="M379.335 309.842C379.335 313.015 375.711 316.188 372.087 316.188C368.463 316.188 364.838 313.015 364.838 309.842C364.838 306.669 368.463 303.496 372.087 303.496C375.711 303.496 379.335 306.669 379.335 309.842Z" fill="#131313"/>
<path d="M378.126 279.171C378.126 282.344 374.502 285.517 370.878 285.517C367.254 285.517 363.629 282.344 363.629 279.171C363.629 275.998 367.254 272.825 370.878 272.825C375.71 271.768 378.126 274.94 378.126 279.171Z" fill="#131313"/>
<path d="M416.784 293.978C416.784 297.151 413.16 300.323 409.536 300.323C405.911 300.323 402.287 297.151 402.287 293.978C402.287 290.805 405.911 287.632 409.536 287.632C413.16 286.574 416.784 289.747 416.784 293.978Z" fill="#131313"/>
<path d="M414.368 324.649C414.368 327.822 410.744 330.995 407.12 330.995C403.496 330.995 399.872 327.822 399.872 324.649C399.872 321.476 403.496 318.303 407.12 318.303C411.952 317.245 414.368 320.418 414.368 324.649Z" fill="#131313"/>
<path d="M453.026 302.439C453.026 305.611 449.401 308.784 445.777 308.784C442.153 308.784 438.529 305.611 438.529 302.439C438.529 299.266 442.153 296.093 445.777 296.093C449.401 295.035 453.026 298.208 453.026 302.439Z" fill="#131313"/>
<path d="M489.268 282.344C489.268 285.517 485.644 288.69 482.019 288.69C478.395 288.69 474.771 285.517 474.771 282.344C474.771 279.171 478.395 275.998 482.019 275.998C485.644 275.998 489.268 279.171 489.268 282.344Z" fill="#131313"/>
<path d="M453.026 265.422C453.026 268.595 449.401 271.768 445.777 271.768C442.153 271.768 438.529 268.595 438.529 265.422C438.529 262.249 442.153 259.076 445.777 259.076C449.401 259.076 453.026 262.249 453.026 265.422Z" fill="#131313"/>
<path d="M460.275 229.463C460.275 232.636 456.651 235.809 453.027 235.809C449.403 235.809 445.778 232.636 445.778 229.463C445.778 226.29 449.403 223.117 453.027 223.117C456.651 222.06 460.275 225.232 460.275 229.463Z" fill="#131313"/>
<path d="M491.683 248.5C491.683 251.673 488.059 254.846 484.435 254.846C480.811 254.846 477.187 251.673 477.187 248.5C477.187 245.327 480.811 242.154 484.435 242.154C488.059 242.154 491.683 244.269 491.683 248.5Z" fill="#131313"/>
<path d="M529.135 265.422C529.135 268.595 525.51 271.768 521.886 271.768C518.262 271.768 514.638 268.595 514.638 265.422C514.638 262.249 518.262 259.076 521.886 259.076C525.51 258.019 529.135 261.191 529.135 265.422Z" fill="#131313"/>
<path d="M569.001 246.385C569.001 249.558 566.585 251.673 562.961 251.673C559.337 251.673 556.92 249.558 556.92 246.385C556.92 243.212 559.337 241.097 562.961 241.097C566.585 241.097 569.001 243.212 569.001 246.385Z" fill="#131313"/>
<path d="M530.344 232.636C530.344 235.808 526.72 238.981 523.096 238.981C519.471 238.981 515.847 235.808 515.847 232.636C515.847 229.463 519.471 226.29 523.096 226.29C526.72 226.29 530.344 228.405 530.344 232.636Z" fill="#131313"/>
<path d="M496.517 212.541C496.517 215.714 492.893 218.887 489.269 218.887C485.645 218.887 482.021 215.714 482.021 212.541C482.021 209.368 485.645 206.195 489.269 206.195C494.101 206.195 496.517 208.31 496.517 212.541Z" fill="#131313"/>
<path d="M461.482 193.504C461.482 196.677 457.857 199.85 454.233 199.85C450.609 199.85 446.985 196.677 446.985 193.504C446.985 190.331 450.609 187.158 454.233 187.158C457.857 187.158 461.482 190.331 461.482 193.504Z" fill="#131313"/>
<path d="M425.24 205.138C425.24 208.311 421.616 211.483 417.992 211.483C414.367 211.483 410.743 208.311 410.743 205.138C410.743 201.965 414.367 198.792 417.992 198.792C421.616 198.792 425.24 201.965 425.24 205.138Z" fill="#131313"/>
<path d="M422.824 236.866C422.824 240.039 419.2 243.212 415.576 243.212C411.951 243.212 408.327 240.039 408.327 236.866C408.327 233.693 411.951 230.521 415.576 230.521C419.2 230.521 422.824 232.636 422.824 236.866Z" fill="#131313"/>
<path d="M413.159 265.422C413.159 268.595 409.535 271.768 405.91 271.768C402.286 271.768 398.662 268.595 398.662 265.422C398.662 262.249 402.286 259.076 405.91 259.076C410.743 258.019 413.159 261.191 413.159 265.422Z" fill="#131313"/>
<path d="M382.957 246.385C382.957 249.558 379.333 252.731 375.709 252.731C372.085 252.731 368.46 249.558 368.46 246.385C368.46 243.212 372.085 240.039 375.709 240.039C379.333 238.981 382.957 242.154 382.957 246.385Z" fill="#131313"/>
<path d="M341.884 292.92C341.884 296.093 338.26 299.266 334.636 299.266C331.011 299.266 327.387 296.093 327.387 292.92C327.387 289.747 331.011 286.574 334.636 286.574C339.468 285.517 341.884 288.69 341.884 292.92Z" fill="#131313"/>
<path d="M345.509 259.076C345.509 262.249 341.885 265.422 338.261 265.422C334.636 265.422 331.012 262.249 331.012 259.076C331.012 255.903 334.636 252.73 338.261 252.73C343.093 252.73 345.509 255.903 345.509 259.076Z" fill="#131313"/>
<path d="M350.34 226.29C350.34 229.463 346.716 232.636 343.092 232.636C339.467 232.636 335.843 229.463 335.843 226.29C335.843 223.117 339.467 219.944 343.092 219.944C346.716 219.944 350.34 222.06 350.34 226.29Z" fill="#131313"/>
<path d="M388.998 214.656C388.998 217.829 385.374 221.002 381.749 221.002C378.125 221.002 374.501 217.829 374.501 214.656C374.501 211.483 378.125 208.31 381.749 208.31C385.374 208.31 388.998 211.483 388.998 214.656Z" fill="#131313"/>
<path d="M390.207 182.928C390.207 186.1 386.583 189.273 382.958 189.273C379.334 189.273 375.71 186.1 375.71 182.928C375.71 179.755 379.334 176.582 382.958 176.582C386.583 175.524 390.207 178.697 390.207 182.928Z" fill="#131313"/>
<path d="M424.033 173.409C424.033 176.582 420.409 179.755 416.785 179.755C413.161 179.755 409.537 176.582 409.537 173.409C409.537 170.236 413.161 167.063 416.785 167.063C420.409 168.121 424.033 170.236 424.033 173.409Z" fill="#131313"/>
<path d="M386.582 150.141C386.582 153.314 384.166 155.429 380.541 155.429C376.917 155.429 374.501 153.314 374.501 150.141C374.501 146.968 376.917 144.853 380.541 144.853C384.166 144.853 386.582 146.968 386.582 150.141Z" fill="#131313"/>
<path d="M357.59 159.66C357.59 162.833 353.965 166.006 350.341 166.006C346.717 166.006 343.093 162.833 343.093 159.66C343.093 156.487 346.717 153.314 350.341 153.314C353.965 153.314 357.59 155.429 357.59 159.66Z" fill="#131313"/>
<path d="M355.174 193.504C355.174 196.677 351.55 199.85 347.926 199.85C344.301 199.85 340.677 196.677 340.677 193.504C340.677 190.331 344.301 187.158 347.926 187.158C351.55 187.158 355.174 189.273 355.174 193.504Z" fill="#131313"/>
<path d="M323.763 169.178C323.763 172.351 320.139 175.524 316.515 175.524C312.891 175.524 309.267 172.351 309.267 169.178C309.267 166.005 312.891 162.833 316.515 162.833C320.139 162.833 323.763 166.005 323.763 169.178Z" fill="#131313"/>
<path d="M337.053 133.219C337.053 136.392 333.429 139.565 329.805 139.565C326.18 139.565 322.556 136.392 322.556 133.219C322.556 130.046 326.18 126.874 329.805 126.874C333.429 126.874 337.053 130.046 337.053 133.219Z" fill="#131313"/>
<path d="M302.017 112.067C302.017 115.24 298.393 118.413 294.769 118.413C291.145 118.413 287.521 115.24 287.521 112.067C287.521 108.894 291.145 105.721 294.769 105.721C298.393 105.721 302.017 108.894 302.017 112.067Z" fill="#131313"/>
<path d="M264.569 94.0875C264.569 97.2603 260.945 100.433 257.321 100.433C253.696 100.433 250.072 97.2603 250.072 94.0875C250.072 90.9146 253.696 87.7417 257.321 87.7417C260.945 87.7417 264.569 89.857 264.569 94.0875Z" fill="#131313"/>
<path d="M264.569 127.931C264.569 131.104 260.945 134.277 257.321 134.277C253.696 134.277 250.072 131.104 250.072 127.931C250.072 124.758 253.696 121.585 257.321 121.585C262.153 120.528 264.569 123.701 264.569 127.931Z" fill="#131313"/>
<path d="M298.393 145.911C298.393 149.084 294.769 152.257 291.144 152.257C287.52 152.257 283.896 149.084 283.896 145.911C283.896 142.738 287.52 139.565 291.144 139.565C294.769 139.565 298.393 142.738 298.393 145.911Z" fill="#131313"/>
<path d="M289.937 181.87C289.937 185.043 286.313 188.216 282.688 188.216C279.064 188.216 275.44 185.043 275.44 181.87C275.44 178.697 279.064 175.524 282.688 175.524C286.313 175.524 289.937 178.697 289.937 181.87Z" fill="#131313"/>
<path d="M318.932 204.08C318.932 207.253 315.308 210.426 311.683 210.426C308.059 210.426 304.435 207.253 304.435 204.08C304.435 200.907 308.059 197.734 311.683 197.734C315.308 197.734 318.932 200.907 318.932 204.08Z" fill="#131313"/>
<path d="M283.896 216.771C283.896 219.944 280.272 223.117 276.648 223.117C273.024 223.117 269.399 219.944 269.399 216.771C269.399 213.598 273.024 210.426 276.648 210.426C280.272 210.426 283.896 213.598 283.896 216.771Z" fill="#131313"/>
<path d="M248.864 229.463C248.864 232.636 245.239 235.809 241.615 235.809C237.991 235.809 234.367 232.636 234.367 229.463C234.367 226.29 237.991 223.117 241.615 223.117C245.239 223.117 248.864 226.29 248.864 229.463Z" fill="#131313"/>
<path d="M218.662 209.368C218.662 212.541 215.038 215.714 211.413 215.714C207.789 215.714 204.165 212.541 204.165 209.368C204.165 206.195 207.789 203.022 211.413 203.022C215.038 201.965 218.662 205.138 218.662 209.368Z" fill="#131313"/>
<path d="M213.828 242.154C213.828 245.327 210.204 248.5 206.579 248.5C202.955 248.5 199.331 245.327 199.331 242.154C199.331 238.982 202.955 235.809 206.579 235.809C210.204 235.809 213.828 238.982 213.828 242.154Z" fill="#131313"/>
<path d="M183.626 222.059C183.626 225.232 180.002 228.405 176.378 228.405C172.754 228.405 169.129 225.232 169.129 222.059C169.129 218.887 172.754 215.714 176.378 215.714C180.002 215.714 183.626 218.887 183.626 222.059Z" fill="#131313"/>
<path d="M188.46 190.331C188.46 193.504 184.836 196.677 181.212 196.677C177.588 196.677 173.963 193.504 173.963 190.331C173.963 187.158 177.588 183.985 181.212 183.985C184.836 182.927 188.46 186.1 188.46 190.331Z" fill="#131313"/>
<path d="M192.085 157.545C192.085 160.718 188.46 163.89 184.836 163.89C181.212 163.89 177.588 160.718 177.588 157.545C177.588 154.372 181.212 151.199 184.836 151.199C188.46 151.199 192.085 153.314 192.085 157.545Z" fill="#131313"/>
<path d="M223.493 175.524C223.493 178.697 219.869 181.87 216.244 181.87C212.62 181.87 208.996 178.697 208.996 175.524C208.996 172.351 212.62 169.178 216.244 169.178C221.077 169.178 223.493 172.351 223.493 175.524Z" fill="#131313"/>
<path d="M254.904 195.619C254.904 198.792 251.28 201.965 247.656 201.965C244.031 201.965 240.407 198.792 240.407 195.619C240.407 192.446 244.031 189.273 247.656 189.273C251.28 189.273 254.904 191.388 254.904 195.619Z" fill="#131313"/>
<path d="M260.944 160.717C260.944 163.89 257.32 167.063 253.696 167.063C250.071 167.063 246.447 163.89 246.447 160.717C246.447 157.545 250.071 154.372 253.696 154.372C257.32 154.372 260.944 157.545 260.944 160.717Z" fill="#131313"/>
<path d="M228.327 142.738C228.327 145.911 224.703 149.084 221.078 149.084C217.454 149.084 213.83 145.911 213.83 142.738C213.83 139.565 217.454 136.392 221.078 136.392C224.703 136.392 228.327 139.565 228.327 142.738Z" fill="#131313"/>
<path d="M194.5 124.758C194.5 127.931 190.876 131.104 187.252 131.104C183.628 131.104 180.003 127.931 180.003 124.758C180.003 121.586 183.628 118.413 187.252 118.413C190.876 118.413 194.5 121.586 194.5 124.758Z" fill="#131313"/>
<path d="M193.291 93.0298C193.291 96.2027 189.667 99.3755 186.043 99.3755C182.419 99.3755 178.794 96.2027 178.794 93.0298C178.794 89.857 182.419 86.6841 186.043 86.6841C189.667 85.6265 193.291 88.7993 193.291 93.0298Z" fill="#131313"/>
<path d="M229.533 109.952C229.533 113.125 225.909 116.298 222.285 116.298C218.661 116.298 215.037 113.125 215.037 109.952C215.037 106.779 218.661 103.606 222.285 103.606C225.909 103.606 229.533 106.779 229.533 109.952Z" fill="#131313"/>
<path d="M228.327 77.1655C228.327 80.3383 224.703 83.5112 221.078 83.5112C217.454 83.5112 213.83 80.3383 213.83 77.1655C213.83 73.9926 217.454 70.8198 221.078 70.8198C224.703 70.8198 228.327 72.935 228.327 77.1655Z" fill="#131313"/>
<path d="M193.291 59.1858C193.291 62.3587 189.667 65.5316 186.043 65.5316C182.419 65.5316 178.794 62.3587 178.794 59.1858C178.794 56.013 182.419 52.8401 186.043 52.8401C189.667 52.8401 193.291 56.013 193.291 59.1858Z" fill="#131313"/>
<path d="M158.259 73.9924C158.259 77.1653 154.634 80.3382 151.01 80.3382C147.386 80.3382 143.762 77.1653 143.762 73.9924C143.762 70.8196 147.386 67.6467 151.01 67.6467C154.634 67.6467 158.259 70.8196 158.259 73.9924Z" fill="#131313"/>
<path d="M157.049 41.2064C157.049 44.3793 153.425 47.5522 149.801 47.5522C146.176 47.5522 142.552 44.3793 142.552 41.2064C142.552 38.0336 146.176 34.8607 149.801 34.8607C153.425 34.8607 157.049 38.0336 157.049 41.2064Z" fill="#131313"/>
<path d="M123.223 53.8977C123.223 57.0706 119.599 60.2434 115.974 60.2434C112.35 60.2434 108.726 58.1282 108.726 53.8977C108.726 50.7248 112.35 47.552 115.974 47.552C120.807 47.552 123.223 50.7248 123.223 53.8977Z" fill="#131313"/>
<path d="M90.6057 69.762C90.6057 72.9349 86.9815 76.1078 83.3573 76.1078C79.7331 76.1078 76.1089 72.9349 76.1089 69.762C76.1089 66.5892 79.7331 63.4163 83.3573 63.4163C86.9815 63.4163 90.6057 66.5892 90.6057 69.762Z" fill="#131313"/>
<path d="M89.3992 35.9183C89.3992 39.0912 85.775 42.2641 82.1508 42.2641C78.5266 42.2641 74.9023 39.0912 74.9023 35.9183C74.9023 32.7455 78.5266 29.5726 82.1508 29.5726C85.775 29.5726 89.3992 32.7455 89.3992 35.9183Z" fill="#131313"/>
<path d="M122.016 20.054C122.016 23.2269 118.392 26.3997 114.768 26.3997C111.144 26.3997 107.52 23.2269 107.52 20.054C107.52 16.8812 111.144 13.7083 114.768 13.7083C118.392 13.7083 122.016 16.8812 122.016 20.054Z" fill="#131313"/>
<path d="M84.5652 3.13201C84.5652 6.30487 80.941 9.47774 77.3168 9.47774C72.4845 9.47774 70.0684 6.30487 70.0684 3.13201C70.0684 -0.0408511 73.6926 -3.21371 77.3168 -3.21371C80.941 -3.21371 84.5652 -1.09847 84.5652 3.13201Z" fill="#131313"/>
</g>
<defs>
<clipPath id="clip0">
<rect width="569" height="569" fill="white" transform="translate(0 -36)"/>
</clipPath>
</defs>
</svg>
