<svg width="800" height="220" viewBox="0 0 800 220" fill="none" xmlns="http://www.w3.org/2000/svg">
<path d="M700 104.211C662.745 104.211 643.137 84.9123 629.412 71.4035C617.647 59.8246 611.765 55.9649 600 55.9649C588.235 55.9649 582.353 59.8246 570.588 71.4035C556.863 84.9123 537.255 104.211 500 104.211C462.745 104.211 443.137 84.9123 429.412 71.4035C417.647 59.8245 411.765 55.9649 400 55.9649C388.235 55.9649 382.353 59.8245 370.588 71.4035C356.863 84.9123 337.255 104.211 300 104.211C262.745 104.211 243.137 84.9123 229.412 71.4035C217.647 59.8245 211.765 55.9649 200 55.9649C188.235 55.9649 182.353 59.8245 170.588 71.4035C156.863 84.9123 137.255 104.211 100 104.211C62.7451 104.211 43.1373 84.9123 29.4117 71.4035C17.647 59.8245 11.7647 55.9649 -2.4665e-06 55.9649L0 -3.46827e-05C37.2549 -3.30676e-05 56.8627 19.2982 70.5882 32.807C82.3529 44.3859 88.2353 48.2456 100 48.2456C111.765 48.2456 117.647 44.3859 129.412 32.807C143.137 19.2982 162.745 -2.76272e-05 200 -2.6012e-05C237.255 -2.43969e-05 256.863 19.2982 270.588 32.807C282.353 44.3859 288.235 48.2456 300 48.2456C311.765 48.2456 317.647 44.3859 329.412 32.807C343.137 19.2982 362.745 -1.89565e-05 400 -1.73414e-05C437.255 -1.57262e-05 456.863 19.2982 470.588 32.807C482.353 44.386 488.235 48.2456 500 48.2456C511.765 48.2456 517.647 44.386 529.412 32.807C543.137 19.2982 562.745 -1.02858e-05 600 -8.67068e-06C637.255 -7.05555e-06 656.863 19.2982 670.588 32.807C682.353 44.386 688.235 48.2456 700 48.2456C711.765 48.2456 717.647 44.386 729.412 32.807C743.137 19.2982 762.745 -1.61513e-06 800 0L800 55.9649C788.235 55.9649 782.353 59.8246 770.588 71.4035C756.863 86.8421 737.255 104.211 700 104.211Z" fill="#E5E515"/>
<path d="M700 220C662.745 220 643.137 200.702 629.412 187.193C617.647 175.614 611.765 171.754 600 171.754C588.235 171.754 582.353 175.614 570.588 187.193C556.863 200.702 537.255 220 500 220C462.745 220 443.137 200.702 429.412 187.193C417.647 175.614 411.765 171.754 400 171.754C388.235 171.754 382.353 175.614 370.588 187.193C356.863 200.702 337.255 220 300 220C262.745 220 243.137 200.702 229.412 187.193C217.647 175.614 211.765 171.754 200 171.754C188.235 171.754 182.353 175.614 170.588 187.193C156.863 200.702 137.255 220 100 220C62.7451 220 43.1373 200.702 29.4117 187.193C17.647 175.614 11.7647 171.754 -2.4665e-06 171.754L0 115.79C37.2549 115.79 56.8627 135.088 70.5882 148.597C82.3529 160.175 88.2353 164.035 100 164.035C111.765 164.035 117.647 160.175 129.412 148.597C143.137 133.158 162.745 115.79 200 115.79C237.255 115.79 256.863 135.088 270.588 148.597C282.353 160.175 288.235 164.035 300 164.035C311.765 164.035 317.647 158.246 329.412 146.667C343.137 133.158 362.745 115.79 400 115.79C437.255 115.79 456.863 135.088 470.588 148.597C482.353 160.175 488.235 164.035 500 164.035C511.765 164.035 517.647 160.175 529.412 148.597C543.137 133.158 562.745 115.79 600 115.79C637.255 115.79 656.863 135.088 670.588 148.597C682.353 158.246 688.235 164.035 700 164.035C711.765 164.035 717.647 160.176 729.412 148.597C743.137 133.158 762.745 115.79 800 115.79L800 171.754C788.235 171.754 782.353 175.614 770.588 187.193C756.863 200.702 737.255 220 700 220Z" fill="#E5E515"/>
</svg>
