<svg width="346" height="392" viewBox="0 0 346 392" fill="none" xmlns="http://www.w3.org/2000/svg">
<g clip-path="url(#clip0)">
<path d="M9.55064 4.37175C9.55064 6.55762 7.34682 8.74349 5.14299 8.74349C2.93917 8.74349 0.735352 6.55762 0.735352 4.37175C0.735352 2.18587 2.93917 0 5.14299 0C8.08142 0 9.55064 2.18587 9.55064 4.37175Z" fill="white"/>
<path d="M11.7547 32.7881C11.7547 34.9739 9.55092 37.1598 7.3471 37.1598C5.14327 37.1598 2.93945 34.9739 2.93945 32.7881C2.93945 30.6022 5.14327 28.4163 7.3471 28.4163C9.55092 28.4163 11.7547 30.6022 11.7547 32.7881Z" fill="white"/>
<path d="M31.588 40.803C31.588 42.9889 29.3842 45.1747 27.1803 45.1747C24.2419 45.1747 22.0381 42.9889 22.0381 40.803C22.0381 37.8885 24.2419 36.4312 27.1803 36.4312C29.3842 36.4312 31.588 37.8885 31.588 40.803Z" fill="white"/>
<path d="M13.2227 61.2044C13.2227 63.3903 11.0189 65.5761 8.0805 65.5761C5.87667 65.5761 3.67285 63.3903 3.67285 61.2044C3.67285 59.0185 5.87667 56.8327 8.0805 56.8327C11.0189 56.104 13.2227 58.2899 13.2227 61.2044Z" fill="white"/>
<path d="M34.5262 61.2044C34.5262 63.3903 32.3224 65.5761 30.1186 65.5761C27.9148 65.5761 25.7109 63.3903 25.7109 61.2044C25.7109 59.0185 27.9148 56.8326 30.1186 56.8326C32.3224 56.8326 34.5262 59.0185 34.5262 61.2044Z" fill="white"/>
<path d="M32.3241 81.606C32.3241 83.7919 30.1203 85.9777 27.9164 85.9777C25.7126 85.9777 23.5088 83.7919 23.5088 81.606C23.5088 79.4201 25.7126 77.2342 27.9164 77.2342C30.8549 77.2342 32.3241 79.4201 32.3241 81.606Z" fill="white"/>
<path d="M11.7547 86.7062C11.7547 88.8921 9.55092 91.078 7.3471 91.078C5.14327 91.078 2.93945 88.8921 2.93945 86.7062C2.93945 84.5204 5.14327 82.3345 7.3471 82.3345C9.55092 82.3345 11.7547 84.5204 11.7547 86.7062Z" fill="white"/>
<path d="M12.4881 112.208C12.4881 114.394 10.2843 116.58 8.0805 116.58C5.87667 116.58 3.67285 114.394 3.67285 112.208C3.67285 110.022 5.87667 107.836 8.0805 107.836C10.2843 107.108 12.4881 109.294 12.4881 112.208Z" fill="white"/>
<path d="M12.4881 136.253C12.4881 138.439 10.2843 140.625 8.0805 140.625C5.87667 140.625 3.67285 138.439 3.67285 136.253C3.67285 134.067 5.87667 131.881 8.0805 131.881C10.2843 131.881 12.4881 134.067 12.4881 136.253Z" fill="white"/>
<path d="M12.4881 160.297C12.4881 162.483 10.2843 164.669 8.0805 164.669C5.87667 164.669 3.67285 162.483 3.67285 160.297C3.67285 158.112 5.87667 155.926 8.0805 155.926C10.2843 155.926 12.4881 157.383 12.4881 160.297Z" fill="white"/>
<path d="M32.3241 149.368C32.3241 151.554 30.1203 153.74 27.9164 153.74C25.7126 153.74 23.5088 151.554 23.5088 149.368C23.5088 147.182 25.7126 144.996 27.9164 144.996C30.1203 144.996 32.3241 147.182 32.3241 149.368Z" fill="white"/>
<path d="M32.3241 126.052C32.3241 128.238 30.1203 130.424 27.9164 130.424C25.7126 130.424 23.5088 128.238 23.5088 126.052C23.5088 123.866 25.7126 121.68 27.9164 121.68C30.1203 121.68 32.3241 123.866 32.3241 126.052Z" fill="white"/>
<path d="M32.3241 103.465C32.3241 105.651 30.1203 107.836 27.9164 107.836C25.7126 107.836 23.5088 105.651 23.5088 103.465C23.5088 101.279 25.7126 99.093 27.9164 99.093C30.8549 99.093 32.3241 101.279 32.3241 103.465Z" fill="white"/>
<path d="M54.3622 94.7212C54.3622 96.907 52.1583 99.0929 49.9545 99.0929C47.7507 99.0929 45.5469 96.907 45.5469 94.7212C45.5469 92.5353 47.7507 90.3494 49.9545 90.3494C52.1583 90.3494 54.3622 92.5353 54.3622 94.7212Z" fill="white"/>
<path d="M53.6268 117.309C53.6268 119.494 51.423 121.68 49.2192 121.68C47.0153 121.68 44.8115 119.494 44.8115 117.309C44.8115 115.123 47.0153 112.937 49.2192 112.937C51.423 112.937 53.6268 114.394 53.6268 117.309Z" fill="white"/>
<path d="M52.8915 139.167C52.8915 141.353 50.6876 143.539 48.4838 143.539C46.28 143.539 44.0762 141.353 44.0762 139.167C44.0762 136.981 46.28 134.796 48.4838 134.796C50.6876 134.796 52.8915 136.981 52.8915 139.167Z" fill="white"/>
<path d="M72.7274 152.282C72.7274 154.468 70.5236 156.654 68.3198 156.654C66.1159 156.654 63.9121 154.468 63.9121 152.282C63.9121 150.097 66.1159 147.911 68.3198 147.911C70.5236 147.911 72.7274 149.368 72.7274 152.282Z" fill="white"/>
<path d="M74.1962 129.695C74.1962 131.881 71.9923 134.067 69.7885 134.067C67.5847 134.067 65.3809 131.881 65.3809 129.695C65.3809 127.509 67.5847 125.324 69.7885 125.324C71.9923 125.324 74.1962 127.509 74.1962 129.695Z" fill="white"/>
<path d="M74.9305 107.837C74.9305 110.022 72.7267 112.208 70.5229 112.208C68.3191 112.208 66.1152 110.022 66.1152 107.837C66.1152 105.651 68.3191 103.465 70.5229 103.465C73.4613 103.465 74.9305 105.651 74.9305 107.837Z" fill="white"/>
<path d="M75.6649 85.2491C75.6649 87.435 73.4611 89.6208 71.2573 89.6208C68.3188 89.6208 66.8496 87.435 66.8496 85.2491C66.8496 83.0632 69.0534 80.8774 71.2573 80.8774C73.4611 80.8774 75.6649 83.0632 75.6649 85.2491Z" fill="white"/>
<path d="M96.2342 98.3643C96.2342 100.55 94.0304 102.736 91.8266 102.736C89.6228 102.736 87.4189 100.55 87.4189 98.3643C87.4189 96.1784 89.6228 93.9925 91.8266 93.9925C94.765 93.9925 96.2342 96.1784 96.2342 98.3643Z" fill="white"/>
<path d="M96.2342 120.952C96.2342 123.138 94.0304 125.323 91.8266 125.323C89.6228 125.323 87.4189 123.138 87.4189 120.952C87.4189 118.766 89.6228 116.58 91.8266 116.58C94.0304 115.851 96.2342 118.037 96.2342 120.952Z" fill="white"/>
<path d="M94.7655 142.81C94.7655 144.996 92.5617 147.182 90.3578 147.182C88.154 147.182 85.9502 144.996 85.9502 142.81C85.9502 140.625 88.154 138.439 90.3578 138.439C92.5617 138.439 94.7655 139.896 94.7655 142.81Z" fill="white"/>
<path d="M92.5614 164.669C92.5614 166.855 90.3576 169.041 88.1537 169.041C85.9499 169.041 83.7461 166.855 83.7461 164.669C83.7461 162.483 85.9499 160.297 88.1537 160.297C90.3576 160.297 92.5614 162.483 92.5614 164.669Z" fill="white"/>
<path d="M71.2567 174.87C71.2567 177.056 69.0529 179.242 66.8491 179.242C64.6452 179.242 62.4414 177.056 62.4414 174.87C62.4414 172.684 64.6452 170.498 66.8491 170.498C69.0529 169.769 71.2567 171.955 71.2567 174.87Z" fill="white"/>
<path d="M52.1581 162.483C52.1581 164.669 49.9542 166.855 47.7504 166.855C45.5466 166.855 43.3428 164.669 43.3428 162.483C43.3428 160.297 45.5466 158.111 47.7504 158.111C49.9542 157.383 52.1581 159.569 52.1581 162.483Z" fill="white"/>
<path d="M31.5887 172.684C31.5887 174.87 29.3849 177.056 27.1811 177.056C24.9773 177.056 22.7734 174.87 22.7734 172.684C22.7734 170.498 24.9773 168.312 27.1811 168.312C29.3849 168.312 31.5887 170.498 31.5887 172.684Z" fill="white"/>
<path d="M12.4881 183.613C12.4881 185.799 10.2843 187.985 8.0805 187.985C5.87667 187.985 3.67285 185.799 3.67285 183.613C3.67285 181.428 5.87667 179.242 8.0805 179.242C10.2843 179.242 12.4881 181.428 12.4881 183.613Z" fill="white"/>
<path d="M30.12 196C30.12 198.186 27.9162 200.372 25.7123 200.372C23.5085 200.372 21.3047 198.186 21.3047 196C21.3047 193.814 23.5085 191.628 25.7123 191.628C28.6508 191.628 30.12 193.085 30.12 196Z" fill="white"/>
<path d="M48.4852 208.387C48.4852 210.573 46.2814 212.758 44.0776 212.758C41.8737 212.758 39.6699 210.573 39.6699 208.387C39.6699 206.201 41.1391 204.015 44.0776 204.015C46.2814 204.015 48.4852 205.472 48.4852 208.387Z" fill="white"/>
<path d="M66.1151 220.773C66.1151 223.688 63.9113 225.874 61.7074 225.874C59.5036 225.874 57.2998 223.688 57.2998 221.502C57.2998 219.316 59.5036 217.13 61.7074 217.13C63.9113 216.402 66.1151 218.587 66.1151 220.773Z" fill="white"/>
<path d="M63.911 244.818C63.911 247.004 61.7072 249.19 59.5034 249.19C57.2995 249.19 55.0957 247.004 55.0957 244.818C55.0957 242.632 57.2995 240.446 59.5034 240.446C61.7072 239.717 63.911 241.903 63.911 244.818Z" fill="white"/>
<path d="M46.2811 231.703C46.2811 233.889 44.0773 236.074 41.8735 236.074C39.6696 236.074 37.4658 233.889 37.4658 231.703C37.4658 229.517 39.6696 227.331 41.8735 227.331C44.0773 227.331 46.2811 229.517 46.2811 231.703Z" fill="white"/>
<path d="M28.6512 219.316C28.6512 221.502 26.4474 223.688 24.2436 223.688C22.0398 223.688 19.8359 221.502 19.8359 219.316C19.8359 217.13 22.0398 214.944 24.2436 214.944C26.4474 214.944 28.6512 217.13 28.6512 219.316Z" fill="white"/>
<path d="M11.0194 206.929C11.0194 209.115 8.81557 211.301 6.61174 211.301C4.40792 211.301 2.2041 209.115 2.2041 206.929C2.2041 204.743 4.40792 202.558 6.61174 202.558C8.81557 202.558 11.0194 204.743 11.0194 206.929Z" fill="white"/>
<path d="M9.55064 231.703C9.55064 233.889 7.34682 236.074 5.14299 236.074C2.93917 236.074 0.735352 233.889 0.735352 231.703C0.735352 229.517 2.93917 227.331 5.14299 227.331C7.34682 227.331 9.55064 229.517 9.55064 231.703Z" fill="white"/>
<path d="M26.4471 243.361C26.4471 245.546 24.2433 247.732 22.0395 247.732C19.8357 247.732 17.6318 245.546 17.6318 243.361C17.6318 241.175 19.8357 238.989 22.0395 238.989C24.2433 238.989 26.4471 241.175 26.4471 243.361Z" fill="white"/>
<path d="M9.55064 258.662C9.55064 260.848 7.34682 263.033 5.14299 263.033C2.93917 263.033 0.735352 260.848 0.735352 258.662C0.735352 256.476 2.93917 254.29 5.14299 254.29C7.34682 253.561 9.55064 255.747 9.55064 258.662Z" fill="white"/>
<path d="M25.7118 267.405C25.7118 269.591 23.5079 271.777 21.3041 271.777C19.1003 271.777 16.8965 269.591 16.8965 267.405C16.8965 265.219 19.1003 263.034 21.3041 263.034C23.5079 262.305 25.7118 264.491 25.7118 267.405Z" fill="white"/>
<path d="M13.2235 285.621C13.2235 287.807 11.0197 289.993 8.81585 289.993C6.61203 289.993 4.4082 287.807 4.4082 285.621C4.4082 283.435 6.61203 281.249 8.81585 281.249C11.0197 281.249 13.2235 283.435 13.2235 285.621Z" fill="white"/>
<path d="M31.5887 300.922C31.5887 303.108 29.3849 305.294 27.1811 305.294C24.9773 305.294 22.7734 303.108 22.7734 300.922C22.7734 298.736 24.9773 296.55 27.1811 296.55C29.3849 296.55 31.5887 298.736 31.5887 300.922Z" fill="white"/>
<path d="M11.7547 311.851C11.7547 314.037 9.55092 316.223 7.3471 316.223C5.14327 316.223 2.93945 314.037 2.93945 311.851C2.93945 309.666 5.14327 307.48 7.3471 307.48C9.55092 307.48 11.7547 308.937 11.7547 311.851Z" fill="white"/>
<path d="M29.3852 324.967C29.3852 327.152 27.1813 329.338 24.9775 329.338C22.7737 329.338 20.5699 327.152 20.5699 324.967C19.8353 322.781 22.0391 320.595 24.2429 320.595C27.1813 320.595 29.3852 322.781 29.3852 324.967Z" fill="white"/>
<path d="M11.7547 338.81C11.7547 340.996 9.55092 343.182 7.3471 343.182C5.14327 343.182 2.93945 340.996 2.93945 338.81C2.93945 336.624 5.14327 334.439 7.3471 334.439C9.55092 334.439 11.7547 336.624 11.7547 338.81Z" fill="white"/>
<path d="M11.7547 363.584C11.7547 365.769 9.55092 367.955 7.3471 367.955C5.14327 367.955 2.93945 365.769 2.93945 363.584C2.93945 361.398 5.14327 359.212 7.3471 359.212C10.2855 359.212 11.7547 361.398 11.7547 363.584Z" fill="white"/>
<path d="M9.55064 387.628C9.55064 389.814 7.34682 392 5.14299 392C2.93917 392 0.735352 389.814 0.735352 387.628C0.735352 385.442 2.93917 383.257 5.14299 383.257C7.34682 383.257 9.55064 385.442 9.55064 387.628Z" fill="white"/>
<path d="M33.7928 371.598C33.7928 373.784 31.589 375.97 29.3852 375.97C27.1814 375.97 24.9775 373.784 24.9775 371.598C24.9775 369.413 27.1814 367.227 29.3852 367.227C32.3236 367.227 33.7928 369.413 33.7928 371.598Z" fill="white"/>
<path d="M31.5887 350.468C31.5887 352.654 29.3849 354.84 27.1811 354.84C24.9773 354.84 22.7734 352.654 22.7734 350.468C22.7734 348.283 24.9773 346.097 27.1811 346.097C29.3849 346.097 31.5887 347.554 31.5887 350.468Z" fill="white"/>
<path d="M56.5653 357.026C56.5653 359.212 54.3615 361.398 52.1576 361.398C49.9538 361.398 47.75 359.212 47.75 357.026C47.75 354.84 49.9538 352.654 52.1576 352.654C54.3615 352.654 56.5653 354.111 56.5653 357.026Z" fill="white"/>
<path d="M47.0165 337.353C47.0165 339.539 44.8126 341.725 42.6088 341.725C40.405 341.725 38.2012 339.539 38.2012 337.353C38.2012 335.167 40.405 332.982 42.6088 332.982C45.5472 332.982 47.0165 335.167 47.0165 337.353Z" fill="white"/>
<path d="M66.8504 330.795C66.8504 332.981 64.6466 335.167 62.4428 335.167C60.239 335.167 58.0352 332.981 58.0352 330.795C58.0352 328.61 60.239 326.424 62.4428 326.424C64.6466 325.695 66.8504 327.881 66.8504 330.795Z" fill="white"/>
<path d="M80.8075 345.368C80.8075 347.554 78.6036 349.74 76.3998 349.74C74.196 349.74 71.9922 347.554 71.9922 345.368C71.9922 343.182 74.196 340.996 76.3998 340.996C78.6036 340.996 80.8075 343.182 80.8075 345.368Z" fill="white"/>
<path d="M104.314 333.71C104.314 335.896 102.11 338.082 99.9067 338.082C97.7028 338.082 95.499 335.896 95.499 333.71C95.499 331.524 97.7028 329.338 99.9067 329.338C102.11 329.338 104.314 331.524 104.314 333.71Z" fill="white"/>
<path d="M87.4198 321.323C87.4198 323.509 85.216 325.695 83.0121 325.695C80.8083 325.695 78.6045 323.509 78.6045 321.323C78.6045 319.138 80.8083 316.952 83.0121 316.952C85.216 316.952 87.4198 319.138 87.4198 321.323Z" fill="white"/>
<path d="M49.2186 314.766C49.2186 316.952 47.0148 319.138 44.811 319.138C42.6071 319.138 40.4033 316.952 40.4033 314.766C40.4033 312.58 42.6071 310.394 44.811 310.394C47.0148 310.394 49.2186 312.58 49.2186 314.766Z" fill="white"/>
<path d="M71.2567 307.48C71.2567 309.665 69.0529 311.851 66.8491 311.851C64.6452 311.851 62.4414 309.665 62.4414 307.48C62.4414 305.294 64.6452 303.108 66.8491 303.108C69.0529 302.379 71.2567 304.565 71.2567 307.48Z" fill="white"/>
<path d="M75.6649 282.706C75.6649 284.892 73.4611 287.078 71.2573 287.078C69.0534 287.078 66.8496 284.892 66.8496 282.706C66.8496 280.521 69.0534 278.335 71.2573 278.335C73.4611 278.335 75.6649 280.521 75.6649 282.706Z" fill="white"/>
<path d="M55.0956 292.907C55.0956 295.093 52.8917 297.279 50.6879 297.279C48.4841 297.279 46.2803 295.093 46.2803 292.907C46.2803 290.721 48.4841 288.535 50.6879 288.535C52.8917 288.535 55.0956 290.721 55.0956 292.907Z" fill="white"/>
<path d="M38.9354 280.52C38.9354 282.706 36.7316 284.892 34.5278 284.892C32.3239 284.892 30.1201 282.706 30.1201 280.52C30.1201 278.335 32.3239 276.149 34.5278 276.149C36.7316 276.149 38.9354 277.606 38.9354 280.52Z" fill="white"/>
<path d="M44.077 255.019C44.077 257.204 41.8732 259.39 39.6694 259.39C37.4655 259.39 35.2617 257.204 35.2617 255.019C35.2617 252.833 37.4655 250.647 39.6694 250.647C41.8732 250.647 44.077 252.833 44.077 255.019Z" fill="white"/>
<path d="M59.5038 269.591C59.5038 271.777 57.2999 273.963 55.0961 273.963C52.8923 273.963 50.6885 271.777 50.6885 269.591C50.6885 267.405 52.8923 265.219 55.0961 265.219C57.2999 264.491 59.5038 266.677 59.5038 269.591Z" fill="white"/>
<path d="M79.3387 258.662C79.3387 260.848 77.1349 263.033 74.9311 263.033C72.7273 263.033 70.5234 260.848 70.5234 258.662C70.5234 256.476 72.7273 254.29 74.9311 254.29C77.1349 253.561 79.3387 255.747 79.3387 258.662Z" fill="white"/>
<path d="M95.4989 271.777C95.4989 273.963 93.2951 276.149 91.0912 276.149C88.8874 276.149 86.6836 273.963 86.6836 271.777C86.6836 269.591 88.8874 267.405 91.0912 267.405C93.2951 267.405 95.4989 269.591 95.4989 271.777Z" fill="white"/>
<path d="M110.927 285.621C110.927 287.807 108.723 289.993 106.519 289.993C104.315 289.993 102.111 287.807 102.111 285.621C102.111 283.435 104.315 281.249 106.519 281.249C108.723 280.521 110.927 282.706 110.927 285.621Z" fill="white"/>
<path d="M91.0926 296.55C91.0926 298.736 88.8888 300.922 86.685 300.922C84.4812 300.922 82.2773 298.736 82.2773 296.55C82.2773 294.364 84.4812 292.178 86.685 292.178C88.8888 292.178 91.0926 294.364 91.0926 296.55Z" fill="white"/>
<path d="M107.254 309.665C107.254 311.851 105.05 314.037 102.846 314.037C100.642 314.037 98.4385 311.851 98.4385 309.665C98.4385 307.48 100.642 305.294 102.846 305.294C105.05 305.294 107.254 306.751 107.254 309.665Z" fill="white"/>
<path d="M125.619 319.866C125.619 322.052 123.415 324.238 121.211 324.238C119.008 324.238 116.804 322.052 116.804 319.866C116.804 317.68 119.008 315.494 121.211 315.494C123.415 315.494 125.619 316.952 125.619 319.866Z" fill="white"/>
<path d="M127.823 297.279C127.823 299.465 125.619 301.65 123.415 301.65C121.212 301.65 119.008 299.465 119.008 297.279C119.008 295.093 121.212 292.907 123.415 292.907C125.619 292.178 127.823 294.364 127.823 297.279Z" fill="white"/>
<path d="M146.188 307.48C146.188 309.665 143.985 311.851 141.781 311.851C139.577 311.851 137.373 309.665 137.373 307.48C137.373 305.294 139.577 303.108 141.781 303.108C143.985 302.379 146.188 304.565 146.188 307.48Z" fill="white"/>
<path d="M168.226 296.55C168.226 298.736 166.023 300.922 163.819 300.922C161.615 300.922 159.411 298.736 159.411 296.55C159.411 294.364 161.615 292.178 163.819 292.178C166.023 292.178 168.226 294.364 168.226 296.55Z" fill="white"/>
<path d="M149.126 285.621C149.126 287.807 146.922 289.993 144.718 289.993C142.514 289.993 140.311 287.807 140.311 285.621C140.311 283.435 142.514 281.249 144.718 281.249C146.922 281.249 149.126 283.435 149.126 285.621Z" fill="white"/>
<path d="M170.429 275.42C170.429 277.606 168.225 279.792 166.021 279.792C163.817 279.792 161.613 277.606 161.613 275.42C161.613 273.234 163.817 271.048 166.021 271.048C168.225 270.32 170.429 272.505 170.429 275.42Z" fill="white"/>
<path d="M189.529 284.164C189.529 286.349 187.325 288.535 185.122 288.535C182.918 288.535 180.714 286.349 180.714 284.164C180.714 281.978 182.918 279.792 185.122 279.792C187.325 279.792 189.529 281.978 189.529 284.164Z" fill="white"/>
<path d="M172.633 253.561C172.633 255.747 170.429 257.933 168.225 257.933C166.021 257.933 163.817 255.747 163.817 253.561C163.817 251.375 166.021 249.19 168.225 249.19C170.429 248.461 172.633 250.647 172.633 253.561Z" fill="white"/>
<path d="M157.941 240.446C157.941 242.632 155.737 244.818 153.534 244.818C151.33 244.818 149.126 242.632 149.126 240.446C149.126 238.26 151.33 236.074 153.534 236.074C156.472 236.074 157.941 238.26 157.941 240.446Z" fill="white"/>
<path d="M142.515 227.331C142.515 229.517 140.312 231.703 138.108 231.703C135.904 231.703 133.7 229.517 133.7 227.331C133.7 225.145 135.904 222.959 138.108 222.959C140.312 222.959 142.515 225.145 142.515 227.331Z" fill="white"/>
<path d="M120.477 237.532C120.477 239.717 118.274 241.903 116.07 241.903C113.866 241.903 111.662 239.717 111.662 237.532C111.662 235.346 113.866 233.16 116.07 233.16C118.274 232.431 120.477 234.617 120.477 237.532Z" fill="white"/>
<path d="M136.638 250.647C136.638 252.833 134.434 255.019 132.23 255.019C130.026 255.019 127.822 252.833 127.822 250.647C127.822 248.461 130.026 246.275 132.23 246.275C134.434 246.275 136.638 247.732 136.638 250.647Z" fill="white"/>
<path d="M152.063 263.762C152.063 265.948 149.86 268.134 147.656 268.134C145.452 268.134 143.248 265.948 143.248 263.762C143.248 261.576 145.452 259.39 147.656 259.39C150.594 259.39 152.063 260.848 152.063 263.762Z" fill="white"/>
<path d="M131.496 273.963C131.496 276.149 129.292 278.335 127.088 278.335C124.884 278.335 122.681 276.149 122.681 273.963C122.681 271.777 124.884 269.591 127.088 269.591C129.292 269.591 131.496 271.777 131.496 273.963Z" fill="white"/>
<path d="M115.334 260.848C115.334 263.034 113.13 265.219 110.926 265.219C108.722 265.219 106.519 263.034 106.519 260.848C106.519 258.662 108.722 256.476 110.926 256.476C113.865 256.476 115.334 258.662 115.334 260.848Z" fill="white"/>
<path d="M99.9081 247.732C99.9081 249.918 97.7042 252.104 95.5004 252.104C93.2966 252.104 91.0928 249.918 91.0928 247.732C91.0928 245.546 93.2966 243.361 95.5004 243.361C97.7042 243.361 99.9081 244.818 99.9081 247.732Z" fill="white"/>
<path d="M83.7469 233.888C83.7469 236.074 81.5431 238.26 79.3393 238.26C77.1355 238.26 74.9316 236.074 74.9316 233.888C74.9316 231.703 77.1355 229.517 79.3393 229.517C81.5431 229.517 83.7469 231.703 83.7469 233.888Z" fill="white"/>
<path d="M104.314 223.688C104.314 225.874 102.11 228.06 99.9067 228.06C97.7028 228.06 95.499 225.874 95.499 223.688C95.499 221.502 97.7028 219.316 99.9067 219.316C102.11 219.316 104.314 221.502 104.314 223.688Z" fill="white"/>
<path d="M86.6844 210.572C86.6844 212.758 84.4806 214.944 82.2768 214.944C80.073 214.944 77.8691 212.758 77.8691 210.572C77.8691 208.387 80.073 206.201 82.2768 206.201C84.4806 206.201 86.6844 207.658 86.6844 210.572Z" fill="white"/>
<path d="M69.0545 197.457C69.0545 199.643 66.8507 201.829 64.6469 201.829C62.4431 201.829 60.2393 199.643 60.2393 197.457C60.2393 195.271 62.4431 193.086 64.6469 193.086C66.8507 193.086 69.0545 195.271 69.0545 197.457Z" fill="white"/>
<path d="M50.6893 185.071C50.6893 187.256 48.4855 189.442 46.2817 189.442C44.0778 189.442 41.874 187.256 41.874 185.071C41.874 182.885 44.0778 180.699 46.2817 180.699C48.4855 180.699 50.6893 182.156 50.6893 185.071Z" fill="white"/>
<path d="M89.6219 187.257C89.6219 189.442 87.4181 191.628 85.2143 191.628C83.0105 191.628 80.8066 189.442 80.8066 187.257C80.8066 185.071 83.0105 182.885 85.2143 182.885C87.4181 182.885 89.6219 185.071 89.6219 187.257Z" fill="white"/>
<path d="M107.987 201.1C107.987 203.286 105.783 205.472 103.58 205.472C101.376 205.472 99.1719 203.286 99.1719 201.1C99.1719 198.915 101.376 196.729 103.58 196.729C105.783 196 107.987 198.186 107.987 201.1Z" fill="white"/>
<path d="M125.619 214.216C125.619 216.401 123.415 218.587 121.211 218.587C119.008 218.587 116.804 216.401 116.804 214.216C116.804 212.03 119.008 209.844 121.211 209.844C123.415 209.844 125.619 211.301 125.619 214.216Z" fill="white"/>
<path d="M148.39 206.201C148.39 208.387 146.187 210.572 143.983 210.572C141.779 210.572 139.575 208.387 139.575 206.201C139.575 204.015 141.779 201.829 143.983 201.829C146.187 201.1 148.39 203.286 148.39 206.201Z" fill="white"/>
<path d="M169.695 197.457C169.695 199.643 167.491 201.829 165.288 201.829C163.084 201.829 160.88 199.643 160.88 197.457C160.88 195.271 163.084 193.086 165.288 193.086C167.491 193.086 169.695 195.271 169.695 197.457Z" fill="white"/>
<path d="M191.733 189.442C191.733 191.628 189.529 193.814 187.326 193.814C185.122 193.814 182.918 191.628 182.918 189.442C182.918 187.256 185.122 185.071 187.326 185.071C189.529 184.342 191.733 186.528 191.733 189.442Z" fill="white"/>
<path d="M188.794 212.758C188.794 214.944 186.59 217.13 184.386 217.13C182.182 217.13 179.979 214.944 179.979 212.758C179.979 210.573 182.182 208.387 184.386 208.387C186.59 208.387 188.794 210.573 188.794 212.758Z" fill="white"/>
<path d="M166.756 220.773C166.756 222.959 164.552 225.145 162.348 225.145C160.144 225.145 157.94 222.959 157.94 220.773C157.94 218.587 160.144 216.402 162.348 216.402C164.552 216.402 166.756 218.587 166.756 220.773Z" fill="white"/>
<path d="M186.592 236.074C186.592 238.26 184.388 240.446 182.184 240.446C179.98 240.446 177.776 238.26 177.776 236.074C177.776 233.888 179.98 231.703 182.184 231.703C184.388 231.703 186.592 233.888 186.592 236.074Z" fill="white"/>
<path d="M208.63 248.461C208.63 250.647 206.426 252.833 204.222 252.833C202.018 252.833 199.814 250.647 199.814 248.461C199.814 246.275 202.018 244.089 204.222 244.089C206.426 244.089 208.63 245.546 208.63 248.461Z" fill="white"/>
<path d="M190.998 260.848C190.998 263.034 188.794 265.219 186.59 265.219C184.386 265.219 182.183 263.034 182.183 260.848C182.183 258.662 184.386 256.476 186.59 256.476C188.794 256.476 190.998 258.662 190.998 260.848Z" fill="white"/>
<path d="M209.363 271.777C209.363 273.963 207.159 276.149 204.956 276.149C202.752 276.149 200.548 273.963 200.548 271.777C200.548 269.591 202.752 267.405 204.956 267.405C207.159 266.676 209.363 268.862 209.363 271.777Z" fill="white"/>
<path d="M229.932 260.119C229.932 262.305 227.729 264.491 225.525 264.491C223.321 264.491 221.117 262.305 221.117 260.119C221.117 257.933 223.321 255.747 225.525 255.747C227.729 255.747 229.932 257.933 229.932 260.119Z" fill="white"/>
<path d="M230.668 238.26C230.668 240.446 228.464 242.632 226.26 242.632C224.056 242.632 221.853 240.446 221.853 238.26C221.853 236.074 224.056 233.889 226.26 233.889C228.464 233.889 230.668 236.074 230.668 238.26Z" fill="white"/>
<path d="M229.932 217.13C229.932 219.316 227.729 221.502 225.525 221.502C223.321 221.502 221.117 219.316 221.117 217.13C221.117 214.944 223.321 212.758 225.525 212.758C228.463 212.03 229.932 214.216 229.932 217.13Z" fill="white"/>
<path d="M253.44 227.331C253.44 229.517 251.236 231.703 249.033 231.703C246.829 231.703 244.625 229.517 244.625 227.331C244.625 225.145 246.829 222.959 249.033 222.959C251.236 222.231 253.44 224.416 253.44 227.331Z" fill="white"/>
<path d="M251.971 248.461C251.971 250.647 249.767 252.833 247.563 252.833C245.359 252.833 243.155 250.647 243.155 248.461C243.155 246.275 245.359 244.089 247.563 244.089C250.501 243.361 251.971 245.547 251.971 248.461Z" fill="white"/>
<path d="M275.478 233.16C275.478 235.346 273.275 237.532 271.071 237.532C268.867 237.532 266.663 235.346 266.663 233.16C266.663 230.974 268.867 228.788 271.071 228.788C273.275 228.059 275.478 230.245 275.478 233.16Z" fill="white"/>
<path d="M297.516 219.316C297.516 221.502 295.313 223.688 293.109 223.688C290.905 223.688 288.701 221.502 288.701 219.316C288.701 217.13 290.905 214.944 293.109 214.944C295.313 214.944 297.516 217.13 297.516 219.316Z" fill="white"/>
<path d="M275.478 207.658C275.478 209.844 273.275 212.03 271.071 212.03C268.867 212.03 266.663 209.844 266.663 207.658C266.663 205.472 268.867 203.286 271.071 203.286C273.275 203.286 275.478 205.472 275.478 207.658Z" fill="white"/>
<path d="M279.887 182.885C279.887 185.071 277.683 187.257 275.479 187.257C273.275 187.257 271.071 185.071 271.071 182.885C271.071 180.699 273.275 178.513 275.479 178.513C277.683 177.784 279.887 179.97 279.887 182.885Z" fill="white"/>
<path d="M298.985 196C298.985 198.186 296.781 200.372 294.578 200.372C292.374 200.372 290.17 198.186 290.17 196C290.17 193.814 292.374 191.628 294.578 191.628C296.781 191.628 298.985 193.085 298.985 196Z" fill="white"/>
<path d="M321.759 207.658C321.759 209.844 319.555 212.03 317.351 212.03C315.147 212.03 312.943 209.844 312.943 207.658C312.943 205.472 315.147 203.286 317.351 203.286C319.555 202.558 321.759 204.743 321.759 207.658Z" fill="white"/>
<path d="M346 194.543C346 196.729 344.531 198.186 342.327 198.186C340.124 198.186 338.654 196.729 338.654 194.543C338.654 192.357 340.124 190.9 342.327 190.9C344.531 190.9 346 192.357 346 194.543Z" fill="white"/>
<path d="M322.494 185.071C322.494 187.256 320.29 189.442 318.086 189.442C315.883 189.442 313.679 187.256 313.679 185.071C313.679 182.885 315.883 180.699 318.086 180.699C320.29 180.699 322.494 182.156 322.494 185.071Z" fill="white"/>
<path d="M301.925 171.227C301.925 173.413 299.721 175.598 297.517 175.598C295.313 175.598 293.109 173.413 293.109 171.227C293.109 169.041 295.313 166.855 297.517 166.855C300.455 166.855 301.925 168.312 301.925 171.227Z" fill="white"/>
<path d="M280.62 158.112C280.62 160.297 278.416 162.483 276.212 162.483C274.009 162.483 271.805 160.297 271.805 158.112C271.805 155.926 274.009 153.74 276.212 153.74C278.416 153.74 280.62 155.926 280.62 158.112Z" fill="white"/>
<path d="M258.582 166.126C258.582 168.312 256.378 170.498 254.174 170.498C251.97 170.498 249.767 168.312 249.767 166.126C249.767 163.941 251.97 161.755 254.174 161.755C256.378 161.755 258.582 163.941 258.582 166.126Z" fill="white"/>
<path d="M257.113 187.985C257.113 190.171 254.909 192.357 252.706 192.357C250.502 192.357 248.298 190.171 248.298 187.985C248.298 185.799 250.502 183.613 252.706 183.613C254.909 183.613 257.113 185.071 257.113 187.985Z" fill="white"/>
<path d="M251.236 207.658C251.236 209.844 249.032 212.03 246.829 212.03C244.625 212.03 242.421 209.844 242.421 207.658C242.421 205.472 244.625 203.286 246.829 203.286C249.767 202.558 251.236 204.743 251.236 207.658Z" fill="white"/>
<path d="M232.871 194.543C232.871 196.729 230.667 198.915 228.463 198.915C226.259 198.915 224.056 196.729 224.056 194.543C224.056 192.357 226.259 190.171 228.463 190.171C230.667 189.442 232.871 191.628 232.871 194.543Z" fill="white"/>
<path d="M207.894 226.602C207.894 228.788 205.691 230.974 203.487 230.974C201.283 230.974 199.079 228.788 199.079 226.602C199.079 224.416 201.283 222.23 203.487 222.23C206.425 221.502 207.894 223.688 207.894 226.602Z" fill="white"/>
<path d="M210.098 203.286C210.098 205.472 207.895 207.658 205.691 207.658C203.487 207.658 201.283 205.472 201.283 203.286C201.283 201.1 203.487 198.914 205.691 198.914C208.629 198.914 210.098 201.1 210.098 203.286Z" fill="white"/>
<path d="M213.037 180.699C213.037 182.885 210.833 185.071 208.629 185.071C206.426 185.071 204.222 182.885 204.222 180.699C204.222 178.513 206.426 176.327 208.629 176.327C210.833 176.327 213.037 177.784 213.037 180.699Z" fill="white"/>
<path d="M236.544 172.684C236.544 174.87 234.34 177.056 232.136 177.056C229.932 177.056 227.729 174.87 227.729 172.684C227.729 170.498 229.932 168.312 232.136 168.312C234.34 168.312 236.544 170.498 236.544 172.684Z" fill="white"/>
<path d="M237.279 150.825C237.279 153.011 235.075 155.197 232.872 155.197C230.668 155.197 228.464 153.011 228.464 150.825C228.464 148.639 230.668 146.454 232.872 146.454C235.075 145.725 237.279 147.911 237.279 150.825Z" fill="white"/>
<path d="M257.848 144.268C257.848 146.454 255.645 148.639 253.441 148.639C251.237 148.639 249.033 146.454 249.033 144.268C249.033 142.082 251.237 139.896 253.441 139.896C255.645 140.625 257.848 142.082 257.848 144.268Z" fill="white"/>
<path d="M235.075 128.238C235.075 130.424 233.605 131.881 231.402 131.881C229.198 131.881 227.729 130.424 227.729 128.238C227.729 126.052 229.198 124.595 231.402 124.595C233.605 124.595 235.075 126.052 235.075 128.238Z" fill="white"/>
<path d="M217.445 134.796C217.445 136.981 215.241 139.167 213.038 139.167C210.834 139.167 208.63 136.981 208.63 134.796C208.63 132.61 210.834 130.424 213.038 130.424C215.241 130.424 217.445 131.881 217.445 134.796Z" fill="white"/>
<path d="M215.975 158.112C215.975 160.297 213.772 162.483 211.568 162.483C209.364 162.483 207.16 160.297 207.16 158.112C207.16 155.926 209.364 153.74 211.568 153.74C213.772 153.74 215.975 155.197 215.975 158.112Z" fill="white"/>
<path d="M196.876 141.353C196.876 143.539 194.672 145.725 192.468 145.725C190.264 145.725 188.061 143.539 188.061 141.353C188.061 139.167 190.264 136.981 192.468 136.981C194.672 136.981 196.876 139.167 196.876 141.353Z" fill="white"/>
<path d="M204.957 116.58C204.957 118.766 202.753 120.952 200.549 120.952C198.345 120.952 196.142 118.766 196.142 116.58C196.142 114.394 198.345 112.208 200.549 112.208C202.753 112.208 204.957 114.394 204.957 116.58Z" fill="white"/>
<path d="M183.652 102.007C183.652 104.193 181.448 106.379 179.245 106.379C177.041 106.379 174.837 104.193 174.837 102.007C174.837 99.8215 177.041 97.6357 179.245 97.6357C181.448 97.6357 183.652 99.8215 183.652 102.007Z" fill="white"/>
<path d="M160.881 89.6209C160.881 91.8068 158.677 93.9926 156.473 93.9926C154.269 93.9926 152.065 91.8068 152.065 89.6209C152.065 87.435 154.269 85.2491 156.473 85.2491C158.677 85.2491 160.881 86.7064 160.881 89.6209Z" fill="white"/>
<path d="M160.881 112.937C160.881 115.123 158.677 117.309 156.473 117.309C154.269 117.309 152.065 115.123 152.065 112.937C152.065 110.751 154.269 108.565 156.473 108.565C159.411 107.836 160.881 110.022 160.881 112.937Z" fill="white"/>
<path d="M181.448 125.323C181.448 127.509 179.244 129.695 177.04 129.695C174.837 129.695 172.633 127.509 172.633 125.323C172.633 123.138 174.837 120.952 177.04 120.952C179.244 120.952 181.448 123.138 181.448 125.323Z" fill="white"/>
<path d="M176.306 150.097C176.306 152.283 174.103 154.468 171.899 154.468C169.695 154.468 167.491 152.283 167.491 150.097C167.491 147.911 169.695 145.725 171.899 145.725C174.103 145.725 176.306 147.911 176.306 150.097Z" fill="white"/>
<path d="M193.937 165.398C193.937 167.584 191.734 169.77 189.53 169.77C187.326 169.77 185.122 167.584 185.122 165.398C185.122 163.212 187.326 161.026 189.53 161.026C191.734 161.026 193.937 163.212 193.937 165.398Z" fill="white"/>
<path d="M172.633 174.141C172.633 176.327 170.429 178.513 168.225 178.513C166.021 178.513 163.817 176.327 163.817 174.141C163.817 171.955 166.021 169.769 168.225 169.769C170.429 169.769 172.633 171.955 172.633 174.141Z" fill="white"/>
<path d="M151.33 182.885C151.33 185.071 149.126 187.257 146.922 187.257C144.718 187.257 142.515 185.071 142.515 182.885C142.515 180.699 144.718 178.513 146.922 178.513C149.126 178.513 151.33 180.699 151.33 182.885Z" fill="white"/>
<path d="M132.965 169.041C132.965 171.227 130.761 173.413 128.557 173.413C126.353 173.413 124.149 171.227 124.149 169.041C124.149 166.855 126.353 164.669 128.557 164.669C130.761 163.941 132.965 166.126 132.965 169.041Z" fill="white"/>
<path d="M130.025 191.628C130.025 193.814 127.821 196 125.618 196C123.414 196 121.21 193.814 121.21 191.628C121.21 189.442 123.414 187.257 125.618 187.257C127.821 187.257 130.025 189.442 130.025 191.628Z" fill="white"/>
<path d="M111.66 177.784C111.66 179.97 109.456 182.156 107.252 182.156C105.049 182.156 102.845 179.97 102.845 177.784C102.845 175.598 105.049 173.413 107.252 173.413C109.456 173.413 111.66 175.598 111.66 177.784Z" fill="white"/>
<path d="M114.599 155.926C114.599 158.111 112.396 160.297 110.192 160.297C107.988 160.297 105.784 158.111 105.784 155.926C105.784 153.74 107.988 151.554 110.192 151.554C112.396 150.825 114.599 153.011 114.599 155.926Z" fill="white"/>
<path d="M116.804 133.338C116.804 135.524 114.6 137.71 112.396 137.71C110.192 137.71 107.988 135.524 107.988 133.338C107.988 131.152 110.192 128.967 112.396 128.967C114.6 128.967 116.804 130.424 116.804 133.338Z" fill="white"/>
<path d="M135.903 145.725C135.903 147.911 133.699 150.097 131.496 150.097C129.292 150.097 127.088 147.911 127.088 145.725C127.088 143.539 129.292 141.353 131.496 141.353C134.434 141.353 135.903 143.539 135.903 145.725Z" fill="white"/>
<path d="M155.003 159.569C155.003 161.755 152.799 163.94 150.595 163.94C148.391 163.94 146.188 161.755 146.188 159.569C146.188 157.383 148.391 155.197 150.595 155.197C152.799 155.197 155.003 156.654 155.003 159.569Z" fill="white"/>
<path d="M158.677 135.524C158.677 137.71 156.473 139.896 154.269 139.896C152.065 139.896 149.861 137.71 149.861 135.524C149.861 133.338 152.065 131.152 154.269 131.152C156.473 131.152 158.677 133.338 158.677 135.524Z" fill="white"/>
<path d="M138.843 123.137C138.843 125.323 136.639 127.509 134.435 127.509C132.231 127.509 130.027 125.323 130.027 123.137C130.027 120.952 132.231 118.766 134.435 118.766C136.639 118.766 138.843 120.952 138.843 123.137Z" fill="white"/>
<path d="M118.273 110.751C118.273 112.937 116.069 115.123 113.866 115.123C111.662 115.123 109.458 112.937 109.458 110.751C109.458 108.565 111.662 106.379 113.866 106.379C116.069 106.379 118.273 108.565 118.273 110.751Z" fill="white"/>
<path d="M117.538 88.8922C117.538 91.0781 115.334 93.264 113.13 93.264C110.926 93.264 108.723 91.0781 108.723 88.8922C108.723 86.7064 110.926 84.5205 113.13 84.5205C115.334 83.7919 117.538 85.9778 117.538 88.8922Z" fill="white"/>
<path d="M139.576 100.55C139.576 102.736 137.372 104.922 135.168 104.922C132.965 104.922 130.761 102.736 130.761 100.55C130.761 98.3644 132.965 96.1785 135.168 96.1785C137.372 96.1785 139.576 98.3644 139.576 100.55Z" fill="white"/>
<path d="M138.843 77.9629C138.843 80.1487 136.639 82.3346 134.435 82.3346C132.231 82.3346 130.027 80.1487 130.027 77.9629C130.027 75.777 132.231 73.5911 134.435 73.5911C136.639 73.5911 138.843 75.0484 138.843 77.9629Z" fill="white"/>
<path d="M117.538 65.5762C117.538 67.7621 115.334 69.9479 113.13 69.9479C110.926 69.9479 108.723 67.7621 108.723 65.5762C108.723 63.3903 110.926 61.2044 113.13 61.2044C115.334 61.2044 117.538 63.3903 117.538 65.5762Z" fill="white"/>
<path d="M96.2342 75.7769C96.2342 77.9628 94.0304 80.1486 91.8266 80.1486C89.6228 80.1486 87.4189 77.9628 87.4189 75.7769C87.4189 73.591 89.6228 71.4051 91.8266 71.4051C94.0304 71.4051 96.2342 73.591 96.2342 75.7769Z" fill="white"/>
<path d="M95.4989 53.1897C95.4989 55.3755 93.2951 57.5614 91.0912 57.5614C88.8874 57.5614 86.6836 55.3755 86.6836 53.1897C86.6836 51.0038 88.8874 48.8179 91.0912 48.8179C93.2951 48.8179 95.4989 51.0038 95.4989 53.1897Z" fill="white"/>
<path d="M74.9305 61.933C74.9305 64.1189 72.7267 66.3048 70.5229 66.3048C68.3191 66.3048 66.1152 64.8475 66.1152 61.933C66.1152 59.7472 68.3191 57.5613 70.5229 57.5613C73.4613 57.5613 74.9305 59.7472 74.9305 61.933Z" fill="white"/>
<path d="M55.0956 72.8624C55.0956 75.0483 52.8917 77.2342 50.6879 77.2342C48.4841 77.2342 46.2803 75.0483 46.2803 72.8624C46.2803 70.6765 48.4841 68.4907 50.6879 68.4907C52.8917 68.4907 55.0956 70.6765 55.0956 72.8624Z" fill="white"/>
<path d="M54.3622 49.5466C54.3622 51.7324 52.1583 53.9183 49.9545 53.9183C47.7507 53.9183 45.5469 51.7324 45.5469 49.5466C45.5469 47.3607 47.7507 45.1748 49.9545 45.1748C52.1583 45.1748 54.3622 47.3607 54.3622 49.5466Z" fill="white"/>
<path d="M74.1962 38.6172C74.1962 40.8031 71.9923 42.9889 69.7885 42.9889C67.5847 42.9889 65.3809 40.8031 65.3809 38.6172C65.3809 36.4313 67.5847 34.2454 69.7885 34.2454C71.9923 34.2454 74.1962 36.4313 74.1962 38.6172Z" fill="white"/>
<path d="M51.4227 26.9592C51.4227 29.145 49.2189 31.3309 47.0151 31.3309C44.0766 31.3309 42.6074 29.145 42.6074 26.9592C42.6074 24.7733 44.8112 22.5874 47.0151 22.5874C49.2189 22.5874 51.4227 24.0447 51.4227 26.9592Z" fill="white"/>
<path d="M29.3858 16.7584C29.3858 18.9443 27.182 21.1302 24.9782 21.1302C22.7744 21.1302 19.8359 19.6729 19.8359 16.7584C19.8359 13.8439 22.0398 12.3867 24.9782 12.3867C27.9166 12.3867 29.3858 14.5726 29.3858 16.7584Z" fill="white"/>
</g>
<defs>
<clipPath id="clip0">
<rect width="346" height="392" fill="white"/>
</clipPath>
</defs>
</svg>
