<svg width="405" height="405" viewBox="0 0 405 405" fill="none" xmlns="http://www.w3.org/2000/svg">
<path d="M316.269 19.1812C316.269 21.1229 317.563 22.4174 319.505 22.4174C321.447 22.4174 322.741 21.1229 322.741 19.1812C322.741 17.2394 321.447 15.9449 319.505 15.9449C318.21 15.9449 316.269 17.8867 316.269 19.1812Z" fill="#131313"/>
<path d="M283.259 52.8381C283.259 54.7798 284.553 56.0743 286.495 56.0743C288.437 56.0743 289.731 54.7798 289.731 52.8381C289.731 50.8963 288.437 49.6018 286.495 49.6018C284.553 49.6018 283.259 50.8963 283.259 52.8381Z" fill="#131313"/>
<path d="M316.269 52.8381C316.269 54.7798 317.563 56.0743 319.505 56.0743C321.447 56.0743 322.741 54.7798 322.741 52.8381C322.741 50.8963 321.447 49.6018 319.505 49.6018C318.21 49.6018 316.269 50.8963 316.269 52.8381Z" fill="#131313"/>
<path d="M249.602 86.495C249.602 88.4367 250.896 89.7312 252.838 89.7312C254.78 89.7312 256.074 88.4367 256.074 86.495C256.074 84.5532 254.78 83.2587 252.838 83.2587C250.896 82.6115 249.602 84.5532 249.602 86.495Z" fill="#131313"/>
<path d="M283.259 86.495C283.259 88.4367 284.553 89.7312 286.495 89.7312C288.437 89.7312 289.731 88.4367 289.731 86.495C289.731 84.5532 288.437 83.2587 286.495 83.2587C284.553 83.2587 283.259 84.5532 283.259 86.495Z" fill="#131313"/>
<path d="M316.269 86.495C316.269 88.4367 317.563 89.7312 319.505 89.7312C321.447 89.7312 322.741 88.4367 322.741 86.495C322.741 84.5532 321.447 83.2587 319.505 83.2587C318.21 82.6115 316.269 84.5532 316.269 86.495Z" fill="#131313"/>
<path d="M216.592 119.505C216.592 121.446 217.887 122.741 219.829 122.741C221.77 122.741 223.065 121.446 223.065 119.505C223.065 117.563 221.77 116.268 219.829 116.268C217.887 116.268 216.592 117.563 216.592 119.505Z" fill="#131313"/>
<path d="M249.602 119.505C249.602 121.446 250.896 122.741 252.838 122.741C254.78 122.741 256.074 121.446 256.074 119.505C256.074 117.563 254.78 116.268 252.838 116.268C250.896 116.268 249.602 117.563 249.602 119.505Z" fill="#131313"/>
<path d="M283.259 119.505C283.259 121.446 284.553 122.741 286.495 122.741C288.437 122.741 289.731 121.446 289.731 119.505C289.731 117.563 288.437 116.268 286.495 116.268C284.553 116.268 283.259 117.563 283.259 119.505Z" fill="#131313"/>
<path d="M316.269 119.505C316.269 121.446 317.563 122.741 319.505 122.741C321.447 122.741 322.741 121.446 322.741 119.505C322.741 117.563 321.447 116.268 319.505 116.268C318.21 116.268 316.269 117.563 316.269 119.505Z" fill="#131313"/>
<path d="M182.935 153.162C182.935 155.104 184.23 156.398 186.171 156.398C188.113 156.398 189.408 155.104 189.408 153.162C189.408 151.22 188.113 149.926 186.171 149.926C184.23 149.278 182.935 151.22 182.935 153.162Z" fill="#131313"/>
<path d="M216.592 153.162C216.592 155.104 217.887 156.398 219.829 156.398C221.77 156.398 223.065 155.104 223.065 153.162C223.065 151.22 221.77 149.926 219.829 149.926C217.887 149.926 216.592 151.22 216.592 153.162Z" fill="#131313"/>
<path d="M249.602 153.162C249.602 155.104 250.896 156.398 252.838 156.398C254.78 156.398 256.074 155.104 256.074 153.162C256.074 151.22 254.78 149.926 252.838 149.926C250.896 149.278 249.602 151.22 249.602 153.162Z" fill="#131313"/>
<path d="M283.259 153.162C283.259 155.104 284.553 156.398 286.495 156.398C288.437 156.398 289.731 155.104 289.731 153.162C289.731 151.22 288.437 149.926 286.495 149.926C284.553 149.926 283.259 151.22 283.259 153.162Z" fill="#131313"/>
<path d="M316.269 153.162C316.269 155.104 317.563 156.398 319.505 156.398C321.447 156.398 322.741 155.104 322.741 153.162C322.741 151.22 321.447 149.926 319.505 149.926C318.21 149.278 316.269 151.22 316.269 153.162Z" fill="#131313"/>
<path d="M149.278 186.171C149.278 188.113 150.573 189.408 152.515 189.408C154.456 189.408 155.751 188.113 155.751 186.171C155.751 184.23 154.456 182.935 152.515 182.935C150.573 182.935 149.278 184.23 149.278 186.171Z" fill="#131313"/>
<path d="M182.935 186.171C182.935 188.113 184.23 189.408 186.171 189.408C188.113 189.408 189.408 188.113 189.408 186.171C189.408 184.23 188.113 182.935 186.171 182.935C184.23 182.935 182.935 184.23 182.935 186.171Z" fill="#131313"/>
<path d="M216.592 186.171C216.592 188.113 217.887 189.408 219.829 189.408C221.77 189.408 223.065 188.113 223.065 186.171C223.065 184.23 221.77 182.935 219.829 182.935C217.887 182.935 216.592 184.23 216.592 186.171Z" fill="#131313"/>
<path d="M249.602 186.171C249.602 188.113 250.896 189.408 252.838 189.408C254.78 189.408 256.074 188.113 256.074 186.171C256.074 184.23 254.78 182.935 252.838 182.935C250.896 182.935 249.602 184.23 249.602 186.171Z" fill="#131313"/>
<path d="M283.259 186.171C283.259 188.113 284.553 189.408 286.495 189.408C288.437 189.408 289.731 188.113 289.731 186.171C289.731 184.23 288.437 182.935 286.495 182.935C284.553 182.935 283.259 184.23 283.259 186.171Z" fill="#131313"/>
<path d="M316.269 186.171C316.269 188.113 317.563 189.408 319.505 189.408C321.447 189.408 322.741 188.113 322.741 186.171C322.741 184.23 321.447 182.935 319.505 182.935C318.21 182.935 316.269 184.23 316.269 186.171Z" fill="#131313"/>
<path d="M116.269 219.828C116.269 221.77 117.563 223.065 119.505 223.065C121.447 223.065 122.741 221.77 122.741 219.828C122.741 217.887 121.447 216.592 119.505 216.592C117.563 216.592 116.269 217.887 116.269 219.828Z" fill="#131313"/>
<path d="M149.278 219.828C149.278 221.77 150.573 223.065 152.515 223.065C154.456 223.065 155.751 221.77 155.751 219.828C155.751 217.887 154.456 216.592 152.515 216.592C150.573 216.592 149.278 217.887 149.278 219.828Z" fill="#131313"/>
<path d="M182.935 219.828C182.935 221.77 184.23 223.065 186.171 223.065C188.113 223.065 189.408 221.77 189.408 219.828C189.408 217.887 188.113 216.592 186.171 216.592C184.23 216.592 182.935 217.887 182.935 219.828Z" fill="#131313"/>
<path d="M216.592 219.828C216.592 221.77 217.887 223.065 219.829 223.065C221.77 223.065 223.065 221.77 223.065 219.828C223.065 217.887 221.77 216.592 219.829 216.592C217.887 216.592 216.592 217.887 216.592 219.828Z" fill="#131313"/>
<path d="M249.602 219.828C249.602 221.77 250.896 223.065 252.838 223.065C254.78 223.065 256.074 221.77 256.074 219.828C256.074 217.887 254.78 216.592 252.838 216.592C250.896 216.592 249.602 217.887 249.602 219.828Z" fill="#131313"/>
<path d="M283.259 219.828C283.259 221.77 284.553 223.065 286.495 223.065C288.437 223.065 289.731 221.77 289.731 219.828C289.731 217.887 288.437 216.592 286.495 216.592C284.553 216.592 283.259 217.887 283.259 219.828Z" fill="#131313"/>
<path d="M316.269 219.828C316.269 221.77 317.563 223.065 319.505 223.065C321.447 223.065 322.741 221.77 322.741 219.828C322.741 217.887 321.447 216.592 319.505 216.592C318.21 216.592 316.269 217.887 316.269 219.828Z" fill="#131313"/>
<path d="M82.6113 252.838C82.6113 254.78 83.9058 256.074 85.8476 256.074C87.7893 256.074 89.0838 254.78 89.0838 252.838C89.0838 250.896 87.7893 249.602 85.8476 249.602C84.5531 249.602 82.6113 250.896 82.6113 252.838Z" fill="#131313"/>
<path d="M116.269 252.838C116.269 254.78 117.563 256.074 119.505 256.074C121.447 256.074 122.741 254.78 122.741 252.838C122.741 250.896 121.447 249.602 119.505 249.602C117.563 249.602 116.269 250.896 116.269 252.838Z" fill="#131313"/>
<path d="M149.278 252.838C149.278 254.78 150.573 256.074 152.515 256.074C154.456 256.074 155.751 254.78 155.751 252.838C155.751 250.896 154.456 249.602 152.515 249.602C150.573 249.602 149.278 250.896 149.278 252.838Z" fill="#131313"/>
<path d="M182.935 252.838C182.935 254.78 184.23 256.074 186.171 256.074C188.113 256.074 189.408 254.78 189.408 252.838C189.408 250.896 188.113 249.602 186.171 249.602C184.23 249.602 182.935 250.896 182.935 252.838Z" fill="#131313"/>
<path d="M216.592 252.838C216.592 254.78 217.887 256.074 219.829 256.074C221.77 256.074 223.065 254.78 223.065 252.838C223.065 250.896 221.77 249.602 219.829 249.602C217.887 249.602 216.592 250.896 216.592 252.838Z" fill="#131313"/>
<path d="M249.602 252.838C249.602 254.78 250.896 256.074 252.838 256.074C254.78 256.074 256.074 254.78 256.074 252.838C256.074 250.896 254.78 249.602 252.838 249.602C250.896 249.602 249.602 250.896 249.602 252.838Z" fill="#131313"/>
<path d="M283.259 252.838C283.259 254.78 284.553 256.074 286.495 256.074C288.437 256.074 289.731 254.78 289.731 252.838C289.731 250.896 288.437 249.602 286.495 249.602C284.553 249.602 283.259 250.896 283.259 252.838Z" fill="#131313"/>
<path d="M316.269 252.838C316.269 254.78 317.563 256.074 319.505 256.074C321.447 256.074 322.741 254.78 322.741 252.838C322.741 250.896 321.447 249.602 319.505 249.602C318.21 249.602 316.269 250.896 316.269 252.838Z" fill="#131313"/>
<path d="M49.6016 286.495C49.6016 288.437 50.8961 289.731 52.8378 289.731C54.7796 289.731 56.0741 288.437 56.0741 286.495C56.0741 284.553 54.7796 283.259 52.8378 283.259C50.8961 283.259 49.6016 284.553 49.6016 286.495Z" fill="#131313"/>
<path d="M82.6113 286.495C82.6113 288.437 83.9058 289.731 85.8476 289.731C87.7893 289.731 89.0838 288.437 89.0838 286.495C89.0838 284.553 87.7893 283.259 85.8476 283.259C84.5531 283.259 82.6113 284.553 82.6113 286.495Z" fill="#131313"/>
<path d="M116.269 286.495C116.269 288.437 117.563 289.731 119.505 289.731C121.447 289.731 122.741 288.437 122.741 286.495C122.741 284.553 121.447 283.259 119.505 283.259C117.563 283.259 116.269 284.553 116.269 286.495Z" fill="#131313"/>
<path d="M149.278 286.495C149.278 288.437 150.573 289.731 152.515 289.731C154.456 289.731 155.751 288.437 155.751 286.495C155.751 284.553 154.456 283.259 152.515 283.259C150.573 283.259 149.278 284.553 149.278 286.495Z" fill="#131313"/>
<path d="M182.935 286.495C182.935 288.437 184.23 289.731 186.171 289.731C188.113 289.731 189.408 288.437 189.408 286.495C189.408 284.553 188.113 283.259 186.171 283.259C184.23 283.259 182.935 284.553 182.935 286.495Z" fill="#131313"/>
<path d="M216.592 286.495C216.592 288.437 217.887 289.731 219.829 289.731C221.77 289.731 223.065 288.437 223.065 286.495C223.065 284.553 221.77 283.259 219.829 283.259C217.887 283.259 216.592 284.553 216.592 286.495Z" fill="#131313"/>
<path d="M249.602 286.495C249.602 288.437 250.896 289.731 252.838 289.731C254.78 289.731 256.074 288.437 256.074 286.495C256.074 284.553 254.78 283.259 252.838 283.259C250.896 283.259 249.602 284.553 249.602 286.495Z" fill="#131313"/>
<path d="M283.259 286.495C283.259 288.437 284.553 289.731 286.495 289.731C288.437 289.731 289.731 288.437 289.731 286.495C289.731 284.553 288.437 283.259 286.495 283.259C284.553 283.259 283.259 284.553 283.259 286.495Z" fill="#131313"/>
<path d="M316.269 286.495C316.269 288.437 317.563 289.731 319.505 289.731C321.447 289.731 322.741 288.437 322.741 286.495C322.741 284.553 321.447 283.259 319.505 283.259C318.21 283.259 316.269 284.553 316.269 286.495Z" fill="#131313"/>
<path d="M15.9448 319.505C15.9448 321.447 17.2393 322.741 19.1811 322.741C21.1228 322.741 22.4173 321.447 22.4173 319.505C22.4173 317.563 21.1228 316.269 19.1811 316.269C17.2393 316.269 15.9448 318.21 15.9448 319.505Z" fill="#131313"/>
<path d="M49.6016 319.505C49.6016 321.447 50.8961 322.741 52.8378 322.741C54.7796 322.741 56.0741 321.447 56.0741 319.505C56.0741 317.563 54.7796 316.269 52.8378 316.269C50.8961 316.269 49.6016 318.21 49.6016 319.505Z" fill="#131313"/>
<path d="M82.6113 319.505C82.6113 321.447 83.9058 322.741 85.8476 322.741C87.7893 322.741 89.0838 321.447 89.0838 319.505C89.0838 317.563 87.7893 316.269 85.8476 316.269C84.5531 316.269 82.6113 318.21 82.6113 319.505Z" fill="#131313"/>
<path d="M116.269 319.505C116.269 321.447 117.563 322.741 119.505 322.741C121.447 322.741 122.741 321.447 122.741 319.505C122.741 317.563 121.447 316.269 119.505 316.269C117.563 316.269 116.269 318.21 116.269 319.505Z" fill="#131313"/>
<path d="M149.278 319.505C149.278 321.447 150.573 322.741 152.515 322.741C154.456 322.741 155.751 321.447 155.751 319.505C155.751 317.563 154.456 316.269 152.515 316.269C150.573 316.269 149.278 318.21 149.278 319.505Z" fill="#131313"/>
<path d="M182.935 319.505C182.935 321.447 184.23 322.741 186.171 322.741C188.113 322.741 189.408 321.447 189.408 319.505C189.408 317.563 188.113 316.269 186.171 316.269C184.23 316.269 182.935 318.21 182.935 319.505Z" fill="#131313"/>
<path d="M216.592 319.505C216.592 321.447 217.887 322.741 219.829 322.741C221.77 322.741 223.065 321.447 223.065 319.505C223.065 317.563 221.77 316.269 219.829 316.269C217.887 316.269 216.592 318.21 216.592 319.505Z" fill="#131313"/>
<path d="M249.602 319.505C249.602 321.447 250.896 322.741 252.838 322.741C254.78 322.741 256.074 321.447 256.074 319.505C256.074 317.563 254.78 316.269 252.838 316.269C250.896 316.269 249.602 318.21 249.602 319.505Z" fill="#131313"/>
<path d="M283.259 319.505C283.259 321.447 284.553 322.741 286.495 322.741C288.437 322.741 289.731 321.447 289.731 319.505C289.731 317.563 288.437 316.269 286.495 316.269C284.553 316.269 283.259 318.21 283.259 319.505Z" fill="#131313"/>
<path d="M316.269 319.505C316.269 321.447 317.563 322.741 319.505 322.741C321.447 322.741 322.741 321.447 322.741 319.505C322.741 317.563 321.447 316.269 319.505 316.269C318.21 316.269 316.269 318.21 316.269 319.505Z" fill="#131313"/>
<path d="M3 323.388H323.388V3" stroke="#131313" stroke-width="4" stroke-miterlimit="10"/>
<path d="M82.6117 403L3 323.388L323.388 3L403 82.6117V403H82.6117Z" stroke="#131313" stroke-width="4" stroke-miterlimit="10"/>
<path d="M323.388 323.388L403 403" stroke="#131313" stroke-width="4" stroke-miterlimit="10"/>
</svg>
