<svg width="400" height="249" viewBox="0 0 400 249" fill="none" xmlns="http://www.w3.org/2000/svg">
<g clip-path="url(#clip0)">
<path d="M14.4374 12.5687C14.4374 14.7992 11.8897 17.0297 9.34188 17.0297C6.79411 17.0297 4.24634 14.7992 4.24634 12.5687C4.24634 10.3383 6.79411 8.10777 9.34188 8.10777C11.8897 8.10777 14.4374 9.59476 14.4374 12.5687Z" fill="#131313"/>
<path d="M37.3688 1.41632C37.3688 3.6468 34.821 5.87729 32.2733 5.87729C29.7255 5.87729 27.1777 3.6468 27.1777 1.41632C27.1777 -0.814162 29.7255 -3.04465 32.2733 -3.04465C34.821 -3.04465 37.3688 -0.814162 37.3688 1.41632Z" fill="#131313"/>
<path d="M84.078 4.39027C84.078 6.62075 81.5303 8.85123 78.9825 8.85123C76.4347 8.85123 73.887 6.62075 73.887 4.39027C73.887 2.15979 76.4347 -0.070694 78.9825 -0.070694C81.5303 -0.070694 84.078 1.41629 84.078 4.39027Z" fill="#131313"/>
<path d="M107.007 17.0297C107.007 19.2602 104.46 21.4907 101.912 21.4907C99.3642 21.4907 96.8164 19.2602 96.8164 17.0297C96.8164 14.7993 99.3642 12.5688 101.912 12.5688C104.46 12.5688 107.007 14.7993 107.007 17.0297Z" fill="#131313"/>
<path d="M82.3781 27.4386C82.3781 29.6691 79.8303 31.8996 77.2826 31.8996C74.7348 31.8996 72.187 29.6691 72.187 27.4386C72.187 25.2082 74.7348 22.9777 77.2826 22.9777C79.8303 22.2342 82.3781 24.4647 82.3781 27.4386Z" fill="#131313"/>
<path d="M60.2985 14.7991C60.2985 17.0296 57.7507 19.2601 55.203 19.2601C52.6552 19.2601 50.1074 17.0296 50.1074 14.7991C50.1074 12.5687 52.6552 10.3382 55.203 10.3382C57.7507 9.5947 60.2985 11.8252 60.2985 14.7991Z" fill="#131313"/>
<path d="M36.519 25.2082C36.519 27.4387 33.9712 29.6692 31.4234 29.6692C28.8757 29.6692 26.3279 27.4387 26.3279 25.2082C26.3279 22.9777 28.8757 20.7473 31.4234 20.7473C33.9712 20.7473 36.519 22.9777 36.519 25.2082Z" fill="#131313"/>
<path d="M14.4374 36.3606C14.4374 38.5911 11.8897 40.8216 9.34188 40.8216C6.79411 40.8216 4.24634 38.5911 4.24634 36.3606C4.24634 34.1302 6.79411 31.8997 9.34188 31.8997C11.8897 31.8997 14.4374 34.1302 14.4374 36.3606Z" fill="#131313"/>
<path d="M34.8207 48.9999C34.8207 51.2304 32.273 53.4609 29.7252 53.4609C27.1774 53.4609 24.6296 51.2304 24.6296 48.9999C24.6296 46.7695 27.1774 44.539 29.7252 44.539C33.1222 44.539 34.8207 46.026 34.8207 48.9999Z" fill="#131313"/>
<path d="M56.0522 61.6394C56.0522 63.8699 53.5044 66.1004 50.9566 66.1004C48.4089 66.1004 45.8611 63.8699 45.8611 61.6394C45.8611 59.4089 47.5596 57.1785 50.9566 57.1785C53.5044 57.1785 56.0522 58.6654 56.0522 61.6394Z" fill="#131313"/>
<path d="M76.4335 74.2789C76.4335 77.2529 73.8857 79.4834 71.338 79.4834C68.7902 79.4834 66.2424 77.2529 66.2424 75.0224C66.2424 72.7919 68.7902 70.5614 71.338 70.5614C73.8857 69.8179 76.4335 72.0484 76.4335 74.2789Z" fill="#131313"/>
<path d="M73.8854 98.8141C73.8854 101.045 71.3377 103.275 68.7899 103.275C66.2421 103.275 63.6943 101.045 63.6943 98.8141C63.6943 96.5837 66.2421 94.3532 68.7899 94.3532C71.3377 93.6097 73.8854 95.8402 73.8854 98.8141Z" fill="#131313"/>
<path d="M53.5041 85.4313C53.5041 87.6618 50.9563 89.8923 48.4085 89.8923C45.8608 89.8923 43.313 87.6618 43.313 85.4313C43.313 83.2008 45.8608 80.9703 48.4085 80.9703C50.9563 80.9703 53.5041 83.2008 53.5041 85.4313Z" fill="#131313"/>
<path d="M33.1225 72.7918C33.1225 75.0223 30.5747 77.2528 28.0269 77.2528C25.4792 77.2528 22.9314 75.0223 22.9314 72.7918C22.9314 70.5613 25.4792 68.3309 28.0269 68.3309C30.5747 68.3309 33.1225 70.5613 33.1225 72.7918Z" fill="#131313"/>
<path d="M12.7394 60.1523C12.7394 62.3828 10.1917 64.6133 7.64388 64.6133C5.09611 64.6133 2.54834 62.3828 2.54834 60.1523C2.54834 57.9219 5.09611 55.6914 7.64388 55.6914C10.1917 55.6914 12.7394 57.9219 12.7394 60.1523Z" fill="#131313"/>
<path d="M11.0412 85.4313C11.0412 87.6618 8.49341 89.8923 5.94564 89.8923C3.39787 89.8923 0.850098 87.6618 0.850098 85.4313C0.850098 83.2008 3.39787 80.9703 5.94564 80.9703C8.49341 80.9703 11.0412 83.2008 11.0412 85.4313Z" fill="#131313"/>
<path d="M30.5744 97.3271C30.5744 99.5576 28.0266 101.788 25.4788 101.788C22.9311 101.788 20.3833 99.5576 20.3833 97.3271C20.3833 95.0966 22.9311 92.8661 25.4788 92.8661C28.0266 92.8661 30.5744 95.0966 30.5744 97.3271Z" fill="#131313"/>
<path d="M11.0412 112.94C11.0412 115.171 8.49341 117.401 5.94564 117.401C3.39787 117.401 0.850098 115.171 0.850098 112.94C0.850098 110.71 3.39787 108.48 5.94564 108.48C8.49341 107.736 11.0412 109.967 11.0412 112.94Z" fill="#131313"/>
<path d="M29.7245 121.863C29.7245 124.093 27.1768 126.323 24.629 126.323C22.0812 126.323 19.5334 124.093 19.5334 121.863C19.5334 119.632 22.0812 117.402 24.629 117.402C27.1768 116.658 29.7245 118.889 29.7245 121.863Z" fill="#131313"/>
<path d="M15.2875 140.45C15.2875 142.68 12.7397 144.911 10.192 144.911C7.64421 144.911 5.09644 142.68 5.09644 140.45C5.09644 138.219 7.64421 135.989 10.192 135.989C12.7397 135.989 15.2875 138.219 15.2875 140.45Z" fill="#131313"/>
<path d="M36.519 156.063C36.519 158.294 33.9712 160.524 31.4234 160.524C28.8757 160.524 26.3279 158.294 26.3279 156.063C26.3279 153.833 28.8757 151.602 31.4234 151.602C33.9712 151.602 36.519 153.833 36.519 156.063Z" fill="#131313"/>
<path d="M13.5893 167.216C13.5893 169.446 11.0415 171.677 8.49374 171.677C5.94596 171.677 3.39819 169.446 3.39819 167.216C3.39819 164.985 5.94596 162.755 8.49374 162.755C11.0415 162.755 13.5893 164.242 13.5893 167.216Z" fill="#131313"/>
<path d="M33.9714 180.599C33.9714 182.829 31.4237 185.06 28.8759 185.06C26.3281 185.06 23.7804 182.829 23.7804 180.599C22.9311 178.368 25.4789 176.138 28.0266 176.138C31.4237 176.138 33.9714 178.368 33.9714 180.599Z" fill="#131313"/>
<path d="M13.5893 194.725C13.5893 196.955 11.0415 199.186 8.49374 199.186C5.94596 199.186 3.39819 196.955 3.39819 194.725C3.39819 192.494 5.94596 190.264 8.49374 190.264C11.0415 190.264 13.5893 192.494 13.5893 194.725Z" fill="#131313"/>
<path d="M13.5893 220.004C13.5893 222.234 11.0415 224.465 8.49374 224.465C5.94596 224.465 3.39819 222.234 3.39819 220.004C3.39819 217.773 5.94596 215.543 8.49374 215.543C11.8908 215.543 13.5893 217.773 13.5893 220.004Z" fill="#131313"/>
<path d="M11.0412 244.539C11.0412 246.77 8.49341 249 5.94564 249C3.39787 249 0.850098 246.77 0.850098 244.539C0.850098 242.309 3.39787 240.078 5.94564 240.078C8.49341 240.078 11.0412 242.309 11.0412 244.539Z" fill="#131313"/>
<path d="M39.0671 228.182C39.0671 230.413 36.5193 232.643 33.9715 232.643C31.4237 232.643 28.876 230.413 28.876 228.182C28.876 225.952 31.4237 223.721 33.9715 223.721C37.3685 223.721 39.0671 225.952 39.0671 228.182Z" fill="#131313"/>
<path d="M36.519 206.621C36.519 208.851 33.9712 211.082 31.4234 211.082C28.8757 211.082 26.3279 208.851 26.3279 206.621C26.3279 204.39 28.8757 202.16 31.4234 202.16C33.9712 202.16 36.519 203.647 36.519 206.621Z" fill="#131313"/>
<path d="M65.393 213.312C65.393 215.543 62.8452 217.773 60.2974 217.773C57.7497 217.773 55.2019 215.543 55.2019 213.312C55.2019 211.082 57.7497 208.851 60.2974 208.851C62.8452 208.851 65.393 210.338 65.393 213.312Z" fill="#131313"/>
<path d="M54.3539 193.238C54.3539 195.468 51.8062 197.699 49.2584 197.699C46.7106 197.699 44.1628 195.468 44.1628 193.238C44.1628 191.008 46.7106 188.777 49.2584 188.777C52.6554 188.777 54.3539 191.008 54.3539 193.238Z" fill="#131313"/>
<path d="M77.2836 186.546C77.2836 188.777 74.7358 191.007 72.1881 191.007C69.6403 191.007 67.0925 188.777 67.0925 186.546C67.0925 184.316 69.6403 182.085 72.1881 182.085C74.7358 181.342 77.2836 183.572 77.2836 186.546Z" fill="#131313"/>
<path d="M93.4189 201.416C93.4189 203.647 90.8711 205.877 88.3233 205.877C85.7755 205.877 83.2278 203.647 83.2278 201.416C83.2278 199.186 85.7755 196.955 88.3233 196.955C90.8711 196.955 93.4189 199.186 93.4189 201.416Z" fill="#131313"/>
<path d="M120.595 189.521C120.595 191.751 118.047 193.982 115.499 193.982C112.951 193.982 110.404 191.751 110.404 189.521C110.404 187.29 112.951 185.06 115.499 185.06C118.047 185.06 120.595 187.29 120.595 189.521Z" fill="#131313"/>
<path d="M101.063 176.881C101.063 179.112 98.5154 181.342 95.9676 181.342C93.4198 181.342 90.8721 179.112 90.8721 176.881C90.8721 174.651 93.4198 172.42 95.9676 172.42C98.5154 172.42 101.063 174.651 101.063 176.881Z" fill="#131313"/>
<path d="M56.9003 170.19C56.9003 172.42 54.3525 174.651 51.8048 174.651C49.257 174.651 46.7092 172.42 46.7092 170.19C46.7092 167.959 49.257 165.729 51.8048 165.729C54.3525 165.729 56.9003 167.959 56.9003 170.19Z" fill="#131313"/>
<path d="M82.3781 162.755C82.3781 164.985 79.8303 167.216 77.2826 167.216C74.7348 167.216 72.187 164.985 72.187 162.755C72.187 160.524 74.7348 158.294 77.2826 158.294C79.8303 157.55 82.3781 159.781 82.3781 162.755Z" fill="#131313"/>
<path d="M87.4743 137.476C87.4743 139.706 84.9265 141.937 82.3787 141.937C79.831 141.937 77.2832 139.706 77.2832 137.476C77.2832 135.245 79.831 133.015 82.3787 133.015C84.9265 133.015 87.4743 135.245 87.4743 137.476Z" fill="#131313"/>
<path d="M63.6947 147.885C63.6947 150.115 61.147 152.346 58.5992 152.346C56.0514 152.346 53.5037 150.115 53.5037 147.885C53.5037 145.654 56.0514 143.424 58.5992 143.424C61.147 143.424 63.6947 145.654 63.6947 147.885Z" fill="#131313"/>
<path d="M45.0114 135.245C45.0114 137.476 42.4636 139.706 39.9159 139.706C37.3681 139.706 34.8203 137.476 34.8203 135.245C34.8203 133.015 37.3681 130.784 39.9159 130.784C42.4636 130.784 45.0114 132.271 45.0114 135.245Z" fill="#131313"/>
<path d="M50.956 109.223C50.956 111.453 48.4082 113.684 45.8604 113.684C43.3127 113.684 40.7649 111.453 40.7649 109.223C40.7649 106.993 43.3127 104.762 45.8604 104.762C48.4082 104.762 50.956 106.993 50.956 109.223Z" fill="#131313"/>
<path d="M68.7909 124.093C68.7909 126.323 66.2432 128.554 63.6954 128.554C61.1476 128.554 58.5999 126.323 58.5999 124.093C58.5999 121.862 61.1476 119.632 63.6954 119.632C66.2432 118.888 68.7909 121.119 68.7909 124.093Z" fill="#131313"/>
<path d="M91.7206 112.94C91.7206 115.171 89.1728 117.401 86.6251 117.401C84.0773 117.401 81.5295 115.171 81.5295 112.94C81.5295 110.71 84.0773 108.48 86.6251 108.48C89.1728 107.736 91.7206 109.967 91.7206 112.94Z" fill="#131313"/>
<path d="M110.404 126.324C110.404 128.554 107.856 130.784 105.308 130.784C102.761 130.784 100.213 128.554 100.213 126.324C100.213 124.093 102.761 121.863 105.308 121.863C107.856 121.863 110.404 124.093 110.404 126.324Z" fill="#131313"/>
<path d="M128.239 140.45C128.239 142.68 125.691 144.911 123.143 144.911C120.596 144.911 118.048 142.68 118.048 140.45C118.048 138.219 120.596 135.989 123.143 135.989C125.691 135.245 128.239 137.476 128.239 140.45Z" fill="#131313"/>
<path d="M105.309 151.602C105.309 153.833 102.762 156.063 100.214 156.063C97.6662 156.063 95.1184 153.833 95.1184 151.602C95.1184 149.372 97.6662 147.141 100.214 147.141C102.762 147.141 105.309 149.372 105.309 151.602Z" fill="#131313"/>
<path d="M123.993 164.985C123.993 167.216 121.445 169.446 118.897 169.446C116.349 169.446 113.802 167.216 113.802 164.985C113.802 162.755 116.349 160.524 118.897 160.524C121.445 160.524 123.993 162.011 123.993 164.985Z" fill="#131313"/>
<path d="M145.224 175.394C145.224 177.624 142.676 179.855 140.129 179.855C137.581 179.855 135.033 177.624 135.033 175.394C135.033 173.164 137.581 170.933 140.129 170.933C142.676 170.933 145.224 172.42 145.224 175.394Z" fill="#131313"/>
<path d="M147.772 152.346C147.772 154.576 145.224 156.807 142.677 156.807C140.129 156.807 137.581 154.576 137.581 152.346C137.581 150.115 140.129 147.885 142.677 147.885C145.224 147.141 147.772 149.372 147.772 152.346Z" fill="#131313"/>
<path d="M169.004 162.755C169.004 164.985 166.456 167.216 163.908 167.216C161.36 167.216 158.812 164.985 158.812 162.755C158.812 160.524 161.36 158.294 163.908 158.294C166.456 157.55 169.004 159.781 169.004 162.755Z" fill="#131313"/>
<path d="M194.481 151.602C194.481 153.833 191.934 156.063 189.386 156.063C186.838 156.063 184.29 153.833 184.29 151.602C184.29 149.372 186.838 147.141 189.386 147.141C191.934 147.141 194.481 149.372 194.481 151.602Z" fill="#131313"/>
<path d="M172.4 140.45C172.4 142.68 169.852 144.911 167.305 144.911C164.757 144.911 162.209 142.68 162.209 140.45C162.209 138.219 164.757 135.989 167.305 135.989C169.852 135.989 172.4 138.219 172.4 140.45Z" fill="#131313"/>
<path d="M197.028 130.041C197.028 132.271 194.48 134.502 191.932 134.502C189.384 134.502 186.837 132.271 186.837 130.041C186.837 127.81 189.384 125.58 191.932 125.58C194.48 124.836 197.028 127.067 197.028 130.041Z" fill="#131313"/>
<path d="M219.109 138.963C219.109 141.193 216.561 143.424 214.014 143.424C211.466 143.424 208.918 141.193 208.918 138.963C208.918 136.732 211.466 134.502 214.014 134.502C216.561 134.502 219.109 136.732 219.109 138.963Z" fill="#131313"/>
<path d="M199.576 107.736C199.576 109.966 197.028 112.197 194.48 112.197C191.933 112.197 189.385 109.966 189.385 107.736C189.385 105.505 191.933 103.275 194.48 103.275C197.028 102.532 199.576 104.762 199.576 107.736Z" fill="#131313"/>
<path d="M182.591 94.3531C182.591 96.5836 180.043 98.8141 177.495 98.8141C174.947 98.8141 172.4 96.5836 172.4 94.3531C172.4 92.1226 174.947 89.8922 177.495 89.8922C180.892 89.8922 182.591 92.1226 182.591 94.3531Z" fill="#131313"/>
<path d="M164.757 80.9703C164.757 83.2008 162.21 85.4313 159.662 85.4313C157.114 85.4313 154.566 83.2008 154.566 80.9703C154.566 78.7398 157.114 76.5093 159.662 76.5093C162.21 76.5093 164.757 78.7398 164.757 80.9703Z" fill="#131313"/>
<path d="M139.28 91.3792C139.28 93.6097 136.732 95.8402 134.184 95.8402C131.636 95.8402 129.089 93.6097 129.089 91.3792C129.089 89.1487 131.636 86.9182 134.184 86.9182C136.732 86.1747 139.28 88.4052 139.28 91.3792Z" fill="#131313"/>
<path d="M157.963 104.762C157.963 106.992 155.415 109.223 152.868 109.223C150.32 109.223 147.772 106.992 147.772 104.762C147.772 102.532 150.32 100.301 152.868 100.301C155.415 100.301 157.963 101.788 157.963 104.762Z" fill="#131313"/>
<path d="M175.796 118.145C175.796 120.376 173.249 122.606 170.701 122.606C168.153 122.606 165.605 120.376 165.605 118.145C165.605 115.915 168.153 113.684 170.701 113.684C174.098 113.684 175.796 115.171 175.796 118.145Z" fill="#131313"/>
<path d="M152.018 128.554C152.018 130.784 149.471 133.015 146.923 133.015C144.375 133.015 141.827 130.784 141.827 128.554C141.827 126.323 144.375 124.093 146.923 124.093C149.471 124.093 152.018 126.323 152.018 128.554Z" fill="#131313"/>
<path d="M133.333 115.171C133.333 117.402 130.786 119.632 128.238 119.632C125.69 119.632 123.142 117.402 123.142 115.171C123.142 112.941 125.69 110.71 128.238 110.71C131.635 110.71 133.333 112.941 133.333 115.171Z" fill="#131313"/>
<path d="M115.5 101.788C115.5 104.019 112.952 106.249 110.405 106.249C107.857 106.249 105.309 104.019 105.309 101.788C105.309 99.5576 107.857 97.3271 110.405 97.3271C112.952 97.3271 115.5 98.8141 115.5 101.788Z" fill="#131313"/>
<path d="M96.8168 87.6617C96.8168 89.8922 94.269 92.1227 91.7213 92.1227C89.1735 92.1227 86.6257 89.8922 86.6257 87.6617C86.6257 85.4312 89.1735 83.2007 91.7213 83.2007C94.269 83.2007 96.8168 85.4312 96.8168 87.6617Z" fill="#131313"/>
<path d="M120.595 77.2528C120.595 79.4833 118.047 81.7138 115.499 81.7138C112.951 81.7138 110.404 79.4833 110.404 77.2528C110.404 75.0223 112.951 72.7919 115.499 72.7919C118.047 72.7919 120.595 75.0223 120.595 77.2528Z" fill="#131313"/>
<path d="M100.213 63.8698C100.213 66.1003 97.6653 68.3308 95.1175 68.3308C92.5697 68.3308 90.022 66.1003 90.022 63.8698C90.022 61.6393 92.5697 59.4088 95.1175 59.4088C97.6653 59.4088 100.213 60.8958 100.213 63.8698Z" fill="#131313"/>
<path d="M79.8317 50.487C79.8317 52.7175 77.2839 54.948 74.7362 54.948C72.1884 54.948 69.6406 52.7175 69.6406 50.487C69.6406 48.2565 72.1884 46.026 74.7362 46.026C77.2839 46.026 79.8317 48.2565 79.8317 50.487Z" fill="#131313"/>
<path d="M58.6003 37.8475C58.6003 40.078 56.0525 42.3085 53.5047 42.3085C50.957 42.3085 48.4092 40.078 48.4092 37.8475C48.4092 35.617 50.957 33.3865 53.5047 33.3865C56.0525 33.3865 58.6003 34.8735 58.6003 37.8475Z" fill="#131313"/>
<path d="M103.61 40.0781C103.61 42.3086 101.062 44.5391 98.514 44.5391C95.9662 44.5391 93.4185 42.3086 93.4185 40.0781C93.4185 37.8476 95.9662 35.6171 98.514 35.6171C101.062 35.6171 103.61 37.8476 103.61 40.0781Z" fill="#131313"/>
<path d="M124.841 54.2045C124.841 56.435 122.293 58.6655 119.745 58.6655C117.198 58.6655 114.65 56.435 114.65 54.2045C114.65 51.974 117.198 49.7435 119.745 49.7435C122.293 49 124.841 51.2305 124.841 54.2045Z" fill="#131313"/>
<path d="M145.224 67.5873C145.224 69.8178 142.676 72.0482 140.129 72.0482C137.581 72.0482 135.033 69.8178 135.033 67.5873C135.033 65.3568 137.581 63.1263 140.129 63.1263C142.676 63.1263 145.224 64.6133 145.224 67.5873Z" fill="#131313"/>
<path d="M171.55 59.4088C171.55 61.6393 169.002 63.8698 166.454 63.8698C163.907 63.8698 161.359 61.6393 161.359 59.4088C161.359 57.1783 163.907 54.9479 166.454 54.9479C169.002 54.2044 171.55 56.4348 171.55 59.4088Z" fill="#131313"/>
<path d="M196.18 50.487C196.18 52.7175 193.632 54.948 191.084 54.948C188.536 54.948 185.989 52.7175 185.989 50.487C185.989 48.2565 188.536 46.026 191.084 46.026C193.632 46.026 196.18 48.2565 196.18 50.487Z" fill="#131313"/>
<path d="M221.657 42.3085C221.657 44.539 219.11 46.7695 216.562 46.7695C214.014 46.7695 211.466 44.539 211.466 42.3085C211.466 40.078 214.014 37.8476 216.562 37.8476C219.11 37.1041 221.657 39.3346 221.657 42.3085Z" fill="#131313"/>
<path d="M218.259 66.1004C218.259 68.3309 215.711 70.5614 213.164 70.5614C210.616 70.5614 208.068 68.3309 208.068 66.1004C208.068 63.8699 210.616 61.6395 213.164 61.6395C215.711 61.6395 218.259 63.8699 218.259 66.1004Z" fill="#131313"/>
<path d="M192.781 74.2789C192.781 76.5094 190.234 78.7398 187.686 78.7398C185.138 78.7398 182.59 76.5094 182.59 74.2789C182.59 72.0484 185.138 69.8179 187.686 69.8179C190.234 69.8179 192.781 72.0484 192.781 74.2789Z" fill="#131313"/>
<path d="M215.713 89.8921C215.713 92.1226 213.165 94.3531 210.617 94.3531C208.069 94.3531 205.522 92.1226 205.522 89.8921C205.522 87.6617 208.069 85.4312 210.617 85.4312C213.165 85.4312 215.713 87.6617 215.713 89.8921Z" fill="#131313"/>
<path d="M241.191 102.532C241.191 104.762 238.643 106.993 236.095 106.993C233.547 106.993 231 104.762 231 102.532C231 100.301 233.547 98.0706 236.095 98.0706C238.643 98.0706 241.191 99.5576 241.191 102.532Z" fill="#131313"/>
<path d="M220.807 115.171C220.807 117.402 218.26 119.632 215.712 119.632C213.164 119.632 210.616 117.402 210.616 115.171C210.616 112.941 213.164 110.71 215.712 110.71C218.26 110.71 220.807 112.941 220.807 115.171Z" fill="#131313"/>
<path d="M242.039 126.323C242.039 128.554 239.491 130.784 236.943 130.784C234.395 130.784 231.848 128.554 231.848 126.323C231.848 124.093 234.395 121.862 236.943 121.862C239.491 121.119 242.039 123.349 242.039 126.323Z" fill="#131313"/>
<path d="M265.818 114.428C265.818 116.658 263.27 118.889 260.723 118.889C258.175 118.889 255.627 116.658 255.627 114.428C255.627 112.197 258.175 109.967 260.723 109.967C263.27 109.967 265.818 112.197 265.818 114.428Z" fill="#131313"/>
<path d="M266.668 92.1227C266.668 94.3532 264.12 96.5837 261.573 96.5837C259.025 96.5837 256.477 94.3532 256.477 92.1227C256.477 89.8923 259.025 87.6618 261.573 87.6618C264.12 87.6618 266.668 89.8923 266.668 92.1227Z" fill="#131313"/>
<path d="M265.818 70.5612C265.818 72.7917 263.27 75.0222 260.723 75.0222C258.175 75.0222 255.627 72.7917 255.627 70.5612C255.627 68.3308 258.175 66.1003 260.723 66.1003C264.12 65.3568 265.818 67.5873 265.818 70.5612Z" fill="#131313"/>
<path d="M292.994 80.9703C292.994 83.2008 290.446 85.4313 287.899 85.4313C285.351 85.4313 282.803 83.2008 282.803 80.9703C282.803 78.7398 285.351 76.5093 287.899 76.5093C290.446 75.7659 292.994 77.9963 292.994 80.9703Z" fill="#131313"/>
<path d="M291.296 102.532C291.296 104.762 288.748 106.993 286.201 106.993C283.653 106.993 281.105 104.762 281.105 102.532C281.105 100.301 283.653 98.0707 286.201 98.0707C289.598 97.3272 291.296 99.5577 291.296 102.532Z" fill="#131313"/>
<path d="M318.472 86.9182C318.472 89.1487 315.924 91.3791 313.376 91.3791C310.829 91.3791 308.281 89.1487 308.281 86.9182C308.281 84.6877 310.829 82.4572 313.376 82.4572C315.924 81.7137 318.472 83.9442 318.472 86.9182Z" fill="#131313"/>
<path d="M343.95 72.7918C343.95 75.0223 341.402 77.2528 338.854 77.2528C336.306 77.2528 333.759 75.0223 333.759 72.7918C333.759 70.5613 336.306 68.3309 338.854 68.3309C341.402 68.3309 343.95 70.5613 343.95 72.7918Z" fill="#131313"/>
<path d="M318.472 60.8959C318.472 63.1264 315.924 65.3568 313.376 65.3568C310.829 65.3568 308.281 63.1264 308.281 60.8959C308.281 58.6654 310.829 56.4349 313.376 56.4349C315.924 56.4349 318.472 58.6654 318.472 60.8959Z" fill="#131313"/>
<path d="M323.568 35.6171C323.568 37.8476 321.02 40.0781 318.472 40.0781C315.925 40.0781 313.377 37.8476 313.377 35.6171C313.377 33.3866 315.925 31.1562 318.472 31.1562C321.02 30.4127 323.568 32.6431 323.568 35.6171Z" fill="#131313"/>
<path d="M345.648 48.9999C345.648 51.2304 343.1 53.4609 340.552 53.4609C338.004 53.4609 335.457 51.2304 335.457 48.9999C335.457 46.7695 338.004 44.539 340.552 44.539C343.1 44.539 345.648 46.026 345.648 48.9999Z" fill="#131313"/>
<path d="M371.975 60.8959C371.975 63.1264 369.427 65.3568 366.88 65.3568C364.332 65.3568 361.784 63.1264 361.784 60.8959C361.784 58.6654 364.332 56.4349 366.88 56.4349C369.427 55.6914 371.975 57.9219 371.975 60.8959Z" fill="#131313"/>
<path d="M400.001 47.5131C400.001 49.7436 398.302 51.2306 395.755 51.2306C393.207 51.2306 391.508 49.7436 391.508 47.5131C391.508 45.2826 393.207 43.7956 395.755 43.7956C398.302 43.7956 400.001 45.2826 400.001 47.5131Z" fill="#131313"/>
<path d="M372.825 37.8475C372.825 40.078 370.278 42.3085 367.73 42.3085C365.182 42.3085 362.634 40.078 362.634 37.8475C362.634 35.617 365.182 33.3865 367.73 33.3865C370.278 33.3865 372.825 34.8735 372.825 37.8475Z" fill="#131313"/>
<path d="M349.046 23.7212C349.046 25.9516 346.498 28.1821 343.95 28.1821C341.402 28.1821 338.855 25.9516 338.855 23.7212C338.855 21.4907 341.402 19.2602 343.95 19.2602C347.347 19.2602 349.046 20.7472 349.046 23.7212Z" fill="#131313"/>
<path d="M324.416 10.3383C324.416 12.5688 321.868 14.7993 319.321 14.7993C316.773 14.7993 314.225 12.5688 314.225 10.3383C314.225 8.10787 316.773 5.87738 319.321 5.87738C321.868 5.87738 324.416 8.10787 324.416 10.3383Z" fill="#131313"/>
<path d="M298.939 18.5168C298.939 20.7473 296.391 22.9778 293.843 22.9778C291.295 22.9778 288.748 20.7473 288.748 18.5168C288.748 16.2863 291.295 14.0558 293.843 14.0558C296.391 14.0558 298.939 16.2863 298.939 18.5168Z" fill="#131313"/>
<path d="M297.24 40.8216C297.24 43.0521 294.693 45.2826 292.145 45.2826C289.597 45.2826 287.049 43.0521 287.049 40.8216C287.049 38.5911 289.597 36.3607 292.145 36.3607C294.693 36.3607 297.24 37.8476 297.24 40.8216Z" fill="#131313"/>
<path d="M290.446 60.8959C290.446 63.1264 287.898 65.3568 285.35 65.3568C282.803 65.3568 280.255 63.1264 280.255 60.8959C280.255 58.6654 282.803 56.4349 285.35 56.4349C288.747 55.6914 290.446 57.9219 290.446 60.8959Z" fill="#131313"/>
<path d="M269.215 47.5131C269.215 49.7436 266.667 51.974 264.119 51.974C261.571 51.974 259.023 49.7436 259.023 47.5131C259.023 45.2826 261.571 43.0521 264.119 43.0521C266.667 42.3086 269.215 44.5391 269.215 47.5131Z" fill="#131313"/>
<path d="M240.34 80.2268C240.34 82.4573 237.793 84.6878 235.245 84.6878C232.697 84.6878 230.149 82.4573 230.149 80.2268C230.149 77.9963 232.697 75.7658 235.245 75.7658C238.642 75.0223 240.34 77.2528 240.34 80.2268Z" fill="#131313"/>
<path d="M242.889 56.4349C242.889 58.6654 240.341 60.8958 237.793 60.8958C235.245 60.8958 232.698 58.6654 232.698 56.4349C232.698 54.2044 235.245 51.9739 237.793 51.9739C241.19 51.9739 242.889 54.2044 242.889 56.4349Z" fill="#131313"/>
<path d="M246.285 33.3867C246.285 35.6172 243.737 37.8477 241.19 37.8477C238.642 37.8477 236.094 35.6172 236.094 33.3867C236.094 31.1562 238.642 28.9257 241.19 28.9257C243.737 28.9257 246.285 30.4127 246.285 33.3867Z" fill="#131313"/>
<path d="M273.461 25.2082C273.461 27.4387 270.913 29.6692 268.365 29.6692C265.818 29.6692 263.27 27.4387 263.27 25.2082C263.27 22.9777 265.818 20.7473 268.365 20.7473C270.913 20.7473 273.461 22.9777 273.461 25.2082Z" fill="#131313"/>
<path d="M274.311 2.90341C274.311 5.13389 271.763 7.36436 269.215 7.36436C266.667 7.36436 264.12 5.13389 264.12 2.90341C264.12 0.672926 266.667 -1.55756 269.215 -1.55756C271.763 -2.30105 274.311 -0.0705683 274.311 2.90341Z" fill="#131313"/>
<path d="M298.09 -3.78804C298.09 -1.55756 295.543 0.672928 292.995 0.672928C290.447 0.672928 287.899 -1.55756 287.899 -3.78804C287.899 -6.01852 290.447 -8.24899 292.995 -8.24899C295.543 -7.5055 298.09 -6.01852 298.09 -3.78804Z" fill="#131313"/>
<path d="M249.683 10.3383C249.683 12.5688 247.135 14.7993 244.587 14.7993C242.04 14.7993 239.492 12.5688 239.492 10.3383C239.492 8.10787 242.04 5.87738 244.587 5.87738C247.135 5.87738 249.683 7.36437 249.683 10.3383Z" fill="#131313"/>
<path d="M203.822 2.15985C203.822 4.39033 201.274 6.62082 198.727 6.62082C196.179 6.62082 193.631 4.39033 193.631 2.15985C193.631 -0.0706317 196.179 -2.30112 198.727 -2.30112C201.274 -2.30112 203.822 -0.0706317 203.822 2.15985Z" fill="#131313"/>
<path d="M224.205 17.7733C224.205 20.0038 221.658 22.2342 219.11 22.2342C216.562 22.2342 214.014 20.0038 214.014 17.7733C214.014 15.5428 216.562 13.3123 219.11 13.3123C221.658 13.3123 224.205 15.5428 224.205 17.7733Z" fill="#131313"/>
<path d="M199.576 26.6951C199.576 28.9256 197.028 31.1561 194.48 31.1561C191.933 31.1561 189.385 28.9256 189.385 26.6951C189.385 24.4646 191.933 22.2341 194.48 22.2341C197.028 22.2341 199.576 24.4646 199.576 26.6951Z" fill="#131313"/>
<path d="M174.948 35.6171C174.948 37.8476 172.4 40.0781 169.853 40.0781C167.305 40.0781 164.757 37.8476 164.757 35.6171C164.757 33.3866 167.305 31.1561 169.853 31.1561C172.4 31.1561 174.948 33.3866 174.948 35.6171Z" fill="#131313"/>
<path d="M153.717 21.4908C153.717 23.7213 151.169 25.9517 148.621 25.9517C146.073 25.9517 143.526 23.7213 143.526 21.4908C143.526 19.2603 146.073 17.0298 148.621 17.0298C151.169 16.2863 153.717 18.5168 153.717 21.4908Z" fill="#131313"/>
<path d="M150.319 44.5391C150.319 46.7696 147.771 49.0001 145.223 49.0001C142.675 49.0001 140.127 46.7696 140.127 44.5391C140.127 42.3086 142.675 40.0781 145.223 40.0781C147.771 40.0781 150.319 42.3086 150.319 44.5391Z" fill="#131313"/>
<path d="M129.087 30.4126C129.087 32.643 126.539 34.8735 123.992 34.8735C121.444 34.8735 118.896 32.643 118.896 30.4126C118.896 28.1821 121.444 25.9516 123.992 25.9516C126.539 25.9516 129.087 28.1821 129.087 30.4126Z" fill="#131313"/>
<path d="M132.485 8.10776C132.485 10.3382 129.937 12.5687 127.39 12.5687C124.842 12.5687 122.294 10.3382 122.294 8.10776C122.294 5.87728 124.842 3.6468 127.39 3.6468C129.937 2.90331 132.485 5.13379 132.485 8.10776Z" fill="#131313"/>
<path d="M157.113 -2.30116C157.113 -0.0706801 154.565 2.15981 152.017 2.15981C149.47 2.15981 146.922 -0.0706801 146.922 -2.30116C146.922 -4.53165 149.47 -6.76213 152.017 -6.76213C155.414 -6.76213 157.113 -4.53165 157.113 -2.30116Z" fill="#131313"/>
<path d="M179.195 11.8252C179.195 14.0557 176.647 16.2862 174.099 16.2862C171.551 16.2862 169.003 14.0557 169.003 11.8252C169.003 9.59473 171.551 7.36424 174.099 7.36424C176.647 7.36424 179.195 8.85123 179.195 11.8252Z" fill="#131313"/>
</g>
<defs>
<clipPath id="clip0">
<rect width="400" height="400" fill="white" transform="translate(0 -151)"/>
</clipPath>
</defs>
</svg>
