<svg width="255" height="600" viewBox="0 0 255 600" fill="none" xmlns="http://www.w3.org/2000/svg">
<path d="M9.55414 600C14.8307 600 19.1083 595.722 19.1083 590.446C19.1083 585.169 14.8307 580.892 9.55414 580.892C4.27753 580.892 0 585.169 0 590.446C0 595.722 4.27753 600 9.55414 600Z" fill="white"/>
<path d="M9.55441 528.025C14.6499 528.025 18.4716 531.847 18.4716 536.942C18.4716 542.038 14.6499 545.859 9.55441 545.859C4.45886 545.859 0.637207 542.038 0.637207 536.942C0.637207 531.847 4.45886 528.025 9.55441 528.025Z" fill="white"/>
<path d="M9.55369 475.159C14.0123 475.159 17.8339 478.981 17.8339 483.439C17.8339 487.898 14.0123 491.72 9.55369 491.72C5.09509 491.72 1.27344 487.898 1.27344 483.439C1.27344 478.981 5.09509 475.159 9.55369 475.159Z" fill="white"/>
<path d="M9.55445 422.293C14.013 422.293 17.1978 425.478 17.1978 429.936C17.1978 434.395 14.013 437.58 9.55445 437.58C5.09585 437.58 1.91113 434.395 1.91113 429.936C1.91113 426.115 5.09585 422.293 9.55445 422.293Z" fill="white"/>
<path d="M9.55373 369.427C13.3754 369.427 16.5601 372.611 16.5601 376.433C16.5601 380.255 13.3754 383.44 9.55373 383.44C5.73208 383.44 2.54736 380.255 2.54736 376.433C2.54736 372.611 5.73208 369.427 9.55373 369.427Z" fill="white"/>
<path d="M9.554 316.561C12.7387 316.561 15.9234 319.108 15.9234 322.93C15.9234 326.115 13.3757 329.299 9.554 329.299C6.36928 329.299 3.18457 326.752 3.18457 322.93C3.18457 319.745 5.73234 316.561 9.554 316.561Z" fill="white"/>
<path d="M9.55475 263.694C12.7395 263.694 15.2872 266.242 15.2872 269.427C15.2872 272.612 12.7395 275.159 9.55475 275.159C6.37004 275.159 3.82227 272.612 3.82227 269.427C3.82227 266.242 6.37004 263.694 9.55475 263.694Z" fill="white"/>
<path d="M9.55404 211.465C12.1018 211.465 14.6496 214.013 14.6496 216.56C14.6496 219.108 12.1018 221.656 9.55404 221.656C7.00627 221.656 4.4585 219.108 4.4585 216.56C4.4585 213.376 7.00627 211.465 9.55404 211.465Z" fill="white"/>
<path d="M9.5543 158.599C12.1021 158.599 14.0129 160.509 14.0129 163.057C14.0129 165.605 12.1021 167.516 9.5543 167.516C7.00653 167.516 5.0957 165.605 5.0957 163.057C5.0957 160.509 7.00653 158.599 9.5543 158.599Z" fill="white"/>
<path d="M9.55359 105.732C11.4644 105.732 13.3752 107.643 13.3752 109.554C13.3752 111.465 11.4644 113.376 9.55359 113.376C7.64276 113.376 5.73193 111.465 5.73193 109.554C5.73193 107.006 7.64276 105.732 9.55359 105.732Z" fill="white"/>
<path d="M9.55434 52.8662C11.4652 52.8662 12.7391 54.1401 12.7391 56.0509C12.7391 57.3248 11.4652 59.2356 9.55434 59.2356C7.64351 59.2356 6.36963 57.3248 6.36963 56.0509C6.36963 54.1401 7.64351 52.8662 9.55434 52.8662Z" fill="white"/>
<path d="M9.55461 0C10.8285 0 12.1024 1.27389 12.1024 2.54777C12.1024 3.82166 10.8285 5.09554 9.55461 5.09554C8.28072 5.09554 7.00684 3.82166 7.00684 2.54777C7.00684 1.27389 8.28072 0 9.55461 0Z" fill="white"/>
<path d="M43.3124 600C48.589 600 52.8666 595.722 52.8666 590.446C52.8666 585.169 48.589 580.892 43.3124 580.892C38.0358 580.892 33.7583 585.169 33.7583 590.446C33.7583 595.722 38.0358 600 43.3124 600Z" fill="white"/>
<path d="M43.3127 528.025C48.4083 528.025 52.2299 531.847 52.2299 536.942C52.2299 542.038 48.4083 545.859 43.3127 545.859C38.2172 545.859 34.3955 542.038 34.3955 536.942C34.3955 531.847 38.2172 528.025 43.3127 528.025Z" fill="white"/>
<path d="M43.312 475.159C47.7706 475.159 51.5923 478.981 51.5923 483.439C51.5923 487.898 47.7706 491.72 43.312 491.72C38.8534 491.72 35.0317 487.898 35.0317 483.439C35.0317 478.981 38.8534 475.159 43.312 475.159Z" fill="white"/>
<path d="M43.3127 422.293C47.7713 422.293 50.9561 425.478 50.9561 429.936C50.9561 434.395 47.7713 437.58 43.3127 437.58C38.8541 437.58 35.6694 434.395 35.6694 429.936C35.6694 426.115 38.8541 422.293 43.3127 422.293Z" fill="white"/>
<path d="M43.312 369.427C47.1337 369.427 50.3184 372.611 50.3184 376.433C50.3184 380.255 47.1337 383.44 43.312 383.44C39.4904 383.44 36.3057 380.255 36.3057 376.433C36.3057 372.611 39.4904 369.427 43.312 369.427Z" fill="white"/>
<path d="M43.3123 316.561C46.497 316.561 49.6817 319.108 49.6817 322.93C49.6817 326.115 47.134 329.299 43.3123 329.299C40.1276 329.299 36.9429 326.752 36.9429 322.93C36.9429 319.745 39.4906 316.561 43.3123 316.561Z" fill="white"/>
<path d="M43.3131 275.159C46.479 275.159 49.0455 272.593 49.0455 269.427C49.0455 266.261 46.479 263.694 43.3131 263.694C40.1471 263.694 37.5806 266.261 37.5806 269.427C37.5806 272.593 40.1471 275.159 43.3131 275.159Z" fill="white"/>
<path d="M43.3123 211.465C45.8601 211.465 48.4079 214.013 48.4079 216.56C48.4079 219.108 45.8601 221.656 43.3123 221.656C40.7646 221.656 38.2168 219.108 38.2168 216.56C38.2168 213.376 40.1276 211.465 43.3123 211.465Z" fill="white"/>
<path d="M43.3126 158.599C45.8604 158.599 47.7712 160.509 47.7712 163.057C47.7712 165.605 45.8604 167.516 43.3126 167.516C40.7648 167.516 38.854 165.605 38.854 163.057C38.854 160.509 40.7648 158.599 43.3126 158.599Z" fill="white"/>
<path d="M43.3119 105.732C45.2227 105.732 47.1335 107.643 47.1335 109.554C47.1335 111.465 45.2227 113.376 43.3119 113.376C41.4011 113.376 39.4902 111.465 39.4902 109.554C39.4902 107.006 40.7641 105.732 43.3119 105.732Z" fill="white"/>
<path d="M43.3126 52.8662C45.2235 52.8662 46.4974 54.1401 46.4974 56.0509C46.4974 57.3248 44.5865 59.2356 43.3126 59.2356C41.4018 59.2356 40.1279 57.3248 40.1279 56.0509C40.1279 54.1401 41.4018 52.8662 43.3126 52.8662Z" fill="white"/>
<path d="M43.3126 0C44.5865 0 45.2235 1.27389 45.2235 2.54777C45.2235 3.82166 43.9496 5.09554 42.6757 5.09554C41.4018 5.09554 40.1279 3.82166 40.1279 2.54777C40.7649 1.27389 42.0388 0 43.3126 0Z" fill="white"/>
<path d="M76.433 600C81.7097 600 85.9872 595.722 85.9872 590.446C85.9872 585.169 81.7097 580.892 76.433 580.892C71.1564 580.892 66.8789 585.169 66.8789 590.446C66.8789 595.722 71.1564 600 76.433 600Z" fill="white"/>
<path d="M76.4333 528.025C81.5288 528.025 85.3505 531.847 85.3505 536.942C85.3505 542.038 81.5288 545.859 76.4333 545.859C71.3378 545.859 67.5161 542.038 67.5161 536.942C68.1531 531.847 71.9747 528.025 76.4333 528.025Z" fill="white"/>
<path d="M76.4326 491.72C81.0056 491.72 84.7128 488.012 84.7128 483.439C84.7128 478.866 81.0056 475.159 76.4326 475.159C71.8595 475.159 68.1523 478.866 68.1523 483.439C68.1523 488.012 71.8595 491.72 76.4326 491.72Z" fill="white"/>
<path d="M76.4334 422.293C80.892 422.293 84.0767 425.478 84.0767 429.936C84.0767 434.395 80.892 437.58 76.4334 437.58C71.9748 437.58 68.79 434.395 68.79 429.936C69.427 426.115 72.6117 422.293 76.4334 422.293Z" fill="white"/>
<path d="M76.4326 369.427C80.2543 369.427 83.439 372.611 83.439 376.433C83.439 380.255 80.2543 383.44 76.4326 383.44C72.611 383.44 69.4263 380.255 69.4263 376.433C70.0632 372.611 72.611 369.427 76.4326 369.427Z" fill="white"/>
<path d="M76.4329 316.561C79.6176 316.561 82.8023 319.108 82.8023 322.93C82.8023 326.115 80.2546 329.299 76.4329 329.299C73.2482 329.299 70.0635 326.752 70.0635 322.93C70.7004 319.745 73.2482 316.561 76.4329 316.561Z" fill="white"/>
<path d="M76.4337 275.159C79.5996 275.159 82.1662 272.593 82.1662 269.427C82.1662 266.261 79.5996 263.694 76.4337 263.694C73.2677 263.694 70.7012 266.261 70.7012 269.427C70.7012 272.593 73.2677 275.159 76.4337 275.159Z" fill="white"/>
<path d="M76.4329 211.465C78.9807 211.465 81.5285 214.013 81.5285 216.56C81.5285 219.108 78.9807 221.656 76.4329 221.656C73.8852 221.656 71.3374 219.108 71.3374 216.56C71.9743 213.376 73.8852 211.465 76.4329 211.465Z" fill="white"/>
<path d="M76.4332 167.516C78.8956 167.516 80.8918 165.52 80.8918 163.057C80.8918 160.595 78.8956 158.599 76.4332 158.599C73.9708 158.599 71.9746 160.595 71.9746 163.057C71.9746 165.52 73.9708 167.516 76.4332 167.516Z" fill="white"/>
<path d="M76.4325 105.732C78.3433 105.732 80.2542 107.643 80.2542 109.554C80.2542 111.465 78.3433 113.376 76.4325 113.376C74.5217 113.376 72.6108 111.465 72.6108 109.554C73.2478 107.006 74.5217 105.732 76.4325 105.732Z" fill="white"/>
<path d="M76.4333 52.8662C78.3441 52.8662 79.618 54.1401 79.618 56.0509C79.618 57.9618 78.3441 59.2356 76.4333 59.2356C74.5224 59.2356 73.2485 57.9618 73.2485 56.0509C73.8855 54.1401 75.1594 52.8662 76.4333 52.8662Z" fill="white"/>
<path d="M76.4335 0C77.7074 0 78.9813 1.27389 78.9813 2.54777C78.9813 3.82166 77.7074 5.09554 76.4335 5.09554C75.1596 5.09554 73.8857 3.82166 73.8857 2.54777C74.5227 1.27389 75.1596 0 76.4335 0Z" fill="white"/>
<path d="M110.191 580.892C115.287 580.892 119.745 585.35 119.745 590.446C119.745 595.541 115.287 600 110.191 600C105.096 600 100.637 595.541 100.637 590.446C100.637 585.35 105.096 580.892 110.191 580.892Z" fill="white"/>
<path d="M110.192 528.025C115.287 528.025 119.109 531.847 119.109 536.942C119.109 542.038 115.287 545.859 110.192 545.859C105.096 545.859 101.274 542.038 101.274 536.942C101.274 531.847 105.733 528.025 110.192 528.025Z" fill="white"/>
<path d="M110.191 475.159C114.649 475.159 118.471 478.981 118.471 483.439C118.471 487.898 114.649 491.72 110.191 491.72C105.732 491.72 101.911 487.898 101.911 483.439C101.911 478.981 105.732 475.159 110.191 475.159Z" fill="white"/>
<path d="M110.192 422.293C114.65 422.293 117.835 425.478 117.835 429.936C117.835 434.395 114.65 437.58 110.192 437.58C105.733 437.58 102.548 434.395 102.548 429.936C102.548 426.115 106.37 422.293 110.192 422.293Z" fill="white"/>
<path d="M110.191 369.427C114.013 369.427 117.197 372.611 117.197 376.433C117.197 380.255 114.013 383.44 110.191 383.44C106.369 383.44 103.185 380.255 103.185 376.433C103.185 372.611 106.369 369.427 110.191 369.427Z" fill="white"/>
<path d="M110.191 316.561C113.376 316.561 116.561 319.108 116.561 322.93C116.561 326.115 114.013 329.299 110.191 329.299C107.006 329.299 103.822 326.752 103.822 322.93C103.822 319.745 107.006 316.561 110.191 316.561Z" fill="white"/>
<path d="M110.192 263.694C113.377 263.694 115.924 266.242 115.924 269.427C115.924 272.612 113.377 275.159 110.192 275.159C107.007 275.159 104.459 272.612 104.459 269.427C104.459 266.242 107.007 263.694 110.192 263.694Z" fill="white"/>
<path d="M110.191 211.465C112.739 211.465 115.287 214.013 115.287 216.56C115.287 219.108 112.739 221.656 110.191 221.656C107.643 221.656 105.096 219.108 105.096 216.56C105.096 213.376 107.643 211.465 110.191 211.465Z" fill="white"/>
<path d="M110.192 167.516C112.654 167.516 114.65 165.52 114.65 163.057C114.65 160.595 112.654 158.599 110.192 158.599C107.729 158.599 105.733 160.595 105.733 163.057C105.733 165.52 107.729 167.516 110.192 167.516Z" fill="white"/>
<path d="M110.191 105.732C112.102 105.732 114.012 107.643 114.012 109.554C114.012 111.465 112.102 113.376 110.191 113.376C108.28 113.376 106.369 111.465 106.369 109.554C106.369 107.006 108.28 105.732 110.191 105.732Z" fill="white"/>
<path d="M110.192 52.8662C112.102 52.8662 113.376 54.1401 113.376 56.0509C113.376 57.9618 112.102 59.2356 110.192 59.2356C108.281 59.2356 107.007 57.9618 107.007 56.0509C107.007 54.1401 108.918 52.8662 110.192 52.8662Z" fill="white"/>
<path d="M110.192 0C111.466 0 112.74 1.27389 112.74 2.54777C112.74 3.82166 111.466 5.09554 110.192 5.09554C108.918 5.09554 107.644 3.82166 107.644 2.54777C107.644 1.27389 108.918 0 110.192 0Z" fill="white"/>
<path d="M143.95 600C149.226 600 153.504 595.722 153.504 590.446C153.504 585.169 149.226 580.892 143.95 580.892C138.673 580.892 134.396 585.169 134.396 590.446C134.396 595.722 138.673 600 143.95 600Z" fill="white"/>
<path d="M143.95 528.025C149.045 528.025 152.867 531.847 152.867 536.942C152.867 542.038 149.045 545.859 143.95 545.859C138.854 545.859 135.033 542.038 135.033 536.942C135.033 531.847 138.854 528.025 143.95 528.025Z" fill="white"/>
<path d="M143.949 475.159C148.408 475.159 152.229 478.981 152.229 483.439C152.229 487.898 148.408 491.72 143.949 491.72C139.491 491.72 135.669 487.898 135.669 483.439C135.669 478.981 139.491 475.159 143.949 475.159Z" fill="white"/>
<path d="M143.95 422.293C148.409 422.293 151.593 425.478 151.593 429.936C151.593 434.395 148.409 437.58 143.95 437.58C139.491 437.58 136.307 434.395 136.307 429.936C136.307 426.115 139.491 422.293 143.95 422.293Z" fill="white"/>
<path d="M143.949 369.427C147.771 369.427 150.956 372.611 150.956 376.433C150.956 380.255 147.771 383.44 143.949 383.44C140.128 383.44 136.943 380.255 136.943 376.433C136.943 372.611 140.128 369.427 143.949 369.427Z" fill="white"/>
<path d="M143.95 316.561C147.134 316.561 150.319 319.108 150.319 322.93C150.319 326.115 147.771 329.299 143.95 329.299C140.765 329.299 137.58 326.752 137.58 322.93C137.58 319.745 140.128 316.561 143.95 316.561Z" fill="white"/>
<path d="M143.95 275.159C147.116 275.159 149.683 272.593 149.683 269.427C149.683 266.261 147.116 263.694 143.95 263.694C140.784 263.694 138.218 266.261 138.218 269.427C138.218 272.593 140.784 275.159 143.95 275.159Z" fill="white"/>
<path d="M143.95 211.465C146.497 211.465 149.045 214.013 149.045 216.56C149.045 219.108 146.497 221.656 143.95 221.656C141.402 221.656 138.854 219.108 138.854 216.56C138.854 213.376 141.402 211.465 143.95 211.465Z" fill="white"/>
<path d="M143.95 167.516C146.412 167.516 148.408 165.52 148.408 163.057C148.408 160.595 146.412 158.599 143.95 158.599C141.487 158.599 139.491 160.595 139.491 163.057C139.491 165.52 141.487 167.516 143.95 167.516Z" fill="white"/>
<path d="M143.949 105.732C145.86 105.732 147.771 107.643 147.771 109.554C147.771 111.465 145.86 113.376 143.949 113.376C142.038 113.376 140.127 111.465 140.127 109.554C140.127 107.006 142.038 105.732 143.949 105.732Z" fill="white"/>
<path d="M143.95 52.8662C145.861 52.8662 147.135 54.1401 147.135 56.0509C147.135 57.9618 145.861 59.2356 143.95 59.2356C142.039 59.2356 140.765 57.9618 140.765 56.0509C140.765 54.1401 142.039 52.8662 143.95 52.8662Z" fill="white"/>
<path d="M143.95 0C145.224 0 146.498 1.27389 146.498 2.54777C146.498 3.82166 145.224 5.09554 143.95 5.09554C142.676 5.09554 141.402 3.82166 141.402 2.54777C141.402 1.27389 142.676 0 143.95 0Z" fill="white"/>
<path d="M177.706 580.892C182.802 580.892 187.261 585.35 187.261 590.446C187.261 595.541 182.802 600 177.706 600C172.611 600 168.152 595.541 168.152 590.446C168.152 585.35 171.974 580.892 177.706 580.892Z" fill="white"/>
<path d="M177.707 528.025C182.802 528.025 186.624 531.847 186.624 536.942C186.624 542.038 182.802 545.859 177.707 545.859C172.611 545.859 168.79 542.038 168.79 536.942C168.79 531.847 172.611 528.025 177.707 528.025Z" fill="white"/>
<path d="M177.706 475.159C182.165 475.159 185.986 478.981 185.986 483.439C185.986 487.898 182.165 491.72 177.706 491.72C173.247 491.72 169.426 487.898 169.426 483.439C169.426 478.981 173.247 475.159 177.706 475.159Z" fill="white"/>
<path d="M177.707 422.293C182.165 422.293 185.35 425.478 185.35 429.936C185.35 434.395 182.165 437.58 177.707 437.58C173.248 437.58 170.063 434.395 170.063 429.936C170.063 426.115 173.248 422.293 177.707 422.293Z" fill="white"/>
<path d="M177.706 369.427C181.528 369.427 184.712 372.611 184.712 376.433C184.712 380.255 181.528 383.44 177.706 383.44C173.884 383.44 170.7 380.255 170.7 376.433C170.7 372.611 173.884 369.427 177.706 369.427Z" fill="white"/>
<path d="M177.706 316.561C180.891 316.561 184.076 319.108 184.076 322.93C184.076 326.115 181.528 329.299 177.706 329.299C174.522 329.299 171.337 326.752 171.337 322.93C171.337 319.745 173.885 316.561 177.706 316.561Z" fill="white"/>
<path d="M177.707 263.694C180.892 263.694 183.44 266.242 183.44 269.427C183.44 272.612 180.892 275.159 177.707 275.159C174.522 275.159 171.975 272.612 171.975 269.427C171.975 266.242 174.522 263.694 177.707 263.694Z" fill="white"/>
<path d="M177.706 211.465C180.254 211.465 182.802 214.013 182.802 216.56C182.802 219.108 180.254 221.656 177.706 221.656C175.159 221.656 172.611 219.108 172.611 216.56C172.611 213.376 174.522 211.465 177.706 211.465Z" fill="white"/>
<path d="M177.707 158.599C180.254 158.599 182.165 160.509 182.165 163.057C182.165 165.605 180.254 167.516 177.707 167.516C175.159 167.516 173.248 165.605 173.248 163.057C173.248 160.509 175.159 158.599 177.707 158.599Z" fill="white"/>
<path d="M177.706 105.732C179.617 105.732 181.528 107.643 181.528 109.554C181.528 111.465 179.617 113.376 177.706 113.376C175.795 113.376 173.884 111.465 173.884 109.554C173.884 107.006 175.158 105.732 177.706 105.732Z" fill="white"/>
<path d="M177.707 52.8662C179.618 52.8662 180.891 54.1401 180.891 56.0509C180.891 57.9618 179.618 59.2356 177.707 59.2356C175.796 59.2356 174.522 57.9618 174.522 56.0509C174.522 54.1401 175.796 52.8662 177.707 52.8662Z" fill="white"/>
<path d="M177.707 0C178.981 0 180.255 1.27389 180.255 2.54777C180.255 3.82166 178.981 5.09554 177.707 5.09554C176.433 5.09554 175.159 3.82166 175.159 2.54777C175.159 1.27389 176.433 0 177.707 0Z" fill="white"/>
<path d="M210.829 600C216.105 600 220.383 595.722 220.383 590.446C220.383 585.169 216.105 580.892 210.829 580.892C205.552 580.892 201.274 585.169 201.274 590.446C201.274 595.722 205.552 600 210.829 600Z" fill="white"/>
<path d="M210.829 528.025C215.924 528.025 219.746 531.847 219.746 536.942C219.746 542.038 215.924 545.859 210.829 545.859C205.733 545.859 201.912 542.038 201.912 536.942C202.549 531.847 206.37 528.025 210.829 528.025Z" fill="white"/>
<path d="M210.828 475.159C215.287 475.159 219.108 478.981 219.108 483.439C219.108 487.898 215.287 491.72 210.828 491.72C206.37 491.72 202.548 487.898 202.548 483.439C202.548 478.981 206.37 475.159 210.828 475.159Z" fill="white"/>
<path d="M210.829 422.293C215.287 422.293 218.472 425.478 218.472 429.936C218.472 434.395 215.287 437.58 210.829 437.58C206.37 437.58 203.186 434.395 203.186 429.936C203.822 426.115 207.007 422.293 210.829 422.293Z" fill="white"/>
<path d="M210.828 369.427C214.65 369.427 217.835 372.611 217.835 376.433C217.835 380.255 214.65 383.44 210.828 383.44C207.006 383.44 203.822 380.255 203.822 376.433C204.459 372.611 207.006 369.427 210.828 369.427Z" fill="white"/>
<path d="M210.828 316.561C214.013 316.561 217.198 319.108 217.198 322.93C217.198 326.115 214.65 329.299 210.828 329.299C207.644 329.299 204.459 326.752 204.459 322.93C205.096 319.745 207.644 316.561 210.828 316.561Z" fill="white"/>
<path d="M210.829 263.694C214.014 263.694 216.562 266.242 216.562 269.427C216.562 272.612 214.014 275.159 210.829 275.159C207.644 275.159 205.097 272.612 205.097 269.427C205.734 266.242 208.281 263.694 210.829 263.694Z" fill="white"/>
<path d="M210.828 211.465C213.376 211.465 215.924 214.013 215.924 216.56C215.924 219.108 213.376 221.656 210.828 221.656C208.281 221.656 205.733 219.108 205.733 216.56C206.37 213.376 208.281 211.465 210.828 211.465Z" fill="white"/>
<path d="M210.829 158.599C213.376 158.599 215.287 160.509 215.287 163.057C215.287 165.605 213.376 167.516 210.829 167.516C208.281 167.516 206.37 165.605 206.37 163.057C207.007 160.509 208.918 158.599 210.829 158.599Z" fill="white"/>
<path d="M210.828 105.732C212.739 105.732 214.65 107.643 214.65 109.554C214.65 111.465 212.739 113.376 210.828 113.376C208.917 113.376 207.006 111.465 207.006 109.554C207.643 107.006 208.917 105.732 210.828 105.732Z" fill="white"/>
<path d="M210.829 52.8662C212.74 52.8662 214.013 54.1401 214.013 56.0509C214.013 57.9618 212.74 59.2356 210.829 59.2356C208.918 59.2356 207.644 57.9618 207.644 56.0509C208.281 54.1401 209.555 52.8662 210.829 52.8662Z" fill="white"/>
<path d="M210.829 0C212.103 0 213.377 1.27389 213.377 2.54777C213.377 3.82166 212.103 5.09554 210.829 5.09554C209.555 5.09554 208.281 3.82166 208.281 2.54777C208.918 1.27389 209.555 0 210.829 0Z" fill="white"/>
<path d="M244.585 600C249.862 600 254.14 595.722 254.14 590.446C254.14 585.169 249.862 580.892 244.585 580.892C239.309 580.892 235.031 585.169 235.031 590.446C235.031 595.722 239.309 600 244.585 600Z" fill="white"/>
<path d="M244.586 528.025C249.681 528.025 253.503 531.847 253.503 536.942C253.503 542.038 249.681 545.859 244.586 545.859C239.49 545.859 235.668 542.038 235.668 536.942C235.668 531.847 240.127 528.025 244.586 528.025Z" fill="white"/>
<path d="M244.585 491.72C249.158 491.72 252.865 488.012 252.865 483.439C252.865 478.866 249.158 475.159 244.585 475.159C240.012 475.159 236.305 478.866 236.305 483.439C236.305 488.012 240.012 491.72 244.585 491.72Z" fill="white"/>
<path d="M244.586 422.293C249.044 422.293 252.229 425.478 252.229 429.936C252.229 434.395 249.044 437.58 244.586 437.58C240.127 437.58 236.942 434.395 236.942 429.936C236.942 426.115 240.764 422.293 244.586 422.293Z" fill="white"/>
<path d="M244.585 369.427C248.407 369.427 251.591 372.611 251.591 376.433C251.591 380.255 248.407 383.44 244.585 383.44C240.763 383.44 237.579 380.255 237.579 376.433C237.579 372.611 240.763 369.427 244.585 369.427Z" fill="white"/>
<path d="M244.585 316.561C247.77 316.561 250.955 319.108 250.955 322.93C250.955 326.115 248.407 329.299 244.585 329.299C241.401 329.299 238.216 326.752 238.216 322.93C238.216 319.745 241.401 316.561 244.585 316.561Z" fill="white"/>
<path d="M244.586 275.159C247.752 275.159 250.318 272.593 250.318 269.427C250.318 266.261 247.752 263.694 244.586 263.694C241.42 263.694 238.854 266.261 238.854 269.427C238.854 272.593 241.42 275.159 244.586 275.159Z" fill="white"/>
<path d="M244.585 211.465C247.133 211.465 249.681 214.013 249.681 216.56C249.681 219.108 247.133 221.656 244.585 221.656C242.038 221.656 239.49 219.108 239.49 216.56C239.49 213.376 242.038 211.465 244.585 211.465Z" fill="white"/>
<path d="M244.586 167.516C247.048 167.516 249.044 165.52 249.044 163.057C249.044 160.595 247.048 158.599 244.586 158.599C242.123 158.599 240.127 160.595 240.127 163.057C240.127 165.52 242.123 167.516 244.586 167.516Z" fill="white"/>
<path d="M244.585 105.732C246.496 105.732 248.406 107.643 248.406 109.554C248.406 111.465 246.496 113.376 244.585 113.376C242.674 113.376 240.763 111.465 240.763 109.554C240.763 107.006 242.674 105.732 244.585 105.732Z" fill="white"/>
<path d="M244.586 52.8662C246.496 52.8662 247.77 54.1401 247.77 56.0509C247.77 57.9618 246.496 59.2356 244.586 59.2356C242.675 59.2356 241.401 57.9618 241.401 56.0509C241.401 54.1401 243.312 52.8662 244.586 52.8662Z" fill="white"/>
<path d="M244.586 0C245.86 0 247.134 1.27389 247.134 2.54777C247.134 3.82166 245.86 5.09554 244.586 5.09554C243.312 5.09554 242.038 3.82166 242.038 2.54777C242.038 1.27389 243.312 0 244.586 0Z" fill="white"/>
</svg>
