<svg width="350" height="397" viewBox="0 0 350 397" fill="none" xmlns="http://www.w3.org/2000/svg">
<g clip-path="url(#clip0)">
<path d="M9.66607 4.42443C9.66607 6.63665 7.43559 8.84887 5.20511 8.84887C2.97462 8.84887 0.744141 6.63665 0.744141 4.42443C0.744141 2.21222 2.97462 0 5.20511 0C8.17908 0 9.66607 2.21222 9.66607 4.42443Z" fill="white"/>
<path d="M11.8969 33.1832C11.8969 35.3954 9.66642 37.6077 7.43594 37.6077C5.20546 37.6077 2.97498 35.3954 2.97498 33.1832C2.97498 30.971 5.20546 28.7588 7.43594 28.7588C9.66642 28.7588 11.8969 30.971 11.8969 33.1832Z" fill="white"/>
<path d="M31.9702 41.2948C31.9702 43.507 29.7398 45.7192 27.5093 45.7192C24.5353 45.7192 22.3048 43.507 22.3048 41.2948C22.3048 38.3452 24.5353 36.8704 27.5093 36.8704C29.7398 36.8704 31.9702 38.3452 31.9702 41.2948Z" fill="white"/>
<path d="M13.383 61.9421C13.383 64.1543 11.1525 66.3665 8.1785 66.3665C5.94801 66.3665 3.71753 64.1543 3.71753 61.9421C3.71753 59.7299 5.94801 57.5177 8.1785 57.5177C11.1525 56.7803 13.383 58.9925 13.383 61.9421Z" fill="white"/>
<path d="M34.9443 61.942C34.9443 64.1542 32.7138 66.3664 30.4833 66.3664C28.2528 66.3664 26.0223 64.1542 26.0223 61.942C26.0223 59.7298 28.2528 57.5176 30.4833 57.5176C32.7138 57.5176 34.9443 59.7298 34.9443 61.942Z" fill="white"/>
<path d="M32.715 82.5895C32.715 84.8017 30.4845 87.0139 28.2541 87.0139C26.0236 87.0139 23.7931 84.8017 23.7931 82.5895C23.7931 80.3772 26.0236 78.165 28.2541 78.165C31.228 78.165 32.715 80.3772 32.715 82.5895Z" fill="white"/>
<path d="M11.8969 87.7511C11.8969 89.9633 9.66642 92.1755 7.43594 92.1755C5.20546 92.1755 2.97498 89.9633 2.97498 87.7511C2.97498 85.5389 5.20546 83.3267 7.43594 83.3267C9.66642 83.3267 11.8969 85.5389 11.8969 87.7511Z" fill="white"/>
<path d="M12.6395 113.56C12.6395 115.772 10.409 117.985 8.1785 117.985C5.94801 117.985 3.71753 115.772 3.71753 113.56C3.71753 111.348 5.94801 109.136 8.1785 109.136C10.409 108.398 12.6395 110.611 12.6395 113.56Z" fill="white"/>
<path d="M12.6395 137.895C12.6395 140.107 10.409 142.319 8.1785 142.319C5.94801 142.319 3.71753 140.107 3.71753 137.895C3.71753 135.683 5.94801 133.47 8.1785 133.47C10.409 133.47 12.6395 135.683 12.6395 137.895Z" fill="white"/>
<path d="M12.6395 162.229C12.6395 164.441 10.409 166.654 8.1785 166.654C5.94801 166.654 3.71753 164.441 3.71753 162.229C3.71753 160.017 5.94801 157.805 8.1785 157.805C10.409 157.805 12.6395 159.279 12.6395 162.229Z" fill="white"/>
<path d="M32.715 151.168C32.715 153.38 30.4845 155.593 28.2541 155.593C26.0236 155.593 23.7931 153.38 23.7931 151.168C23.7931 148.956 26.0236 146.744 28.2541 146.744C30.4845 146.744 32.715 148.956 32.715 151.168Z" fill="white"/>
<path d="M32.715 127.571C32.715 129.783 30.4845 131.996 28.2541 131.996C26.0236 131.996 23.7931 129.783 23.7931 127.571C23.7931 125.359 26.0236 123.147 28.2541 123.147C30.4845 123.147 32.715 125.359 32.715 127.571Z" fill="white"/>
<path d="M32.715 104.712C32.715 106.924 30.4845 109.136 28.2541 109.136C26.0236 109.136 23.7931 106.924 23.7931 104.712C23.7931 102.499 26.0236 100.287 28.2541 100.287C31.228 100.287 32.715 102.499 32.715 104.712Z" fill="white"/>
<path d="M55.0198 95.8627C55.0198 98.0749 52.7894 100.287 50.5589 100.287C48.3284 100.287 46.0979 98.0749 46.0979 95.8627C46.0979 93.6505 48.3284 91.4382 50.5589 91.4382C52.7894 91.4382 55.0198 93.6505 55.0198 95.8627Z" fill="white"/>
<path d="M54.2757 118.722C54.2757 120.935 52.0452 123.147 49.8147 123.147C47.5842 123.147 45.3538 120.935 45.3538 118.722C45.3538 116.51 47.5842 114.298 49.8147 114.298C52.0452 114.298 54.2757 115.773 54.2757 118.722Z" fill="white"/>
<path d="M53.5315 140.844C53.5315 143.057 51.3011 145.269 49.0706 145.269C46.8401 145.269 44.6096 143.057 44.6096 140.844C44.6096 138.632 46.8401 136.42 49.0706 136.42C51.3011 136.42 53.5315 138.632 53.5315 140.844Z" fill="white"/>
<path d="M73.6072 154.118C73.6072 156.33 71.3768 158.542 69.1463 158.542C66.9158 158.542 64.6853 156.33 64.6853 154.118C64.6853 151.906 66.9158 149.693 69.1463 149.693C71.3768 149.693 73.6072 151.168 73.6072 154.118Z" fill="white"/>
<path d="M75.0939 131.258C75.0939 133.47 72.8634 135.683 70.633 135.683C68.4025 135.683 66.172 133.47 66.172 131.258C66.172 129.046 68.4025 126.834 70.633 126.834C72.8634 126.834 75.0939 129.046 75.0939 131.258Z" fill="white"/>
<path d="M75.8365 109.136C75.8365 111.348 73.606 113.561 71.3755 113.561C69.145 113.561 66.9146 111.348 66.9146 109.136C66.9146 106.924 69.145 104.712 71.3755 104.712C74.3495 104.712 75.8365 106.924 75.8365 109.136Z" fill="white"/>
<path d="M76.5806 86.2765C76.5806 88.4887 74.3501 90.7009 72.1197 90.7009C69.1457 90.7009 67.6587 88.4887 67.6587 86.2765C67.6587 84.0643 69.8892 81.8521 72.1197 81.8521C74.3501 81.8521 76.5806 84.0643 76.5806 86.2765Z" fill="white"/>
<path d="M97.3987 99.5497C97.3987 101.762 95.1682 103.974 92.9378 103.974C90.7073 103.974 88.4768 101.762 88.4768 99.5497C88.4768 97.3375 90.7073 95.1252 92.9378 95.1252C95.9117 95.1252 97.3987 97.3375 97.3987 99.5497Z" fill="white"/>
<path d="M97.3987 122.409C97.3987 124.622 95.1682 126.834 92.9378 126.834C90.7073 126.834 88.4768 124.622 88.4768 122.409C88.4768 120.197 90.7073 117.985 92.9378 117.985C95.1682 117.248 97.3987 119.46 97.3987 122.409Z" fill="white"/>
<path d="M95.912 144.531C95.912 146.744 93.6816 148.956 91.4511 148.956C89.2206 148.956 86.9901 146.744 86.9901 144.531C86.9901 142.319 89.2206 140.107 91.4511 140.107C93.6816 140.107 95.912 141.582 95.912 144.531Z" fill="white"/>
<path d="M93.6812 166.654C93.6812 168.866 91.4507 171.078 89.2202 171.078C86.9898 171.078 84.7593 168.866 84.7593 166.654C84.7593 164.441 86.9898 162.229 89.2202 162.229C91.4507 162.229 93.6812 164.441 93.6812 166.654Z" fill="white"/>
<path d="M72.1189 176.978C72.1189 179.19 69.8885 181.402 67.658 181.402C65.4275 181.402 63.197 179.19 63.197 176.978C63.197 174.765 65.4275 172.553 67.658 172.553C69.8885 171.816 72.1189 174.028 72.1189 176.978Z" fill="white"/>
<path d="M52.789 164.441C52.789 166.654 50.5585 168.866 48.328 168.866C46.0975 168.866 43.8671 166.654 43.8671 164.441C43.8671 162.229 46.0975 160.017 48.328 160.017C50.5585 159.28 52.789 161.492 52.789 164.441Z" fill="white"/>
<path d="M31.9709 174.765C31.9709 176.977 29.7404 179.19 27.5099 179.19C25.2794 179.19 23.049 176.977 23.049 174.765C23.049 172.553 25.2794 170.341 27.5099 170.341C29.7404 170.341 31.9709 172.553 31.9709 174.765Z" fill="white"/>
<path d="M12.6395 185.826C12.6395 188.038 10.409 190.251 8.1785 190.251C5.94801 190.251 3.71753 188.038 3.71753 185.826C3.71753 183.614 5.94801 181.402 8.1785 181.402C10.409 181.402 12.6395 183.614 12.6395 185.826Z" fill="white"/>
<path d="M30.4842 198.362C30.4842 200.574 28.2537 202.786 26.0232 202.786C23.7927 202.786 21.5623 200.574 21.5623 198.362C21.5623 196.15 23.7927 193.938 26.0232 193.938C28.9972 193.938 30.4842 195.412 30.4842 198.362Z" fill="white"/>
<path d="M49.0716 210.898C49.0716 213.11 46.8411 215.322 44.6106 215.322C42.3801 215.322 40.1497 213.11 40.1497 210.898C40.1497 208.686 41.6366 206.474 44.6106 206.474C46.8411 206.474 49.0716 207.948 49.0716 210.898Z" fill="white"/>
<path d="M66.9149 223.434C66.9149 226.383 64.6844 228.596 62.4539 228.596C60.2234 228.596 57.9929 226.383 57.9929 224.171C57.9929 221.959 60.2234 219.747 62.4539 219.747C64.6844 219.009 66.9149 221.222 66.9149 223.434Z" fill="white"/>
<path d="M64.684 247.768C64.684 249.98 62.4535 252.192 60.2231 252.192C57.9926 252.192 55.7621 249.98 55.7621 247.768C55.7621 245.556 57.9926 243.344 60.2231 243.344C62.4535 242.606 64.684 244.818 64.684 247.768Z" fill="white"/>
<path d="M46.8408 234.495C46.8408 236.707 44.6103 238.92 42.3798 238.92C40.1493 238.92 37.9188 236.707 37.9188 234.495C37.9188 232.283 40.1493 230.071 42.3798 230.071C44.6103 230.071 46.8408 232.283 46.8408 234.495Z" fill="white"/>
<path d="M28.9976 221.959C28.9976 224.171 26.7671 226.384 24.5366 226.384C22.3062 226.384 20.0757 224.171 20.0757 221.959C20.0757 219.747 22.3062 217.535 24.5366 217.535C26.7671 217.535 28.9976 219.747 28.9976 221.959Z" fill="white"/>
<path d="M11.1528 209.423C11.1528 211.635 8.92228 213.847 6.6918 213.847C4.46132 213.847 2.23083 211.635 2.23083 209.423C2.23083 207.211 4.46132 204.999 6.6918 204.999C8.92228 204.999 11.1528 207.211 11.1528 209.423Z" fill="white"/>
<path d="M9.66607 234.495C9.66607 236.707 7.43559 238.92 5.20511 238.92C2.97462 238.92 0.744141 236.707 0.744141 234.495C0.744141 232.283 2.97462 230.071 5.20511 230.071C7.43559 230.071 9.66607 232.283 9.66607 234.495Z" fill="white"/>
<path d="M26.7668 246.294C26.7668 248.506 24.5363 250.718 22.3058 250.718C20.0753 250.718 17.8448 248.506 17.8448 246.294C17.8448 244.081 20.0753 241.869 22.3058 241.869C24.5363 241.869 26.7668 244.081 26.7668 246.294Z" fill="white"/>
<path d="M9.66607 261.779C9.66607 263.991 7.43559 266.203 5.20511 266.203C2.97462 266.203 0.744141 263.991 0.744141 261.779C0.744141 259.567 2.97462 257.354 5.20511 257.354C7.43559 256.617 9.66607 258.829 9.66607 261.779Z" fill="white"/>
<path d="M26.0226 270.628C26.0226 272.84 23.7922 275.052 21.5617 275.052C19.3312 275.052 17.1007 272.84 17.1007 270.628C17.1007 268.416 19.3312 266.203 21.5617 266.203C23.7922 265.466 26.0226 267.678 26.0226 270.628Z" fill="white"/>
<path d="M13.3836 289.063C13.3836 291.275 11.1531 293.488 8.92264 293.488C6.69215 293.488 4.46167 291.275 4.46167 289.063C4.46167 286.851 6.69215 284.639 8.92264 284.639C11.1531 284.639 13.3836 286.851 13.3836 289.063Z" fill="white"/>
<path d="M31.9709 304.548C31.9709 306.761 29.7404 308.973 27.5099 308.973C25.2794 308.973 23.049 306.761 23.049 304.548C23.049 302.336 25.2794 300.124 27.5099 300.124C29.7404 300.124 31.9709 302.336 31.9709 304.548Z" fill="white"/>
<path d="M11.8969 315.609C11.8969 317.822 9.66642 320.034 7.43594 320.034C5.20546 320.034 2.97498 317.822 2.97498 315.609C2.97498 313.397 5.20546 311.185 7.43594 311.185C9.66642 311.185 11.8969 312.66 11.8969 315.609Z" fill="white"/>
<path d="M29.7406 328.883C29.7406 331.095 27.5101 333.307 25.2797 333.307C23.0492 333.307 20.8187 331.095 20.8187 328.883C20.0752 326.671 22.3057 324.458 24.5362 324.458C27.5101 324.458 29.7406 326.671 29.7406 328.883Z" fill="white"/>
<path d="M11.8969 342.894C11.8969 345.106 9.66642 347.318 7.43594 347.318C5.20546 347.318 2.97498 345.106 2.97498 342.894C2.97498 340.681 5.20546 338.469 7.43594 338.469C9.66642 338.469 11.8969 340.681 11.8969 342.894Z" fill="white"/>
<path d="M11.8969 367.965C11.8969 370.178 9.66642 372.39 7.43594 372.39C5.20546 372.39 2.97498 370.178 2.97498 367.965C2.97498 365.753 5.20546 363.541 7.43594 363.541C10.4099 363.541 11.8969 365.753 11.8969 367.965Z" fill="white"/>
<path d="M9.66607 392.3C9.66607 394.512 7.43559 396.724 5.20511 396.724C2.97462 396.724 0.744141 394.512 0.744141 392.3C0.744141 390.088 2.97462 387.875 5.20511 387.875C7.43559 387.875 9.66607 390.088 9.66607 392.3Z" fill="white"/>
<path d="M34.2017 376.077C34.2017 378.289 31.9712 380.501 29.7407 380.501C27.5103 380.501 25.2798 378.289 25.2798 376.077C25.2798 373.865 27.5103 371.652 29.7407 371.652C32.7147 371.652 34.2017 373.865 34.2017 376.077Z" fill="white"/>
<path d="M31.9709 354.692C31.9709 356.904 29.7404 359.116 27.5099 359.116C25.2794 359.116 23.049 356.904 23.049 354.692C23.049 352.48 25.2794 350.268 27.5099 350.268C29.7404 350.268 31.9709 351.742 31.9709 354.692Z" fill="white"/>
<path d="M57.2491 361.329C57.2491 363.541 55.0186 365.753 52.7881 365.753C50.5576 365.753 48.3271 363.541 48.3271 361.329C48.3271 359.116 50.5576 356.904 52.7881 356.904C55.0186 356.904 57.2491 358.379 57.2491 361.329Z" fill="white"/>
<path d="M47.5849 341.419C47.5849 343.631 45.3544 345.843 43.1239 345.843C40.8935 345.843 38.663 343.631 38.663 341.419C38.663 339.206 40.8935 336.994 43.1239 336.994C46.0979 336.994 47.5849 339.206 47.5849 341.419Z" fill="white"/>
<path d="M67.659 334.782C67.659 336.994 65.4285 339.207 63.198 339.207C60.9675 339.207 58.7371 336.994 58.7371 334.782C58.7371 332.57 60.9675 330.358 63.198 330.358C65.4285 329.62 67.659 331.833 67.659 334.782Z" fill="white"/>
<path d="M81.7847 349.53C81.7847 351.742 79.5542 353.954 77.3238 353.954C75.0933 353.954 72.8628 351.742 72.8628 349.53C72.8628 347.318 75.0933 345.105 77.3238 345.105C79.5542 345.105 81.7847 347.318 81.7847 349.53Z" fill="white"/>
<path d="M105.576 337.732C105.576 339.944 103.346 342.156 101.115 342.156C98.8848 342.156 96.6543 339.944 96.6543 337.732C96.6543 335.519 98.8848 333.307 101.115 333.307C103.346 333.307 105.576 335.519 105.576 337.732Z" fill="white"/>
<path d="M88.4771 325.196C88.4771 327.408 86.2466 329.62 84.0161 329.62C81.7857 329.62 79.5552 327.408 79.5552 325.196C79.5552 322.984 81.7857 320.771 84.0161 320.771C86.2466 320.771 88.4771 322.984 88.4771 325.196Z" fill="white"/>
<path d="M49.8141 318.559C49.8141 320.771 47.5837 322.984 45.3532 322.984C43.1227 322.984 40.8922 320.771 40.8922 318.559C40.8922 316.347 43.1227 314.135 45.3532 314.135C47.5837 314.135 49.8141 316.347 49.8141 318.559Z" fill="white"/>
<path d="M72.1189 311.185C72.1189 313.397 69.8885 315.609 67.658 315.609C65.4275 315.609 63.197 313.397 63.197 311.185C63.197 308.973 65.4275 306.761 67.658 306.761C69.8885 306.023 72.1189 308.235 72.1189 311.185Z" fill="white"/>
<path d="M76.5806 286.113C76.5806 288.326 74.3501 290.538 72.1197 290.538C69.8892 290.538 67.6587 288.326 67.6587 286.113C67.6587 283.901 69.8892 281.689 72.1197 281.689C74.3501 281.689 76.5806 283.901 76.5806 286.113Z" fill="white"/>
<path d="M55.7624 296.437C55.7624 298.649 53.5319 300.862 51.3014 300.862C49.0709 300.862 46.8405 298.649 46.8405 296.437C46.8405 294.225 49.0709 292.013 51.3014 292.013C53.5319 292.013 55.7624 294.225 55.7624 296.437Z" fill="white"/>
<path d="M39.4058 283.901C39.4058 286.113 37.1753 288.325 34.9449 288.325C32.7144 288.325 30.4839 286.113 30.4839 283.901C30.4839 281.689 32.7144 279.477 34.9449 279.477C37.1753 279.477 39.4058 280.951 39.4058 283.901Z" fill="white"/>
<path d="M44.6099 258.092C44.6099 260.304 42.3794 262.516 40.149 262.516C37.9185 262.516 35.688 260.304 35.688 258.092C35.688 255.88 37.9185 253.667 40.149 253.667C42.3794 253.667 44.6099 255.88 44.6099 258.092Z" fill="white"/>
<path d="M60.2241 272.84C60.2241 275.052 57.9936 277.264 55.7631 277.264C53.5326 277.264 51.3021 275.052 51.3021 272.84C51.3021 270.628 53.5326 268.415 55.7631 268.415C57.9936 267.678 60.2241 269.89 60.2241 272.84Z" fill="white"/>
<path d="M80.298 261.779C80.298 263.991 78.0675 266.203 75.8371 266.203C73.6066 266.203 71.3761 263.991 71.3761 261.779C71.3761 259.567 73.6066 257.354 75.8371 257.354C78.0675 256.617 80.298 258.829 80.298 261.779Z" fill="white"/>
<path d="M96.6546 275.052C96.6546 277.265 94.4241 279.477 92.1936 279.477C89.9631 279.477 87.7327 277.265 87.7327 275.052C87.7327 272.84 89.9631 270.628 92.1936 270.628C94.4241 270.628 96.6546 272.84 96.6546 275.052Z" fill="white"/>
<path d="M112.269 289.063C112.269 291.275 110.038 293.487 107.808 293.487C105.577 293.487 103.347 291.275 103.347 289.063C103.347 286.851 105.577 284.639 107.808 284.639C110.038 283.901 112.269 286.113 112.269 289.063Z" fill="white"/>
<path d="M92.1945 300.124C92.1945 302.336 89.964 304.549 87.7335 304.549C85.5031 304.549 83.2726 302.336 83.2726 300.124C83.2726 297.912 85.5031 295.7 87.7335 295.7C89.964 295.7 92.1945 297.912 92.1945 300.124Z" fill="white"/>
<path d="M108.551 313.397C108.551 315.609 106.321 317.822 104.09 317.822C101.86 317.822 99.6292 315.609 99.6292 313.397C99.6292 311.185 101.86 308.973 104.09 308.973C106.321 308.973 108.551 310.447 108.551 313.397Z" fill="white"/>
<path d="M127.138 323.721C127.138 325.933 124.908 328.145 122.678 328.145C120.447 328.145 118.217 325.933 118.217 323.721C118.217 321.509 120.447 319.296 122.678 319.296C124.908 319.296 127.138 320.771 127.138 323.721Z" fill="white"/>
<path d="M129.369 300.861C129.369 303.074 127.139 305.286 124.908 305.286C122.678 305.286 120.447 303.074 120.447 300.861C120.447 298.649 122.678 296.437 124.908 296.437C127.139 295.699 129.369 297.912 129.369 300.861Z" fill="white"/>
<path d="M147.957 311.185C147.957 313.397 145.726 315.609 143.496 315.609C141.265 315.609 139.035 313.397 139.035 311.185C139.035 308.973 141.265 306.761 143.496 306.761C145.726 306.023 147.957 308.235 147.957 311.185Z" fill="white"/>
<path d="M170.261 300.124C170.261 302.336 168.031 304.549 165.8 304.549C163.57 304.549 161.339 302.336 161.339 300.124C161.339 297.912 163.57 295.7 165.8 295.7C168.031 295.7 170.261 297.912 170.261 300.124Z" fill="white"/>
<path d="M150.93 289.063C150.93 291.275 148.7 293.488 146.469 293.488C144.239 293.488 142.008 291.275 142.008 289.063C142.008 286.851 144.239 284.639 146.469 284.639C148.7 284.639 150.93 286.851 150.93 289.063Z" fill="white"/>
<path d="M172.491 278.739C172.491 280.951 170.26 283.164 168.03 283.164C165.799 283.164 163.569 280.951 163.569 278.739C163.569 276.527 165.799 274.315 168.03 274.315C170.26 273.577 172.491 275.79 172.491 278.739Z" fill="white"/>
<path d="M191.822 287.588C191.822 289.8 189.592 292.012 187.361 292.012C185.131 292.012 182.9 289.8 182.9 287.588C182.9 285.376 185.131 283.164 187.361 283.164C189.592 283.164 191.822 285.376 191.822 287.588Z" fill="white"/>
<path d="M174.721 256.617C174.721 258.829 172.491 261.042 170.261 261.042C168.03 261.042 165.8 258.829 165.8 256.617C165.8 254.405 168.03 252.193 170.261 252.193C172.491 251.455 174.721 253.668 174.721 256.617Z" fill="white"/>
<path d="M159.852 243.344C159.852 245.556 157.621 247.768 155.391 247.768C153.16 247.768 150.93 245.556 150.93 243.344C150.93 241.132 153.16 238.919 155.391 238.919C158.365 238.919 159.852 241.132 159.852 243.344Z" fill="white"/>
<path d="M144.239 230.07C144.239 232.283 142.009 234.495 139.778 234.495C137.548 234.495 135.317 232.283 135.317 230.07C135.317 227.858 137.548 225.646 139.778 225.646C142.009 225.646 144.239 227.858 144.239 230.07Z" fill="white"/>
<path d="M121.934 240.394C121.934 242.606 119.704 244.818 117.473 244.818C115.243 244.818 113.012 242.606 113.012 240.394C113.012 238.182 115.243 235.97 117.473 235.97C119.704 235.232 121.934 237.444 121.934 240.394Z" fill="white"/>
<path d="M138.291 253.668C138.291 255.88 136.06 258.092 133.83 258.092C131.599 258.092 129.369 255.88 129.369 253.668C129.369 251.455 131.599 249.243 133.83 249.243C136.06 249.243 138.291 250.718 138.291 253.668Z" fill="white"/>
<path d="M153.903 266.941C153.903 269.153 151.673 271.365 149.442 271.365C147.212 271.365 144.981 269.153 144.981 266.941C144.981 264.729 147.212 262.517 149.442 262.517C152.416 262.517 153.903 263.991 153.903 266.941Z" fill="white"/>
<path d="M133.087 277.264C133.087 279.476 130.856 281.689 128.626 281.689C126.395 281.689 124.165 279.476 124.165 277.264C124.165 275.052 126.395 272.84 128.626 272.84C130.856 272.84 133.087 275.052 133.087 277.264Z" fill="white"/>
<path d="M116.729 263.991C116.729 266.204 114.498 268.416 112.268 268.416C110.037 268.416 107.807 266.204 107.807 263.991C107.807 261.779 110.037 259.567 112.268 259.567C115.242 259.567 116.729 261.779 116.729 263.991Z" fill="white"/>
<path d="M101.116 250.718C101.116 252.93 98.8857 255.142 96.6552 255.142C94.4247 255.142 92.1942 252.93 92.1942 250.718C92.1942 248.506 94.4247 246.293 96.6552 246.293C98.8857 246.293 101.116 247.768 101.116 250.718Z" fill="white"/>
<path d="M84.7596 236.707C84.7596 238.919 82.5291 241.132 80.2986 241.132C78.0681 241.132 75.8376 238.919 75.8376 236.707C75.8376 234.495 78.0681 232.283 80.2986 232.283C82.5291 232.283 84.7596 234.495 84.7596 236.707Z" fill="white"/>
<path d="M105.576 226.383C105.576 228.596 103.346 230.808 101.115 230.808C98.8848 230.808 96.6543 228.596 96.6543 226.383C96.6543 224.171 98.8848 221.959 101.115 221.959C103.346 221.959 105.576 224.171 105.576 226.383Z" fill="white"/>
<path d="M87.733 213.11C87.733 215.322 85.5025 217.534 83.272 217.534C81.0415 217.534 78.811 215.322 78.811 213.11C78.811 210.898 81.0415 208.686 83.272 208.686C85.5025 208.686 87.733 210.16 87.733 213.11Z" fill="white"/>
<path d="M69.8897 199.837C69.8897 202.049 67.6592 204.261 65.4287 204.261C63.1983 204.261 60.9678 202.049 60.9678 199.837C60.9678 197.625 63.1983 195.413 65.4287 195.413C67.6592 195.413 69.8897 197.625 69.8897 199.837Z" fill="white"/>
<path d="M51.3024 187.301C51.3024 189.513 49.0719 191.725 46.8415 191.725C44.611 191.725 42.3805 189.513 42.3805 187.301C42.3805 185.089 44.611 182.876 46.8415 182.876C49.0719 182.876 51.3024 184.351 51.3024 187.301Z" fill="white"/>
<path d="M90.7064 189.513C90.7064 191.726 88.4759 193.938 86.2454 193.938C84.0149 193.938 81.7844 191.726 81.7844 189.513C81.7844 187.301 84.0149 185.089 86.2454 185.089C88.4759 185.089 90.7064 187.301 90.7064 189.513Z" fill="white"/>
<path d="M109.294 203.524C109.294 205.736 107.063 207.948 104.833 207.948C102.602 207.948 100.372 205.736 100.372 203.524C100.372 201.312 102.602 199.099 104.833 199.099C107.063 198.362 109.294 200.574 109.294 203.524Z" fill="white"/>
<path d="M127.138 216.797C127.138 219.009 124.908 221.221 122.678 221.221C120.447 221.221 118.217 219.009 118.217 216.797C118.217 214.585 120.447 212.373 122.678 212.373C124.908 212.373 127.138 213.847 127.138 216.797Z" fill="white"/>
<path d="M150.186 208.685C150.186 210.898 147.955 213.11 145.725 213.11C143.494 213.11 141.264 210.898 141.264 208.685C141.264 206.473 143.494 204.261 145.725 204.261C147.955 203.524 150.186 205.736 150.186 208.685Z" fill="white"/>
<path d="M171.748 199.837C171.748 202.049 169.518 204.261 167.287 204.261C165.057 204.261 162.826 202.049 162.826 199.837C162.826 197.625 165.057 195.413 167.287 195.413C169.518 195.413 171.748 197.625 171.748 199.837Z" fill="white"/>
<path d="M194.053 191.726C194.053 193.938 191.822 196.15 189.592 196.15C187.361 196.15 185.131 193.938 185.131 191.726C185.131 189.513 187.361 187.301 189.592 187.301C191.822 186.564 194.053 188.776 194.053 191.726Z" fill="white"/>
<path d="M191.078 215.322C191.078 217.535 188.848 219.747 186.617 219.747C184.387 219.747 182.156 217.535 182.156 215.322C182.156 213.11 184.387 210.898 186.617 210.898C188.848 210.898 191.078 213.11 191.078 215.322Z" fill="white"/>
<path d="M168.773 223.434C168.773 225.646 166.543 227.858 164.312 227.858C162.082 227.858 159.851 225.646 159.851 223.434C159.851 221.221 162.082 219.009 164.312 219.009C166.543 219.009 168.773 221.221 168.773 223.434Z" fill="white"/>
<path d="M188.849 238.919C188.849 241.131 186.618 243.343 184.388 243.343C182.157 243.343 179.927 241.131 179.927 238.919C179.927 236.707 182.157 234.495 184.388 234.495C186.618 234.495 188.849 236.707 188.849 238.919Z" fill="white"/>
<path d="M211.154 251.455C211.154 253.667 208.923 255.88 206.693 255.88C204.462 255.88 202.232 253.667 202.232 251.455C202.232 249.243 204.462 247.031 206.693 247.031C208.923 247.031 211.154 248.506 211.154 251.455Z" fill="white"/>
<path d="M193.309 263.991C193.309 266.204 191.078 268.416 188.848 268.416C186.617 268.416 184.387 266.204 184.387 263.991C184.387 261.779 186.617 259.567 188.848 259.567C191.078 259.567 193.309 261.779 193.309 263.991Z" fill="white"/>
<path d="M211.896 275.052C211.896 277.264 209.666 279.477 207.435 279.477C205.205 279.477 202.974 277.264 202.974 275.052C202.974 272.84 205.205 270.628 207.435 270.628C209.666 269.89 211.896 272.103 211.896 275.052Z" fill="white"/>
<path d="M232.714 263.254C232.714 265.466 230.484 267.678 228.253 267.678C226.023 267.678 223.792 265.466 223.792 263.254C223.792 261.041 226.023 258.829 228.253 258.829C230.484 258.829 232.714 261.041 232.714 263.254Z" fill="white"/>
<path d="M233.458 241.131C233.458 243.344 231.228 245.556 228.997 245.556C226.767 245.556 224.536 243.344 224.536 241.131C224.536 238.919 226.767 236.707 228.997 236.707C231.228 236.707 233.458 238.919 233.458 241.131Z" fill="white"/>
<path d="M232.714 219.747C232.714 221.959 230.484 224.171 228.253 224.171C226.023 224.171 223.792 221.959 223.792 219.747C223.792 217.534 226.023 215.322 228.253 215.322C231.227 214.585 232.714 216.797 232.714 219.747Z" fill="white"/>
<path d="M256.506 230.071C256.506 232.283 254.275 234.495 252.045 234.495C249.814 234.495 247.584 232.283 247.584 230.071C247.584 227.859 249.814 225.646 252.045 225.646C254.275 224.909 256.506 227.121 256.506 230.071Z" fill="white"/>
<path d="M255.019 251.455C255.019 253.667 252.789 255.88 250.558 255.88C248.328 255.88 246.097 253.667 246.097 251.455C246.097 249.243 248.328 247.031 250.558 247.031C253.532 246.293 255.019 248.505 255.019 251.455Z" fill="white"/>
<path d="M278.811 235.97C278.811 238.182 276.58 240.394 274.35 240.394C272.119 240.394 269.889 238.182 269.889 235.97C269.889 233.757 272.119 231.545 274.35 231.545C276.58 230.808 278.811 233.02 278.811 235.97Z" fill="white"/>
<path d="M301.116 221.959C301.116 224.171 298.885 226.384 296.655 226.384C294.424 226.384 292.194 224.171 292.194 221.959C292.194 219.747 294.424 217.535 296.655 217.535C298.885 217.535 301.116 219.747 301.116 221.959Z" fill="white"/>
<path d="M278.811 210.16C278.811 212.372 276.58 214.585 274.35 214.585C272.119 214.585 269.889 212.372 269.889 210.16C269.889 207.948 272.119 205.736 274.35 205.736C276.58 205.736 278.811 207.948 278.811 210.16Z" fill="white"/>
<path d="M283.272 185.089C283.272 187.301 281.042 189.513 278.811 189.513C276.581 189.513 274.35 187.301 274.35 185.089C274.35 182.877 276.581 180.664 278.811 180.664C281.042 179.927 283.272 182.139 283.272 185.089Z" fill="white"/>
<path d="M302.602 198.362C302.602 200.574 300.372 202.786 298.141 202.786C295.911 202.786 293.68 200.574 293.68 198.362C293.68 196.15 295.911 193.938 298.141 193.938C300.372 193.938 302.602 195.412 302.602 198.362Z" fill="white"/>
<path d="M325.651 210.161C325.651 212.373 323.421 214.585 321.19 214.585C318.96 214.585 316.729 212.373 316.729 210.161C316.729 207.948 318.96 205.736 321.19 205.736C323.421 204.999 325.651 207.211 325.651 210.161Z" fill="white"/>
<path d="M350.186 196.887C350.186 199.099 348.699 200.574 346.469 200.574C344.238 200.574 342.751 199.099 342.751 196.887C342.751 194.675 344.238 193.2 346.469 193.2C348.699 193.2 350.186 194.675 350.186 196.887Z" fill="white"/>
<path d="M326.395 187.301C326.395 189.513 324.165 191.725 321.934 191.725C319.704 191.725 317.473 189.513 317.473 187.301C317.473 185.089 319.704 182.876 321.934 182.876C324.165 182.876 326.395 184.351 326.395 187.301Z" fill="white"/>
<path d="M305.577 173.29C305.577 175.502 303.347 177.715 301.116 177.715C298.886 177.715 296.655 175.502 296.655 173.29C296.655 171.078 298.886 168.866 301.116 168.866C304.09 168.866 305.577 170.341 305.577 173.29Z" fill="white"/>
<path d="M284.015 160.017C284.015 162.229 281.784 164.441 279.554 164.441C277.323 164.441 275.093 162.229 275.093 160.017C275.093 157.805 277.323 155.593 279.554 155.593C281.784 155.593 284.015 157.805 284.015 160.017Z" fill="white"/>
<path d="M261.71 168.129C261.71 170.341 259.48 172.553 257.249 172.553C255.019 172.553 252.788 170.341 252.788 168.129C252.788 165.916 255.019 163.704 257.249 163.704C259.48 163.704 261.71 165.916 261.71 168.129Z" fill="white"/>
<path d="M260.223 190.251C260.223 192.463 257.993 194.675 255.762 194.675C253.532 194.675 251.301 192.463 251.301 190.251C251.301 188.038 253.532 185.826 255.762 185.826C257.993 185.826 260.223 187.301 260.223 190.251Z" fill="white"/>
<path d="M254.275 210.161C254.275 212.373 252.045 214.585 249.814 214.585C247.584 214.585 245.353 212.373 245.353 210.161C245.353 207.948 247.584 205.736 249.814 205.736C252.788 204.999 254.275 207.211 254.275 210.161Z" fill="white"/>
<path d="M235.688 196.887C235.688 199.099 233.457 201.312 231.227 201.312C228.996 201.312 226.766 199.099 226.766 196.887C226.766 194.675 228.996 192.463 231.227 192.463C233.457 191.725 235.688 193.938 235.688 196.887Z" fill="white"/>
<path d="M210.409 229.333C210.409 231.545 208.179 233.757 205.949 233.757C203.718 233.757 201.488 231.545 201.488 229.333C201.488 227.121 203.718 224.909 205.949 224.909C208.922 224.171 210.409 226.383 210.409 229.333Z" fill="white"/>
<path d="M212.64 205.736C212.64 207.948 210.41 210.16 208.179 210.16C205.949 210.16 203.718 207.948 203.718 205.736C203.718 203.524 205.949 201.312 208.179 201.312C211.153 201.312 212.64 203.524 212.64 205.736Z" fill="white"/>
<path d="M215.614 182.877C215.614 185.089 213.383 187.301 211.153 187.301C208.922 187.301 206.692 185.089 206.692 182.877C206.692 180.664 208.922 178.452 211.153 178.452C213.383 178.452 215.614 179.927 215.614 182.877Z" fill="white"/>
<path d="M239.405 174.765C239.405 176.977 237.175 179.19 234.944 179.19C232.714 179.19 230.483 176.977 230.483 174.765C230.483 172.553 232.714 170.341 234.944 170.341C237.175 170.341 239.405 172.553 239.405 174.765Z" fill="white"/>
<path d="M240.149 152.643C240.149 154.855 237.919 157.067 235.688 157.067C233.458 157.067 231.227 154.855 231.227 152.643C231.227 150.431 233.458 148.219 235.688 148.219C237.919 147.481 240.149 149.693 240.149 152.643Z" fill="white"/>
<path d="M260.967 146.006C260.967 148.219 258.737 150.431 256.506 150.431C254.276 150.431 252.046 148.219 252.046 146.006C252.046 143.794 254.276 141.582 256.506 141.582C258.737 142.319 260.967 143.794 260.967 146.006Z" fill="white"/>
<path d="M237.918 129.783C237.918 131.996 236.431 133.471 234.201 133.471C231.97 133.471 230.483 131.996 230.483 129.783C230.483 127.571 231.97 126.096 234.201 126.096C236.431 126.096 237.918 127.571 237.918 129.783Z" fill="white"/>
<path d="M220.075 136.42C220.075 138.632 217.845 140.844 215.614 140.844C213.384 140.844 211.153 138.632 211.153 136.42C211.153 134.208 213.384 131.996 215.614 131.996C217.845 131.996 220.075 133.47 220.075 136.42Z" fill="white"/>
<path d="M218.589 160.017C218.589 162.229 216.358 164.441 214.128 164.441C211.897 164.441 209.667 162.229 209.667 160.017C209.667 157.805 211.897 155.593 214.128 155.593C216.358 155.593 218.589 157.067 218.589 160.017Z" fill="white"/>
<path d="M199.257 143.057C199.257 145.269 197.027 147.481 194.796 147.481C192.566 147.481 190.335 145.269 190.335 143.057C190.335 140.844 192.566 138.632 194.796 138.632C197.027 138.632 199.257 140.844 199.257 143.057Z" fill="white"/>
<path d="M207.436 117.985C207.436 120.197 205.206 122.409 202.975 122.409C200.745 122.409 198.514 120.197 198.514 117.985C198.514 115.773 200.745 113.56 202.975 113.56C205.206 113.56 207.436 115.773 207.436 117.985Z" fill="white"/>
<path d="M185.874 103.237C185.874 105.449 183.643 107.661 181.413 107.661C179.183 107.661 176.952 105.449 176.952 103.237C176.952 101.024 179.183 98.8123 181.413 98.8123C183.643 98.8123 185.874 101.024 185.874 103.237Z" fill="white"/>
<path d="M162.826 90.7011C162.826 92.9133 160.596 95.1255 158.365 95.1255C156.135 95.1255 153.905 92.9133 153.905 90.7011C153.905 88.4888 156.135 86.2766 158.365 86.2766C160.596 86.2766 162.826 87.7514 162.826 90.7011Z" fill="white"/>
<path d="M162.826 114.298C162.826 116.51 160.596 118.722 158.365 118.722C156.135 118.722 153.905 116.51 153.905 114.298C153.905 112.086 156.135 109.873 158.365 109.873C161.339 109.136 162.826 111.348 162.826 114.298Z" fill="white"/>
<path d="M183.643 126.834C183.643 129.046 181.413 131.258 179.182 131.258C176.952 131.258 174.721 129.046 174.721 126.834C174.721 124.622 176.952 122.409 179.182 122.409C181.413 122.409 183.643 124.622 183.643 126.834Z" fill="white"/>
<path d="M178.439 151.905C178.439 154.118 176.209 156.33 173.978 156.33C171.748 156.33 169.517 154.118 169.517 151.905C169.517 149.693 171.748 147.481 173.978 147.481C176.209 147.481 178.439 149.693 178.439 151.905Z" fill="white"/>
<path d="M196.284 167.391C196.284 169.603 194.053 171.815 191.823 171.815C189.592 171.815 187.362 169.603 187.362 167.391C187.362 165.179 189.592 162.967 191.823 162.967C194.053 162.967 196.284 165.179 196.284 167.391Z" fill="white"/>
<path d="M174.721 176.24C174.721 178.452 172.491 180.664 170.261 180.664C168.03 180.664 165.8 178.452 165.8 176.24C165.8 174.028 168.03 171.815 170.261 171.815C172.491 171.815 174.721 174.028 174.721 176.24Z" fill="white"/>
<path d="M153.161 185.089C153.161 187.301 150.93 189.513 148.7 189.513C146.469 189.513 144.239 187.301 144.239 185.089C144.239 182.877 146.469 180.665 148.7 180.665C150.93 180.665 153.161 182.877 153.161 185.089Z" fill="white"/>
<path d="M134.573 171.078C134.573 173.29 132.343 175.503 130.112 175.503C127.882 175.503 125.651 173.29 125.651 171.078C125.651 168.866 127.882 166.654 130.112 166.654C132.343 165.916 134.573 168.128 134.573 171.078Z" fill="white"/>
<path d="M131.598 193.938C131.598 196.15 129.368 198.362 127.137 198.362C124.907 198.362 122.677 196.15 122.677 193.938C122.677 191.725 124.907 189.513 127.137 189.513C129.368 189.513 131.598 191.725 131.598 193.938Z" fill="white"/>
<path d="M113.011 179.927C113.011 182.139 110.781 184.351 108.55 184.351C106.32 184.351 104.089 182.139 104.089 179.927C104.089 177.715 106.32 175.502 108.55 175.502C110.781 175.502 113.011 177.715 113.011 179.927Z" fill="white"/>
<path d="M115.986 157.805C115.986 160.017 113.756 162.229 111.525 162.229C109.295 162.229 107.064 160.017 107.064 157.805C107.064 155.592 109.295 153.38 111.525 153.38C113.756 152.643 115.986 154.855 115.986 157.805Z" fill="white"/>
<path d="M118.217 134.945C118.217 137.157 115.986 139.37 113.756 139.37C111.525 139.37 109.295 137.157 109.295 134.945C109.295 132.733 111.525 130.521 113.756 130.521C115.986 130.521 118.217 131.996 118.217 134.945Z" fill="white"/>
<path d="M137.547 147.481C137.547 149.693 135.316 151.906 133.086 151.906C130.855 151.906 128.625 149.693 128.625 147.481C128.625 145.269 130.855 143.057 133.086 143.057C136.06 143.057 137.547 145.269 137.547 147.481Z" fill="white"/>
<path d="M156.878 161.492C156.878 163.704 154.648 165.916 152.417 165.916C150.187 165.916 147.956 163.704 147.956 161.492C147.956 159.28 150.187 157.067 152.417 157.067C154.648 157.067 156.878 158.542 156.878 161.492Z" fill="white"/>
<path d="M160.596 137.157C160.596 139.37 158.365 141.582 156.135 141.582C153.904 141.582 151.674 139.37 151.674 137.157C151.674 134.945 153.904 132.733 156.135 132.733C158.365 132.733 160.596 134.945 160.596 137.157Z" fill="white"/>
<path d="M140.522 124.621C140.522 126.834 138.291 129.046 136.061 129.046C133.83 129.046 131.6 126.834 131.6 124.621C131.6 122.409 133.83 120.197 136.061 120.197C138.291 120.197 140.522 122.409 140.522 124.621Z" fill="white"/>
<path d="M119.704 112.086C119.704 114.298 117.473 116.51 115.243 116.51C113.012 116.51 110.782 114.298 110.782 112.086C110.782 109.873 113.012 107.661 115.243 107.661C117.473 107.661 119.704 109.873 119.704 112.086Z" fill="white"/>
<path d="M118.959 89.9636C118.959 92.1758 116.729 94.388 114.498 94.388C112.268 94.388 110.037 92.1758 110.037 89.9636C110.037 87.7514 112.268 85.5392 114.498 85.5392C116.729 84.8018 118.959 87.014 118.959 89.9636Z" fill="white"/>
<path d="M141.264 101.762C141.264 103.974 139.034 106.187 136.803 106.187C134.573 106.187 132.342 103.974 132.342 101.762C132.342 99.5499 134.573 97.3376 136.803 97.3376C139.034 97.3376 141.264 99.5499 141.264 101.762Z" fill="white"/>
<path d="M140.522 78.9025C140.522 81.1147 138.291 83.3269 136.061 83.3269C133.83 83.3269 131.6 81.1147 131.6 78.9025C131.6 76.6902 133.83 74.478 136.061 74.478C138.291 74.478 140.522 75.9528 140.522 78.9025Z" fill="white"/>
<path d="M118.959 66.3663C118.959 68.5786 116.729 70.7908 114.498 70.7908C112.268 70.7908 110.037 68.5786 110.037 66.3663C110.037 64.1541 112.268 61.9419 114.498 61.9419C116.729 61.9419 118.959 64.1541 118.959 66.3663Z" fill="white"/>
<path d="M97.3987 76.6901C97.3987 78.9023 95.1682 81.1145 92.9378 81.1145C90.7073 81.1145 88.4768 78.9023 88.4768 76.6901C88.4768 74.4778 90.7073 72.2656 92.9378 72.2656C95.1682 72.2656 97.3987 74.4778 97.3987 76.6901Z" fill="white"/>
<path d="M96.6546 53.8307C96.6546 56.0429 94.4241 58.2551 92.1936 58.2551C89.9631 58.2551 87.7327 56.0429 87.7327 53.8307C87.7327 51.6185 89.9631 49.4062 92.1936 49.4062C94.4241 49.4062 96.6546 51.6185 96.6546 53.8307Z" fill="white"/>
<path d="M75.8365 62.6793C75.8365 64.8915 73.606 67.1037 71.3755 67.1037C69.145 67.1037 66.9146 65.6289 66.9146 62.6793C66.9146 60.4671 69.145 58.2549 71.3755 58.2549C74.3495 58.2549 75.8365 60.4671 75.8365 62.6793Z" fill="white"/>
<path d="M55.7624 73.7406C55.7624 75.9528 53.5319 78.165 51.3014 78.165C49.0709 78.165 46.8405 75.9528 46.8405 73.7406C46.8405 71.5284 49.0709 69.3162 51.3014 69.3162C53.5319 69.3162 55.7624 71.5284 55.7624 73.7406Z" fill="white"/>
<path d="M55.0198 50.1437C55.0198 52.3559 52.7894 54.5681 50.5589 54.5681C48.3284 54.5681 46.0979 52.3559 46.0979 50.1437C46.0979 47.9315 48.3284 45.7192 50.5589 45.7192C52.7894 45.7192 55.0198 47.9315 55.0198 50.1437Z" fill="white"/>
<path d="M75.0939 39.0826C75.0939 41.2949 72.8634 43.5071 70.633 43.5071C68.4025 43.5071 66.172 41.2949 66.172 39.0826C66.172 36.8704 68.4025 34.6582 70.633 34.6582C72.8634 34.6582 75.0939 36.8704 75.0939 39.0826Z" fill="white"/>
<path d="M52.045 27.2841C52.045 29.4963 49.8145 31.7085 47.584 31.7085C44.61 31.7085 43.123 29.4963 43.123 27.2841C43.123 25.0718 45.3535 22.8596 47.584 22.8596C49.8145 22.8596 52.045 24.3344 52.045 27.2841Z" fill="white"/>
<path d="M29.7411 16.9603C29.7411 19.1725 27.5106 21.3848 25.2801 21.3848C23.0497 21.3848 20.0757 19.9099 20.0757 16.9603C20.0757 14.0107 22.3062 12.5359 25.2801 12.5359C28.2541 12.5359 29.7411 14.7481 29.7411 16.9603Z" fill="white"/>
</g>
<defs>
<clipPath id="clip0">
<rect width="350.186" height="396.724" fill="white"/>
</clipPath>
</defs>
</svg>
