<svg width="207" height="207" viewBox="0 0 207 207" fill="none" xmlns="http://www.w3.org/2000/svg">
<g clip-path="url(#clip0)">
<path d="M188.936 109.571C191.601 111.644 194.562 113.717 194.562 118.455C194.562 122.897 191.601 125.266 188.936 127.339C186.27 129.412 184.494 130.597 184.494 133.262C184.494 135.927 186.27 137.408 188.936 139.185C191.601 141.258 194.562 143.331 194.562 147.773C193.378 149.846 192.193 152.215 191.009 154.288C195.155 147.18 198.412 139.481 200.781 131.485C200.189 133.262 199.597 135.335 199.004 137.112C198.412 135.927 198.116 134.743 198.116 132.966C198.116 129.116 200.189 127.043 202.558 125.266C202.262 127.339 201.67 129.116 201.077 130.893C203.15 123.786 204.335 116.086 204.927 108.386C204.927 109.867 204.631 111.052 204.631 112.236C204.335 112.532 204.335 112.532 204.039 112.236C201.374 110.163 198.412 108.09 198.412 103.352H184.79C184.79 106.313 186.27 107.498 188.936 109.571Z" fill="white"/>
<path d="M204.927 108.683C204.927 106.906 204.927 105.129 204.927 103.352H201.67C201.67 105.721 202.854 107.202 204.927 108.683Z" fill="white"/>
<path d="M176.794 173.536C175.906 174.425 175.017 175.313 174.129 176.202C175.313 175.313 176.202 174.425 176.794 173.536Z" fill="white"/>
<path d="M155.176 109.571C157.841 111.644 160.803 113.717 160.803 118.455C160.803 122.897 157.841 125.266 155.176 127.339C152.511 129.412 150.734 130.597 150.734 133.262C150.734 135.927 152.511 137.408 155.176 139.185C157.841 141.258 160.803 143.331 160.803 148.069C160.803 151.03 159.618 152.807 158.137 154.288C157.249 155.176 156.064 156.064 155.176 156.657C152.511 158.73 150.734 159.914 150.734 162.579C150.734 165.245 152.511 166.725 155.176 168.502C157.841 170.575 160.803 172.648 160.803 177.386C160.803 181.828 157.841 184.198 155.176 186.27C152.511 188.343 150.734 189.528 150.734 192.193C150.734 192.489 150.734 192.785 150.734 193.082C150.438 193.378 149.845 193.378 149.549 193.674C158.73 188.936 167.021 183.013 174.129 175.906C173.833 174.425 172.648 173.24 170.871 172.056C170.575 171.76 170.279 171.464 169.983 171.464C167.318 169.391 164.356 167.318 164.356 162.579C164.356 158.137 167.021 156.064 169.687 153.992L169.983 153.695C170.279 153.399 170.575 153.103 170.871 153.103C172.944 151.622 174.129 150.142 174.129 147.773C174.129 145.404 172.944 144.219 170.871 142.442C170.575 142.146 170.279 141.85 169.983 141.85C167.318 139.777 164.356 137.704 164.356 132.966C164.356 128.524 167.318 126.155 169.983 124.082C170.279 123.786 170.575 123.489 170.871 123.489C172.944 122.009 174.129 120.528 174.129 118.159C174.129 115.79 172.944 114.605 170.871 112.828C170.575 112.532 170.279 112.236 169.983 111.94C167.318 109.867 164.356 107.794 164.356 103.056H150.734C150.734 106.313 152.511 107.498 155.176 109.571Z" fill="white"/>
<path d="M137.407 108.683C137.704 108.979 138 109.275 138.296 109.275C140.961 111.348 143.922 113.421 143.922 118.159C143.922 122.601 140.961 124.97 138.296 127.043C138 127.339 137.704 127.635 137.407 127.635C135.334 129.116 134.15 130.597 134.15 132.966C134.15 135.335 135.334 136.519 137.407 138.296C137.704 138.592 138 138.889 138.296 138.889C140.961 140.961 143.922 143.034 143.922 147.773C143.922 150.734 142.738 152.511 141.257 153.992C140.369 154.88 139.184 155.768 138.296 156.361C138 156.657 137.704 156.953 137.407 156.953C135.334 158.434 134.15 159.914 134.15 162.283C134.15 164.652 135.334 165.837 137.407 167.614C137.704 167.91 138 168.206 138.296 168.206C140.961 170.279 143.922 172.352 143.922 177.09C143.922 181.532 140.961 183.901 138.296 185.974C138 186.27 137.704 186.567 137.407 186.567C135.334 188.047 134.15 189.528 134.15 191.897C134.15 194.266 135.334 195.451 137.407 197.228C137.704 197.524 138 197.82 138.296 197.82C138.592 197.82 138.592 198.116 138.888 198.116C138.296 198.412 138 198.412 137.407 198.708C140.961 197.524 144.515 196.043 147.772 194.266C147.476 193.378 147.476 192.785 147.476 191.897C147.476 187.455 150.437 185.086 153.103 183.013C155.768 180.94 157.545 179.755 157.545 177.09C157.545 174.425 155.768 172.944 153.103 171.167C150.437 169.095 147.476 167.022 147.476 162.283C147.476 157.841 150.141 155.768 152.807 153.695L153.103 153.399C155.768 151.326 157.545 150.142 157.545 147.476C157.545 144.811 155.768 143.331 153.103 141.554C150.437 139.481 147.476 137.408 147.476 132.67C147.476 128.228 150.437 125.858 153.103 123.786C155.768 121.713 157.545 120.528 157.545 117.863C157.545 115.198 155.768 113.717 153.103 111.94C150.437 109.867 147.476 107.794 147.476 103.056H133.854C133.854 105.721 135.334 107.202 137.407 108.683Z" fill="white"/>
<path d="M40.571 183.013C39.6826 182.421 38.7942 181.532 37.9058 180.94C38.7942 181.532 39.6826 182.421 40.571 183.013Z" fill="white"/>
<path d="M2.36889 113.421C2.36889 112.236 2.07275 110.755 2.07275 109.571C2.36889 113.717 2.96117 118.159 3.55344 122.305C4.73799 121.12 5.33026 120.232 5.33026 118.455C5.33026 116.086 4.44185 114.901 2.36889 113.421Z" fill="white"/>
<path d="M18.0642 153.991C20.7294 151.918 22.5062 150.734 22.5062 148.069C22.5062 145.403 20.7294 143.923 18.0642 142.146C15.3989 140.073 12.4376 138 12.4376 133.262C12.4376 128.82 15.3989 126.451 18.0642 124.378C20.7294 122.305 22.5062 121.12 22.5062 118.455C22.5062 115.79 20.7294 114.309 18.0642 112.532C15.3989 110.459 12.4376 108.386 12.4376 103.648H2.07275C2.07275 105.425 2.07275 107.202 2.07275 108.979C2.36889 108.979 2.66503 109.275 2.96117 109.571C5.6264 111.644 8.88391 113.717 8.88391 118.455C8.88391 122.305 6.81095 124.378 4.73799 126.154C4.44185 124.97 4.14572 123.489 3.84958 122.305C5.92254 134.15 10.3646 145.403 16.2873 155.472C16.5835 155.176 17.1758 154.88 17.4719 154.584C17.768 154.288 17.768 153.991 18.0642 153.991Z" fill="white"/>
<path d="M184.79 162.579C184.79 163.172 184.79 163.468 185.086 164.06C184.197 164.949 183.605 166.133 182.717 167.022C185.678 163.468 188.343 159.618 190.712 155.472C190.12 155.768 189.528 156.361 189.232 156.657C186.27 158.73 184.79 159.914 184.79 162.579Z" fill="white"/>
<path d="M171.168 108.682C171.464 108.978 171.76 109.275 172.056 109.275C174.721 111.348 177.683 113.42 177.683 118.159C177.683 122.601 174.721 124.97 172.056 127.043C171.76 127.339 171.464 127.635 171.168 127.635C169.095 129.116 167.91 130.596 167.91 132.966C167.91 135.335 169.095 136.519 171.168 138.296C171.464 138.592 171.76 138.888 172.056 138.888C174.721 140.961 177.683 143.034 177.683 147.772C177.683 150.734 176.498 152.511 175.017 153.991C174.129 154.88 172.944 155.768 172.056 156.36C171.76 156.657 171.464 156.953 171.168 156.953C169.095 158.433 167.91 159.914 167.91 162.283C167.91 164.652 169.095 165.837 171.168 167.614C171.464 167.91 171.76 168.206 172.056 168.206C173.833 169.39 175.61 170.871 176.794 172.944C178.867 170.871 180.644 168.798 182.421 166.429C181.532 165.245 181.236 163.764 181.236 161.987C181.236 157.545 183.902 155.472 186.567 153.399L186.863 153.103C189.528 151.03 191.305 149.845 191.305 147.18C191.305 144.515 189.528 143.034 186.863 141.257C184.198 139.184 181.236 137.111 181.236 132.373C181.236 127.931 184.198 125.562 186.863 123.489C189.528 121.416 191.305 120.232 191.305 117.566C191.305 114.901 189.528 113.42 186.863 111.644C184.198 109.571 181.236 107.498 181.236 102.76H167.614C167.91 105.721 169.095 107.202 171.168 108.682Z" fill="white"/>
<path d="M53.8971 109.571C56.5624 111.644 59.5237 113.717 59.5237 118.455C59.5237 122.897 56.5624 125.266 53.8971 127.339C51.2319 129.412 49.4551 130.597 49.4551 133.262C49.4551 135.927 51.2319 137.408 53.8971 139.185C56.5624 141.258 59.5237 143.331 59.5237 148.069C59.5237 151.03 58.3392 152.807 56.8585 154.288C55.9701 155.176 54.7855 156.064 53.8971 156.657C51.2319 158.73 49.4551 159.914 49.4551 162.58C49.4551 165.245 51.2319 166.725 53.8971 168.502C56.5624 170.575 59.5237 172.648 59.5237 177.386C59.5237 181.828 56.5624 184.198 53.8971 186.271C52.1203 187.455 50.9358 188.64 50.0473 189.824C56.2662 193.674 62.7813 196.931 69.5924 199.301C67.8156 198.708 66.0388 198.116 64.2619 197.228C63.3735 196.043 62.7813 194.266 62.7813 192.489C62.7813 188.047 65.7426 185.678 68.4079 183.605C68.704 183.309 69.0001 183.013 69.2963 183.013C71.3692 181.532 72.5538 180.052 72.5538 177.683C72.5538 175.313 71.3692 174.129 69.2963 172.352C69.0001 172.056 68.704 171.76 68.4079 171.76C65.7426 169.687 62.7813 167.614 62.7813 162.876C62.7813 158.434 65.4465 156.361 68.1117 154.288L68.4079 153.992C68.704 153.695 69.0001 153.399 69.2963 153.399C71.3692 151.919 72.5538 150.438 72.5538 148.069C72.5538 145.7 71.3692 144.515 69.2963 142.738C69.0001 142.442 68.704 142.146 68.4079 142.146C65.7426 140.073 62.7813 138 62.7813 133.262C62.7813 128.82 65.7426 126.451 68.4079 124.378C68.704 124.082 69.0001 123.786 69.2963 123.786C71.3692 122.305 72.5538 120.824 72.5538 118.455C72.5538 116.086 71.3692 114.901 69.2963 113.125C69.0001 112.828 68.704 112.532 68.4079 112.236C65.7426 110.163 62.7813 108.09 62.7813 103.352H49.1589C49.4551 106.313 50.9358 107.498 53.8971 109.571Z" fill="white"/>
<path d="M35.8327 108.683C36.1288 108.979 36.425 109.275 36.7211 109.275C39.3864 111.348 42.3477 113.421 42.3477 118.159C42.3477 122.601 39.3864 124.97 36.7211 127.043C36.425 127.339 36.1288 127.635 35.8327 127.635C33.7597 129.116 32.5752 130.597 32.5752 132.966C32.5752 135.335 33.7597 136.519 35.8327 138.296C36.1288 138.592 36.425 138.889 36.7211 138.889C39.3864 140.961 42.3477 143.034 42.3477 147.773C42.3477 150.734 41.1632 152.511 39.6825 153.992C38.7941 154.88 37.6095 155.768 36.7211 156.361C36.425 156.657 36.1288 156.953 35.8327 156.953C33.7597 158.434 32.5752 159.914 32.5752 162.283C32.5752 164.652 33.7597 165.837 35.8327 167.614C36.1288 167.91 36.425 168.206 36.7211 168.206C39.3864 170.279 42.3477 172.352 42.3477 177.09C42.3477 179.459 41.4593 181.236 40.2748 182.717C42.3477 184.494 44.7168 185.974 46.7898 187.455C47.9743 185.678 49.7512 184.198 51.2319 183.013C53.8971 180.94 55.6739 179.755 55.6739 177.09C55.6739 174.425 53.8971 172.944 51.2319 171.167C48.5666 169.095 45.6052 167.022 45.6052 162.283C45.6052 157.841 48.2705 155.768 50.9357 153.695L51.2319 153.399C53.8971 151.326 55.6739 150.142 55.6739 147.477C55.6739 144.811 53.8971 143.331 51.2319 141.554C48.5666 139.481 45.6052 137.408 45.6052 132.67C45.6052 128.228 48.5666 125.858 51.2319 123.786C53.8971 121.713 55.6739 120.528 55.6739 117.863C55.6739 115.198 53.8971 113.717 51.2319 111.94C48.5666 109.867 45.6052 107.794 45.6052 103.056H32.5752C32.5752 105.721 33.7597 107.202 35.8327 108.683Z" fill="white"/>
<path d="M69.592 108.683C69.8881 108.979 70.1843 109.275 70.4804 109.275C73.1456 111.348 76.107 113.421 76.107 118.159C76.107 122.601 73.1456 124.97 70.4804 127.043C70.1843 127.339 69.8881 127.635 69.592 127.635C67.519 129.116 66.3345 130.597 66.3345 132.966C66.3345 135.335 67.519 136.519 69.592 138.296C69.8881 138.592 70.1843 138.889 70.4804 138.889C73.1456 140.961 76.107 143.034 76.107 147.773C76.107 150.734 74.9225 152.511 73.4418 153.992C72.5534 154.88 71.3688 155.768 70.4804 156.361C70.1843 156.657 69.8881 156.953 69.592 156.953C67.519 158.434 66.3345 159.914 66.3345 162.283C66.3345 164.652 67.519 165.837 69.592 167.614C69.8881 167.91 70.1843 168.206 70.4804 168.206C73.1456 170.279 76.107 172.352 76.107 177.09C76.107 181.532 73.1456 183.901 70.4804 185.974C70.1843 186.27 69.8881 186.567 69.592 186.567C67.519 188.047 66.3345 189.528 66.3345 191.897C66.3345 194.266 67.519 195.451 69.592 197.228C69.8881 197.524 70.1843 197.82 70.4804 197.82C71.3688 198.412 72.2572 199.004 73.1456 199.893C72.5534 199.597 71.9611 199.597 71.3688 199.301C81.4375 202.558 92.3946 204.631 103.352 204.631C105.425 204.631 107.794 204.631 109.867 204.335C108.682 204.335 107.498 204.335 106.313 204.631C105.721 203.446 104.832 202.558 103.352 201.67C103.056 201.373 102.759 201.077 102.463 201.077C99.798 199.004 96.8366 196.931 96.8366 192.193C96.8366 187.751 99.798 185.382 102.463 183.309C102.759 183.013 103.056 182.717 103.352 182.717C105.425 181.236 106.609 179.755 106.609 177.386C106.609 175.017 105.425 173.833 103.352 172.056C103.056 171.76 102.759 171.464 102.463 171.464C99.798 169.391 96.8366 167.318 96.8366 162.58C96.8366 158.137 99.5018 156.064 102.167 153.992L102.463 153.695C102.759 153.399 103.056 153.103 103.352 153.103C105.425 151.622 106.609 150.142 106.609 147.773C106.609 145.404 105.425 144.219 103.352 142.442C103.056 142.146 102.759 141.85 102.463 141.85C99.798 139.777 96.8366 137.704 96.8366 132.966C96.8366 128.524 99.798 126.155 102.463 124.082C102.759 123.786 103.056 123.489 103.352 123.489C105.425 122.009 106.609 120.528 106.609 118.159C106.609 115.79 105.425 114.605 103.352 112.828C103.056 112.532 102.759 112.236 102.463 111.94C99.798 109.867 96.8366 107.794 96.8366 103.056H83.2143C83.2143 105.721 84.9911 107.202 87.6564 108.979C90.3216 111.052 93.283 113.125 93.283 117.863C93.283 122.305 90.3216 124.674 87.6564 126.747C84.9911 128.82 83.2143 130.004 83.2143 132.67C83.2143 135.335 84.9911 136.816 87.6564 138.592C90.3216 140.665 93.283 142.738 93.283 147.477C93.283 150.438 92.0984 152.215 90.6177 153.695C89.7293 154.584 88.5448 155.472 87.6564 156.064C84.9911 158.137 83.2143 159.322 83.2143 161.987C83.2143 164.652 84.9911 166.133 87.6564 167.91C90.3216 169.983 93.283 172.056 93.283 176.794C93.283 181.236 90.3216 183.605 87.6564 185.678C84.9911 187.751 83.2143 188.936 83.2143 191.601C83.2143 194.266 84.9911 195.747 87.6564 197.524C89.7293 199.004 92.0984 200.781 92.9868 203.743C91.5061 203.743 90.3216 203.446 88.8409 203.15C87.9525 202.262 87.0641 201.373 85.5834 200.189C82.9182 198.116 79.9568 196.043 79.9568 191.305C79.9568 186.863 82.9182 184.494 85.5834 182.421C88.2486 180.348 90.0255 179.163 90.0255 176.498C90.0255 173.833 88.2486 172.352 85.5834 170.575C82.9182 168.502 79.9568 166.429 79.9568 161.691C79.9568 157.249 82.622 155.176 85.2873 153.103L85.5834 152.807C88.2486 150.734 90.0255 149.549 90.0255 146.884C90.0255 144.219 88.2486 142.738 85.5834 140.961C82.9182 139.777 79.9568 137.704 79.9568 133.262C79.9568 128.82 82.9182 126.451 85.5834 124.378C88.2486 122.305 90.0255 121.12 90.0255 118.455C90.0255 115.79 88.2486 114.309 85.5834 112.532C82.9182 110.163 79.9568 108.09 79.9568 103.648H66.3345C66.3345 105.721 67.519 107.202 69.592 108.683Z" fill="white"/>
<path d="M15.3989 103.648C15.3989 106.313 17.1757 107.794 19.841 109.571C22.5062 111.644 25.4676 113.717 25.4676 118.455C25.4676 122.897 22.5062 125.266 19.841 127.339C17.1757 129.412 15.3989 130.597 15.3989 133.262C15.3989 135.927 17.1757 137.408 19.841 139.185C22.5062 141.258 25.4676 143.331 25.4676 148.069C25.4676 151.03 24.283 152.807 22.8024 154.288C21.9139 155.176 20.7294 156.064 19.841 156.657C19.2487 157.249 18.3603 157.545 18.0642 158.137C17.4719 157.249 16.8796 156.361 16.2873 155.176C22.2101 164.949 29.3174 173.537 37.9053 180.94C38.7938 180.052 39.0899 178.867 39.0899 177.386C39.0899 175.017 37.9053 173.833 35.8324 172.056C35.5363 171.76 35.2401 171.464 34.944 171.464C32.2787 169.391 29.3174 167.318 29.3174 162.58C29.3174 158.137 31.9826 156.064 34.6478 153.992L34.944 153.695C35.2401 153.399 35.5363 153.103 35.8324 153.103C37.9053 151.622 39.0899 150.142 39.0899 147.773C39.0899 145.404 37.9053 144.219 35.8324 142.442C35.5363 142.146 35.2401 141.85 34.944 141.85C32.2787 139.777 29.3174 137.704 29.3174 132.966C29.3174 128.524 32.2787 126.155 34.944 124.082C35.2401 123.786 35.5363 123.489 35.8324 123.489C37.9053 122.009 39.0899 120.528 39.0899 118.159C39.0899 115.79 37.9053 114.605 35.8324 112.828C35.5363 112.532 35.2401 112.236 34.944 111.94C32.2787 109.867 29.3174 107.794 29.3174 103.056H15.3989V103.648Z" fill="white"/>
<path d="M103.352 108.682C103.648 108.979 103.945 109.275 104.241 109.275C106.906 111.348 109.867 113.421 109.867 118.159C109.867 122.601 106.906 124.97 104.241 127.043C103.945 127.339 103.648 127.635 103.352 127.635C101.279 129.116 100.095 130.597 100.095 132.966C100.095 135.335 101.279 136.519 103.352 138.296C103.648 138.592 103.945 138.888 104.241 138.888C106.906 140.961 109.867 143.034 109.867 147.773C109.867 150.734 108.683 152.511 107.202 153.991C106.314 154.88 105.129 155.768 104.241 156.36C103.945 156.657 103.648 156.953 103.352 156.953C101.279 158.433 100.095 159.914 100.095 162.283C100.095 164.652 101.279 165.837 103.352 167.614C103.648 167.91 103.945 168.206 104.241 168.206C106.906 170.279 109.867 172.352 109.867 177.09C109.867 181.532 106.906 183.901 104.241 185.974C103.945 186.27 103.648 186.566 103.352 186.566C101.279 188.047 100.095 189.528 100.095 191.897C100.095 194.266 101.279 195.451 103.352 197.227C103.648 197.524 103.945 197.82 104.241 197.82C106.314 199.3 108.683 201.077 109.571 204.335C118.751 203.742 127.635 201.966 135.927 199.004C135.335 199.3 135.039 199.3 134.447 199.597C132.078 197.82 130.005 195.747 130.005 191.897C130.005 187.455 132.966 185.086 135.631 183.013C135.927 182.717 136.223 182.421 136.52 182.421C138.593 180.94 139.777 179.459 139.777 177.09C139.777 174.721 138.593 173.536 136.52 171.76C136.223 171.463 135.927 171.167 135.631 171.167C132.966 169.094 130.005 167.021 130.005 162.283C130.005 157.841 132.67 155.768 135.335 153.695L135.631 153.399C135.927 153.103 136.223 152.807 136.52 152.807C138.593 151.326 139.777 149.845 139.777 147.476C139.777 145.107 138.593 143.923 136.52 142.146C136.223 141.85 135.927 141.554 135.631 141.554C132.966 139.481 130.005 137.408 130.005 132.669C130.005 128.227 132.966 125.858 135.631 123.785C135.927 123.489 136.223 123.193 136.52 123.193C138.593 121.712 139.777 120.232 139.777 117.863C139.777 115.494 138.593 114.309 136.52 112.532C136.223 112.236 135.927 111.94 135.631 111.644C132.966 109.571 130.005 107.498 130.005 102.76H116.382C116.382 105.425 118.159 106.906 120.824 108.682C123.49 110.755 126.451 112.828 126.451 117.567C126.451 122.009 123.49 124.378 120.824 126.451C118.159 128.524 116.382 129.708 116.382 132.373C116.382 135.039 118.159 136.519 120.824 138.296C123.49 140.369 126.451 142.442 126.451 147.18C126.451 150.142 125.266 151.918 123.786 153.399C122.897 154.288 121.713 155.176 120.824 155.768C118.159 157.841 116.382 159.026 116.382 161.691C116.382 164.356 118.159 165.837 120.824 167.614C123.49 169.687 126.451 171.76 126.451 176.498C126.451 180.94 123.49 183.309 120.824 185.382C118.159 187.455 116.382 188.639 116.382 191.305C116.382 193.97 118.159 195.451 120.824 197.227C122.305 198.412 124.082 199.597 125.266 201.373C124.082 201.669 122.897 201.966 121.417 202.262C120.824 201.669 119.936 200.781 118.751 200.189C116.086 198.116 113.125 196.043 113.125 191.305C113.125 186.863 116.086 184.494 118.751 182.421C121.417 180.348 123.193 179.163 123.193 176.498C123.193 173.833 121.417 172.352 118.751 170.575C116.086 168.502 113.125 166.429 113.125 161.691C113.125 157.249 115.79 155.176 118.455 153.103L118.751 152.807C121.417 150.734 123.193 149.549 123.193 146.884C123.193 144.219 121.417 142.738 118.751 140.961C116.086 138.888 113.125 136.815 113.125 132.077C113.125 127.635 116.086 125.266 118.751 123.193C121.417 121.12 123.193 119.936 123.193 117.27C123.193 114.605 121.417 113.124 118.751 111.348C116.086 109.275 113.125 107.202 113.125 102.464H99.5024C100.095 105.721 101.279 107.202 103.352 108.682Z" fill="white"/>
<path d="M69.5923 199.301C70.1846 199.597 70.7768 199.597 71.3691 199.893C70.7768 199.597 70.1846 199.301 69.5923 199.301Z" fill="white"/>
<path d="M47.0857 188.047C47.9741 188.639 48.8625 189.232 50.0471 189.824C49.1587 189.232 48.2702 188.639 47.0857 188.047Z" fill="white"/>
<path d="M137.408 199.301C137.112 199.301 136.816 199.597 136.52 199.597C136.816 199.301 137.112 199.301 137.408 199.301Z" fill="white"/>
<path d="M147.772 194.859C148.364 194.562 148.957 194.266 149.549 193.97C149.253 194.266 148.364 194.562 147.772 194.859Z" fill="white"/>
<path d="M190.712 155.472C191.008 155.176 191.304 154.584 191.304 154.287C191.008 154.584 191.008 155.176 190.712 155.472Z" fill="white"/>
<path d="M204.927 103.648C204.927 159.618 159.618 205.223 103.352 205.223C47.3818 204.927 2.07275 159.618 2.07275 103.648H204.927Z" stroke="white" stroke-width="1.3589" stroke-miterlimit="10"/>
<path d="M2.07275 103.648C2.07275 47.3819 47.3818 2.07288 103.352 2.07288C159.618 2.07288 204.927 47.3819 204.927 103.648H2.07275Z" stroke="white" stroke-width="1.3589" stroke-miterlimit="10"/>
<path d="M45.9011 25.7639H42.6436V29.0214H45.9011V25.7639Z" fill="white"/>
<path d="M59.5239 12.1417L62.7814 12.4378V10.3649C61.893 10.9571 60.7085 11.5494 59.5239 12.1417Z" fill="white"/>
<path d="M79.6608 25.7639H76.4033V29.0214H79.6608V25.7639Z" fill="white"/>
<path d="M96.5407 8.88416H93.2832V12.1417H96.5407V8.88416Z" fill="white"/>
<path d="M113.42 25.7639H110.163V29.0214H113.42V25.7639Z" fill="white"/>
<path d="M130.3 8.88416H127.042V12.1417H130.3V8.88416Z" fill="white"/>
<path d="M147.476 25.7639H144.219V29.0214H147.476V25.7639Z" fill="white"/>
<path d="M12.1416 62.7811V59.5236C11.5493 60.7081 11.2532 61.8927 10.6609 62.7811H12.1416Z" fill="white"/>
<path d="M29.0212 42.6439H25.7637V45.9014H29.0212V42.6439Z" fill="white"/>
<path d="M45.9011 59.5236H42.6436V62.7811H45.9011V59.5236Z" fill="white"/>
<path d="M62.7814 42.6439H59.5239V45.9014H62.7814V42.6439Z" fill="white"/>
<path d="M79.6608 59.5236H76.4033V62.7811H79.6608V59.5236Z" fill="white"/>
<path d="M96.5407 42.6439H93.2832V45.9014H96.5407V42.6439Z" fill="white"/>
<path d="M113.42 59.5236H110.163V62.7811H113.42V59.5236Z" fill="white"/>
<path d="M130.3 42.6439H127.042V45.9014H130.3V42.6439Z" fill="white"/>
<path d="M147.476 59.5236H144.219V62.7811H147.476V59.5236Z" fill="white"/>
<path d="M164.356 42.6439H161.098V45.9014H164.356V42.6439Z" fill="white"/>
<path d="M181.236 59.5236H177.979V62.7811H181.236V59.5236Z" fill="white"/>
<path d="M12.1415 93.2832H8.88403V96.5407H12.1415V93.2832Z" fill="white"/>
<path d="M29.0212 76.4036H25.7637V79.6611H29.0212V76.4036Z" fill="white"/>
<path d="M45.9011 93.2832H42.6436V96.5407H45.9011V93.2832Z" fill="white"/>
<path d="M62.7814 76.4036H59.5239V79.6611H62.7814V76.4036Z" fill="white"/>
<path d="M79.6608 93.2832H76.4033V96.5407H79.6608V93.2832Z" fill="white"/>
<path d="M96.5407 76.4036H93.2832V79.6611H96.5407V76.4036Z" fill="white"/>
<path d="M113.42 93.2832H110.163V96.5407H113.42V93.2832Z" fill="white"/>
<path d="M130.3 76.4036H127.042V79.6611H130.3V76.4036Z" fill="white"/>
<path d="M147.476 93.2832H144.219V96.5407H147.476V93.2832Z" fill="white"/>
<path d="M164.356 76.4036H161.098V79.6611H164.356V76.4036Z" fill="white"/>
<path d="M181.236 93.2832H177.979V96.5407H181.236V93.2832Z" fill="white"/>
<path d="M198.116 76.4036H194.858V79.6611H198.116V76.4036Z" fill="white"/>
</g>
<defs>
<clipPath id="clip0">
<rect width="207" height="207" fill="white"/>
</clipPath>
</defs>
</svg>
