<svg width="207" height="207" viewBox="0 0 207 207" fill="none" xmlns="http://www.w3.org/2000/svg">
<g clip-path="url(#clip0)">
<path d="M128.378 107.466C130.607 93.7316 121.28 80.7903 107.545 78.5612C93.8106 76.3322 80.8693 85.6594 78.6402 99.3942C76.4111 113.129 85.7384 126.07 99.4732 128.299C113.208 130.528 126.149 121.201 128.378 107.466Z" stroke="white" stroke-width="4" stroke-miterlimit="10"/>
<path d="M153.584 111.557C158.072 83.9018 139.291 57.8444 111.636 53.3561C83.9808 48.8678 57.9233 67.6484 53.4351 95.3036C48.9468 122.959 67.7273 149.016 95.3826 153.505C123.038 157.993 149.095 139.212 153.584 111.557Z" stroke="white" stroke-width="4" stroke-miterlimit="10"/>
<path d="M179.423 103.5C179.423 145.377 145.376 179.423 103.5 179.423C61.6232 179.423 27.5771 145.377 27.5771 103.5C27.5771 61.6233 61.6232 27.5773 103.5 27.5773C145.376 27.5773 179.423 61.6233 179.423 103.5Z" stroke="white" stroke-width="4" stroke-miterlimit="10"/>
<path d="M196.938 142.138C218.31 90.5421 193.809 31.3904 142.213 10.0184C90.6177 -11.3536 31.466 13.1473 10.094 64.7428C-11.278 116.338 13.223 175.49 64.8184 196.862C116.414 218.234 175.566 193.733 196.938 142.138Z" stroke="white" stroke-width="4" stroke-miterlimit="10"/>
</g>
<defs>
<clipPath id="clip0">
<rect width="207" height="207" fill="white"/>
</clipPath>
</defs>
</svg>
