<svg width="305" height="305" viewBox="0 0 305 305" fill="none" xmlns="http://www.w3.org/2000/svg">
<path d="M237.951 15.1359C237.951 16.5922 238.922 17.5631 240.379 17.5631C241.835 17.5631 242.806 16.5922 242.806 15.1359C242.806 13.6796 241.835 12.7087 240.379 12.7087C239.408 12.7087 237.951 14.1651 237.951 15.1359Z" fill="white"/>
<path d="M213.194 40.3786C213.194 41.8349 214.165 42.8058 215.621 42.8058C217.078 42.8058 218.048 41.8349 218.048 40.3786C218.048 38.9223 217.078 37.9514 215.621 37.9514C214.165 37.9514 213.194 38.9223 213.194 40.3786Z" fill="white"/>
<path d="M237.951 40.3786C237.951 41.8349 238.922 42.8058 240.379 42.8058C241.835 42.8058 242.806 41.8349 242.806 40.3786C242.806 38.9223 241.835 37.9514 240.379 37.9514C239.408 37.9514 237.951 38.9223 237.951 40.3786Z" fill="white"/>
<path d="M187.951 65.6213C187.951 67.0776 188.922 68.0485 190.379 68.0485C191.835 68.0485 192.806 67.0776 192.806 65.6213C192.806 64.165 191.835 63.1941 190.379 63.1941C188.922 62.7087 187.951 64.165 187.951 65.6213Z" fill="white"/>
<path d="M213.194 65.6213C213.194 67.0776 214.165 68.0485 215.621 68.0485C217.078 68.0485 218.048 67.0776 218.048 65.6213C218.048 64.165 217.078 63.1941 215.621 63.1941C214.165 63.1941 213.194 64.165 213.194 65.6213Z" fill="white"/>
<path d="M237.951 65.6213C237.951 67.0776 238.922 68.0485 240.379 68.0485C241.835 68.0485 242.806 67.0776 242.806 65.6213C242.806 64.165 241.835 63.1941 240.379 63.1941C239.408 62.7087 237.951 64.165 237.951 65.6213Z" fill="white"/>
<path d="M163.194 90.3786C163.194 91.8349 164.165 92.8058 165.621 92.8058C167.078 92.8058 168.048 91.8349 168.048 90.3786C168.048 88.9223 167.078 87.9514 165.621 87.9514C164.165 87.9514 163.194 88.9223 163.194 90.3786Z" fill="white"/>
<path d="M187.951 90.3786C187.951 91.8349 188.922 92.8058 190.379 92.8058C191.835 92.8058 192.806 91.8349 192.806 90.3786C192.806 88.9223 191.835 87.9514 190.379 87.9514C188.922 87.9514 187.951 88.9223 187.951 90.3786Z" fill="white"/>
<path d="M213.194 90.3786C213.194 91.8349 214.165 92.8058 215.621 92.8058C217.078 92.8058 218.048 91.8349 218.048 90.3786C218.048 88.9223 217.078 87.9514 215.621 87.9514C214.165 87.9514 213.194 88.9223 213.194 90.3786Z" fill="white"/>
<path d="M237.951 90.3786C237.951 91.8349 238.922 92.8058 240.379 92.8058C241.835 92.8058 242.806 91.8349 242.806 90.3786C242.806 88.9223 241.835 87.9514 240.379 87.9514C239.408 87.9514 237.951 88.9223 237.951 90.3786Z" fill="white"/>
<path d="M137.951 115.622C137.951 117.078 138.922 118.049 140.379 118.049C141.835 118.049 142.806 117.078 142.806 115.622C142.806 114.165 141.835 113.194 140.379 113.194C138.922 112.709 137.951 114.165 137.951 115.622Z" fill="white"/>
<path d="M163.194 115.622C163.194 117.078 164.165 118.049 165.621 118.049C167.078 118.049 168.048 117.078 168.048 115.622C168.048 114.165 167.078 113.194 165.621 113.194C164.165 113.194 163.194 114.165 163.194 115.622Z" fill="white"/>
<path d="M187.951 115.622C187.951 117.078 188.922 118.049 190.379 118.049C191.835 118.049 192.806 117.078 192.806 115.622C192.806 114.165 191.835 113.194 190.379 113.194C188.922 112.709 187.951 114.165 187.951 115.622Z" fill="white"/>
<path d="M213.194 115.622C213.194 117.078 214.165 118.049 215.621 118.049C217.078 118.049 218.048 117.078 218.048 115.622C218.048 114.165 217.078 113.194 215.621 113.194C214.165 113.194 213.194 114.165 213.194 115.622Z" fill="white"/>
<path d="M237.951 115.622C237.951 117.078 238.922 118.049 240.379 118.049C241.835 118.049 242.806 117.078 242.806 115.622C242.806 114.165 241.835 113.194 240.379 113.194C239.408 112.709 237.951 114.165 237.951 115.622Z" fill="white"/>
<path d="M112.709 140.379C112.709 141.835 113.68 142.806 115.136 142.806C116.592 142.806 117.563 141.835 117.563 140.379C117.563 138.922 116.592 137.951 115.136 137.951C113.68 137.951 112.709 138.922 112.709 140.379Z" fill="white"/>
<path d="M137.951 140.379C137.951 141.835 138.922 142.806 140.379 142.806C141.835 142.806 142.806 141.835 142.806 140.379C142.806 138.922 141.835 137.951 140.379 137.951C138.922 137.951 137.951 138.922 137.951 140.379Z" fill="white"/>
<path d="M163.194 140.379C163.194 141.835 164.165 142.806 165.621 142.806C167.078 142.806 168.048 141.835 168.048 140.379C168.048 138.922 167.078 137.951 165.621 137.951C164.165 137.951 163.194 138.922 163.194 140.379Z" fill="white"/>
<path d="M187.951 140.379C187.951 141.835 188.922 142.806 190.379 142.806C191.835 142.806 192.806 141.835 192.806 140.379C192.806 138.922 191.835 137.951 190.379 137.951C188.922 137.951 187.951 138.922 187.951 140.379Z" fill="white"/>
<path d="M213.194 140.379C213.194 141.835 214.165 142.806 215.621 142.806C217.078 142.806 218.048 141.835 218.048 140.379C218.048 138.922 217.078 137.951 215.621 137.951C214.165 137.951 213.194 138.922 213.194 140.379Z" fill="white"/>
<path d="M237.951 140.379C237.951 141.835 238.922 142.806 240.379 142.806C241.835 142.806 242.806 141.835 242.806 140.379C242.806 138.922 241.835 137.951 240.379 137.951C239.408 137.951 237.951 138.922 237.951 140.379Z" fill="white"/>
<path d="M87.9514 165.621C87.9514 167.078 88.9223 168.048 90.3786 168.048C91.8349 168.048 92.8058 167.078 92.8058 165.621C92.8058 164.165 91.8349 163.194 90.3786 163.194C88.9223 163.194 87.9514 164.165 87.9514 165.621Z" fill="white"/>
<path d="M112.709 165.621C112.709 167.078 113.68 168.048 115.136 168.048C116.592 168.048 117.563 167.078 117.563 165.621C117.563 164.165 116.592 163.194 115.136 163.194C113.68 163.194 112.709 164.165 112.709 165.621Z" fill="white"/>
<path d="M137.951 165.621C137.951 167.078 138.922 168.048 140.379 168.048C141.835 168.048 142.806 167.078 142.806 165.621C142.806 164.165 141.835 163.194 140.379 163.194C138.922 163.194 137.951 164.165 137.951 165.621Z" fill="white"/>
<path d="M163.194 165.621C163.194 167.078 164.165 168.048 165.621 168.048C167.078 168.048 168.048 167.078 168.048 165.621C168.048 164.165 167.078 163.194 165.621 163.194C164.165 163.194 163.194 164.165 163.194 165.621Z" fill="white"/>
<path d="M187.951 165.621C187.951 167.078 188.922 168.048 190.379 168.048C191.835 168.048 192.806 167.078 192.806 165.621C192.806 164.165 191.835 163.194 190.379 163.194C188.922 163.194 187.951 164.165 187.951 165.621Z" fill="white"/>
<path d="M213.194 165.621C213.194 167.078 214.165 168.048 215.621 168.048C217.078 168.048 218.048 167.078 218.048 165.621C218.048 164.165 217.078 163.194 215.621 163.194C214.165 163.194 213.194 164.165 213.194 165.621Z" fill="white"/>
<path d="M237.951 165.621C237.951 167.078 238.922 168.048 240.379 168.048C241.835 168.048 242.806 167.078 242.806 165.621C242.806 164.165 241.835 163.194 240.379 163.194C239.408 163.194 237.951 164.165 237.951 165.621Z" fill="white"/>
<path d="M62.7087 190.379C62.7087 191.835 63.6796 192.806 65.1359 192.806C66.5922 192.806 67.5631 191.835 67.5631 190.379C67.5631 188.922 66.5922 187.951 65.1359 187.951C64.1651 187.951 62.7087 188.922 62.7087 190.379Z" fill="white"/>
<path d="M87.9514 190.379C87.9514 191.835 88.9223 192.806 90.3786 192.806C91.8349 192.806 92.8058 191.835 92.8058 190.379C92.8058 188.922 91.8349 187.951 90.3786 187.951C88.9223 187.951 87.9514 188.922 87.9514 190.379Z" fill="white"/>
<path d="M112.709 190.379C112.709 191.835 113.68 192.806 115.136 192.806C116.592 192.806 117.563 191.835 117.563 190.379C117.563 188.922 116.592 187.951 115.136 187.951C113.68 187.951 112.709 188.922 112.709 190.379Z" fill="white"/>
<path d="M137.951 190.379C137.951 191.835 138.922 192.806 140.379 192.806C141.835 192.806 142.806 191.835 142.806 190.379C142.806 188.922 141.835 187.951 140.379 187.951C138.922 187.951 137.951 188.922 137.951 190.379Z" fill="white"/>
<path d="M163.194 190.379C163.194 191.835 164.165 192.806 165.621 192.806C167.078 192.806 168.048 191.835 168.048 190.379C168.048 188.922 167.078 187.951 165.621 187.951C164.165 187.951 163.194 188.922 163.194 190.379Z" fill="white"/>
<path d="M187.951 190.379C187.951 191.835 188.922 192.806 190.379 192.806C191.835 192.806 192.806 191.835 192.806 190.379C192.806 188.922 191.835 187.951 190.379 187.951C188.922 187.951 187.951 188.922 187.951 190.379Z" fill="white"/>
<path d="M213.194 190.379C213.194 191.835 214.165 192.806 215.621 192.806C217.078 192.806 218.048 191.835 218.048 190.379C218.048 188.922 217.078 187.951 215.621 187.951C214.165 187.951 213.194 188.922 213.194 190.379Z" fill="white"/>
<path d="M237.951 190.379C237.951 191.835 238.922 192.806 240.379 192.806C241.835 192.806 242.806 191.835 242.806 190.379C242.806 188.922 241.835 187.951 240.379 187.951C239.408 187.951 237.951 188.922 237.951 190.379Z" fill="white"/>
<path d="M37.9514 215.621C37.9514 217.078 38.9223 218.048 40.3786 218.048C41.8349 218.048 42.8058 217.078 42.8058 215.621C42.8058 214.165 41.8349 213.194 40.3786 213.194C38.9223 213.194 37.9514 214.165 37.9514 215.621Z" fill="white"/>
<path d="M62.7087 215.621C62.7087 217.078 63.6796 218.048 65.1359 218.048C66.5922 218.048 67.5631 217.078 67.5631 215.621C67.5631 214.165 66.5922 213.194 65.1359 213.194C64.1651 213.194 62.7087 214.165 62.7087 215.621Z" fill="white"/>
<path d="M87.9514 215.621C87.9514 217.078 88.9223 218.048 90.3786 218.048C91.8349 218.048 92.8058 217.078 92.8058 215.621C92.8058 214.165 91.8349 213.194 90.3786 213.194C88.9223 213.194 87.9514 214.165 87.9514 215.621Z" fill="white"/>
<path d="M112.709 215.621C112.709 217.078 113.68 218.048 115.136 218.048C116.592 218.048 117.563 217.078 117.563 215.621C117.563 214.165 116.592 213.194 115.136 213.194C113.68 213.194 112.709 214.165 112.709 215.621Z" fill="white"/>
<path d="M137.951 215.621C137.951 217.078 138.922 218.048 140.379 218.048C141.835 218.048 142.806 217.078 142.806 215.621C142.806 214.165 141.835 213.194 140.379 213.194C138.922 213.194 137.951 214.165 137.951 215.621Z" fill="white"/>
<path d="M163.194 215.621C163.194 217.078 164.165 218.048 165.621 218.048C167.078 218.048 168.048 217.078 168.048 215.621C168.048 214.165 167.078 213.194 165.621 213.194C164.165 213.194 163.194 214.165 163.194 215.621Z" fill="white"/>
<path d="M187.951 215.621C187.951 217.078 188.922 218.048 190.379 218.048C191.835 218.048 192.806 217.078 192.806 215.621C192.806 214.165 191.835 213.194 190.379 213.194C188.922 213.194 187.951 214.165 187.951 215.621Z" fill="white"/>
<path d="M213.194 215.621C213.194 217.078 214.165 218.048 215.621 218.048C217.078 218.048 218.048 217.078 218.048 215.621C218.048 214.165 217.078 213.194 215.621 213.194C214.165 213.194 213.194 214.165 213.194 215.621Z" fill="white"/>
<path d="M237.951 215.621C237.951 217.078 238.922 218.048 240.379 218.048C241.835 218.048 242.806 217.078 242.806 215.621C242.806 214.165 241.835 213.194 240.379 213.194C239.408 213.194 237.951 214.165 237.951 215.621Z" fill="white"/>
<path d="M12.7087 240.379C12.7087 241.835 13.6796 242.806 15.1359 242.806C16.5922 242.806 17.5631 241.835 17.5631 240.379C17.5631 238.922 16.5922 237.951 15.1359 237.951C13.6796 237.951 12.7087 239.408 12.7087 240.379Z" fill="white"/>
<path d="M37.9514 240.379C37.9514 241.835 38.9223 242.806 40.3786 242.806C41.8349 242.806 42.8058 241.835 42.8058 240.379C42.8058 238.922 41.8349 237.951 40.3786 237.951C38.9223 237.951 37.9514 239.408 37.9514 240.379Z" fill="white"/>
<path d="M62.7087 240.379C62.7087 241.835 63.6796 242.806 65.1359 242.806C66.5922 242.806 67.5631 241.835 67.5631 240.379C67.5631 238.922 66.5922 237.951 65.1359 237.951C64.1651 237.951 62.7087 239.408 62.7087 240.379Z" fill="white"/>
<path d="M87.9514 240.379C87.9514 241.835 88.9223 242.806 90.3786 242.806C91.8349 242.806 92.8058 241.835 92.8058 240.379C92.8058 238.922 91.8349 237.951 90.3786 237.951C88.9223 237.951 87.9514 239.408 87.9514 240.379Z" fill="white"/>
<path d="M112.709 240.379C112.709 241.835 113.68 242.806 115.136 242.806C116.592 242.806 117.563 241.835 117.563 240.379C117.563 238.922 116.592 237.951 115.136 237.951C113.68 237.951 112.709 239.408 112.709 240.379Z" fill="white"/>
<path d="M137.951 240.379C137.951 241.835 138.922 242.806 140.379 242.806C141.835 242.806 142.806 241.835 142.806 240.379C142.806 238.922 141.835 237.951 140.379 237.951C138.922 237.951 137.951 239.408 137.951 240.379Z" fill="white"/>
<path d="M163.194 240.379C163.194 241.835 164.165 242.806 165.621 242.806C167.078 242.806 168.048 241.835 168.048 240.379C168.048 238.922 167.078 237.951 165.621 237.951C164.165 237.951 163.194 239.408 163.194 240.379Z" fill="white"/>
<path d="M187.951 240.379C187.951 241.835 188.922 242.806 190.379 242.806C191.835 242.806 192.806 241.835 192.806 240.379C192.806 238.922 191.835 237.951 190.379 237.951C188.922 237.951 187.951 239.408 187.951 240.379Z" fill="white"/>
<path d="M213.194 240.379C213.194 241.835 214.165 242.806 215.621 242.806C217.078 242.806 218.048 241.835 218.048 240.379C218.048 238.922 217.078 237.951 215.621 237.951C214.165 237.951 213.194 239.408 213.194 240.379Z" fill="white"/>
<path d="M237.951 240.379C237.951 241.835 238.922 242.806 240.379 242.806C241.835 242.806 242.806 241.835 242.806 240.379C242.806 238.922 241.835 237.951 240.379 237.951C239.408 237.951 237.951 239.408 237.951 240.379Z" fill="white"/>
<path d="M3 243.291H243.291V3" stroke="white" stroke-width="4" stroke-miterlimit="10"/>
<path d="M62.7087 303L3 243.291L243.291 3L303 62.7087V303H62.7087Z" stroke="white" stroke-width="4" stroke-miterlimit="10"/>
<path d="M243.291 243.291L303 303" stroke="white" stroke-width="4" stroke-miterlimit="10"/>
</svg>
