<svg width="442" height="560" viewBox="0 0 442 560" fill="none" xmlns="http://www.w3.org/2000/svg">
<path d="M319.66 25.4515C319.66 28.1456 321.456 29.9418 324.15 29.9418C326.845 29.9418 328.641 28.1456 328.641 25.4515C328.641 22.7573 326.845 20.9612 324.15 20.9612C322.354 20.9612 319.66 23.6554 319.66 25.4515Z" fill="white"/>
<path d="M273.859 72.1505C273.859 74.8446 275.655 76.6408 278.349 76.6408C281.044 76.6408 282.84 74.8446 282.84 72.1505C282.84 69.4563 281.044 67.6602 278.349 67.6602C275.655 67.6602 273.859 69.4563 273.859 72.1505Z" fill="white"/>
<path d="M319.66 72.1505C319.66 74.8446 321.456 76.6408 324.15 76.6408C326.845 76.6408 328.641 74.8446 328.641 72.1505C328.641 69.4563 326.845 67.6602 324.15 67.6602C322.354 67.6602 319.66 69.4563 319.66 72.1505Z" fill="white"/>
<path d="M227.16 118.849C227.16 121.543 228.956 123.34 231.65 123.34C234.345 123.34 236.141 121.543 236.141 118.849C236.141 116.155 234.345 114.359 231.65 114.359C228.956 113.461 227.16 116.155 227.16 118.849Z" fill="white"/>
<path d="M273.859 118.849C273.859 121.544 275.655 123.34 278.349 123.34C281.044 123.34 282.84 121.544 282.84 118.849C282.84 116.155 281.044 114.359 278.349 114.359C275.655 114.359 273.859 116.155 273.859 118.849Z" fill="white"/>
<path d="M319.66 118.849C319.66 121.543 321.456 123.34 324.15 123.34C326.845 123.34 328.641 121.543 328.641 118.849C328.641 116.155 326.845 114.359 324.15 114.359C322.354 113.461 319.66 116.155 319.66 118.849Z" fill="white"/>
<path d="M181.359 164.65C181.359 167.345 183.155 169.141 185.85 169.141C188.544 169.141 190.34 167.345 190.34 164.65C190.34 161.956 188.544 160.16 185.85 160.16C183.155 160.16 181.359 161.956 181.359 164.65Z" fill="white"/>
<path d="M227.16 164.65C227.16 167.345 228.956 169.141 231.65 169.141C234.345 169.141 236.141 167.345 236.141 164.65C236.141 161.956 234.345 160.16 231.65 160.16C228.956 160.16 227.16 161.956 227.16 164.65Z" fill="white"/>
<path d="M273.859 164.65C273.859 167.345 275.655 169.141 278.349 169.141C281.044 169.141 282.84 167.345 282.84 164.65C282.84 161.956 281.044 160.16 278.349 160.16C275.655 160.16 273.859 161.956 273.859 164.65Z" fill="white"/>
<path d="M319.66 164.65C319.66 167.345 321.456 169.141 324.15 169.141C326.845 169.141 328.641 167.345 328.641 164.65C328.641 161.956 326.845 160.16 324.15 160.16C322.354 160.16 319.66 161.956 319.66 164.65Z" fill="white"/>
<path d="M134.66 211.35C134.66 214.044 136.456 215.84 139.151 215.84C141.845 215.84 143.641 214.044 143.641 211.35C143.641 208.656 141.845 206.86 139.151 206.86C136.456 205.961 134.66 208.656 134.66 211.35Z" fill="white"/>
<path d="M181.359 211.35C181.359 214.044 183.155 215.84 185.85 215.84C188.544 215.84 190.34 214.044 190.34 211.35C190.34 208.655 188.544 206.859 185.85 206.859C183.155 206.859 181.359 208.655 181.359 211.35Z" fill="white"/>
<path d="M227.16 211.35C227.16 214.044 228.956 215.84 231.65 215.84C234.345 215.84 236.141 214.044 236.141 211.35C236.141 208.656 234.345 206.86 231.65 206.86C228.956 205.961 227.16 208.656 227.16 211.35Z" fill="white"/>
<path d="M273.859 211.35C273.859 214.044 275.655 215.84 278.349 215.84C281.044 215.84 282.84 214.044 282.84 211.35C282.84 208.655 281.044 206.859 278.349 206.859C275.655 206.859 273.859 208.655 273.859 211.35Z" fill="white"/>
<path d="M319.66 211.35C319.66 214.044 321.456 215.84 324.15 215.84C326.845 215.84 328.641 214.044 328.641 211.35C328.641 208.656 326.845 206.86 324.15 206.86C322.354 205.961 319.66 208.656 319.66 211.35Z" fill="white"/>
<path d="M87.9612 257.15C87.9612 259.845 89.7574 261.641 92.4515 261.641C95.1457 261.641 96.9418 259.845 96.9418 257.15C96.9418 254.456 95.1457 252.66 92.4515 252.66C89.7574 252.66 87.9612 254.456 87.9612 257.15Z" fill="white"/>
<path d="M134.66 257.15C134.66 259.845 136.456 261.641 139.151 261.641C141.845 261.641 143.641 259.845 143.641 257.15C143.641 254.456 141.845 252.66 139.151 252.66C136.456 252.66 134.66 254.456 134.66 257.15Z" fill="white"/>
<path d="M181.359 257.15C181.359 259.845 183.155 261.641 185.85 261.641C188.544 261.641 190.34 259.845 190.34 257.15C190.34 254.456 188.544 252.66 185.85 252.66C183.155 252.66 181.359 254.456 181.359 257.15Z" fill="white"/>
<path d="M227.16 257.15C227.16 259.845 228.956 261.641 231.65 261.641C234.345 261.641 236.141 259.845 236.141 257.15C236.141 254.456 234.345 252.66 231.65 252.66C228.956 252.66 227.16 254.456 227.16 257.15Z" fill="white"/>
<path d="M273.859 257.15C273.859 259.845 275.655 261.641 278.349 261.641C281.044 261.641 282.84 259.845 282.84 257.15C282.84 254.456 281.044 252.66 278.349 252.66C275.655 252.66 273.859 254.456 273.859 257.15Z" fill="white"/>
<path d="M319.66 257.15C319.66 259.845 321.456 261.641 324.15 261.641C326.845 261.641 328.641 259.845 328.641 257.15C328.641 254.456 326.845 252.66 324.15 252.66C322.354 252.66 319.66 254.456 319.66 257.15Z" fill="white"/>
<path d="M42.16 303.849C42.16 306.544 43.9561 308.34 46.6503 308.34C49.3444 308.34 51.1405 306.544 51.1405 303.849C51.1405 301.155 49.3444 299.359 46.6503 299.359C43.9561 299.359 42.16 301.155 42.16 303.849Z" fill="white"/>
<path d="M87.9612 303.849C87.9612 306.544 89.7574 308.34 92.4515 308.34C95.1457 308.34 96.9418 306.544 96.9418 303.849C96.9418 301.155 95.1457 299.359 92.4515 299.359C89.7574 299.359 87.9612 301.155 87.9612 303.849Z" fill="white"/>
<path d="M134.66 303.849C134.66 306.544 136.456 308.34 139.151 308.34C141.845 308.34 143.641 306.544 143.641 303.849C143.641 301.155 141.845 299.359 139.151 299.359C136.456 299.359 134.66 301.155 134.66 303.849Z" fill="white"/>
<path d="M181.359 303.849C181.359 306.544 183.155 308.34 185.85 308.34C188.544 308.34 190.34 306.544 190.34 303.849C190.34 301.155 188.544 299.359 185.85 299.359C183.155 299.359 181.359 301.155 181.359 303.849Z" fill="white"/>
<path d="M227.16 303.849C227.16 306.544 228.956 308.34 231.65 308.34C234.345 308.34 236.141 306.544 236.141 303.849C236.141 301.155 234.345 299.359 231.65 299.359C228.956 299.359 227.16 301.155 227.16 303.849Z" fill="white"/>
<path d="M273.859 303.849C273.859 306.544 275.655 308.34 278.349 308.34C281.044 308.34 282.84 306.544 282.84 303.849C282.84 301.155 281.044 299.359 278.349 299.359C275.655 299.359 273.859 301.155 273.859 303.849Z" fill="white"/>
<path d="M319.66 303.849C319.66 306.544 321.456 308.34 324.15 308.34C326.845 308.34 328.641 306.544 328.641 303.849C328.641 301.155 326.845 299.359 324.15 299.359C322.354 299.359 319.66 301.155 319.66 303.849Z" fill="white"/>
<path d="M-4.539 349.65C-4.539 352.345 -2.74288 354.141 -0.0487099 354.141C2.64547 354.141 4.44158 352.345 4.44158 349.65C4.44158 346.956 2.64547 345.16 -0.0487099 345.16C-1.84483 345.16 -4.539 346.956 -4.539 349.65Z" fill="white"/>
<path d="M42.16 349.65C42.16 352.345 43.9561 354.141 46.6503 354.141C49.3444 354.141 51.1405 352.345 51.1405 349.65C51.1405 346.956 49.3444 345.16 46.6503 345.16C43.9561 345.16 42.16 346.956 42.16 349.65Z" fill="white"/>
<path d="M87.9612 349.65C87.9612 352.345 89.7574 354.141 92.4515 354.141C95.1457 354.141 96.9418 352.345 96.9418 349.65C96.9418 346.956 95.1457 345.16 92.4515 345.16C89.7574 345.16 87.9612 346.956 87.9612 349.65Z" fill="white"/>
<path d="M134.66 349.65C134.66 352.345 136.456 354.141 139.151 354.141C141.845 354.141 143.641 352.345 143.641 349.65C143.641 346.956 141.845 345.16 139.151 345.16C136.456 345.16 134.66 346.956 134.66 349.65Z" fill="white"/>
<path d="M181.359 349.65C181.359 352.345 183.155 354.141 185.85 354.141C188.544 354.141 190.34 352.345 190.34 349.65C190.34 346.956 188.544 345.16 185.85 345.16C183.155 345.16 181.359 346.956 181.359 349.65Z" fill="white"/>
<path d="M227.16 349.65C227.16 352.345 228.956 354.141 231.65 354.141C234.345 354.141 236.141 352.345 236.141 349.65C236.141 346.956 234.345 345.16 231.65 345.16C228.956 345.16 227.16 346.956 227.16 349.65Z" fill="white"/>
<path d="M273.859 349.65C273.859 352.345 275.655 354.141 278.349 354.141C281.044 354.141 282.84 352.345 282.84 349.65C282.84 346.956 281.044 345.16 278.349 345.16C275.655 345.16 273.859 346.956 273.859 349.65Z" fill="white"/>
<path d="M319.66 349.65C319.66 352.345 321.456 354.141 324.15 354.141C326.845 354.141 328.641 352.345 328.641 349.65C328.641 346.956 326.845 345.16 324.15 345.16C322.354 345.16 319.66 346.956 319.66 349.65Z" fill="white"/>
<path d="M-4.539 396.349C-4.539 399.044 -2.74288 400.84 -0.0487099 400.84C2.64547 400.84 4.44158 399.044 4.44158 396.349C4.44158 393.655 2.64547 391.859 -0.0487099 391.859C-1.84483 391.859 -4.539 393.655 -4.539 396.349Z" fill="white"/>
<path d="M42.16 396.349C42.16 399.044 43.9561 400.84 46.6503 400.84C49.3444 400.84 51.1405 399.044 51.1405 396.349C51.1405 393.655 49.3444 391.859 46.6503 391.859C43.9561 391.859 42.16 393.655 42.16 396.349Z" fill="white"/>
<path d="M87.9612 396.349C87.9612 399.044 89.7574 400.84 92.4515 400.84C95.1457 400.84 96.9418 399.044 96.9418 396.349C96.9418 393.655 95.1457 391.859 92.4515 391.859C89.7574 391.859 87.9612 393.655 87.9612 396.349Z" fill="white"/>
<path d="M134.66 396.349C134.66 399.044 136.456 400.84 139.151 400.84C141.845 400.84 143.641 399.044 143.641 396.349C143.641 393.655 141.845 391.859 139.151 391.859C136.456 391.859 134.66 393.655 134.66 396.349Z" fill="white"/>
<path d="M181.359 396.349C181.359 399.044 183.155 400.84 185.85 400.84C188.544 400.84 190.34 399.044 190.34 396.349C190.34 393.655 188.544 391.859 185.85 391.859C183.155 391.859 181.359 393.655 181.359 396.349Z" fill="white"/>
<path d="M227.16 396.349C227.16 399.044 228.956 400.84 231.65 400.84C234.345 400.84 236.141 399.044 236.141 396.349C236.141 393.655 234.345 391.859 231.65 391.859C228.956 391.859 227.16 393.655 227.16 396.349Z" fill="white"/>
<path d="M273.859 396.349C273.859 399.044 275.655 400.84 278.349 400.84C281.044 400.84 282.84 399.044 282.84 396.349C282.84 393.655 281.044 391.859 278.349 391.859C275.655 391.859 273.859 393.655 273.859 396.349Z" fill="white"/>
<path d="M319.66 396.349C319.66 399.044 321.456 400.84 324.15 400.84C326.845 400.84 328.641 399.044 328.641 396.349C328.641 393.655 326.845 391.859 324.15 391.859C322.354 391.859 319.66 393.655 319.66 396.349Z" fill="white"/>
<path d="M-4.539 442.15C-4.539 444.845 -2.74288 446.641 -0.0487099 446.641C2.64547 446.641 4.44158 444.845 4.44158 442.15C4.44158 439.456 2.64547 437.66 -0.0487099 437.66C-1.84483 437.66 -4.539 440.354 -4.539 442.15Z" fill="white"/>
<path d="M42.16 442.15C42.16 444.845 43.9561 446.641 46.6503 446.641C49.3444 446.641 51.1405 444.845 51.1405 442.15C51.1405 439.456 49.3444 437.66 46.6503 437.66C43.9561 437.66 42.16 440.354 42.16 442.15Z" fill="white"/>
<path d="M87.9612 442.15C87.9612 444.845 89.7574 446.641 92.4515 446.641C95.1457 446.641 96.9418 444.845 96.9418 442.15C96.9418 439.456 95.1457 437.66 92.4515 437.66C89.7574 437.66 87.9612 440.354 87.9612 442.15Z" fill="white"/>
<path d="M134.66 442.15C134.66 444.845 136.456 446.641 139.151 446.641C141.845 446.641 143.641 444.845 143.641 442.15C143.641 439.456 141.845 437.66 139.151 437.66C136.456 437.66 134.66 440.354 134.66 442.15Z" fill="white"/>
<path d="M181.359 442.15C181.359 444.845 183.155 446.641 185.85 446.641C188.544 446.641 190.34 444.845 190.34 442.15C190.34 439.456 188.544 437.66 185.85 437.66C183.155 437.66 181.359 440.354 181.359 442.15Z" fill="white"/>
<path d="M227.16 442.15C227.16 444.845 228.956 446.641 231.65 446.641C234.345 446.641 236.141 444.845 236.141 442.15C236.141 439.456 234.345 437.66 231.65 437.66C228.956 437.66 227.16 440.354 227.16 442.15Z" fill="white"/>
<path d="M273.859 442.15C273.859 444.845 275.655 446.641 278.349 446.641C281.044 446.641 282.84 444.845 282.84 442.15C282.84 439.456 281.044 437.66 278.349 437.66C275.655 437.66 273.859 440.354 273.859 442.15Z" fill="white"/>
<path d="M319.66 442.15C319.66 444.845 321.456 446.641 324.15 446.641C326.845 446.641 328.641 444.845 328.641 442.15C328.641 439.456 326.845 437.66 324.15 437.66C322.354 437.66 319.66 440.354 319.66 442.15Z" fill="white"/>
<path d="M-115 447.539H329.539V3" stroke="white" stroke-width="4" stroke-miterlimit="10"/>
<path d="M-4.53884 558L-115 447.539L329.539 3L440 113.461V558H-4.53884Z" stroke="white" stroke-width="4" stroke-miterlimit="10"/>
<path d="M329.539 447.539L440 558" stroke="white" stroke-width="4" stroke-miterlimit="10"/>
</svg>
