<svg width="263" height="111" viewBox="0 0 263 111" fill="none" xmlns="http://www.w3.org/2000/svg">
<path d="M350 52.5076C331.373 52.5076 321.569 42.784 314.706 35.9774C308.824 30.1432 305.882 28.1985 300 28.1985C294.118 28.1985 291.176 30.1432 285.294 35.9774C278.431 42.784 268.627 52.5076 250 52.5076C231.373 52.5076 221.569 42.784 214.706 35.9774C208.824 30.1432 205.882 28.1985 200 28.1985C194.118 28.1985 191.176 30.1432 185.294 35.9774C178.431 42.7839 168.627 52.5076 150 52.5076C131.373 52.5076 121.569 42.7839 114.706 35.9774C108.824 30.1432 105.882 28.1985 100 28.1985C94.1176 28.1985 91.1765 30.1432 85.2941 35.9774C78.4314 42.7839 68.6274 52.5076 50 52.5076C31.3725 52.5076 21.5686 42.7839 14.7059 35.9774C8.82352 30.1432 5.88235 28.1985 -1.24277e-06 28.1985L0 -1.73414e-05C18.6274 -1.65338e-05 28.4314 9.72361 35.2941 16.5302C41.1765 22.3643 44.1176 24.3091 50 24.3091C55.8824 24.3091 58.8235 22.3643 64.7059 16.5302C71.5686 9.72361 81.3725 -1.38136e-05 100 -1.3006e-05C118.627 -1.21985e-05 128.431 9.72362 135.294 16.5302C141.176 22.3643 144.118 24.3091 150 24.3091C155.882 24.3091 158.824 22.3643 164.706 16.5302C171.569 9.72362 181.373 -9.47824e-06 200 -8.67068e-06C218.627 -7.86311e-06 228.431 9.72362 235.294 16.5302C241.176 22.3643 244.118 24.3091 250 24.3091C255.882 24.3091 258.824 22.3643 264.706 16.5302C271.569 9.72362 281.373 -5.1429e-06 300 -4.33534e-06C318.627 -3.52778e-06 328.431 9.72362 335.294 16.5302C341.176 22.3643 344.118 24.3091 350 24.3091C355.882 24.3091 358.824 22.3643 364.706 16.5302C371.569 9.72363 381.373 -8.07563e-07 400 0L400 28.1985C394.118 28.1985 391.176 30.1432 385.294 35.9774C378.431 43.7563 368.627 52.5076 350 52.5076Z" fill="#E5E515"/>
<path d="M350 110.849C331.373 110.849 321.569 101.126 314.706 94.3192C308.824 88.485 305.882 86.5403 300 86.5403C294.118 86.5403 291.176 88.485 285.294 94.3192C278.431 101.126 268.627 110.849 250 110.849C231.373 110.849 221.569 101.126 214.706 94.3192C208.824 88.485 205.882 86.5403 200 86.5403C194.118 86.5403 191.176 88.485 185.294 94.3192C178.431 101.126 168.627 110.849 150 110.849C131.373 110.849 121.569 101.126 114.706 94.3192C108.824 88.485 105.882 86.5403 100 86.5403C94.1176 86.5403 91.1765 88.485 85.2941 94.3192C78.4314 101.126 68.6274 110.849 50 110.849C31.3725 110.849 21.5686 101.126 14.7059 94.3192C8.82352 88.485 5.88235 86.5403 -1.24277e-06 86.5403L0 58.3418C18.6274 58.3418 28.4314 68.0654 35.2941 74.8719C41.1765 80.7061 44.1176 82.6508 50 82.6508C55.8824 82.6508 58.8235 80.7061 64.7059 74.8719C71.5686 67.093 81.3725 58.3418 100 58.3418C118.627 58.3418 128.431 68.0654 135.294 74.872C141.176 80.7061 144.118 82.6509 150 82.6509C155.882 82.6509 158.824 79.7338 164.706 73.8996C171.569 67.0931 181.373 58.3418 200 58.3418C218.627 58.3418 228.431 68.0654 235.294 74.872C241.176 80.7061 244.118 82.6509 250 82.6509C255.882 82.6509 258.824 80.7061 264.706 74.872C271.569 67.0931 281.373 58.3418 300 58.3418C318.627 58.3418 328.431 68.0654 335.294 74.872C341.176 79.7338 344.118 82.6509 350 82.6509C355.882 82.6509 358.824 80.7061 364.706 74.872C371.569 67.0931 381.373 58.3418 400 58.3418L400 86.5403C394.118 86.5403 391.176 88.485 385.294 94.3192C378.431 101.126 368.627 110.849 350 110.849Z" fill="#E5E515"/>
</svg>
