<svg width="436" height="221" viewBox="0 0 436 221" fill="none" xmlns="http://www.w3.org/2000/svg">
<path d="M11.3656 100.33C11.3656 100.33 11.0308 100.283 11.3656 100.33L9.0764 102.058C83.6895 200.875 224.309 220.5 323.126 145.887L321.397 143.598C223.772 217.012 84.8264 197.621 11.3656 100.33Z" fill="black"/>
<path d="M313.907 133.678L312.179 131.389C221.374 199.952 91.8033 181.869 23.2399 91.0644L20.9507 92.7929C90.3316 185.077 221.911 203.441 313.907 133.678Z" fill="black"/>
<path d="M35.4022 82.1806L33.113 83.9091C97.6433 169.373 219.513 186.381 304.977 121.851L303.248 119.561C218.976 182.893 98.7801 166.118 35.4022 82.1806Z" fill="black"/>
<path d="M295.758 109.642L294.03 107.352C216.579 165.833 105.757 150.367 47.2768 72.9153L44.9876 74.6438C104.62 153.621 217.116 169.321 295.758 109.642Z" fill="black"/>
<path d="M286.493 97.7673L284.764 95.4781C213.799 149.061 112.687 134.95 59.4389 64.0315L57.1497 65.76C111.597 137.87 214.383 152.215 286.493 97.7673Z" fill="black"/>
<path d="M277.609 85.6049L275.88 83.3157C211.783 131.713 120.046 118.911 71.6479 54.8129L69.3587 56.5414C118.574 122.118 211.985 135.155 277.609 85.6049Z" fill="black"/>
<path d="M268.344 73.7307L266.615 71.4415C209.004 114.942 126.976 103.494 83.4755 45.8824L81.1863 47.6109C125.551 106.367 209.587 118.095 268.344 73.7307Z" fill="black"/>
<path d="M259.46 61.5683L257.731 59.2791C206.987 97.5939 133.999 87.4077 95.6845 36.6637L93.3953 38.3922C132.528 90.6155 207.19 101.035 259.46 61.5683Z" fill="black"/>
<path d="M256.003 56.99L261.188 63.8576C314.603 23.5262 325.257 -52.8099 284.925 -106.225L281.491 -103.632L278.058 -101.039C315.508 -51.4398 305.602 19.5394 256.003 56.99Z" fill="black"/>
<path d="M256.003 56.9899L257.732 59.2791L259.46 61.5683L261.188 63.8575L256.003 56.9899Z" fill="black"/>
<path d="M266.615 71.4414L268.344 73.7306L270.072 76.0198L264.887 69.1522L266.615 71.4414Z" fill="black"/>
<path d="M296.753 -115.155L289.885 -109.97C332.521 -53.5028 321.307 26.851 264.887 69.1523L270.072 76.0199C330.354 30.503 342.316 -55.2077 296.753 -115.155Z" fill="black"/>
<path d="M275.881 83.3157L277.609 85.6049L279.338 87.8941L274.152 81.0265L275.881 83.3157Z" fill="black"/>
<path d="M308.962 -124.374L302.094 -119.188C349.628 -56.2353 337.105 33.4931 274.152 81.0265L279.338 87.8941C346.106 37.4799 359.376 -57.6055 308.962 -124.374Z" fill="black"/>
<path d="M320.836 -133.639L313.968 -128.454C366.399 -59.0146 352.522 40.4232 283.036 93.1888L288.221 100.056C361.857 44.4567 376.436 -60.0032 320.836 -133.639Z" fill="black"/>
<path d="M284.764 95.4781L286.493 97.7673L288.221 100.056L283.036 93.1889L284.764 95.4781Z" fill="black"/>
<path d="M294.03 107.352L295.758 109.642L297.487 111.931L292.301 105.063L294.03 107.352Z" fill="black"/>
<path d="M332.998 -142.523L326.131 -137.338C383.747 -61.0309 368.561 47.7816 292.254 105.398L297.44 112.265C377.562 51.7684 393.496 -62.401 332.998 -142.523Z" fill="black"/>
<path d="M303.248 119.561L304.642 121.804L306.371 124.093L301.52 117.272L303.248 119.561Z" fill="black"/>
<path d="M344.873 -151.788L338.005 -146.603C400.854 -63.7633 384.313 54.7585 301.52 117.272L306.37 124.093C393.313 58.7453 410.602 -65.1335 344.873 -151.788Z" fill="black"/>
<path d="M312.132 131.724L313.907 133.678L315.636 135.967L310.404 129.435L312.132 131.724Z" fill="black"/>
<path d="M357.035 -160.672L350.167 -155.487C417.866 -65.8262 400.064 61.7354 310.404 129.435L315.636 135.967C408.73 65.6755 427.327 -67.5779 357.035 -160.672Z" fill="black"/>
<path d="M319.669 141.309L321.398 143.598L323.126 145.887L324.854 148.176L319.669 141.309Z" fill="black"/>
<path d="M319.669 141.309L324.854 148.176C424.816 72.699 444.721 -69.929 369.244 -169.891L362.376 -164.705C434.973 -68.5588 415.815 68.7122 319.669 141.309Z" fill="black"/>
</svg>
