<svg width="337" height="218" viewBox="0 0 337 218" fill="none" xmlns="http://www.w3.org/2000/svg">
<path d="M31.1929 1.99059C31.1929 -0.61981 29.1046 -2.70813 26.4942 -2.70813C23.8837 -2.70813 21.7954 -0.61981 21.7954 1.99059C21.7954 4.601 23.8837 6.68933 26.4942 6.68933C29.1046 6.68933 31.1929 4.601 31.1929 1.99059Z" fill="#131313"/>
<path d="M69.3052 1.99037C69.3052 4.60078 71.3935 6.68911 74.0039 6.68911C76.6144 6.68911 78.7027 4.60078 78.7027 1.99037C78.7027 -0.620047 76.6144 -2.70837 74.0039 -2.70837C71.3935 -2.70837 69.3052 -0.620047 69.3052 1.99037Z" fill="#131313"/>
<path d="M116.292 1.99037C116.292 4.60078 118.381 6.68911 120.991 6.68911C123.602 6.68911 125.69 4.60078 125.69 1.99037C125.69 -0.620047 123.602 -2.70837 120.991 -2.70837C118.381 -2.70837 116.292 -0.620047 116.292 1.99037Z" fill="#131313"/>
<path d="M163.801 1.99037C163.801 4.60078 165.889 6.68911 168.5 6.68911C171.11 6.68911 173.198 4.60078 173.198 1.99037C173.198 -0.620047 171.11 -2.70837 168.5 -2.70837C165.889 -2.70837 163.801 -0.620047 163.801 1.99037Z" fill="#131313"/>
<path d="M210.789 1.99037C210.789 4.60078 212.877 6.68911 215.488 6.68911C218.098 6.68911 220.187 4.60078 220.187 1.99037C220.187 -0.620047 218.098 -2.70837 215.488 -2.70837C212.877 -2.70837 210.789 -0.620047 210.789 1.99037Z" fill="#131313"/>
<path d="M21.7954 49.4997C21.7954 52.1101 23.8837 54.1984 26.4942 54.1984C29.1046 54.1984 31.1929 52.1101 31.1929 49.4997C31.1929 46.8892 29.1046 44.8009 26.4942 44.8009C23.8837 44.8009 21.7954 46.8892 21.7954 49.4997Z" fill="#131313"/>
<path d="M69.3052 49.4997C69.3052 52.1101 71.3935 54.1984 74.0039 54.1984C76.6144 54.1984 78.7027 52.1101 78.7027 49.4997C78.7027 46.8892 76.6144 44.8009 74.0039 44.8009C71.3935 44.8009 69.3052 46.8892 69.3052 49.4997Z" fill="#131313"/>
<path d="M120.991 54.1984C123.586 54.1984 125.69 52.0947 125.69 49.4997C125.69 46.9046 123.586 44.8009 120.991 44.8009C118.396 44.8009 116.292 46.9046 116.292 49.4997C116.292 52.0947 118.396 54.1984 120.991 54.1984Z" fill="#131313"/>
<path d="M163.801 49.4997C163.801 52.1101 165.889 54.1984 168.5 54.1984C171.11 54.1984 173.198 52.1101 173.198 49.4997C173.198 46.8892 171.11 44.8009 168.5 44.8009C165.889 44.8009 163.801 46.8892 163.801 49.4997Z" fill="#131313"/>
<path d="M210.789 49.4997C210.789 52.1101 212.877 54.1984 215.488 54.1984C218.098 54.1984 220.187 52.1101 220.187 49.4997C220.187 46.8892 218.098 44.8009 215.488 44.8009C212.877 44.8009 210.789 46.8892 210.789 49.4997Z" fill="#131313"/>
<path d="M21.7954 96.4872C21.7954 99.0975 23.8837 101.186 26.4942 101.186C29.1046 101.186 31.1929 99.0975 31.1929 96.4872C31.1929 93.8768 29.1046 91.7885 26.4942 91.7885C23.8837 91.7885 21.7954 93.8768 21.7954 96.4872Z" fill="#131313"/>
<path d="M69.3052 96.4872C69.3052 99.0975 71.3935 101.186 74.0039 101.186C76.6144 101.186 78.7027 99.0975 78.7027 96.4872C78.7027 93.8768 76.6144 91.7885 74.0039 91.7885C71.3935 91.7885 69.3052 93.8768 69.3052 96.4872Z" fill="#131313"/>
<path d="M116.292 96.4872C116.292 99.0975 118.381 101.186 120.991 101.186C123.602 101.186 125.69 99.0975 125.69 96.4872C125.69 93.8768 123.602 91.7885 120.991 91.7885C118.381 91.7885 116.292 93.8768 116.292 96.4872Z" fill="#131313"/>
<path d="M163.801 96.4872C163.801 99.0975 165.889 101.186 168.5 101.186C171.11 101.186 173.198 99.0975 173.198 96.4872C173.198 93.8768 171.11 91.7885 168.5 91.7885C165.889 91.7885 163.801 93.8768 163.801 96.4872Z" fill="#131313"/>
<path d="M210.789 96.4872C210.789 99.0975 212.877 101.186 215.488 101.186C218.098 101.186 220.187 99.0975 220.187 96.4872C220.187 93.8768 218.098 91.7885 215.488 91.7885C212.877 91.7885 210.789 93.8768 210.789 96.4872Z" fill="#131313"/>
<path d="M21.7954 143.997C21.7954 146.607 23.8837 148.695 26.4942 148.695C29.1046 148.695 31.1929 146.607 31.1929 143.997C31.1929 141.386 29.1046 139.298 26.4942 139.298C23.8837 139.298 21.7954 141.386 21.7954 143.997Z" fill="#131313"/>
<path d="M69.3052 143.997C69.3052 146.607 71.3935 148.695 74.0039 148.695C76.6144 148.695 78.7027 146.607 78.7027 143.997C78.7027 141.386 76.6144 139.298 74.0039 139.298C71.3935 139.298 69.3052 141.386 69.3052 143.997Z" fill="#131313"/>
<path d="M116.292 143.997C116.292 146.607 118.381 148.695 120.991 148.695C123.602 148.695 125.69 146.607 125.69 143.997C125.69 141.386 123.602 139.298 120.991 139.298C118.381 139.298 116.292 141.386 116.292 143.997Z" fill="#131313"/>
<path d="M163.801 143.997C163.801 146.607 165.889 148.695 168.5 148.695C171.11 148.695 173.198 146.607 173.198 143.997C173.198 141.386 171.11 139.298 168.5 139.298C165.889 139.298 163.801 141.386 163.801 143.997Z" fill="#131313"/>
<path d="M210.789 143.997C210.789 146.607 212.877 148.695 215.488 148.695C218.098 148.695 220.187 146.607 220.187 143.997C220.187 141.386 218.098 139.298 215.488 139.298C212.877 139.298 210.789 141.386 210.789 143.997Z" fill="#131313"/>
<path d="M21.7954 191.506C21.7954 194.116 23.8837 196.205 26.4942 196.205C29.1046 196.205 31.1929 194.116 31.1929 191.506C31.1929 188.896 29.1046 186.807 26.4942 186.807C23.8837 186.807 21.7954 188.896 21.7954 191.506Z" fill="#131313"/>
<path d="M69.3052 191.506C69.3052 194.116 71.3935 196.205 74.0039 196.205C76.6144 196.205 78.7027 194.116 78.7027 191.506C78.7027 188.896 76.6144 186.807 74.0039 186.807C71.3935 186.807 69.3052 188.896 69.3052 191.506Z" fill="#131313"/>
<path d="M116.292 191.506C116.292 194.116 118.381 196.205 120.991 196.205C123.602 196.205 125.69 194.116 125.69 191.506C125.69 188.896 123.602 186.807 120.991 186.807C118.381 186.807 116.292 188.896 116.292 191.506Z" fill="#131313"/>
<path d="M163.801 191.506C163.801 194.116 165.889 196.205 168.5 196.205C171.11 196.205 173.198 194.116 173.198 191.506C173.198 188.896 171.11 186.807 168.5 186.807C165.889 186.807 163.801 188.896 163.801 191.506Z" fill="#131313"/>
<path d="M210.789 191.506C210.789 194.116 212.877 196.205 215.488 196.205C218.098 196.205 220.187 194.116 220.187 191.506C220.187 188.896 218.098 186.807 215.488 186.807C212.877 186.807 210.789 188.896 210.789 191.506Z" fill="#131313"/>
<path d="M295.367 -34.555L254.644 5.64525L248.379 12.4323L239.504 21.3077V34.8818L254.644 19.2194L261.431 12.4323L302.154 -28.2901L308.941 -34.555L334.001 -60.137V-73.1891L302.154 -41.3421L295.367 -34.555Z" fill="#131313"/>
<path d="M295.367 12.4323L254.644 53.1547L248.379 59.9418L239.504 68.8172V81.8692L254.644 66.7289L261.431 59.9418L302.154 19.2194L308.941 12.4323L334.001 -12.6276V-26.2018L302.154 5.64523L295.367 12.4323Z" fill="#131313"/>
<path d="M295.367 59.9415L254.644 100.142L248.379 106.929L239.504 115.804V129.378L254.644 113.716L261.431 106.929L302.154 66.7286L308.941 59.9415L334.001 34.8816V21.3075L302.154 53.1545L295.367 59.9415Z" fill="#131313"/>
<path d="M295.367 106.929L254.644 147.651L248.379 154.439L239.504 163.314V176.366L254.644 161.226L261.431 154.439L302.154 113.716L308.941 106.929L334.001 81.8691V68.817L302.154 100.142L295.367 106.929Z" fill="#131313"/>
<path d="M295.367 154.438L254.644 195.161L248.379 201.426L239.504 210.301V215L252.556 201.426L254.644 199.337L300.065 154.438L302.154 152.35L334.001 120.503V115.804L302.154 147.651L295.367 154.438Z" fill="#131313"/>
<path d="M3 -21.5032H239.503V215" stroke="#131313" stroke-width="5" stroke-miterlimit="10"/>
<path d="M334 -116V120.503L239.503 215H3V-21.5032L97.4968 -116H334Z" stroke="#131313" stroke-width="5" stroke-miterlimit="10"/>
</svg>
