<svg width="400" height="223" viewBox="0 0 400 223" fill="none" xmlns="http://www.w3.org/2000/svg">
<path d="M123.324 149.921C123.324 145.575 126.541 142.316 130.831 142.316C135.12 142.316 138.338 145.575 138.338 149.921C138.338 154.267 135.12 157.526 130.831 157.526C126.541 157.526 123.324 154.267 123.324 149.921Z" fill="white"/>
<path d="M168.363 191.204C168.363 186.858 171.58 183.599 175.87 183.599C180.16 183.599 183.377 186.858 183.377 191.204C183.377 195.549 180.16 198.809 175.87 198.809C171.58 198.809 168.363 195.549 168.363 191.204Z" fill="white"/>
<path d="M107.238 212.932C107.238 208.586 110.455 205.327 114.745 205.327C119.034 205.327 122.252 208.586 122.252 212.932C122.252 217.277 119.034 220.536 114.745 220.536C110.455 220.536 107.238 217.277 107.238 212.932Z" fill="white"/>
<path d="M61.125 170.562C61.125 166.217 64.3422 162.958 68.6317 162.958C72.9212 162.958 76.1384 166.217 76.1384 170.562C76.1384 174.908 72.9212 178.167 68.6317 178.167C64.3422 177.081 61.125 173.822 61.125 170.562Z" fill="white"/>
<path d="M80.4287 109.725C80.4287 105.38 83.6459 102.12 87.9354 102.12C92.2249 102.12 95.4421 105.38 95.4421 109.725C95.4421 114.071 92.2249 117.33 87.9354 117.33C83.6459 117.33 80.4287 114.071 80.4287 109.725Z" fill="white"/>
<path d="M93.2969 40.1962C93.2969 35.8506 96.514 32.5915 100.804 32.5915C105.093 32.5915 108.31 35.8506 108.31 40.1962C108.31 44.5417 105.093 47.8008 100.804 47.8008C96.514 47.8008 93.2969 44.5417 93.2969 40.1962Z" fill="white"/>
<path d="M137.266 82.5654C137.266 78.2199 140.483 74.9608 144.772 74.9608C149.062 74.9608 152.279 78.2199 152.279 82.5654C152.279 86.911 149.062 90.1701 144.772 90.1701C140.483 90.1701 137.266 86.911 137.266 82.5654Z" fill="white"/>
<path d="M181.231 126.021C181.231 121.675 184.449 118.416 188.738 118.416C193.028 118.416 196.245 121.675 196.245 126.021C196.245 130.367 193.028 133.626 188.738 133.626C185.521 133.626 181.231 130.367 181.231 126.021Z" fill="white"/>
<path d="M227.345 167.303C227.345 162.957 230.562 159.698 234.851 159.698C239.141 159.698 242.358 162.957 242.358 167.303C242.358 171.648 239.141 174.907 234.851 174.907C230.562 174.907 227.345 171.648 227.345 167.303Z" fill="white"/>
<path d="M240.213 102.12C240.213 97.7743 243.43 94.5151 247.72 94.5151C252.009 94.5151 255.226 97.7743 255.226 102.12C255.226 106.465 252.009 109.725 247.72 109.725C243.43 109.725 240.213 106.465 240.213 102.12Z" fill="white"/>
<path d="M198.391 63.01C198.391 58.6645 201.608 55.4053 205.897 55.4053C210.187 55.4053 213.404 58.6645 213.404 63.01C213.404 67.3556 210.187 70.6147 205.897 70.6147C201.608 70.6147 198.391 67.3556 198.391 63.01Z" fill="white"/>
<path d="M151.207 18.4686C151.207 14.123 154.424 10.8639 158.714 10.8639C163.003 10.8639 166.22 14.123 166.22 18.4686C166.22 22.8141 163.003 26.0733 158.714 26.0733C154.424 26.0733 151.207 21.7277 151.207 18.4686Z" fill="white"/>
<path d="M268.096 36.9367C268.096 32.5911 271.313 29.332 275.602 29.332C279.892 29.332 283.109 32.5911 283.109 36.9367C283.109 41.2822 279.892 44.5414 275.602 44.5414C271.313 44.5414 268.096 41.2822 268.096 36.9367Z" fill="white"/>
<path d="M214.477 7.60469C214.477 3.25915 217.694 0 221.983 0C226.273 0 229.49 3.25915 229.49 7.60469C229.49 11.9502 226.273 15.2094 221.983 15.2094C217.694 15.2094 214.477 11.9502 214.477 7.60469Z" fill="white"/>
<path d="M40.751 72.7878C40.751 68.4423 43.9681 65.1831 48.2577 65.1831C52.5472 65.1831 55.7644 68.4423 55.7644 72.7878C55.7644 77.1334 52.5472 80.3925 48.2577 80.3925C43.9681 79.3061 40.751 77.1334 40.751 72.7878Z" fill="white"/>
<path d="M11.7969 129.28C11.7969 124.935 15.014 122.762 18.2312 122.762C22.5207 122.762 24.6655 126.021 24.6655 129.28C24.6655 133.626 21.4483 135.799 18.2312 135.799C15.014 135.799 11.7969 132.539 11.7969 129.28Z" fill="white"/>
<path d="M3.21777 192.29C3.21777 187.945 6.43492 184.685 10.7245 184.685C15.014 184.685 18.2311 187.945 18.2311 192.29C18.2311 196.636 15.014 199.895 10.7245 199.895C6.43492 199.895 3.21777 196.636 3.21777 192.29Z" fill="white"/>
<path d="M330.295 187.944C330.295 183.599 333.512 180.34 337.802 180.34C342.091 180.34 345.308 183.599 345.308 187.944C345.308 192.29 342.091 195.549 337.802 195.549C333.512 195.549 330.295 192.29 330.295 187.944Z" fill="white"/>
<path d="M387.131 168.39C387.131 165.131 390.348 161.872 393.565 161.872C396.782 161.872 399.999 165.131 399.999 168.39C399.999 171.649 396.782 174.908 393.565 174.908C390.348 175.995 387.131 172.735 387.131 168.39Z" fill="white"/>
<path d="M346.381 122.761C346.381 118.416 349.598 115.157 353.888 115.157C358.177 115.157 361.394 118.416 361.394 122.761C361.394 127.107 358.177 130.366 353.888 130.366C349.598 130.366 346.381 127.107 346.381 122.761Z" fill="white"/>
<path d="M338.874 57.5779C338.874 54.3188 342.091 51.0596 345.308 51.0596C348.526 51.0596 351.743 54.3188 351.743 57.5779C351.743 60.8371 348.526 64.0962 345.308 64.0962C342.091 64.0962 338.874 60.8371 338.874 57.5779Z" fill="white"/>
<path d="M294.905 90.1696C294.905 85.8241 298.122 82.5649 302.412 82.5649C306.702 82.5649 309.919 85.8241 309.919 90.1696C309.919 94.5152 306.702 97.7743 302.412 97.7743C298.122 97.7743 294.905 94.5152 294.905 90.1696Z" fill="white"/>
<path d="M286.326 148.835C286.326 144.489 289.543 141.23 293.833 141.23C298.122 141.23 301.34 144.489 301.34 148.835C301.34 153.18 298.122 156.439 293.833 156.439C289.543 156.439 286.326 153.18 286.326 148.835Z" fill="white"/>
<path d="M271.313 210.758C271.313 206.413 274.531 203.154 278.82 203.154C283.11 203.154 286.327 206.413 286.327 210.758C286.327 215.104 283.11 218.363 278.82 218.363C275.603 218.363 271.313 215.104 271.313 210.758Z" fill="white"/>
</svg>
