<svg width="293" height="214" viewBox="0 0 293 214" fill="none" xmlns="http://www.w3.org/2000/svg">
<path d="M228.554 14.6504C228.554 16.0485 229.486 16.9805 230.884 16.9805C232.282 16.9805 233.214 16.0485 233.214 14.6504C233.214 13.2524 232.282 12.3203 230.884 12.3203C229.952 12.3203 228.554 13.7184 228.554 14.6504Z" fill="#131313"/>
<path d="M204.786 38.8834C204.786 40.2815 205.718 41.2135 207.116 41.2135C208.514 41.2135 209.446 40.2815 209.446 38.8834C209.446 37.4854 208.514 36.5533 207.116 36.5533C205.718 36.5533 204.786 37.4854 204.786 38.8834Z" fill="#131313"/>
<path d="M228.554 38.8834C228.554 40.2815 229.486 41.2135 230.884 41.2135C232.282 41.2135 233.214 40.2815 233.214 38.8834C233.214 37.4854 232.282 36.5533 230.884 36.5533C229.952 36.5533 228.554 37.4854 228.554 38.8834Z" fill="#131313"/>
<path d="M180.554 63.1164C180.554 64.5145 181.486 65.4465 182.884 65.4465C184.282 65.4465 185.214 64.5145 185.214 63.1164C185.214 61.7183 184.282 60.7863 182.884 60.7863C181.486 60.3203 180.554 61.7183 180.554 63.1164Z" fill="#131313"/>
<path d="M204.786 63.1164C204.786 64.5145 205.718 65.4465 207.116 65.4465C208.514 65.4465 209.446 64.5145 209.446 63.1164C209.446 61.7184 208.514 60.7863 207.116 60.7863C205.718 60.7863 204.786 61.7184 204.786 63.1164Z" fill="#131313"/>
<path d="M228.554 63.1164C228.554 64.5145 229.486 65.4465 230.884 65.4465C232.282 65.4465 233.214 64.5145 233.214 63.1164C233.214 61.7183 232.282 60.7863 230.884 60.7863C229.952 60.3203 228.554 61.7183 228.554 63.1164Z" fill="#131313"/>
<path d="M156.786 86.8834C156.786 88.2814 157.718 89.2135 159.116 89.2135C160.514 89.2135 161.446 88.2814 161.446 86.8834C161.446 85.4853 160.514 84.5533 159.116 84.5533C157.718 84.5533 156.786 85.4853 156.786 86.8834Z" fill="#131313"/>
<path d="M180.554 86.8834C180.554 88.2814 181.486 89.2135 182.884 89.2135C184.282 89.2135 185.214 88.2814 185.214 86.8834C185.214 85.4853 184.282 84.5533 182.884 84.5533C181.486 84.5533 180.554 85.4853 180.554 86.8834Z" fill="#131313"/>
<path d="M204.786 86.8834C204.786 88.2814 205.718 89.2135 207.116 89.2135C208.514 89.2135 209.446 88.2814 209.446 86.8834C209.446 85.4853 208.514 84.5533 207.116 84.5533C205.718 84.5533 204.786 85.4853 204.786 86.8834Z" fill="#131313"/>
<path d="M228.554 86.8834C228.554 88.2814 229.486 89.2135 230.884 89.2135C232.282 89.2135 233.214 88.2814 233.214 86.8834C233.214 85.4853 232.282 84.5533 230.884 84.5533C229.952 84.5533 228.554 85.4853 228.554 86.8834Z" fill="#131313"/>
<path d="M132.554 111.117C132.554 112.515 133.486 113.447 134.884 113.447C136.282 113.447 137.214 112.515 137.214 111.117C137.214 109.718 136.282 108.786 134.884 108.786C133.486 108.32 132.554 109.718 132.554 111.117Z" fill="#131313"/>
<path d="M156.786 111.117C156.786 112.515 157.718 113.447 159.116 113.447C160.514 113.447 161.446 112.515 161.446 111.117C161.446 109.718 160.514 108.786 159.116 108.786C157.718 108.786 156.786 109.718 156.786 111.117Z" fill="#131313"/>
<path d="M180.554 111.117C180.554 112.515 181.486 113.447 182.884 113.447C184.282 113.447 185.214 112.515 185.214 111.117C185.214 109.718 184.282 108.786 182.884 108.786C181.486 108.32 180.554 109.718 180.554 111.117Z" fill="#131313"/>
<path d="M204.786 111.117C204.786 112.515 205.718 113.447 207.116 113.447C208.514 113.447 209.446 112.515 209.446 111.117C209.446 109.718 208.514 108.786 207.116 108.786C205.718 108.786 204.786 109.718 204.786 111.117Z" fill="#131313"/>
<path d="M228.554 111.117C228.554 112.515 229.486 113.447 230.884 113.447C232.282 113.447 233.214 112.515 233.214 111.117C233.214 109.718 232.282 108.786 230.884 108.786C229.952 108.32 228.554 109.718 228.554 111.117Z" fill="#131313"/>
<path d="M108.32 134.884C108.32 136.282 109.252 137.214 110.65 137.214C112.048 137.214 112.981 136.282 112.981 134.884C112.981 133.485 112.048 132.553 110.65 132.553C109.252 132.553 108.32 133.485 108.32 134.884Z" fill="#131313"/>
<path d="M132.554 134.884C132.554 136.282 133.486 137.214 134.884 137.214C136.282 137.214 137.214 136.282 137.214 134.884C137.214 133.485 136.282 132.553 134.884 132.553C133.486 132.553 132.554 133.485 132.554 134.884Z" fill="#131313"/>
<path d="M156.786 134.884C156.786 136.282 157.718 137.214 159.116 137.214C160.514 137.214 161.446 136.282 161.446 134.884C161.446 133.485 160.514 132.553 159.116 132.553C157.718 132.553 156.786 133.485 156.786 134.884Z" fill="#131313"/>
<path d="M180.554 134.884C180.554 136.282 181.486 137.214 182.884 137.214C184.282 137.214 185.214 136.282 185.214 134.884C185.214 133.485 184.282 132.553 182.884 132.553C181.486 132.553 180.554 133.485 180.554 134.884Z" fill="#131313"/>
<path d="M204.786 134.884C204.786 136.282 205.718 137.214 207.116 137.214C208.514 137.214 209.446 136.282 209.446 134.884C209.446 133.485 208.514 132.553 207.116 132.553C205.718 132.553 204.786 133.485 204.786 134.884Z" fill="#131313"/>
<path d="M228.554 134.884C228.554 136.282 229.486 137.214 230.884 137.214C232.282 137.214 233.214 136.282 233.214 134.884C233.214 133.485 232.282 132.553 230.884 132.553C229.952 132.553 228.554 133.485 228.554 134.884Z" fill="#131313"/>
<path d="M84.5527 159.117C84.5527 160.515 85.4848 161.447 86.8828 161.447C88.2809 161.447 89.2129 160.515 89.2129 159.117C89.2129 157.718 88.2809 156.786 86.8828 156.786C85.4848 156.786 84.5527 157.718 84.5527 159.117Z" fill="#131313"/>
<path d="M108.32 159.117C108.32 160.515 109.252 161.447 110.65 161.447C112.048 161.447 112.981 160.515 112.981 159.117C112.981 157.718 112.048 156.786 110.65 156.786C109.252 156.786 108.32 157.718 108.32 159.117Z" fill="#131313"/>
<path d="M132.554 159.117C132.554 160.515 133.486 161.447 134.884 161.447C136.282 161.447 137.214 160.515 137.214 159.117C137.214 157.718 136.282 156.786 134.884 156.786C133.486 156.786 132.554 157.718 132.554 159.117Z" fill="#131313"/>
<path d="M156.786 159.117C156.786 160.515 157.718 161.447 159.116 161.447C160.514 161.447 161.446 160.515 161.446 159.117C161.446 157.718 160.514 156.786 159.116 156.786C157.718 156.786 156.786 157.718 156.786 159.117Z" fill="#131313"/>
<path d="M180.554 159.117C180.554 160.515 181.486 161.447 182.884 161.447C184.282 161.447 185.214 160.515 185.214 159.117C185.214 157.718 184.282 156.786 182.884 156.786C181.486 156.786 180.554 157.718 180.554 159.117Z" fill="#131313"/>
<path d="M204.786 159.117C204.786 160.515 205.718 161.447 207.116 161.447C208.514 161.447 209.446 160.515 209.446 159.117C209.446 157.718 208.514 156.786 207.116 156.786C205.718 156.786 204.786 157.718 204.786 159.117Z" fill="#131313"/>
<path d="M228.554 159.117C228.554 160.515 229.486 161.447 230.884 161.447C232.282 161.447 233.214 160.515 233.214 159.117C233.214 157.718 232.282 156.786 230.884 156.786C229.952 156.786 228.554 157.718 228.554 159.117Z" fill="#131313"/>
<path d="M60.3203 182.884C60.3203 184.282 61.2523 185.214 62.6504 185.214C64.0485 185.214 64.9805 184.282 64.9805 182.884C64.9805 181.485 64.0485 180.553 62.6504 180.553C61.7184 180.553 60.3203 181.485 60.3203 182.884Z" fill="#131313"/>
<path d="M84.5527 182.884C84.5527 184.282 85.4848 185.214 86.8828 185.214C88.2809 185.214 89.2129 184.282 89.2129 182.884C89.2129 181.485 88.2809 180.553 86.8828 180.553C85.4848 180.553 84.5527 181.485 84.5527 182.884Z" fill="#131313"/>
<path d="M108.32 182.884C108.32 184.282 109.252 185.214 110.65 185.214C112.048 185.214 112.981 184.282 112.981 182.884C112.981 181.485 112.048 180.553 110.65 180.553C109.252 180.553 108.32 181.485 108.32 182.884Z" fill="#131313"/>
<path d="M132.554 182.884C132.554 184.282 133.486 185.214 134.884 185.214C136.282 185.214 137.214 184.282 137.214 182.884C137.214 181.485 136.282 180.553 134.884 180.553C133.486 180.553 132.554 181.485 132.554 182.884Z" fill="#131313"/>
<path d="M156.786 182.884C156.786 184.282 157.718 185.214 159.116 185.214C160.514 185.214 161.446 184.282 161.446 182.884C161.446 181.485 160.514 180.553 159.116 180.553C157.718 180.553 156.786 181.485 156.786 182.884Z" fill="#131313"/>
<path d="M180.554 182.884C180.554 184.282 181.486 185.214 182.884 185.214C184.282 185.214 185.214 184.282 185.214 182.884C185.214 181.485 184.282 180.553 182.884 180.553C181.486 180.553 180.554 181.485 180.554 182.884Z" fill="#131313"/>
<path d="M204.786 182.884C204.786 184.282 205.718 185.214 207.116 185.214C208.514 185.214 209.446 184.282 209.446 182.884C209.446 181.485 208.514 180.553 207.116 180.553C205.718 180.553 204.786 181.485 204.786 182.884Z" fill="#131313"/>
<path d="M228.554 182.884C228.554 184.282 229.486 185.214 230.884 185.214C232.282 185.214 233.214 184.282 233.214 182.884C233.214 181.485 232.282 180.553 230.884 180.553C229.952 180.553 228.554 181.485 228.554 182.884Z" fill="#131313"/>
<path d="M36.5537 207.116C36.5537 208.515 37.4857 209.447 38.8838 209.447C40.2819 209.447 41.2139 208.515 41.2139 207.116C41.2139 205.718 40.2819 204.786 38.8838 204.786C37.4857 204.786 36.5537 205.718 36.5537 207.116Z" fill="#131313"/>
<path d="M60.3203 207.116C60.3203 208.515 61.2523 209.447 62.6504 209.447C64.0485 209.447 64.9805 208.515 64.9805 207.116C64.9805 205.718 64.0485 204.786 62.6504 204.786C61.7184 204.786 60.3203 205.718 60.3203 207.116Z" fill="#131313"/>
<path d="M84.5527 207.116C84.5527 208.515 85.4848 209.447 86.8828 209.447C88.2809 209.447 89.2129 208.515 89.2129 207.116C89.2129 205.718 88.2809 204.786 86.8828 204.786C85.4848 204.786 84.5527 205.718 84.5527 207.116Z" fill="#131313"/>
<path d="M108.32 207.116C108.32 208.515 109.252 209.447 110.65 209.447C112.048 209.447 112.981 208.515 112.981 207.116C112.981 205.718 112.048 204.786 110.65 204.786C109.252 204.786 108.32 205.718 108.32 207.116Z" fill="#131313"/>
<path d="M132.554 207.116C132.554 208.515 133.486 209.447 134.884 209.447C136.282 209.447 137.214 208.515 137.214 207.116C137.214 205.718 136.282 204.786 134.884 204.786C133.486 204.786 132.554 205.718 132.554 207.116Z" fill="#131313"/>
<path d="M156.786 207.116C156.786 208.515 157.718 209.447 159.116 209.447C160.514 209.447 161.446 208.515 161.446 207.116C161.446 205.718 160.514 204.786 159.116 204.786C157.718 204.786 156.786 205.718 156.786 207.116Z" fill="#131313"/>
<path d="M180.554 207.116C180.554 208.515 181.486 209.447 182.884 209.447C184.282 209.447 185.214 208.515 185.214 207.116C185.214 205.718 184.282 204.786 182.884 204.786C181.486 204.786 180.554 205.718 180.554 207.116Z" fill="#131313"/>
<path d="M204.786 207.116C204.786 208.515 205.718 209.447 207.116 209.447C208.514 209.447 209.446 208.515 209.446 207.116C209.446 205.718 208.514 204.786 207.116 204.786C205.718 204.786 204.786 205.718 204.786 207.116Z" fill="#131313"/>
<path d="M228.554 207.116C228.554 208.515 229.486 209.447 230.884 209.447C232.282 209.447 233.214 208.515 233.214 207.116C233.214 205.718 232.282 204.786 230.884 204.786C229.952 204.786 228.554 205.718 228.554 207.116Z" fill="#131313"/>
<path d="M3 233.68H233.68V3" stroke="#131313" stroke-width="4" stroke-miterlimit="10"/>
<path d="M60.3204 291L3 233.68L233.68 3L291 60.3204V291H60.3204Z" stroke="#131313" stroke-width="4" stroke-miterlimit="10"/>
</svg>
