<svg width="789" height="719" viewBox="0 0 789 719" fill="none" xmlns="http://www.w3.org/2000/svg">
<g clip-path="url(#clip0)">
<path d="M720.146 347.64C730.305 355.541 741.593 363.442 741.593 381.502C741.593 398.434 730.305 407.464 720.146 415.365C709.987 423.266 703.215 427.781 703.215 437.94C703.215 448.099 709.987 453.743 720.146 460.515C730.305 468.417 741.593 476.318 741.593 493.249C737.078 501.15 732.563 510.18 728.047 518.082C743.85 490.992 756.266 461.644 765.296 431.168C763.039 437.94 760.781 445.841 758.524 452.614C756.266 448.099 755.138 443.584 755.138 436.811C755.138 422.138 763.039 414.236 772.069 407.464C770.94 415.365 768.683 422.138 766.425 428.91C774.327 401.82 778.841 372.472 781.099 343.125C781.099 348.768 779.97 353.283 779.97 357.799C778.841 358.927 778.842 358.927 777.713 357.799C767.554 349.897 756.266 341.996 756.266 323.936H704.344C704.344 335.223 709.987 339.738 720.146 347.64Z" fill="white"/>
<path d="M781.099 344.253C781.099 337.481 781.099 330.708 781.099 323.936H768.683C768.683 332.966 773.198 338.61 781.099 344.253Z" fill="white"/>
<path d="M673.868 591.45C670.481 594.837 667.095 598.223 663.709 601.609C668.224 598.223 671.61 594.837 673.868 591.45Z" fill="white"/>
<path d="M591.468 347.64C601.627 355.541 612.914 363.442 612.914 381.503C612.914 398.434 601.627 407.464 591.468 415.365C581.309 423.266 574.537 427.781 574.537 437.94C574.537 448.099 581.309 453.743 591.468 460.515C601.627 468.417 612.914 476.318 612.914 494.378C612.914 505.666 608.399 512.438 602.755 518.082C599.369 521.468 594.854 524.854 591.468 527.112C581.309 535.013 574.537 539.528 574.537 549.687C574.537 559.846 581.309 565.49 591.468 572.262C601.627 580.163 612.914 588.065 612.914 606.125C612.914 623.056 601.627 632.086 591.468 639.987C581.309 647.889 574.537 652.404 574.537 662.563C574.537 663.691 574.537 664.82 574.537 665.949C573.408 667.078 571.15 667.078 570.021 668.206C605.013 650.146 636.618 627.571 663.708 600.481C662.579 594.837 658.064 590.322 651.292 585.807C650.163 584.678 649.034 583.55 647.906 583.55C637.747 575.648 626.459 567.747 626.459 549.687C626.459 532.756 636.618 524.854 646.777 516.953L647.906 515.824C649.034 514.696 650.163 513.567 651.292 513.567C659.193 507.923 663.708 502.279 663.708 493.249C663.708 484.219 659.193 479.704 651.292 472.932C650.163 471.803 649.034 470.674 647.906 470.674C637.747 462.773 626.459 454.872 626.459 436.812C626.459 419.88 637.747 410.85 647.906 402.949C649.034 401.82 650.163 400.691 651.292 400.691C659.193 395.048 663.708 389.404 663.708 380.374C663.708 371.344 659.193 366.829 651.292 360.056C650.163 358.927 649.034 357.799 647.906 356.67C637.747 348.769 626.459 340.867 626.459 322.807H574.537C574.537 335.224 581.309 339.739 591.468 347.64Z" fill="white"/>
<path d="M523.741 344.254C524.87 345.382 525.999 346.511 527.128 346.511C537.286 354.412 548.574 362.314 548.574 380.374C548.574 397.305 537.286 406.335 527.128 414.236C525.999 415.365 524.87 416.494 523.741 416.494C515.84 422.138 511.325 427.781 511.325 436.812C511.325 445.842 515.84 450.357 523.741 457.129C524.87 458.258 525.999 459.387 527.128 459.387C537.286 467.288 548.574 475.189 548.574 493.249C548.574 504.537 544.059 511.309 538.415 516.953C535.029 520.339 530.514 523.726 527.128 525.983C525.999 527.112 524.87 528.241 523.741 528.241C515.84 533.884 511.325 539.528 511.325 548.558C511.325 557.588 515.84 562.103 523.741 568.876C524.87 570.005 525.999 571.133 527.128 571.133C537.286 579.035 548.574 586.936 548.574 604.996C548.574 621.927 537.286 630.957 527.128 638.859C525.999 639.987 524.87 641.116 523.741 641.116C515.84 646.76 511.325 652.404 511.325 661.434C511.325 670.464 515.84 674.979 523.741 681.751C524.87 682.88 525.999 684.009 527.128 684.009C528.256 684.009 528.256 685.138 529.385 685.138C527.128 686.266 525.999 686.266 523.741 687.395C537.286 682.88 550.831 677.236 563.248 670.464C562.119 667.078 562.119 664.82 562.119 661.434C562.119 644.502 573.407 635.472 583.565 627.571C593.724 619.67 600.497 615.155 600.497 604.996C600.497 594.837 593.724 589.193 583.565 582.421C573.407 574.52 562.119 566.618 562.119 548.558C562.119 531.627 572.278 523.726 582.437 515.824L583.565 514.696C593.724 506.794 600.497 502.279 600.497 492.12C600.497 481.962 593.724 476.318 583.565 469.545C573.407 461.644 562.119 453.743 562.119 435.683C562.119 418.751 573.407 409.721 583.565 401.82C593.724 393.919 600.497 389.404 600.497 379.245C600.497 369.086 593.724 363.442 583.565 356.67C573.407 348.769 562.119 340.867 562.119 322.807H510.196C510.196 332.966 515.84 338.61 523.741 344.254Z" fill="white"/>
<path d="M154.64 627.571C151.254 625.313 147.868 621.927 144.481 619.67C147.868 621.927 151.254 625.313 154.64 627.571Z" fill="white"/>
<path d="M9.02915 362.313C9.02915 357.798 7.90039 352.154 7.90039 347.639C9.02915 363.442 11.2867 380.373 13.5442 396.176C18.0592 391.661 20.3167 388.275 20.3167 381.502C20.3167 372.472 16.9304 367.957 9.02915 362.313Z" fill="white"/>
<path d="M68.8532 516.953C79.012 509.051 85.7845 504.536 85.7845 494.378C85.7845 484.219 79.012 478.575 68.8532 471.803C58.6944 463.901 47.4068 456 47.4068 437.94C47.4068 421.009 58.6944 411.979 68.8532 404.077C79.012 396.176 85.7845 391.661 85.7845 381.502C85.7845 371.343 79.012 365.7 68.8532 358.927C58.6944 351.026 47.4068 343.125 47.4068 325.065H7.90039C7.90039 331.837 7.90039 338.61 7.90039 345.382C9.02915 345.382 10.1579 346.511 11.2867 347.64C21.4455 355.541 33.8618 363.442 33.8618 381.502C33.8618 396.176 25.9605 404.077 18.0592 410.85C16.9304 406.335 15.8017 400.691 14.6729 396.176C22.5742 441.326 39.5055 484.219 62.0806 522.596C63.2094 521.468 65.4669 520.339 66.5957 519.21C67.7244 518.081 67.7244 516.953 68.8532 516.953Z" fill="white"/>
<path d="M704.343 549.687C704.343 551.944 704.343 553.073 705.471 555.331C702.085 558.717 699.828 563.232 696.441 566.618C707.729 553.073 717.888 538.399 726.918 522.597C724.66 523.725 722.403 525.983 721.274 527.112C709.986 535.013 704.343 539.528 704.343 549.687Z" fill="white"/>
<path d="M652.422 344.253C653.551 345.381 654.68 346.51 655.808 346.51C665.967 354.411 677.255 362.313 677.255 380.373C677.255 397.304 665.967 406.334 655.808 414.236C654.68 415.364 653.551 416.493 652.422 416.493C644.521 422.137 640.006 427.781 640.006 436.811C640.006 445.841 644.521 450.356 652.422 457.128C653.551 458.257 654.68 459.386 655.808 459.386C665.967 467.287 677.255 475.188 677.255 493.248C677.255 504.536 672.74 511.309 667.096 516.952C663.71 520.339 659.195 523.725 655.808 525.982C654.68 527.111 653.551 528.24 652.422 528.24C644.521 533.884 640.006 539.527 640.006 548.557C640.006 557.588 644.521 562.103 652.422 568.875C653.551 570.004 654.68 571.133 655.808 571.133C662.581 575.648 669.353 581.291 673.868 589.193C681.77 581.291 688.542 573.39 695.315 564.36C691.928 559.845 690.8 554.201 690.8 547.429C690.8 530.497 700.959 522.596 711.117 514.695L712.246 513.566C722.405 505.665 729.177 501.15 729.177 490.991C729.177 480.832 722.405 475.188 712.246 468.416C702.087 460.515 690.8 452.613 690.8 434.553C690.8 417.622 702.087 408.592 712.246 400.69C722.405 392.789 729.177 388.274 729.177 378.115C729.177 367.956 722.405 362.313 712.246 355.54C702.087 347.639 690.8 339.738 690.8 321.677H638.877C640.006 332.965 644.521 338.609 652.422 344.253Z" fill="white"/>
<path d="M205.434 347.64C215.593 355.541 226.88 363.442 226.88 381.502C226.88 398.434 215.593 407.464 205.434 415.365C195.275 423.266 188.503 427.781 188.503 437.94C188.503 448.099 195.275 453.743 205.434 460.515C215.593 468.417 226.88 476.318 226.88 494.378C226.88 505.665 222.365 512.438 216.722 518.082C213.335 521.468 208.82 524.854 205.434 527.112C195.275 535.013 188.503 539.528 188.503 549.687C188.503 559.846 195.275 565.489 205.434 572.262C215.593 580.163 226.88 588.065 226.88 606.125C226.88 623.056 215.593 632.086 205.434 639.987C198.662 644.502 194.147 649.017 190.76 653.532C214.464 668.206 239.297 680.623 265.258 689.653C258.486 687.395 251.713 685.138 244.941 681.751C241.554 677.236 239.297 670.464 239.297 663.691C239.297 646.76 250.584 637.73 260.743 629.829C261.872 628.7 263.001 627.571 264.129 627.571C272.031 621.927 276.546 616.283 276.546 607.253C276.546 598.223 272.031 593.708 264.129 586.936C263.001 585.807 261.872 584.678 260.743 584.678C250.584 576.777 239.297 568.876 239.297 550.816C239.297 533.884 249.456 525.983 259.614 518.082L260.743 516.953C261.872 515.824 263.001 514.695 264.129 514.695C272.031 509.052 276.546 503.408 276.546 494.378C276.546 485.348 272.031 480.833 264.129 474.06C263.001 472.932 261.872 471.803 260.743 471.803C250.584 463.901 239.297 456 239.297 437.94C239.297 421.009 250.584 411.979 260.743 404.077C261.872 402.949 263.001 401.82 264.129 401.82C272.031 396.176 276.546 390.532 276.546 381.502C276.546 372.472 272.031 367.957 264.129 361.185C263.001 360.056 261.872 358.927 260.743 357.799C250.584 349.897 239.297 341.996 239.297 323.936H187.374C188.503 335.223 194.147 339.738 205.434 347.64Z" fill="white"/>
<path d="M136.579 344.254C137.708 345.382 138.837 346.511 139.966 346.511C150.124 354.412 161.412 362.314 161.412 380.374C161.412 397.305 150.124 406.335 139.966 414.236C138.837 415.365 137.708 416.494 136.579 416.494C128.678 422.138 124.163 427.782 124.163 436.812C124.163 445.842 128.678 450.357 136.579 457.129C137.708 458.258 138.837 459.387 139.966 459.387C150.124 467.288 161.412 475.189 161.412 493.249C161.412 504.537 156.897 511.309 151.253 516.953C147.867 520.339 143.352 523.726 139.966 525.983C138.837 527.112 137.708 528.241 136.579 528.241C128.678 533.885 124.163 539.528 124.163 548.558C124.163 557.588 128.678 562.103 136.579 568.876C137.708 570.005 138.837 571.133 139.966 571.133C150.124 579.035 161.412 586.936 161.412 604.996C161.412 614.026 158.026 620.799 153.511 626.442C161.412 633.215 170.442 638.859 178.343 644.503C182.858 637.73 189.631 632.086 195.275 627.571C205.433 619.67 212.206 615.155 212.206 604.996C212.206 594.837 205.433 589.194 195.275 582.421C185.116 574.52 173.828 566.618 173.828 548.558C173.828 531.627 183.987 523.726 194.146 515.824L195.275 514.696C205.433 506.794 212.206 502.279 212.206 492.121C212.206 481.962 205.433 476.318 195.275 469.545C185.116 461.644 173.828 453.743 173.828 435.683C173.828 418.751 185.116 409.721 195.275 401.82C205.433 393.919 212.206 389.404 212.206 379.245C212.206 369.086 205.433 363.442 195.275 356.67C185.116 348.769 173.828 340.867 173.828 322.807H124.163C124.163 332.966 128.678 338.61 136.579 344.254Z" fill="white"/>
<path d="M265.256 344.254C266.385 345.382 267.514 346.511 268.642 346.511C278.801 354.412 290.089 362.314 290.089 380.374C290.089 397.305 278.801 406.335 268.642 414.236C267.514 415.365 266.385 416.494 265.256 416.494C257.355 422.138 252.84 427.782 252.84 436.812C252.84 445.842 257.355 450.357 265.256 457.129C266.385 458.258 267.514 459.387 268.642 459.387C278.801 467.288 290.089 475.189 290.089 493.249C290.089 504.537 285.574 511.309 279.93 516.953C276.544 520.339 272.029 523.726 268.642 525.983C267.514 527.112 266.385 528.241 265.256 528.241C257.355 533.884 252.84 539.528 252.84 548.558C252.84 557.588 257.355 562.103 265.256 568.876C266.385 570.005 267.514 571.133 268.642 571.133C278.801 579.035 290.089 586.936 290.089 604.996C290.089 621.927 278.801 630.957 268.642 638.859C267.514 639.987 266.385 641.116 265.256 641.116C257.355 646.76 252.84 652.404 252.84 661.434C252.84 670.464 257.355 674.979 265.256 681.751C266.385 682.88 267.514 684.009 268.642 684.009C272.029 686.267 275.415 688.524 278.801 691.91C276.544 690.781 274.286 690.782 272.029 689.653C310.406 702.069 352.17 709.97 393.934 709.97C401.836 709.97 410.866 709.97 418.767 708.842C414.252 708.842 409.737 708.842 405.222 709.97C402.964 705.455 399.578 702.069 393.934 698.683C392.806 697.554 391.677 696.425 390.548 696.425C380.389 688.524 369.102 680.623 369.102 662.563C369.102 645.631 380.389 636.601 390.548 628.7C391.677 627.571 392.806 626.442 393.934 626.442C401.836 620.799 406.351 615.155 406.351 606.125C406.351 597.095 401.836 592.58 393.934 585.807C392.806 584.678 391.677 583.55 390.548 583.55C380.389 575.648 369.102 567.747 369.102 549.687C369.102 532.756 379.26 524.854 389.419 516.953L390.548 515.824C391.677 514.696 392.806 513.567 393.934 513.567C401.836 507.923 406.351 502.279 406.351 493.249C406.351 484.219 401.836 479.704 393.934 472.932C392.806 471.803 391.677 470.674 390.548 470.674C380.389 462.773 369.102 454.872 369.102 436.812C369.102 419.88 380.389 410.85 390.548 402.949C391.677 401.82 392.806 400.691 393.934 400.691C401.836 395.048 406.351 389.404 406.351 380.374C406.351 371.344 401.836 366.829 393.934 360.056C392.806 358.927 391.677 357.799 390.548 356.67C380.389 348.769 369.102 340.867 369.102 322.807H317.179C317.179 332.966 323.951 338.61 334.11 345.382C344.269 353.284 355.557 361.185 355.557 379.245C355.557 396.176 344.269 405.206 334.11 413.108C323.951 421.009 317.179 425.524 317.179 435.683C317.179 445.842 323.951 451.485 334.11 458.258C344.269 466.159 355.557 474.06 355.557 492.121C355.557 503.408 351.042 510.181 345.398 515.824C342.012 519.211 337.496 522.597 334.11 524.854C323.951 532.756 317.179 537.271 317.179 547.43C317.179 557.588 323.951 563.232 334.11 570.005C344.269 577.906 355.557 585.807 355.557 603.867C355.557 620.799 344.269 629.829 334.11 637.73C323.951 645.631 317.179 650.146 317.179 660.305C317.179 670.464 323.951 676.108 334.11 682.88C342.012 688.524 351.042 695.297 354.428 706.584C348.784 706.584 344.269 705.455 338.625 704.327C335.239 700.94 331.853 697.554 326.209 693.039C316.05 685.138 304.763 677.236 304.763 659.176C304.763 642.245 316.05 633.215 326.209 625.314C336.368 617.412 343.14 612.897 343.14 602.739C343.14 592.58 336.368 586.936 326.209 580.163C316.05 572.262 304.763 564.361 304.763 546.301C304.763 529.369 314.921 521.468 325.08 513.567L326.209 512.438C336.368 504.537 343.14 500.022 343.14 489.863C343.14 479.704 336.368 474.06 326.209 467.288C316.05 462.773 304.763 454.872 304.763 437.94C304.763 421.009 316.05 411.979 326.209 404.078C336.368 396.176 343.14 391.661 343.14 381.503C343.14 371.344 336.368 365.7 326.209 358.927C316.05 349.897 304.763 341.996 304.763 325.065H252.84C252.84 332.966 257.355 338.61 265.256 344.254Z" fill="white"/>
<path d="M58.6943 325.065C58.6943 335.224 65.4669 340.867 75.6257 347.64C85.7844 355.541 97.072 363.442 97.072 381.503C97.072 398.434 85.7844 407.464 75.6257 415.365C65.4669 423.266 58.6943 427.782 58.6943 437.94C58.6943 448.099 65.4669 453.743 75.6257 460.515C85.7844 468.417 97.072 476.318 97.072 494.378C97.072 505.666 92.557 512.438 86.9132 518.082C83.5269 521.468 79.0119 524.854 75.6257 527.112C73.3681 529.369 69.9819 530.498 68.8531 532.756C66.5956 529.369 64.3381 525.983 62.0806 521.468C84.6557 558.717 111.746 591.451 144.48 619.67C147.866 616.284 148.995 611.769 148.995 606.125C148.995 597.095 144.48 592.58 136.578 585.807C135.45 584.678 134.321 583.55 133.192 583.55C123.033 575.648 111.746 567.747 111.746 549.687C111.746 532.756 121.905 524.854 132.063 516.953L133.192 515.824C134.321 514.696 135.45 513.567 136.578 513.567C144.48 507.923 148.995 502.279 148.995 493.249C148.995 484.219 144.48 479.704 136.578 472.932C135.45 471.803 134.321 470.674 133.192 470.674C123.033 462.773 111.746 454.872 111.746 436.812C111.746 419.88 123.033 410.85 133.192 402.949C134.321 401.82 135.45 400.691 136.578 400.691C144.48 395.048 148.995 389.404 148.995 380.374C148.995 371.344 144.48 366.829 136.578 360.056C135.45 358.927 134.321 357.799 133.192 356.67C123.033 348.769 111.746 340.867 111.746 322.807H58.6943V325.065Z" fill="white"/>
<path d="M393.937 344.253C395.065 345.382 396.194 346.511 397.323 346.511C407.482 354.412 418.769 362.313 418.769 380.373C418.769 397.305 407.482 406.335 397.323 414.236C396.194 415.365 395.065 416.493 393.937 416.493C386.035 422.137 381.52 427.781 381.52 436.811C381.52 445.841 386.035 450.356 393.937 457.129C395.065 458.257 396.194 459.386 397.323 459.386C407.482 467.288 418.769 475.189 418.769 493.249C418.769 504.536 414.254 511.309 408.61 516.953C405.224 520.339 400.709 523.725 397.323 525.983C396.194 527.111 395.065 528.24 393.937 528.24C386.035 533.884 381.52 539.528 381.52 548.558C381.52 557.588 386.035 562.103 393.937 568.875C395.065 570.004 396.194 571.133 397.323 571.133C407.482 579.034 418.769 586.936 418.769 604.996C418.769 621.927 407.482 630.957 397.323 638.858C396.194 639.987 395.065 641.116 393.937 641.116C386.035 646.76 381.52 652.403 381.52 661.433C381.52 670.463 386.035 674.978 393.937 681.751C395.065 682.88 396.194 684.008 397.323 684.008C405.224 689.652 414.254 696.425 417.64 708.841C452.632 706.584 486.494 699.811 518.099 688.523C515.842 689.652 514.713 689.652 512.456 690.781C503.426 684.008 495.524 676.107 495.524 661.433C495.524 644.502 506.812 635.472 516.971 627.571C518.099 626.442 519.228 625.313 520.357 625.313C528.258 619.669 532.773 614.026 532.773 604.996C532.773 595.966 528.258 591.451 520.357 584.678C519.228 583.549 518.099 582.42 516.971 582.42C506.812 574.519 495.524 566.618 495.524 548.558C495.524 531.627 505.683 523.725 515.842 515.824L516.971 514.695C518.099 513.566 519.228 512.438 520.357 512.438C528.258 506.794 532.773 501.15 532.773 492.12C532.773 483.09 528.258 478.575 520.357 471.803C519.228 470.674 518.099 469.545 516.971 469.545C506.812 461.644 495.524 453.742 495.524 435.682C495.524 418.751 506.812 409.721 516.971 401.82C518.099 400.691 519.228 399.562 520.357 399.562C528.258 393.918 532.773 388.275 532.773 379.245C532.773 370.215 528.258 365.7 520.357 358.927C519.228 357.798 518.099 356.67 516.971 355.541C506.812 347.639 495.524 339.738 495.524 321.678H443.602C443.602 331.837 450.374 337.481 460.533 344.253C470.692 352.154 481.979 360.056 481.979 378.116C481.979 395.047 470.692 404.077 460.533 411.979C450.374 419.88 443.602 424.395 443.602 434.554C443.602 444.712 450.374 450.356 460.533 457.129C470.692 465.03 481.979 472.931 481.979 490.991C481.979 502.279 477.464 509.051 471.82 514.695C468.434 518.081 463.919 521.468 460.533 523.725C450.374 531.626 443.602 536.142 443.602 546.3C443.602 556.459 450.374 562.103 460.533 568.875C470.692 576.777 481.979 584.678 481.979 602.738C481.979 619.669 470.692 628.699 460.533 636.601C450.374 644.502 443.602 649.017 443.602 659.176C443.602 669.335 450.374 674.978 460.533 681.751C466.177 686.266 472.949 690.781 477.464 697.553C472.949 698.682 468.434 699.811 462.79 700.94C460.533 698.682 457.147 695.296 452.632 693.038C442.473 685.137 431.185 677.236 431.185 659.176C431.185 642.244 442.473 633.214 452.632 625.313C462.79 617.412 469.563 612.897 469.563 602.738C469.563 592.579 462.79 586.935 452.632 580.163C442.473 572.262 431.185 564.36 431.185 546.3C431.185 529.369 441.344 521.468 451.503 513.566L452.632 512.438C462.79 504.536 469.563 500.021 469.563 489.863C469.563 479.704 462.79 474.06 452.632 467.287C442.473 459.386 431.185 451.485 431.185 433.425C431.185 416.493 442.473 407.463 452.632 399.562C462.79 391.661 469.563 387.146 469.563 376.987C469.563 366.828 462.79 361.184 452.632 354.412C442.473 346.511 431.185 338.609 431.185 320.549H379.263C381.52 332.966 386.035 338.609 393.937 344.253Z" fill="white"/>
<path d="M265.258 689.653C267.515 690.782 269.773 690.782 272.03 691.911C269.773 690.782 267.515 689.653 265.258 689.653Z" fill="white"/>
<path d="M179.472 646.759C182.858 649.017 186.244 651.274 190.759 653.532C187.373 651.274 183.987 649.017 179.472 646.759Z" fill="white"/>
<path d="M523.744 689.653C522.615 689.653 521.486 690.782 520.357 690.782C521.486 689.653 522.615 689.653 523.744 689.653Z" fill="white"/>
<path d="M563.248 672.721C565.506 671.593 567.763 670.464 570.021 669.335C568.892 670.464 565.506 671.593 563.248 672.721Z" fill="white"/>
<path d="M726.918 522.596C728.047 521.468 729.175 519.21 729.175 518.081C728.047 519.21 728.047 521.468 726.918 522.596Z" fill="white"/>
<path d="M781.098 325.065C781.098 538.399 608.398 712.228 393.935 712.228C180.6 711.099 7.90039 538.399 7.90039 325.065H781.098Z" stroke="white" stroke-width="1.3589" stroke-miterlimit="10"/>
<path d="M7.90039 325.064C7.90039 110.601 180.6 -62.0991 393.935 -62.0991C608.398 -62.0991 781.098 110.601 781.098 325.064H7.90039Z" stroke="white" stroke-width="1.3589" stroke-miterlimit="10"/>
<path d="M174.956 28.2013H162.54V40.6176H174.956V28.2013Z" fill="white"/>
<path d="M303.635 28.2013H291.219V40.6176H303.635V28.2013Z" fill="white"/>
<path d="M432.313 28.2013H419.896V40.6176H432.313V28.2013Z" fill="white"/>
<path d="M562.119 28.2013H549.703V40.6176H562.119V28.2013Z" fill="white"/>
<path d="M46.2785 169.296V156.88C44.021 161.395 42.8923 165.91 40.6348 169.296H46.2785Z" fill="white"/>
<path d="M110.617 92.541H98.2002V104.957H110.617V92.541Z" fill="white"/>
<path d="M174.956 156.88H162.54V169.296H174.956V156.88Z" fill="white"/>
<path d="M239.297 92.541H226.881V104.957H239.297V92.541Z" fill="white"/>
<path d="M303.635 156.88H291.219V169.296H303.635V156.88Z" fill="white"/>
<path d="M367.974 92.541H355.558V104.957H367.974V92.541Z" fill="white"/>
<path d="M432.313 156.88H419.896V169.296H432.313V156.88Z" fill="white"/>
<path d="M496.651 92.541H484.234V104.957H496.651V92.541Z" fill="white"/>
<path d="M562.119 156.88H549.703V169.296H562.119V156.88Z" fill="white"/>
<path d="M626.458 92.541H614.042V104.957H626.458V92.541Z" fill="white"/>
<path d="M690.799 156.88H678.383V169.296H690.799V156.88Z" fill="white"/>
<path d="M46.2786 285.558H33.8623V297.974H46.2786V285.558Z" fill="white"/>
<path d="M110.617 221.219H98.2002V233.635H110.617V221.219Z" fill="white"/>
<path d="M174.956 285.558H162.54V297.974H174.956V285.558Z" fill="white"/>
<path d="M239.297 221.219H226.881V233.635H239.297V221.219Z" fill="white"/>
<path d="M303.635 285.558H291.219V297.974H303.635V285.558Z" fill="white"/>
<path d="M367.974 221.219H355.558V233.635H367.974V221.219Z" fill="white"/>
<path d="M432.313 285.558H419.896V297.974H432.313V285.558Z" fill="white"/>
<path d="M496.651 221.219H484.234V233.635H496.651V221.219Z" fill="white"/>
<path d="M562.119 285.558H549.703V297.974H562.119V285.558Z" fill="white"/>
<path d="M626.458 221.219H614.042V233.635H626.458V221.219Z" fill="white"/>
<path d="M690.799 285.558H678.383V297.974H690.799V285.558Z" fill="white"/>
<path d="M755.137 221.219H742.721V233.635H755.137V221.219Z" fill="white"/>
</g>
<defs>
<clipPath id="clip0">
<rect width="789" height="789" fill="white" transform="translate(0 -70)"/>
</clipPath>
</defs>
</svg>
