<svg width="569" height="290" viewBox="0 0 569 290" fill="none" xmlns="http://www.w3.org/2000/svg">
<g clip-path="url(#clip0)">
<path d="M49.532 5.49992C49.532 8.67278 45.9078 11.8456 42.2836 11.8456C38.6594 11.8456 35.0352 8.67278 35.0352 5.49992C35.0352 2.32707 38.6594 -0.845795 42.2836 -0.845795C47.1158 -0.845795 49.532 1.26945 49.532 5.49992Z" fill="#131313"/>
<path d="M79.7341 23.4796C79.7341 26.6524 76.1099 29.8253 72.4857 29.8253C68.8615 29.8253 65.2373 26.6524 65.2373 23.4796C65.2373 20.3067 67.6534 17.1339 72.4857 17.1339C76.1099 17.1339 79.7341 19.2491 79.7341 23.4796Z" fill="#131313"/>
<path d="M108.726 41.4592C108.726 45.6897 105.102 48.8625 101.478 48.8625C97.8537 48.8625 94.2295 45.6897 94.2295 42.5168C94.2295 39.344 97.8537 36.1711 101.478 36.1711C105.102 35.1135 108.726 38.2864 108.726 41.4592Z" fill="#131313"/>
<path d="M105.102 76.3606C105.102 79.5335 101.478 82.7064 97.8534 82.7064C94.2292 82.7064 90.605 79.5335 90.605 76.3606C90.605 73.1877 94.2292 70.0149 97.8534 70.0149C101.478 68.9573 105.102 72.1301 105.102 76.3606Z" fill="#131313"/>
<path d="M76.1091 57.3235C76.1091 60.4964 72.4849 63.6693 68.8607 63.6693C65.2365 63.6693 61.6123 60.4964 61.6123 57.3235C61.6123 54.1507 65.2365 50.9778 68.8607 50.9778C72.4849 50.9778 76.1091 54.1507 76.1091 57.3235Z" fill="#131313"/>
<path d="M47.1164 39.3439C47.1164 42.5167 43.4922 45.6896 39.868 45.6896C36.2438 45.6896 32.6196 42.5167 32.6196 39.3439C32.6196 36.171 36.2438 32.9981 39.868 32.9981C43.4922 32.9981 47.1164 36.171 47.1164 39.3439Z" fill="#131313"/>
<path d="M18.1213 21.3642C18.1213 24.5371 14.4971 27.7099 10.8729 27.7099C7.24872 27.7099 3.62451 24.5371 3.62451 21.3642C3.62451 18.1914 7.24872 15.0185 10.8729 15.0185C14.4971 15.0185 18.1213 18.1914 18.1213 21.3642Z" fill="#131313"/>
<path d="M15.7058 57.3235C15.7058 60.4964 12.0816 63.6693 8.45739 63.6693C4.83319 63.6693 1.20898 60.4964 1.20898 57.3235C1.20898 54.1507 4.83319 50.9778 8.45739 50.9778C12.0816 50.9778 15.7058 54.1507 15.7058 57.3235Z" fill="#131313"/>
<path d="M43.4919 74.2453C43.4919 77.4181 39.8677 80.5909 36.2435 80.5909C32.6193 80.5909 28.9951 77.4181 28.9951 74.2453C28.9951 71.0724 32.6193 67.8995 36.2435 67.8995C39.8677 67.8995 43.4919 71.0724 43.4919 74.2453Z" fill="#131313"/>
<path d="M15.7058 96.4553C15.7058 99.6282 12.0816 102.801 8.45739 102.801C4.83319 102.801 1.20898 99.6282 1.20898 96.4553C1.20898 93.2825 4.83319 90.1096 8.45739 90.1096C12.0816 89.052 15.7058 92.2248 15.7058 96.4553Z" fill="#131313"/>
<path d="M42.2829 109.147C42.2829 112.32 38.6587 115.493 35.0345 115.493C31.4103 115.493 27.7861 112.32 27.7861 109.147C27.7861 105.974 31.4103 102.801 35.0345 102.801C38.6587 101.744 42.2829 104.916 42.2829 109.147Z" fill="#131313"/>
<path d="M21.7463 135.587C21.7463 138.76 18.1221 141.933 14.4979 141.933C10.8737 141.933 7.24951 138.76 7.24951 135.587C7.24951 132.415 10.8737 129.242 14.4979 129.242C18.1221 129.242 21.7463 132.415 21.7463 135.587Z" fill="#131313"/>
<path d="M51.948 157.798C51.948 160.97 48.3238 164.143 44.6996 164.143C41.0754 164.143 37.4512 160.97 37.4512 157.798C37.4512 154.625 41.0754 151.452 44.6996 151.452C48.3238 151.452 51.948 154.625 51.948 157.798Z" fill="#131313"/>
<path d="M19.3303 173.662C19.3303 176.835 15.7061 180.008 12.0819 180.008C8.4577 180.008 4.8335 176.835 4.8335 173.662C4.8335 170.489 8.4577 167.316 12.0819 167.316C15.7061 167.316 19.3303 169.431 19.3303 173.662Z" fill="#131313"/>
<path d="M48.3241 192.699C48.3241 195.872 44.6999 199.045 41.0757 199.045C37.4515 199.045 33.8273 195.872 33.8273 192.699C32.6192 189.526 36.2434 186.353 39.8676 186.353C44.6999 186.353 48.3241 189.526 48.3241 192.699Z" fill="#131313"/>
<path d="M19.3303 212.794C19.3303 215.966 15.7061 219.139 12.0819 219.139C8.4577 219.139 4.8335 215.966 4.8335 212.794C4.8335 209.621 8.4577 206.448 12.0819 206.448C15.7061 206.448 19.3303 209.621 19.3303 212.794Z" fill="#131313"/>
<path d="M19.3303 248.753C19.3303 251.926 15.7061 255.098 12.0819 255.098C8.4577 255.098 4.8335 251.926 4.8335 248.753C4.8335 245.58 8.4577 242.407 12.0819 242.407C16.9142 242.407 19.3303 245.58 19.3303 248.753Z" fill="#131313"/>
<path d="M15.7058 283.654C15.7058 286.827 12.0816 290 8.45739 290C4.83319 290 1.20898 286.827 1.20898 283.654C1.20898 280.481 4.83319 277.309 8.45739 277.309C12.0816 277.309 15.7058 280.481 15.7058 283.654Z" fill="#131313"/>
<path d="M55.5725 260.387C55.5725 263.559 51.9483 266.732 48.3241 266.732C44.6999 266.732 41.0757 263.559 41.0757 260.387C41.0757 257.214 44.6999 254.041 48.3241 254.041C53.1564 254.041 55.5725 257.214 55.5725 260.387Z" fill="#131313"/>
<path d="M51.948 229.716C51.948 232.888 48.3238 236.061 44.6996 236.061C41.0754 236.061 37.4512 232.888 37.4512 229.716C37.4512 226.543 41.0754 223.37 44.6996 223.37C48.3238 223.37 51.948 225.485 51.948 229.716Z" fill="#131313"/>
<path d="M93.0212 239.234C93.0212 242.407 89.397 245.58 85.7728 245.58C82.1486 245.58 78.5244 242.407 78.5244 239.234C78.5244 236.061 82.1486 232.888 85.7728 232.888C89.397 232.888 93.0212 235.004 93.0212 239.234Z" fill="#131313"/>
<path d="M77.3181 210.679C77.3181 213.851 73.6939 217.024 70.0697 217.024C66.4455 217.024 62.8213 213.851 62.8213 210.679C62.8213 207.506 66.4455 204.333 70.0697 204.333C74.902 204.333 77.3181 207.506 77.3181 210.679Z" fill="#131313"/>
<path d="M109.936 201.16C109.936 204.333 106.312 207.505 102.687 207.505C99.0632 207.505 95.439 204.333 95.439 201.16C95.439 197.987 99.0632 194.814 102.687 194.814C106.312 193.756 109.936 196.929 109.936 201.16Z" fill="#131313"/>
<path d="M132.888 222.312C132.888 225.485 129.264 228.658 125.64 228.658C122.015 228.658 118.391 225.485 118.391 222.312C118.391 219.139 122.015 215.966 125.64 215.966C129.264 215.966 132.888 219.139 132.888 222.312Z" fill="#131313"/>
<path d="M171.546 205.39C171.546 208.563 167.921 211.736 164.297 211.736C160.673 211.736 157.049 208.563 157.049 205.39C157.049 202.218 160.673 199.045 164.297 199.045C167.921 199.045 171.546 202.218 171.546 205.39Z" fill="#131313"/>
<path d="M143.762 187.411C143.762 190.584 140.138 193.757 136.514 193.757C132.889 193.757 129.265 190.584 129.265 187.411C129.265 184.238 132.889 181.065 136.514 181.065C140.138 181.065 143.762 184.238 143.762 187.411Z" fill="#131313"/>
<path d="M80.9407 177.892C80.9407 181.065 77.3165 184.238 73.6923 184.238C70.068 184.238 66.4438 181.065 66.4438 177.892C66.4438 174.719 70.068 171.547 73.6923 171.547C77.3165 171.547 80.9407 174.719 80.9407 177.892Z" fill="#131313"/>
<path d="M117.182 167.316C117.182 170.489 113.558 173.662 109.934 173.662C106.31 173.662 102.686 170.489 102.686 167.316C102.686 164.143 106.31 160.97 109.934 160.97C113.558 159.913 117.182 163.086 117.182 167.316Z" fill="#131313"/>
<path d="M124.432 131.357C124.432 134.53 120.808 137.703 117.183 137.703C113.559 137.703 109.935 134.53 109.935 131.357C109.935 128.184 113.559 125.011 117.183 125.011C120.808 125.011 124.432 128.184 124.432 131.357Z" fill="#131313"/>
<path d="M90.6057 146.164C90.6057 149.337 86.9815 152.509 83.3573 152.509C79.7331 152.509 76.1089 149.337 76.1089 146.164C76.1089 142.991 79.7331 139.818 83.3573 139.818C86.9815 139.818 90.6057 142.991 90.6057 146.164Z" fill="#131313"/>
<path d="M64.0286 128.184C64.0286 131.357 60.4044 134.53 56.7801 134.53C53.1559 134.53 49.5317 131.357 49.5317 128.184C49.5317 125.011 53.1559 121.838 56.7801 121.838C60.4044 121.838 64.0286 123.953 64.0286 128.184Z" fill="#131313"/>
<path d="M72.4846 91.1672C72.4846 94.3401 68.8604 97.5129 65.2362 97.5129C61.612 97.5129 57.9878 94.3401 57.9878 91.1672C57.9878 87.9943 61.612 84.8215 65.2362 84.8215C68.8604 84.8215 72.4846 87.9943 72.4846 91.1672Z" fill="#131313"/>
<path d="M97.8547 112.32C97.8547 115.493 94.2305 118.665 90.6063 118.665C86.9821 118.665 83.3579 115.493 83.3579 112.32C83.3579 109.147 86.9821 105.974 90.6063 105.974C94.2305 104.916 97.8547 108.089 97.8547 112.32Z" fill="#131313"/>
<path d="M130.472 96.4553C130.472 99.6282 126.848 102.801 123.224 102.801C119.6 102.801 115.976 99.6282 115.976 96.4553C115.976 93.2825 119.6 90.1096 123.224 90.1096C126.848 89.052 130.472 92.2248 130.472 96.4553Z" fill="#131313"/>
<path d="M157.049 115.493C157.049 118.666 153.425 121.838 149.801 121.838C146.176 121.838 142.552 118.666 142.552 115.493C142.552 112.32 146.176 109.147 149.801 109.147C153.425 109.147 157.049 112.32 157.049 115.493Z" fill="#131313"/>
<path d="M182.42 135.587C182.42 138.76 178.795 141.933 175.171 141.933C171.547 141.933 167.923 138.76 167.923 135.587C167.923 132.415 171.547 129.242 175.171 129.242C178.795 128.184 182.42 131.357 182.42 135.587Z" fill="#131313"/>
<path d="M149.802 151.452C149.802 154.625 146.178 157.797 142.554 157.797C138.93 157.797 135.306 154.625 135.306 151.452C135.306 148.279 138.93 145.106 142.554 145.106C146.178 145.106 149.802 148.279 149.802 151.452Z" fill="#131313"/>
<path d="M176.379 170.489C176.379 173.662 172.755 176.835 169.131 176.835C165.507 176.835 161.882 173.662 161.882 170.489C161.882 167.316 165.507 164.143 169.131 164.143C172.755 164.143 176.379 166.258 176.379 170.489Z" fill="#131313"/>
<path d="M206.581 185.295C206.581 188.468 202.957 191.641 199.332 191.641C195.708 191.641 192.084 188.468 192.084 185.295C192.084 182.123 195.708 178.95 199.332 178.95C202.957 178.95 206.581 181.065 206.581 185.295Z" fill="#131313"/>
<path d="M210.206 152.509C210.206 155.682 206.582 158.855 202.957 158.855C199.333 158.855 195.709 155.682 195.709 152.509C195.709 149.336 199.333 146.163 202.957 146.163C206.582 145.106 210.206 148.279 210.206 152.509Z" fill="#131313"/>
<path d="M240.407 167.316C240.407 170.489 236.783 173.662 233.159 173.662C229.535 173.662 225.911 170.489 225.911 167.316C225.911 164.143 229.535 160.97 233.159 160.97C236.783 159.913 240.407 163.086 240.407 167.316Z" fill="#131313"/>
<path d="M276.65 151.452C276.65 154.625 273.025 157.797 269.401 157.797C265.777 157.797 262.153 154.625 262.153 151.452C262.153 148.279 265.777 145.106 269.401 145.106C273.025 145.106 276.65 148.279 276.65 151.452Z" fill="#131313"/>
<path d="M245.239 135.587C245.239 138.76 241.615 141.933 237.991 141.933C234.366 141.933 230.742 138.76 230.742 135.587C230.742 132.415 234.366 129.242 237.991 129.242C241.615 129.242 245.239 132.415 245.239 135.587Z" fill="#131313"/>
<path d="M280.272 120.781C280.272 123.953 276.648 127.126 273.023 127.126C269.399 127.126 265.775 123.953 265.775 120.781C265.775 117.608 269.399 114.435 273.023 114.435C276.648 113.377 280.272 116.55 280.272 120.781Z" fill="#131313"/>
<path d="M311.682 133.472C311.682 136.645 308.058 139.818 304.434 139.818C300.81 139.818 297.186 136.645 297.186 133.472C297.186 130.299 300.81 127.126 304.434 127.126C308.058 127.126 311.682 130.299 311.682 133.472Z" fill="#131313"/>
<path d="M283.896 89.0519C283.896 92.2247 280.272 95.3976 276.648 95.3976C273.024 95.3976 269.399 92.2247 269.399 89.0519C269.399 85.879 273.024 82.7062 276.648 82.7062C280.272 81.6486 283.896 84.8214 283.896 89.0519Z" fill="#131313"/>
<path d="M259.735 70.0148C259.735 73.1877 256.111 76.3605 252.487 76.3605C248.862 76.3605 245.238 73.1877 245.238 70.0148C245.238 66.8419 248.862 63.6691 252.487 63.6691C257.319 63.6691 259.735 66.8419 259.735 70.0148Z" fill="#131313"/>
<path d="M234.367 50.9778C234.367 54.1506 230.743 57.3235 227.119 57.3235C223.494 57.3235 219.87 54.1506 219.87 50.9778C219.87 47.8049 223.494 44.632 227.119 44.632C230.743 44.632 234.367 47.8049 234.367 50.9778Z" fill="#131313"/>
<path d="M198.125 65.7844C198.125 68.9573 194.501 72.1302 190.877 72.1302C187.253 72.1302 183.628 68.9573 183.628 65.7844C183.628 62.6115 187.253 59.4387 190.877 59.4387C194.501 58.3811 198.125 61.5539 198.125 65.7844Z" fill="#131313"/>
<path d="M224.702 84.8214C224.702 87.9943 221.078 91.1671 217.453 91.1671C213.829 91.1671 210.205 87.9943 210.205 84.8214C210.205 81.6486 213.829 78.4757 217.453 78.4757C221.078 78.4757 224.702 80.591 224.702 84.8214Z" fill="#131313"/>
<path d="M250.07 103.859C250.07 107.032 246.446 110.205 242.822 110.205C239.197 110.205 235.573 107.032 235.573 103.859C235.573 100.686 239.197 97.5131 242.822 97.5131C247.654 97.5131 250.07 99.6283 250.07 103.859Z" fill="#131313"/>
<path d="M216.246 118.665C216.246 121.838 212.622 125.011 208.997 125.011C205.373 125.011 201.749 121.838 201.749 118.665C201.749 115.493 205.373 112.32 208.997 112.32C212.622 112.32 216.246 115.493 216.246 118.665Z" fill="#131313"/>
<path d="M189.667 99.6284C189.667 102.801 186.043 105.974 182.418 105.974C178.794 105.974 175.17 102.801 175.17 99.6284C175.17 96.4555 178.794 93.2827 182.418 93.2827C187.251 93.2827 189.667 96.4555 189.667 99.6284Z" fill="#131313"/>
<path d="M164.299 80.591C164.299 83.7639 160.674 86.9367 157.05 86.9367C153.426 86.9367 149.802 83.7639 149.802 80.591C149.802 77.4181 153.426 74.2453 157.05 74.2453C160.674 74.2453 164.299 76.3605 164.299 80.591Z" fill="#131313"/>
<path d="M137.721 60.4963C137.721 63.6691 134.097 66.842 130.473 66.842C126.849 66.842 123.225 63.6691 123.225 60.4963C123.225 57.3234 126.849 54.1505 130.473 54.1505C134.097 54.1505 137.721 57.3234 137.721 60.4963Z" fill="#131313"/>
<path d="M171.546 45.6897C171.546 48.8625 167.921 52.0354 164.297 52.0354C160.673 52.0354 157.049 48.8625 157.049 45.6897C157.049 42.5168 160.673 39.3439 164.297 39.3439C167.921 39.3439 171.546 42.5168 171.546 45.6897Z" fill="#131313"/>
<path d="M142.553 26.6523C142.553 29.8252 138.929 32.998 135.305 32.998C131.68 32.998 128.056 29.8252 128.056 26.6523C128.056 23.4794 131.68 20.3066 135.305 20.3066C138.929 20.3066 142.553 22.4218 142.553 26.6523Z" fill="#131313"/>
<path d="M113.56 7.61526C113.56 10.7881 109.936 13.961 106.312 13.961C102.688 13.961 99.0635 10.7881 99.0635 7.61526C99.0635 4.4424 102.688 1.26953 106.312 1.26953C109.936 1.26953 113.56 4.4424 113.56 7.61526Z" fill="#131313"/>
<path d="M177.586 12.9034C177.586 16.0762 173.962 19.2491 170.338 19.2491C166.714 19.2491 163.089 16.0762 163.089 12.9034C163.089 9.73051 166.714 6.55764 170.338 6.55764C173.962 5.50002 177.586 8.67289 177.586 12.9034Z" fill="#131313"/>
<path d="M206.581 31.9404C206.581 35.1133 202.957 38.2861 199.332 38.2861C195.708 38.2861 192.084 35.1133 192.084 31.9404C192.084 28.7675 195.708 25.5947 199.332 25.5947C202.957 25.5947 206.581 27.7099 206.581 31.9404Z" fill="#131313"/>
<path d="M244.029 20.3066C244.029 23.4794 240.405 26.6523 236.781 26.6523C233.157 26.6523 229.533 23.4794 229.533 20.3066C229.533 17.1337 233.157 13.9608 236.781 13.9608C240.405 12.9032 244.029 16.0761 244.029 20.3066Z" fill="#131313"/>
<path d="M279.065 7.61526C279.065 10.7881 275.441 13.961 271.817 13.961C268.193 13.961 264.568 10.7881 264.568 7.61526C264.568 4.4424 268.193 1.26953 271.817 1.26953C275.441 1.26953 279.065 4.4424 279.065 7.61526Z" fill="#131313"/>
<path d="M315.307 -4.0186C315.307 -0.845744 311.683 2.32712 308.059 2.32712C304.435 2.32712 300.811 -0.845744 300.811 -4.0186C300.811 -7.19146 304.435 -10.3643 308.059 -10.3643C311.683 -11.4219 315.307 -8.24908 315.307 -4.0186Z" fill="#131313"/>
<path d="M310.473 29.8254C310.473 32.9982 306.849 36.1711 303.225 36.1711C299.601 36.1711 295.977 32.9982 295.977 29.8254C295.977 26.6525 299.601 23.4796 303.225 23.4796C306.849 23.4796 310.473 26.6525 310.473 29.8254Z" fill="#131313"/>
<path d="M274.231 41.4592C274.231 44.6321 270.607 47.8049 266.983 47.8049C263.359 47.8049 259.734 44.6321 259.734 41.4592C259.734 38.2864 263.359 35.1135 266.983 35.1135C270.607 35.1135 274.231 38.2864 274.231 41.4592Z" fill="#131313"/>
<path d="M306.851 63.6691C306.851 66.8419 303.227 70.0148 299.603 70.0148C295.979 70.0148 292.354 66.8419 292.354 63.6691C292.354 60.4962 295.979 57.3233 299.603 57.3233C303.227 57.3233 306.851 60.4962 306.851 63.6691Z" fill="#131313"/>
<path d="M343.093 81.6487C343.093 84.8216 339.469 87.9944 335.845 87.9944C332.221 87.9944 328.597 84.8216 328.597 81.6487C328.597 78.4758 332.221 75.303 335.845 75.303C339.469 75.303 343.093 77.4182 343.093 81.6487Z" fill="#131313"/>
<path d="M314.098 99.6284C314.098 102.801 310.474 105.974 306.849 105.974C303.225 105.974 299.601 102.801 299.601 99.6284C299.601 96.4555 303.225 93.2827 306.849 93.2827C310.474 93.2827 314.098 96.4555 314.098 99.6284Z" fill="#131313"/>
<path d="M344.3 115.492C344.3 118.665 340.676 121.838 337.052 121.838C333.427 121.838 329.803 118.665 329.803 115.492C329.803 112.32 333.427 109.147 337.052 109.147C340.676 108.089 344.3 111.262 344.3 115.492Z" fill="#131313"/>
<path d="M378.126 98.5707C378.126 101.744 374.502 104.916 370.878 104.916C367.254 104.916 363.629 101.744 363.629 98.5707C363.629 95.3979 367.254 92.225 370.878 92.225C374.502 92.225 378.126 95.3979 378.126 98.5707Z" fill="#131313"/>
<path d="M379.335 66.8421C379.335 70.0149 375.711 73.1878 372.087 73.1878C368.463 73.1878 364.838 70.0149 364.838 66.8421C364.838 63.6692 368.463 60.4964 372.087 60.4964C375.711 60.4964 379.335 63.6692 379.335 66.8421Z" fill="#131313"/>
<path d="M378.126 36.1709C378.126 39.3437 374.502 42.5166 370.878 42.5166C367.254 42.5166 363.629 39.3437 363.629 36.1709C363.629 32.998 367.254 29.8252 370.878 29.8252C375.71 28.7675 378.126 31.9404 378.126 36.1709Z" fill="#131313"/>
<path d="M416.784 50.9778C416.784 54.1506 413.16 57.3235 409.536 57.3235C405.911 57.3235 402.287 54.1506 402.287 50.9778C402.287 47.8049 405.911 44.632 409.536 44.632C413.16 43.5744 416.784 46.7473 416.784 50.9778Z" fill="#131313"/>
<path d="M414.368 81.6488C414.368 84.8216 410.744 87.9945 407.12 87.9945C403.496 87.9945 399.872 84.8216 399.872 81.6488C399.872 78.4759 403.496 75.303 407.12 75.303C411.952 74.2454 414.368 77.4183 414.368 81.6488Z" fill="#131313"/>
<path d="M453.026 59.4386C453.026 62.6115 449.401 65.7843 445.777 65.7843C442.153 65.7843 438.529 62.6115 438.529 59.4386C438.529 56.2658 442.153 53.0929 445.777 53.0929C449.401 52.0353 453.026 55.2082 453.026 59.4386Z" fill="#131313"/>
<path d="M489.268 39.3439C489.268 42.5167 485.644 45.6896 482.019 45.6896C478.395 45.6896 474.771 42.5167 474.771 39.3439C474.771 36.171 478.395 32.9981 482.019 32.9981C485.644 32.9981 489.268 36.171 489.268 39.3439Z" fill="#131313"/>
<path d="M453.026 22.4219C453.026 25.5947 449.401 28.7676 445.777 28.7676C442.153 28.7676 438.529 25.5947 438.529 22.4219C438.529 19.249 442.153 16.0762 445.777 16.0762C449.401 16.0762 453.026 19.249 453.026 22.4219Z" fill="#131313"/>
<path d="M491.683 5.49992C491.683 8.67278 488.059 11.8456 484.435 11.8456C480.811 11.8456 477.187 8.67278 477.187 5.49992C477.187 2.32707 480.811 -0.845795 484.435 -0.845795C488.059 -0.845795 491.683 1.26945 491.683 5.49992Z" fill="#131313"/>
<path d="M529.135 22.4219C529.135 25.5948 525.51 28.7676 521.886 28.7676C518.262 28.7676 514.638 25.5948 514.638 22.4219C514.638 19.2491 518.262 16.0762 521.886 16.0762C525.51 15.0186 529.135 18.1914 529.135 22.4219Z" fill="#131313"/>
<path d="M569.001 3.38487C569.001 6.55773 566.585 8.67297 562.961 8.67297C559.337 8.67297 556.92 6.55773 556.92 3.38487C556.92 0.212012 559.337 -1.90323 562.961 -1.90323C566.585 -1.90323 569.001 0.212012 569.001 3.38487Z" fill="#131313"/>
<path d="M422.824 -6.13374C422.824 -2.96088 419.2 0.211976 415.576 0.211976C411.951 0.211976 408.327 -2.96088 408.327 -6.13374C408.327 -9.30659 411.951 -12.4794 415.576 -12.4794C419.2 -12.4794 422.824 -10.3642 422.824 -6.13374Z" fill="#131313"/>
<path d="M413.159 22.4219C413.159 25.5948 409.535 28.7676 405.91 28.7676C402.286 28.7676 398.662 25.5948 398.662 22.4219C398.662 19.2491 402.286 16.0762 405.91 16.0762C410.743 15.0186 413.159 18.1914 413.159 22.4219Z" fill="#131313"/>
<path d="M382.957 3.38484C382.957 6.55771 379.333 9.73056 375.709 9.73056C372.085 9.73056 368.46 6.55771 368.46 3.38484C368.46 0.211964 372.085 -2.96091 375.709 -2.96091C379.333 -4.01853 382.957 -0.845659 382.957 3.38484Z" fill="#131313"/>
<path d="M341.884 49.9201C341.884 53.093 338.26 56.2658 334.636 56.2658C331.011 56.2658 327.387 53.093 327.387 49.9201C327.387 46.7472 331.011 43.5744 334.636 43.5744C339.468 42.5167 341.884 45.6896 341.884 49.9201Z" fill="#131313"/>
<path d="M345.509 16.0761C345.509 19.249 341.885 22.4218 338.261 22.4218C334.636 22.4218 331.012 19.249 331.012 16.0761C331.012 12.9033 334.636 9.73041 338.261 9.73041C343.093 9.73041 345.509 12.9033 345.509 16.0761Z" fill="#131313"/>
<path d="M213.828 -0.845637C213.828 2.32723 210.204 5.50009 206.579 5.50009C202.955 5.50009 199.331 2.32723 199.331 -0.845637C199.331 -4.0185 202.955 -7.19135 206.579 -7.19135C210.204 -7.19135 213.828 -4.0185 213.828 -0.845637Z" fill="#131313"/>
</g>
<defs>
<clipPath id="clip0">
<rect width="569" height="569" fill="white" transform="translate(0 -279)"/>
</clipPath>
</defs>
</svg>
