<svg width="451" height="330" viewBox="0 0 451 330" fill="none" xmlns="http://www.w3.org/2000/svg">
<path d="M130.266 6.60892L132.638 8.98097C206.172 -64.5529 325.566 -64.5529 398.704 8.98097L401.076 6.60892C326.356 -68.111 204.986 -68.111 130.266 6.60892Z" fill="black"/>
<path d="M142.521 19.2597L144.894 21.6318C211.311 -44.786 319.635 -44.786 386.053 21.6318L388.425 19.2597C320.821 -48.7394 210.521 -48.7394 142.521 19.2597Z" fill="black"/>
<path d="M155.172 31.5154L157.544 33.8875C217.241 -25.8094 314.101 -25.8094 373.797 33.8875L376.169 31.5154C315.287 -29.3675 216.055 -29.3675 155.172 31.5154Z" fill="black"/>
<path d="M167.428 44.1665L169.8 46.5385C222.381 -6.04217 308.566 -6.04217 361.147 46.5385L363.519 44.1665C309.752 -9.9956 221.59 -9.9956 167.428 44.1665Z" fill="black"/>
<path d="M172.172 48.9106L165.056 41.7944C109.708 97.1426 109.708 187.281 165.056 242.629L168.614 239.071L172.172 235.513C120.777 184.118 120.777 100.305 172.172 48.9106Z" fill="black"/>
<path d="M172.172 48.9106L169.8 46.5385L167.428 44.1665L165.056 41.7944L172.172 48.9106Z" fill="black"/>
<path d="M157.544 33.8876L155.172 31.5155L152.8 29.1434L159.916 36.2596L157.544 33.8876Z" fill="black"/>
<path d="M152.8 254.885L159.917 247.768C101.406 189.258 101.406 94.3751 159.917 36.2596L152.8 29.1434C90.3361 91.6077 90.3361 192.816 152.8 254.885Z" fill="black"/>
<path d="M144.893 21.6318L142.521 19.2598L140.149 16.8877L147.265 24.0039L144.893 21.6318Z" fill="black"/>
<path d="M140.149 267.536L147.266 260.419C82.0338 195.188 82.0338 89.2356 147.266 24.0039L140.149 16.8877C70.9642 86.0728 70.9642 198.35 140.149 267.536Z" fill="black"/>
<path d="M127.894 280.187L135.01 273.07C63.0573 201.118 63.0573 83.7009 135.01 11.353L127.894 4.23682C51.5924 80.5381 51.5924 203.885 127.894 280.187Z" fill="black"/>
<path d="M132.638 8.98094L130.266 6.60888L127.894 4.23682L135.01 11.353L132.638 8.98094Z" fill="black"/>
<path d="M115.243 292.442L122.359 285.326C43.2902 206.257 43.2902 77.7707 122.359 -1.298L115.243 -8.41418C32.2205 74.608 32.2205 209.42 115.243 292.442Z" fill="black"/>
<path d="M102.987 305.093L110.103 297.977C23.9183 212.187 23.9183 72.2358 109.708 -13.5537L102.987 -20.6699C12.8487 69.0731 12.8487 215.35 102.987 305.093Z" fill="black"/>
<path d="M90.3359 317.349L97.4521 310.233C4.54635 217.327 4.54635 66.7011 97.4521 -26.2047L90.3359 -32.9255C-6.12793 63.5383 -6.12793 220.885 90.3359 317.349Z" fill="black"/>
<path d="M84.8012 -38.4603L77.6851 -45.5765C-25.895 58.0035 -25.895 226.42 77.6851 330L84.8012 322.884C-14.8254 223.257 -14.8254 61.1663 84.8012 -38.4603Z" fill="black"/>
</svg>
