<svg width="400" height="220" viewBox="0 0 400 220" fill="none" xmlns="http://www.w3.org/2000/svg">
<g clip-path="url(#clip0)">
<path d="M11.0412 4.46097C11.0412 6.69145 8.49341 8.92193 5.94564 8.92193C3.39787 8.92193 0.850098 6.69145 0.850098 4.46097C0.850098 2.23048 3.39787 0 5.94564 0C9.34267 0 11.0412 2.23048 11.0412 4.46097Z" fill="#131313"/>
<path d="M13.5893 33.4572C13.5893 35.6877 11.0415 37.9181 8.49374 37.9181C5.94596 37.9181 3.39819 35.6877 3.39819 33.4572C3.39819 31.2267 5.94596 28.9962 8.49374 28.9962C11.0415 28.9962 13.5893 31.2267 13.5893 33.4572Z" fill="#131313"/>
<path d="M36.5181 41.6357C36.5181 43.8662 33.9704 46.0967 31.4226 46.0967C28.0256 46.0967 25.4778 43.8662 25.4778 41.6357C25.4778 38.6617 28.0256 37.1747 31.4226 37.1747C33.9704 37.1747 36.5181 38.6617 36.5181 41.6357Z" fill="#131313"/>
<path d="M15.2867 62.4535C15.2867 64.6839 12.7389 66.9144 9.34188 66.9144C6.79411 66.9144 4.24634 64.6839 4.24634 62.4535C4.24634 60.223 6.79411 57.9925 9.34188 57.9925C12.7389 57.249 15.2867 59.4795 15.2867 62.4535Z" fill="#131313"/>
<path d="M39.9152 62.4535C39.9152 64.6839 37.3674 66.9144 34.8197 66.9144C32.2719 66.9144 29.7241 64.6839 29.7241 62.4535C29.7241 60.223 32.2719 57.9925 34.8197 57.9925C37.3674 57.9925 39.9152 60.223 39.9152 62.4535Z" fill="#131313"/>
<path d="M37.3688 83.2714C37.3688 85.5019 34.821 87.7324 32.2733 87.7324C29.7255 87.7324 27.1777 85.5019 27.1777 83.2714C27.1777 81.0409 29.7255 78.8104 32.2733 78.8104C35.6703 78.8104 37.3688 81.0409 37.3688 83.2714Z" fill="#131313"/>
<path d="M13.5893 88.4758C13.5893 90.7063 11.0415 92.9367 8.49374 92.9367C5.94596 92.9367 3.39819 90.7063 3.39819 88.4758C3.39819 86.2453 5.94596 84.0148 8.49374 84.0148C11.0415 84.0148 13.5893 86.2453 13.5893 88.4758Z" fill="#131313"/>
<path d="M14.4374 114.498C14.4374 116.729 11.8897 118.959 9.34188 118.959C6.79411 118.959 4.24634 116.729 4.24634 114.498C4.24634 112.268 6.79411 110.037 9.34188 110.037C11.8897 109.294 14.4374 111.524 14.4374 114.498Z" fill="#131313"/>
<path d="M14.4374 139.034C14.4374 141.264 11.8897 143.494 9.34188 143.494C6.79411 143.494 4.24634 141.264 4.24634 139.034C4.24634 136.803 6.79411 134.573 9.34188 134.573C11.8897 134.573 14.4374 136.803 14.4374 139.034Z" fill="#131313"/>
<path d="M14.4374 163.569C14.4374 165.799 11.8897 168.03 9.34188 168.03C6.79411 168.03 4.24634 165.799 4.24634 163.569C4.24634 161.338 6.79411 159.108 9.34188 159.108C11.8897 159.108 14.4374 160.595 14.4374 163.569Z" fill="#131313"/>
<path d="M37.3688 152.416C37.3688 154.647 34.821 156.877 32.2733 156.877C29.7255 156.877 27.1777 154.647 27.1777 152.416C27.1777 150.186 29.7255 147.955 32.2733 147.955C34.821 147.955 37.3688 150.186 37.3688 152.416Z" fill="#131313"/>
<path d="M37.3688 128.625C37.3688 130.855 34.821 133.086 32.2733 133.086C29.7255 133.086 27.1777 130.855 27.1777 128.625C27.1777 126.394 29.7255 124.164 32.2733 124.164C34.821 124.164 37.3688 126.394 37.3688 128.625Z" fill="#131313"/>
<path d="M37.3688 105.576C37.3688 107.807 34.821 110.037 32.2733 110.037C29.7255 110.037 27.1777 107.807 27.1777 105.576C27.1777 103.346 29.7255 101.115 32.2733 101.115C35.6703 101.115 37.3688 103.346 37.3688 105.576Z" fill="#131313"/>
<path d="M62.8466 96.6542C62.8466 98.8847 60.2988 101.115 57.7511 101.115C55.2033 101.115 52.6555 98.8847 52.6555 96.6542C52.6555 94.4238 55.2033 92.1933 57.7511 92.1933C60.2988 92.1933 62.8466 94.4238 62.8466 96.6542Z" fill="#131313"/>
<path d="M61.9965 119.703C61.9965 121.933 59.4487 124.164 56.901 124.164C54.3532 124.164 51.8054 121.933 51.8054 119.703C51.8054 117.472 54.3532 115.242 56.901 115.242C59.4487 115.242 61.9965 116.729 61.9965 119.703Z" fill="#131313"/>
<path d="M61.1466 142.007C61.1466 144.238 58.5989 146.468 56.0511 146.468C53.5033 146.468 50.9556 144.238 50.9556 142.007C50.9556 139.777 53.5033 137.546 56.0511 137.546C58.5989 137.546 61.1466 139.777 61.1466 142.007Z" fill="#131313"/>
<path d="M84.078 155.39C84.078 157.621 81.5303 159.851 78.9825 159.851C76.4347 159.851 73.887 157.621 73.887 155.39C73.887 153.16 76.4347 150.929 78.9825 150.929C81.5303 150.929 84.078 152.416 84.078 155.39Z" fill="#131313"/>
<path d="M85.7761 132.342C85.7761 134.573 83.2283 136.803 80.6805 136.803C78.1327 136.803 75.585 134.573 75.585 132.342C75.585 130.112 78.1327 127.881 80.6805 127.881C83.2283 127.881 85.7761 130.112 85.7761 132.342Z" fill="#131313"/>
<path d="M86.6244 110.037C86.6244 112.268 84.0767 114.498 81.5289 114.498C78.9811 114.498 76.4333 112.268 76.4333 110.037C76.4333 107.807 78.9811 105.576 81.5289 105.576C84.9259 105.576 86.6244 107.807 86.6244 110.037Z" fill="#131313"/>
<path d="M87.4743 86.9889C87.4743 89.2194 84.9265 91.4499 82.3787 91.4499C78.9817 91.4499 77.2832 89.2194 77.2832 86.9889C77.2832 84.7584 79.831 82.528 82.3787 82.528C84.9265 82.528 87.4743 84.7584 87.4743 86.9889Z" fill="#131313"/>
<path d="M111.254 100.372C111.254 102.602 108.706 104.833 106.158 104.833C103.611 104.833 101.063 102.602 101.063 100.372C101.063 98.1412 103.611 95.9107 106.158 95.9107C109.555 95.9107 111.254 98.1412 111.254 100.372Z" fill="#131313"/>
<path d="M111.254 123.42C111.254 125.651 108.706 127.881 106.158 127.881C103.611 127.881 101.063 125.651 101.063 123.42C101.063 121.19 103.611 118.959 106.158 118.959C108.706 118.216 111.254 120.446 111.254 123.42Z" fill="#131313"/>
<path d="M109.556 145.725C109.556 147.955 107.008 150.186 104.46 150.186C101.913 150.186 99.3647 147.955 99.3647 145.725C99.3647 143.494 101.913 141.264 104.46 141.264C107.008 141.264 109.556 142.751 109.556 145.725Z" fill="#131313"/>
<path d="M107.007 168.03C107.007 170.26 104.46 172.491 101.912 172.491C99.3642 172.491 96.8164 170.26 96.8164 168.03C96.8164 165.799 99.3642 163.569 101.912 163.569C104.46 163.569 107.007 165.799 107.007 168.03Z" fill="#131313"/>
<path d="M82.3781 178.439C82.3781 180.669 79.8303 182.9 77.2826 182.9C74.7348 182.9 72.187 180.669 72.187 178.439C72.187 176.208 74.7348 173.978 77.2826 173.978C79.8303 173.234 82.3781 175.465 82.3781 178.439Z" fill="#131313"/>
<path d="M60.2985 165.799C60.2985 168.03 57.7507 170.26 55.203 170.26C52.6552 170.26 50.1074 168.03 50.1074 165.799C50.1074 163.569 52.6552 161.338 55.203 161.338C57.7507 160.595 60.2985 162.825 60.2985 165.799Z" fill="#131313"/>
<path d="M36.519 176.208C36.519 178.439 33.9712 180.669 31.4234 180.669C28.8757 180.669 26.3279 178.439 26.3279 176.208C26.3279 173.978 28.8757 171.747 31.4234 171.747C33.9712 171.747 36.519 173.978 36.519 176.208Z" fill="#131313"/>
<path d="M14.4374 187.361C14.4374 189.591 11.8897 191.822 9.34188 191.822C6.79411 191.822 4.24634 189.591 4.24634 187.361C4.24634 185.13 6.79411 182.9 9.34188 182.9C11.8897 182.9 14.4374 185.13 14.4374 187.361Z" fill="#131313"/>
<path d="M34.8207 200C34.8207 202.23 32.273 204.461 29.7252 204.461C27.1774 204.461 24.6296 202.23 24.6296 200C24.6296 197.769 27.1774 195.539 29.7252 195.539C33.1222 195.539 34.8207 197.026 34.8207 200Z" fill="#131313"/>
<path d="M56.0522 212.639C56.0522 214.87 53.5044 217.1 50.9566 217.1C48.4089 217.1 45.8611 214.87 45.8611 212.639C45.8611 210.409 47.5596 208.178 50.9566 208.178C53.5044 208.178 56.0522 209.665 56.0522 212.639Z" fill="#131313"/>
<path d="M33.1225 223.792C33.1225 226.022 30.5747 228.253 28.0269 228.253C25.4792 228.253 22.9314 226.022 22.9314 223.792C22.9314 221.561 25.4792 219.331 28.0269 219.331C30.5747 219.331 33.1225 221.561 33.1225 223.792Z" fill="#131313"/>
<path d="M12.7394 211.152C12.7394 213.383 10.1917 215.613 7.64388 215.613C5.09611 215.613 2.54834 213.383 2.54834 211.152C2.54834 208.922 5.09611 206.691 7.64388 206.691C10.1917 206.691 12.7394 208.922 12.7394 211.152Z" fill="#131313"/>
<path d="M100.213 214.87C100.213 217.1 97.6653 219.331 95.1175 219.331C92.5697 219.331 90.022 217.1 90.022 214.87C90.022 212.639 92.5697 210.409 95.1175 210.409C97.6653 210.409 100.213 211.896 100.213 214.87Z" fill="#131313"/>
<path d="M79.8317 201.487C79.8317 203.717 77.2839 205.948 74.7362 205.948C72.1884 205.948 69.6406 203.717 69.6406 201.487C69.6406 199.257 72.1884 197.026 74.7362 197.026C77.2839 197.026 79.8317 199.257 79.8317 201.487Z" fill="#131313"/>
<path d="M58.6003 188.848C58.6003 191.078 56.0525 193.308 53.5047 193.308C50.957 193.308 48.4092 191.078 48.4092 188.848C48.4092 186.617 50.957 184.387 53.5047 184.387C56.0525 184.387 58.6003 185.874 58.6003 188.848Z" fill="#131313"/>
<path d="M103.61 191.078C103.61 193.309 101.062 195.539 98.514 195.539C95.9662 195.539 93.4185 193.309 93.4185 191.078C93.4185 188.848 95.9662 186.617 98.514 186.617C101.062 186.617 103.61 188.848 103.61 191.078Z" fill="#131313"/>
<path d="M124.841 205.205C124.841 207.435 122.293 209.665 119.745 209.665C117.198 209.665 114.65 207.435 114.65 205.205C114.65 202.974 117.198 200.744 119.745 200.744C122.293 200 124.841 202.231 124.841 205.205Z" fill="#131313"/>
<path d="M145.224 218.587C145.224 220.818 142.676 223.048 140.129 223.048C137.581 223.048 135.033 220.818 135.033 218.587C135.033 216.357 137.581 214.126 140.129 214.126C142.676 214.126 145.224 215.613 145.224 218.587Z" fill="#131313"/>
<path d="M171.55 210.409C171.55 212.639 169.002 214.87 166.454 214.87C163.907 214.87 161.359 212.639 161.359 210.409C161.359 208.178 163.907 205.948 166.454 205.948C169.002 205.204 171.55 207.435 171.55 210.409Z" fill="#131313"/>
<path d="M196.18 201.487C196.18 203.717 193.632 205.948 191.084 205.948C188.536 205.948 185.989 203.717 185.989 201.487C185.989 199.257 188.536 197.026 191.084 197.026C193.632 197.026 196.18 199.257 196.18 201.487Z" fill="#131313"/>
<path d="M221.657 193.309C221.657 195.539 219.11 197.77 216.562 197.77C214.014 197.77 211.466 195.539 211.466 193.309C211.466 191.078 214.014 188.848 216.562 188.848C219.11 188.104 221.657 190.335 221.657 193.309Z" fill="#131313"/>
<path d="M218.259 217.1C218.259 219.331 215.711 221.561 213.164 221.561C210.616 221.561 208.068 219.331 208.068 217.1C208.068 214.87 210.616 212.639 213.164 212.639C215.711 212.639 218.259 214.87 218.259 217.1Z" fill="#131313"/>
<path d="M265.818 221.561C265.818 223.792 263.27 226.022 260.723 226.022C258.175 226.022 255.627 223.792 255.627 221.561C255.627 219.331 258.175 217.1 260.723 217.1C264.12 216.357 265.818 218.587 265.818 221.561Z" fill="#131313"/>
<path d="M343.95 223.792C343.95 226.022 341.402 228.253 338.854 228.253C336.306 228.253 333.759 226.022 333.759 223.792C333.759 221.561 336.306 219.331 338.854 219.331C341.402 219.331 343.95 221.561 343.95 223.792Z" fill="#131313"/>
<path d="M318.472 211.896C318.472 214.126 315.924 216.357 313.376 216.357C310.829 216.357 308.281 214.126 308.281 211.896C308.281 209.665 310.829 207.435 313.376 207.435C315.924 207.435 318.472 209.665 318.472 211.896Z" fill="#131313"/>
<path d="M323.568 186.617C323.568 188.848 321.02 191.078 318.472 191.078C315.925 191.078 313.377 188.848 313.377 186.617C313.377 184.387 315.925 182.156 318.472 182.156C321.02 181.413 323.568 183.643 323.568 186.617Z" fill="#131313"/>
<path d="M345.648 200C345.648 202.23 343.1 204.461 340.552 204.461C338.004 204.461 335.457 202.23 335.457 200C335.457 197.769 338.004 195.539 340.552 195.539C343.1 195.539 345.648 197.026 345.648 200Z" fill="#131313"/>
<path d="M371.975 211.896C371.975 214.126 369.427 216.357 366.88 216.357C364.332 216.357 361.784 214.126 361.784 211.896C361.784 209.665 364.332 207.435 366.88 207.435C369.427 206.691 371.975 208.922 371.975 211.896Z" fill="#131313"/>
<path d="M400.001 198.513C400.001 200.744 398.302 202.231 395.755 202.231C393.207 202.231 391.508 200.744 391.508 198.513C391.508 196.283 393.207 194.796 395.755 194.796C398.302 194.796 400.001 196.283 400.001 198.513Z" fill="#131313"/>
<path d="M372.825 188.848C372.825 191.078 370.278 193.308 367.73 193.308C365.182 193.308 362.634 191.078 362.634 188.848C362.634 186.617 365.182 184.387 367.73 184.387C370.278 184.387 372.825 185.874 372.825 188.848Z" fill="#131313"/>
<path d="M349.046 174.721C349.046 176.952 346.498 179.182 343.95 179.182C341.402 179.182 338.855 176.952 338.855 174.721C338.855 172.491 341.402 170.26 343.95 170.26C347.347 170.26 349.046 171.747 349.046 174.721Z" fill="#131313"/>
<path d="M324.416 161.338C324.416 163.569 321.868 165.799 319.321 165.799C316.773 165.799 314.225 163.569 314.225 161.338C314.225 159.108 316.773 156.877 319.321 156.877C321.868 156.877 324.416 159.108 324.416 161.338Z" fill="#131313"/>
<path d="M298.939 169.517C298.939 171.747 296.391 173.978 293.843 173.978C291.295 173.978 288.748 171.747 288.748 169.517C288.748 167.286 291.295 165.056 293.843 165.056C296.391 165.056 298.939 167.286 298.939 169.517Z" fill="#131313"/>
<path d="M297.24 191.822C297.24 194.052 294.693 196.283 292.145 196.283C289.597 196.283 287.049 194.052 287.049 191.822C287.049 189.591 289.597 187.361 292.145 187.361C294.693 187.361 297.24 188.848 297.24 191.822Z" fill="#131313"/>
<path d="M290.446 211.896C290.446 214.126 287.898 216.357 285.35 216.357C282.803 216.357 280.255 214.126 280.255 211.896C280.255 209.665 282.803 207.435 285.35 207.435C288.747 206.691 290.446 208.922 290.446 211.896Z" fill="#131313"/>
<path d="M269.215 198.513C269.215 200.744 266.667 202.974 264.119 202.974C261.571 202.974 259.023 200.744 259.023 198.513C259.023 196.283 261.571 194.052 264.119 194.052C266.667 193.309 269.215 195.539 269.215 198.513Z" fill="#131313"/>
<path d="M242.889 207.435C242.889 209.665 240.341 211.896 237.793 211.896C235.245 211.896 232.698 209.665 232.698 207.435C232.698 205.204 235.245 202.974 237.793 202.974C241.19 202.974 242.889 205.204 242.889 207.435Z" fill="#131313"/>
<path d="M246.285 184.387C246.285 186.617 243.737 188.848 241.19 188.848C238.642 188.848 236.094 186.617 236.094 184.387C236.094 182.156 238.642 179.926 241.19 179.926C243.737 179.926 246.285 181.413 246.285 184.387Z" fill="#131313"/>
<path d="M273.461 176.208C273.461 178.439 270.913 180.669 268.365 180.669C265.818 180.669 263.27 178.439 263.27 176.208C263.27 173.978 265.818 171.747 268.365 171.747C270.913 171.747 273.461 173.978 273.461 176.208Z" fill="#131313"/>
<path d="M274.311 153.903C274.311 156.134 271.763 158.364 269.215 158.364C266.667 158.364 264.12 156.134 264.12 153.903C264.12 151.673 266.667 149.442 269.215 149.442C271.763 148.699 274.311 150.929 274.311 153.903Z" fill="#131313"/>
<path d="M298.09 147.212C298.09 149.442 295.543 151.673 292.995 151.673C290.447 151.673 287.899 149.442 287.899 147.212C287.899 144.981 290.447 142.751 292.995 142.751C295.543 143.495 298.09 144.981 298.09 147.212Z" fill="#131313"/>
<path d="M271.762 130.855C271.762 133.086 270.064 134.573 267.516 134.573C264.968 134.573 263.27 133.086 263.27 130.855C263.27 128.625 264.968 127.138 267.516 127.138C270.064 127.138 271.762 128.625 271.762 130.855Z" fill="#131313"/>
<path d="M251.381 137.546C251.381 139.777 248.833 142.007 246.286 142.007C243.738 142.007 241.19 139.777 241.19 137.546C241.19 135.316 243.738 133.085 246.286 133.085C248.833 133.085 251.381 134.572 251.381 137.546Z" fill="#131313"/>
<path d="M249.683 161.338C249.683 163.569 247.135 165.799 244.587 165.799C242.04 165.799 239.492 163.569 239.492 161.338C239.492 159.108 242.04 156.877 244.587 156.877C247.135 156.877 249.683 158.364 249.683 161.338Z" fill="#131313"/>
<path d="M227.602 144.238C227.602 146.468 225.054 148.699 222.506 148.699C219.958 148.699 217.411 146.468 217.411 144.238C217.411 142.007 219.958 139.777 222.506 139.777C225.054 139.777 227.602 142.007 227.602 144.238Z" fill="#131313"/>
<path d="M236.944 118.959C236.944 121.19 234.396 123.42 231.849 123.42C229.301 123.42 226.753 121.19 226.753 118.959C226.753 116.729 229.301 114.498 231.849 114.498C234.396 114.498 236.944 116.729 236.944 118.959Z" fill="#131313"/>
<path d="M212.315 104.089C212.315 106.32 209.767 108.55 207.219 108.55C204.671 108.55 202.124 106.32 202.124 104.089C202.124 101.859 204.671 99.6282 207.219 99.6282C209.767 99.6282 212.315 101.859 212.315 104.089Z" fill="#131313"/>
<path d="M185.989 91.4499C185.989 93.6804 183.441 95.9109 180.893 95.9109C178.346 95.9109 175.798 93.6804 175.798 91.4499C175.798 89.2194 178.346 86.9889 180.893 86.9889C183.441 86.9889 185.989 88.4759 185.989 91.4499Z" fill="#131313"/>
<path d="M185.989 115.242C185.989 117.472 183.441 119.703 180.893 119.703C178.346 119.703 175.798 117.472 175.798 115.242C175.798 113.011 178.346 110.781 180.893 110.781C184.29 110.037 185.989 112.268 185.989 115.242Z" fill="#131313"/>
<path d="M209.767 127.881C209.767 130.112 207.219 132.342 204.671 132.342C202.123 132.342 199.575 130.112 199.575 127.881C199.575 125.651 202.123 123.42 204.671 123.42C207.219 123.42 209.767 125.651 209.767 127.881Z" fill="#131313"/>
<path d="M203.822 153.16C203.822 155.39 201.274 157.621 198.727 157.621C196.179 157.621 193.631 155.39 193.631 153.16C193.631 150.929 196.179 148.699 198.727 148.699C201.274 148.699 203.822 150.929 203.822 153.16Z" fill="#131313"/>
<path d="M224.205 168.773C224.205 171.004 221.658 173.234 219.11 173.234C216.562 173.234 214.014 171.004 214.014 168.773C214.014 166.543 216.562 164.312 219.11 164.312C221.658 164.312 224.205 166.543 224.205 168.773Z" fill="#131313"/>
<path d="M199.576 177.695C199.576 179.926 197.028 182.156 194.48 182.156C191.933 182.156 189.385 179.926 189.385 177.695C189.385 175.465 191.933 173.234 194.48 173.234C197.028 173.234 199.576 175.465 199.576 177.695Z" fill="#131313"/>
<path d="M174.948 186.617C174.948 188.848 172.4 191.078 169.853 191.078C167.305 191.078 164.757 188.848 164.757 186.617C164.757 184.387 167.305 182.156 169.853 182.156C172.4 182.156 174.948 184.387 174.948 186.617Z" fill="#131313"/>
<path d="M153.717 172.491C153.717 174.721 151.169 176.952 148.621 176.952C146.073 176.952 143.526 174.721 143.526 172.491C143.526 170.26 146.073 168.03 148.621 168.03C151.169 167.286 153.717 169.517 153.717 172.491Z" fill="#131313"/>
<path d="M150.319 195.539C150.319 197.77 147.771 200 145.223 200C142.675 200 140.127 197.77 140.127 195.539C140.127 193.309 142.675 191.078 145.223 191.078C147.771 191.078 150.319 193.309 150.319 195.539Z" fill="#131313"/>
<path d="M129.087 181.413C129.087 183.643 126.539 185.874 123.992 185.874C121.444 185.874 118.896 183.643 118.896 181.413C118.896 179.182 121.444 176.952 123.992 176.952C126.539 176.952 129.087 179.182 129.087 181.413Z" fill="#131313"/>
<path d="M132.485 159.108C132.485 161.338 129.937 163.569 127.39 163.569C124.842 163.569 122.294 161.338 122.294 159.108C122.294 156.877 124.842 154.647 127.39 154.647C129.937 153.903 132.485 156.134 132.485 159.108Z" fill="#131313"/>
<path d="M135.033 136.06C135.033 138.29 132.486 140.52 129.938 140.52C127.39 140.52 124.842 138.29 124.842 136.06C124.842 133.829 127.39 131.599 129.938 131.599C132.486 131.599 135.033 133.086 135.033 136.06Z" fill="#131313"/>
<path d="M157.113 148.699C157.113 150.929 154.565 153.16 152.017 153.16C149.47 153.16 146.922 150.929 146.922 148.699C146.922 146.468 149.47 144.238 152.017 144.238C155.414 144.238 157.113 146.468 157.113 148.699Z" fill="#131313"/>
<path d="M179.195 162.825C179.195 165.056 176.647 167.286 174.099 167.286C171.551 167.286 169.003 165.056 169.003 162.825C169.003 160.595 171.551 158.364 174.099 158.364C176.647 158.364 179.195 159.851 179.195 162.825Z" fill="#131313"/>
<path d="M183.441 138.29C183.441 140.52 180.893 142.751 178.345 142.751C175.797 142.751 173.25 140.52 173.25 138.29C173.25 136.059 175.797 133.829 178.345 133.829C180.893 133.829 183.441 136.059 183.441 138.29Z" fill="#131313"/>
<path d="M160.511 125.65C160.511 127.881 157.963 130.111 155.416 130.111C152.868 130.111 150.32 127.881 150.32 125.65C150.32 123.42 152.868 121.19 155.416 121.19C157.963 121.19 160.511 123.42 160.511 125.65Z" fill="#131313"/>
<path d="M136.732 113.011C136.732 115.242 134.184 117.472 131.636 117.472C129.088 117.472 126.541 115.242 126.541 113.011C126.541 110.781 129.088 108.55 131.636 108.55C134.184 108.55 136.732 110.781 136.732 113.011Z" fill="#131313"/>
<path d="M135.882 90.7064C135.882 92.9369 133.334 95.1673 130.786 95.1673C128.238 95.1673 125.69 92.9369 125.69 90.7064C125.69 88.4759 128.238 86.2454 130.786 86.2454C133.334 85.5019 135.882 87.7324 135.882 90.7064Z" fill="#131313"/>
<path d="M161.359 102.602C161.359 104.833 158.812 107.063 156.264 107.063C153.716 107.063 151.168 104.833 151.168 102.602C151.168 100.372 153.716 98.1414 156.264 98.1414C158.812 98.1414 161.359 100.372 161.359 102.602Z" fill="#131313"/>
<path d="M160.511 79.5539C160.511 81.7844 157.963 84.0149 155.416 84.0149C152.868 84.0149 150.32 81.7844 150.32 79.5539C150.32 77.3234 152.868 75.093 155.416 75.093C157.963 75.093 160.511 76.5799 160.511 79.5539Z" fill="#131313"/>
<path d="M135.882 66.9145C135.882 69.1449 133.334 71.3754 130.786 71.3754C128.238 71.3754 125.69 69.1449 125.69 66.9145C125.69 64.684 128.238 62.4535 130.786 62.4535C133.334 62.4535 135.882 64.684 135.882 66.9145Z" fill="#131313"/>
<path d="M111.254 77.3233C111.254 79.5538 108.706 81.7843 106.158 81.7843C103.611 81.7843 101.063 79.5538 101.063 77.3233C101.063 75.0928 103.611 72.8624 106.158 72.8624C108.706 72.8624 111.254 75.0928 111.254 77.3233Z" fill="#131313"/>
<path d="M110.404 54.2752C110.404 56.5057 107.856 58.7361 105.308 58.7361C102.761 58.7361 100.213 56.5057 100.213 54.2752C100.213 52.0447 102.761 49.8142 105.308 49.8142C107.856 49.8142 110.404 52.0447 110.404 54.2752Z" fill="#131313"/>
<path d="M86.6244 63.197C86.6244 65.4275 84.0767 67.658 81.5289 67.658C78.9811 67.658 76.4333 66.171 76.4333 63.197C76.4333 60.9665 78.9811 58.736 81.5289 58.736C84.9259 58.736 86.6244 60.9665 86.6244 63.197Z" fill="#131313"/>
<path d="M63.6947 74.3494C63.6947 76.5799 61.147 78.8104 58.5992 78.8104C56.0514 78.8104 53.5037 76.5799 53.5037 74.3494C53.5037 72.1189 56.0514 69.8884 58.5992 69.8884C61.147 69.8884 63.6947 72.1189 63.6947 74.3494Z" fill="#131313"/>
<path d="M62.8466 50.5577C62.8466 52.7882 60.2988 55.0187 57.7511 55.0187C55.2033 55.0187 52.6555 52.7882 52.6555 50.5577C52.6555 48.3272 55.2033 46.0967 57.7511 46.0967C60.2988 46.0967 62.8466 48.3272 62.8466 50.5577Z" fill="#131313"/>
<path d="M85.7761 39.4053C85.7761 41.6358 83.2283 43.8663 80.6805 43.8663C78.1327 43.8663 75.585 41.6358 75.585 39.4053C75.585 37.1748 78.1327 34.9443 80.6805 34.9443C83.2283 34.9443 85.7761 37.1748 85.7761 39.4053Z" fill="#131313"/>
<path d="M59.4484 27.5093C59.4484 29.7398 56.9006 31.9703 54.3529 31.9703C50.9558 31.9703 49.2573 29.7398 49.2573 27.5093C49.2573 25.2788 51.8051 23.0483 54.3529 23.0483C56.9006 23.0483 59.4484 24.5353 59.4484 27.5093Z" fill="#131313"/>
<path d="M33.9717 17.1004C33.9717 19.3309 31.424 21.5614 28.8762 21.5614C26.3284 21.5614 22.9314 20.0744 22.9314 17.1004C22.9314 14.1265 25.4792 12.6395 28.8762 12.6395C32.2732 12.6395 33.9717 14.8699 33.9717 17.1004Z" fill="#131313"/>
</g>
<defs>
<clipPath id="clip0">
<rect width="400" height="400" fill="white"/>
</clipPath>
</defs>
</svg>
