<svg width="30" height="116" viewBox="0 0 30 116" fill="none" xmlns="http://www.w3.org/2000/svg">
<g clip-path="url(#clip0)">
<path d="M13.3394 37.107C13.3394 36.5353 13.3938 36.018 13.5299 35.5552C13.6661 35.0924 13.8566 34.6841 14.1833 34.3574C14.4828 34.0307 14.8911 33.7585 15.4083 33.5679C15.8984 33.3774 16.5517 33.2957 17.314 33.2957H23.4936V30.2739H26.6515V33.2957H30V36.9981H26.6515V40.0743H23.4936V36.9981H17.8857C17.0417 36.9981 16.6062 37.4064 16.6062 38.1959C16.6062 38.8492 16.7695 39.4482 17.069 40.0198H14.0744C13.8566 39.6387 13.6661 39.2031 13.5299 38.7131C13.3938 38.2503 13.3394 37.7059 13.3394 37.107Z" fill="#131313"/>
<path d="M13.3394 46.9617C13.3394 46.39 13.3938 45.8728 13.5299 45.41C13.6661 44.9472 13.8566 44.5388 14.1833 44.2121C14.4828 43.8855 14.8911 43.6132 15.4083 43.4227C15.8984 43.2321 16.5517 43.1504 17.314 43.1504H23.4936V40.0742H26.6515V43.1232H30V46.8256H26.6515V49.9018H23.4936V46.8256H17.8857C17.0417 46.8256 16.6062 47.2339 16.6062 48.0234C16.6062 48.6768 16.7695 49.2757 17.069 49.8474H14.0744C13.8566 49.4662 13.6661 49.0307 13.5299 48.5406C13.3938 48.1051 13.3394 47.5606 13.3394 46.9617Z" fill="#131313"/>
<path d="M13.3122 56.381C13.3122 55.7549 13.3939 55.1832 13.5572 54.6387C13.7206 54.0942 13.9928 53.6042 14.3195 53.1959C14.6734 52.7875 15.0817 52.4608 15.5717 52.2431C16.0618 51.9981 16.6335 51.8892 17.2868 51.8892H17.3413C18.0491 51.8892 18.6752 52.0253 19.1924 52.2703C19.7097 52.5425 20.1452 52.8964 20.4992 53.3592C20.8531 53.822 21.0981 54.3665 21.2614 55.0198C21.4247 55.6732 21.5064 56.381 21.5064 57.1705C21.5064 57.851 21.452 58.4227 21.3703 58.9128C21.2614 59.4028 21.1525 59.8928 20.9892 60.3556H21.207C21.9964 60.3556 22.5953 60.1106 23.0037 59.6478C23.412 59.185 23.6298 58.4772 23.6298 57.5516C23.6298 56.8438 23.5754 56.1904 23.4393 55.646C23.3304 55.1015 23.1398 54.5298 22.922 53.9309L25.7532 53.0053C26.0527 53.7131 26.3249 54.4754 26.5155 55.2648C26.706 56.0543 26.8149 56.9799 26.8149 58.0961C26.8149 59.1305 26.6788 60.0017 26.4338 60.7367C26.1888 61.4717 25.8077 62.0706 25.3449 62.5334C24.8549 63.0235 24.256 63.3774 23.5482 63.6224C22.8403 63.8402 22.0509 63.9763 21.1525 63.9763H13.5572V60.3828H14.9728C14.4556 59.92 14.0745 59.3755 13.775 58.7494C13.4483 58.0688 13.3122 57.3066 13.3122 56.381ZM15.8712 57.4971C15.8712 58.3683 16.089 59.0761 16.4973 59.6206C16.9329 60.1378 17.4774 60.41 18.158 60.41H18.8385C18.9747 60.0834 19.1108 59.7294 19.1924 59.3211C19.2741 58.9128 19.3286 58.5044 19.3286 58.0416C19.3286 57.2521 19.1652 56.626 18.8658 56.1632C18.5663 55.7004 18.1035 55.4826 17.5318 55.4826H17.4774C16.9601 55.4826 16.579 55.6732 16.3068 56.0543C16.0073 56.4082 15.8712 56.8982 15.8712 57.4971Z" fill="#131313"/>
<path d="M26.6516 67.134V70.8364H24.011C24.9093 71.2175 25.6171 71.7348 26.1616 72.3881C26.7061 73.0415 26.9511 73.9126 26.8966 75.0288H23.0037V74.8382C23.0037 73.5859 22.6226 72.6331 21.8876 71.9253C21.1253 71.2175 19.9819 70.8636 18.403 70.8636H13.5572V67.1613H26.6516V67.134Z" fill="#131313"/>
<path d="M9.58251 82.9779C9.58251 81.889 9.6914 80.8817 9.93641 79.9017C10.1814 78.9216 10.5081 78.0233 10.9437 77.1794L13.7204 78.4588C13.3393 79.1394 13.0399 79.82 12.8493 80.5278C12.6315 81.2084 12.5226 81.9979 12.5226 82.8962C12.5226 84.1757 12.8221 85.1013 13.421 85.7275C14.0199 86.3264 14.9183 86.653 16.0889 86.653H16.715C16.0344 86.1086 15.5172 85.5097 15.1633 84.8563C14.7821 84.203 14.5916 83.3863 14.5916 82.379C14.5916 81.6167 14.7277 80.8817 14.9999 80.1739C15.2722 79.4661 15.6533 78.84 16.1978 78.3227C16.715 77.7783 17.3684 77.3699 18.1034 77.0432C18.8656 76.7166 19.7368 76.5532 20.7168 76.5532H20.7713C21.7513 76.5532 22.6224 76.7166 23.3847 77.0432C24.1469 77.3699 24.7731 77.8055 25.2903 78.35C25.8076 78.8944 26.2159 79.4933 26.4881 80.2011C26.7604 80.9089 26.8965 81.6167 26.8965 82.379C26.8965 83.3863 26.7059 84.2302 26.3248 84.8835C25.9437 85.5369 25.4809 86.1086 24.9364 86.6258H26.6515V90.3282H16.4972C14.156 90.3282 12.441 89.7837 11.352 88.6676C10.7259 88.0414 10.2903 87.2792 10.0181 86.3264C9.71863 85.3463 9.58251 84.2574 9.58251 82.9779ZM17.695 83.4135C17.695 83.8763 17.7767 84.2846 17.9128 84.693C18.0489 85.0741 18.2667 85.428 18.539 85.7002C18.8112 85.9997 19.1379 86.2175 19.4918 86.3808C19.8729 86.5441 20.2812 86.6258 20.7168 86.6258H20.7713C21.2068 86.6258 21.6152 86.5441 21.9963 86.3808C22.3774 86.2175 22.7041 85.9997 22.9491 85.7002C23.2213 85.428 23.4391 85.0741 23.5753 84.693C23.7114 84.3118 23.793 83.8763 23.793 83.4135C23.793 82.9507 23.7114 82.5423 23.5753 82.1612C23.4391 81.7801 23.2213 81.4534 22.9491 81.1539C22.6769 80.8545 22.3502 80.6367 21.9963 80.4734C21.6152 80.31 21.2068 80.2284 20.7713 80.2284H20.744C19.8184 80.2284 19.1106 80.5278 18.539 81.1267C17.9945 81.7529 17.695 82.5151 17.695 83.4135Z" fill="#131313"/>
<path d="M13.2578 99.8292C13.2578 98.8492 13.4211 97.9508 13.7478 97.1069C14.0745 96.263 14.5373 95.5552 15.1362 94.9291C15.7351 94.3302 16.4429 93.8401 17.2868 93.4862C18.1035 93.1323 19.0291 92.969 20.0364 92.969H20.0908C21.0164 92.969 21.8875 93.1323 22.7315 93.4318C23.5754 93.7585 24.2832 94.194 24.9093 94.7657C25.5354 95.3374 26.0255 96.018 26.3794 96.8075C26.7333 97.5969 26.9238 98.4681 26.9238 99.4481C26.9238 100.537 26.7333 101.49 26.3249 102.279C25.9438 103.069 25.3993 103.749 24.746 104.267C24.0926 104.784 23.3304 105.192 22.4592 105.437C21.6153 105.682 20.7169 105.818 19.7913 105.818C19.6552 105.818 19.4919 105.818 19.3285 105.818C19.1652 105.818 19.0019 105.791 18.8113 105.791V96.6714C17.9674 96.8619 17.314 97.2158 16.9057 97.7875C16.4701 98.3592 16.2523 99.0398 16.2523 99.8837C16.2523 100.51 16.3612 101.054 16.579 101.544C16.7968 102.034 17.1235 102.524 17.6135 103.069L15.7351 105.192C14.9728 104.566 14.3739 103.831 13.9383 102.933C13.4756 102.062 13.2578 101.027 13.2578 99.8292ZM21.1253 102.225C21.9692 102.116 22.6226 101.817 23.1398 101.354C23.657 100.891 23.902 100.265 23.902 99.4754C23.902 98.6859 23.657 98.0597 23.1398 97.5697C22.6226 97.0797 21.9692 96.7803 21.1253 96.6169V102.225Z" fill="#131313"/>
<path d="M13.3394 113.032C13.3394 112.461 13.3938 111.943 13.5299 111.481C13.6661 111.018 13.8566 110.61 14.1833 110.283C14.4828 109.956 14.8911 109.684 15.4083 109.493C15.8984 109.303 16.5517 109.221 17.314 109.221H23.4936V107.669H26.6515V109.221H30V112.924H26.6515V116H23.4936V112.924H17.8857C17.0417 112.924 16.6062 113.332 16.6062 114.121C16.6062 114.775 16.7695 115.374 17.069 115.945H14.0744C13.8566 115.564 13.6661 115.129 13.5299 114.639C13.3938 114.149 13.3394 113.631 13.3394 113.032Z" fill="#131313"/>
<path d="M9.58263 7.05249C9.58263 5.96356 9.69152 4.9563 9.93653 3.97627C10.1815 2.99623 10.5082 2.09786 10.9438 1.25394L13.7206 2.53344C13.3394 3.21402 13.04 3.8946 12.8494 4.6024C12.6316 5.28298 12.5227 6.07246 12.5227 6.97082C12.5227 8.25031 12.8222 9.1759 13.4211 9.80204C14.02 10.4009 14.9184 10.7276 16.089 10.7276H16.7151C16.0345 10.1832 15.5173 9.58425 15.1634 8.93089C14.7823 8.27754 14.5917 7.46084 14.5917 6.45358C14.5917 5.69133 14.7278 4.9563 15.0001 4.2485C15.2723 3.54069 15.6534 2.91456 16.1979 2.39732C16.7151 1.85285 17.3685 1.44451 18.1035 1.11783C18.893 0.763925 19.7641 0.600586 20.7442 0.600586H20.7986C21.7786 0.600586 22.6498 0.763925 23.412 1.0906C24.1743 1.41728 24.8004 1.85285 25.3177 2.39732C25.8349 2.94178 26.2432 3.54069 26.5155 4.2485C26.7877 4.9563 26.9238 5.66411 26.9238 6.42636C26.9238 7.43362 26.7333 8.27754 26.3521 8.93089C25.971 9.58425 25.5082 10.1559 24.9638 10.6732H26.6788V14.3755L16.5246 14.3755C14.1834 14.3755 12.4683 13.8311 11.3794 12.7149C10.7532 12.0888 10.3177 11.3265 10.0454 10.3737C9.71875 9.42091 9.58263 8.33198 9.58263 7.05249ZM17.6952 7.48806C17.6952 7.95086 17.7768 8.35921 17.9129 8.76756C18.0491 9.14868 18.2668 9.50258 18.5391 9.77482C18.8113 10.0743 19.138 10.2921 19.4919 10.4554C19.873 10.6187 20.2814 10.7004 20.7169 10.7004H20.7714C21.2069 10.7004 21.6153 10.6187 21.9964 10.4554C22.3775 10.2921 22.7042 10.0743 22.9492 9.77482C23.2215 9.50258 23.4393 9.14868 23.5754 8.76756C23.7115 8.38643 23.7932 7.95086 23.7932 7.48806C23.7932 7.02527 23.7115 6.61692 23.5754 6.2358C23.4393 5.85467 23.2215 5.52799 22.9492 5.22854C22.677 4.92908 22.3503 4.71129 21.9964 4.54795C21.6153 4.38462 21.2069 4.30295 20.7714 4.30295H20.7442C19.8186 4.30295 19.1108 4.6024 18.5391 5.20131C17.9946 5.82745 17.6952 6.5897 17.6952 7.48806Z" fill="#131313"/>
<path d="M13.2578 23.9037C13.2578 22.9237 13.4211 22.0253 13.7478 21.1814C14.0745 20.3375 14.5373 19.6297 15.1362 19.0035C15.7351 18.4046 16.4429 17.9146 17.2868 17.5607C18.1035 17.2068 19.0291 17.0435 20.0364 17.0435H20.0908C21.0164 17.0435 21.8875 17.2068 22.7315 17.5063C23.5754 17.8329 24.2832 18.2685 24.9093 18.8402C25.5354 19.4119 26.0255 20.0925 26.3794 20.8819C26.7333 21.6714 26.9238 22.5426 26.9238 23.5226C26.9238 24.6115 26.7333 25.5643 26.3249 26.3538C25.9166 27.1433 25.3993 27.8239 24.746 28.3411C24.0926 28.8583 23.3304 29.2667 22.4592 29.5117C21.6153 29.7567 20.7169 29.8928 19.7913 29.8928C19.6552 29.8928 19.4919 29.8928 19.3285 29.8928C19.1652 29.8928 19.0019 29.8656 18.8113 29.8656V20.7458C17.9674 20.9364 17.314 21.2903 16.9057 21.862C16.4701 22.4337 16.2523 23.1142 16.2523 23.9582C16.2523 24.5843 16.3612 25.1288 16.579 25.6188C16.7968 26.1088 17.1235 26.5988 17.6135 27.1433L15.7351 29.2667C14.9728 28.6406 14.3739 27.9055 13.9383 27.0072C13.4756 26.1088 13.2578 25.0743 13.2578 23.9037ZM21.1253 26.2994C21.9692 26.1905 22.6226 25.891 23.1398 25.4282C23.657 24.9654 23.902 24.3393 23.902 23.5498C23.902 22.7603 23.657 22.1342 23.1398 21.6442C22.6226 21.1542 21.9692 20.8547 21.1253 20.6914V26.2994Z" fill="#131313"/>
<path d="M6.20679 116L6.20679 77.1523H4.8184L4.8184 116H6.20679Z" fill="#131313"/>
<path d="M6.20679 14.3755L6.20679 0.600586L4.8184 0.600586L4.8184 14.3755H6.20679Z" fill="#131313"/>
<path d="M2.50457 16.1179C2.69513 15.9273 2.91292 15.8184 3.15793 15.7912C3.40294 15.764 3.64794 15.7912 3.92018 15.8457C4.02907 15.8729 4.11074 15.8729 4.19241 15.8457C4.27408 15.8184 4.32853 15.7912 4.4102 15.764C4.49187 15.7368 4.57354 15.764 4.65521 15.7912C4.73688 15.8184 4.84577 15.9001 4.95466 16.0635C5.00911 16.1451 5.09078 16.1996 5.14522 16.2268C5.22689 16.254 5.33579 16.3085 5.4719 16.3901C5.63524 16.4446 5.8258 16.5535 6.09804 16.6896C6.34304 16.8257 6.69695 16.989 7.13252 17.234C7.3503 17.3429 7.54087 17.4518 7.70421 17.5607C7.86755 17.6696 8.05811 17.7513 8.22145 17.8602C8.38479 17.9691 8.57535 18.078 8.73869 18.1869C8.90203 18.2958 9.09259 18.4046 9.25593 18.5408C9.25593 18.4319 9.22871 18.2958 9.17426 18.1324C9.11981 17.9419 9.03814 17.7785 8.95647 17.5607C8.8748 17.3702 8.79314 17.1796 8.71147 17.0163C8.6298 16.8529 8.57535 16.7168 8.5209 16.6079C8.46646 16.4718 8.38479 16.3357 8.30312 16.1996C8.22145 16.0635 8.167 15.9546 8.167 15.8457C8.167 15.7912 8.19422 15.764 8.22145 15.7368C8.27589 15.6823 8.35756 15.6823 8.41201 15.6823C8.49368 15.6823 8.54813 15.7368 8.6298 15.8457C8.82036 16.0907 8.9837 16.3629 9.17426 16.6896C9.36482 17.0163 9.52816 17.3702 9.66428 17.7241C9.8004 18.078 9.93651 18.4591 10.0182 18.813C10.0999 19.1669 10.1543 19.5208 10.1543 19.8475C10.1543 20.038 10.1271 20.2286 10.0999 20.4192C10.0726 20.6097 10.0182 20.7731 9.93651 20.9092C9.85484 21.0453 9.77317 21.1814 9.63706 21.2631C9.52816 21.3448 9.36482 21.3992 9.20148 21.4264C8.95647 21.4536 8.71147 21.372 8.43923 21.1814C8.167 21.0181 7.86755 20.7731 7.56809 20.4736C7.26863 20.1742 6.94196 19.8475 6.58805 19.4391C6.23415 19.0308 5.90747 18.6497 5.52635 18.2141C5.49912 18.1869 5.49913 18.1869 5.4719 18.2141L5.4719 18.6497C5.4719 18.8402 5.4719 19.0308 5.44468 19.1941C5.41746 19.3575 5.36301 19.548 5.25412 19.7114C5.14522 19.9019 5.00911 20.038 4.84577 20.0925C4.68243 20.1469 4.51909 20.1469 4.35575 20.0925C4.19241 20.038 4.00185 19.9291 3.81129 19.793C3.62072 19.6569 3.43016 19.4936 3.26682 19.303C3.07626 19.1125 2.91292 18.8947 2.74958 18.6769C2.58624 18.4591 2.4229 18.2413 2.28678 18.0235C2.23234 17.9419 2.15067 17.8057 2.069 17.6152C1.96011 17.4246 1.87844 17.2068 1.79677 16.9618C1.7151 16.7168 1.63343 16.4718 1.55176 16.2268C1.49731 15.9818 1.44286 15.764 1.44286 15.5462C1.44286 15.3829 1.47009 15.2468 1.52453 15.1379C1.57898 15.029 1.68787 14.9473 1.79677 14.9201C1.90566 14.8929 2.01455 14.8929 2.12344 14.9201C2.23234 14.9473 2.34123 15.0017 2.4229 15.0834C2.50457 15.1651 2.55902 15.2468 2.55902 15.3556V15.4101C2.55902 15.4645 2.55902 15.519 2.53179 15.5462C2.50457 15.5734 2.50457 15.6007 2.47735 15.6279C2.45012 15.6551 2.45012 15.6823 2.4229 15.6823C2.39568 15.7095 2.39568 15.7368 2.39568 15.764C2.39568 15.7912 2.39568 15.8184 2.39568 15.8457C2.45012 15.9546 2.47735 16.0362 2.50457 16.1179ZM4.43742 19.1669C4.46464 19.1125 4.46464 19.0308 4.46464 18.8947C4.46464 18.7585 4.46464 18.5952 4.46464 18.4319C4.46464 18.2685 4.46464 18.1052 4.46464 17.9146C4.46464 17.7513 4.43742 17.588 4.4102 17.4246C4.38297 17.2885 4.35575 17.1524 4.32853 17.0435C4.3013 16.9346 4.24686 16.8801 4.19241 16.8801C4.08352 16.8257 3.9474 16.7985 3.83851 16.7713C3.72962 16.744 3.5935 16.7168 3.45738 16.6896C3.48461 16.7168 3.48461 16.744 3.51183 16.7713C3.53905 16.7985 3.53905 16.8257 3.56628 16.8529C3.5935 16.9074 3.5935 16.9618 3.5935 17.0163C3.5935 17.1796 3.51183 17.2613 3.32127 17.2885C3.26682 17.2885 3.21237 17.2885 3.15793 17.2613C3.10348 17.2341 3.04903 17.2068 2.96736 17.2068C3.18515 17.588 3.40294 17.9419 3.62072 18.2685C3.83851 18.568 4.11074 18.8674 4.43742 19.1669ZM6.39749 17.9419C6.72417 18.3502 7.02363 18.7313 7.35031 19.058C7.48642 19.1941 7.59531 19.3575 7.73143 19.4936C7.86755 19.6297 8.00366 19.793 8.13978 19.9019C8.27589 20.038 8.38479 20.1469 8.5209 20.2558C8.6298 20.3647 8.73869 20.4464 8.82036 20.4736C8.95647 20.5553 9.06537 20.6097 9.11982 20.5825C9.17426 20.5553 9.25593 20.4736 9.3376 20.3375C9.39205 20.2014 9.44649 20.0925 9.44649 19.9291C9.47372 19.793 9.47372 19.6569 9.47372 19.5752C9.47372 19.4664 9.47372 19.3847 9.44649 19.3575C9.31038 19.303 9.20148 19.2213 9.09259 19.1669C8.9837 19.1125 8.87481 19.058 8.73869 18.9763C8.60257 18.9219 8.46646 18.8402 8.33034 18.7858C8.00366 18.6224 7.62254 18.4319 7.21419 18.2413C7.15974 18.2141 7.07807 18.1869 6.96918 18.1324C6.88751 18.1052 6.77862 18.0507 6.69695 18.0235C6.58805 18.0235 6.50639 17.9691 6.39749 17.9419Z" fill="#131313"/>
<path d="M7.10531 21.4809C7.10531 21.4265 7.10531 21.3993 7.10531 21.372C7.10531 21.3448 7.10531 21.2904 7.07809 21.2359C7.07809 21.1815 7.07809 21.127 7.07809 21.0726C7.07809 21.0181 7.05086 20.9637 7.05086 20.9093C7.05086 20.8276 7.05086 20.7459 7.07809 20.6642C7.10531 20.5826 7.15976 20.5281 7.26865 20.5009C7.35032 20.4737 7.43199 20.5009 7.48644 20.5554C7.54088 20.6098 7.59533 20.6642 7.62255 20.7731C7.64978 20.8548 7.677 20.9637 7.70422 21.0454C7.73144 21.1543 7.73145 21.2359 7.75867 21.3448C7.78589 21.4537 7.78589 21.5626 7.78589 21.6171C7.78589 21.6987 7.78589 21.7532 7.81311 21.7804C7.81311 21.8076 7.84034 21.8621 7.84034 21.8893C7.86756 21.9165 7.89478 21.9437 7.92201 21.971C8.08535 22.0799 8.27591 22.1887 8.4937 22.3249C8.68426 22.461 8.87482 22.5699 9.06538 22.706C9.22872 22.8421 9.39206 22.951 9.52818 23.0599C9.6643 23.1688 9.74597 23.2504 9.80041 23.3049C9.85486 23.3866 9.88208 23.4682 9.88208 23.5499C9.88208 23.6044 9.85486 23.6588 9.82763 23.7132C9.77319 23.7949 9.71874 23.8221 9.6643 23.8494C9.60985 23.8766 9.52818 23.8766 9.44651 23.8494C9.36484 23.8221 9.31039 23.7949 9.22872 23.7677C9.14705 23.7405 9.06538 23.686 9.01094 23.6316C8.71148 23.4682 8.4937 23.3593 8.35758 23.2777C8.22146 23.196 8.08535 23.1143 8.0309 23.0871C7.94923 23.0599 7.92201 23.0327 7.89478 23.0054C7.86756 23.0054 7.86756 22.9782 7.84034 22.9782C7.84034 23.0054 7.84034 23.0599 7.81311 23.196C7.81311 23.3049 7.78589 23.441 7.78589 23.5771C7.75867 23.7132 7.73144 23.8766 7.677 24.0127C7.62255 24.1488 7.5681 24.2577 7.45921 24.3394C7.35032 24.421 7.26865 24.421 7.2142 24.3938C7.15976 24.2849 7.13253 24.2305 7.13253 24.1488C7.13253 24.1216 7.13253 24.0944 7.15976 24.0399C7.2142 23.9038 7.24143 23.7949 7.24143 23.6588C7.26865 23.5227 7.26865 23.4138 7.26865 23.2777C7.26865 23.1688 7.26865 23.0871 7.26865 22.9782C7.26865 22.8693 7.26865 22.7877 7.26865 22.6788C7.26865 22.6243 7.26865 22.5971 7.24143 22.5699C7.2142 22.5426 7.18698 22.5426 7.15976 22.5154C6.94197 22.4065 6.69696 22.2976 6.37028 22.1615C6.0436 22.0254 5.6897 21.8621 5.3358 21.7259C4.9819 21.5898 4.628 21.4537 4.27409 21.3448C3.94741 21.2359 3.64796 21.1543 3.43017 21.0998C3.32128 21.0726 3.21239 21.0726 3.10349 21.0454C2.9946 21.0181 2.88571 21.0181 2.77682 21.0181C2.72237 21.0181 2.69515 21.0454 2.66792 21.0454C2.6407 21.0454 2.61348 21.0726 2.58625 21.1543C2.55903 21.2087 2.53181 21.2632 2.47736 21.2904C2.42291 21.3176 2.36847 21.3176 2.31402 21.2904C2.25957 21.2632 2.20513 21.2359 2.17791 21.1815C2.15068 21.127 2.12346 21.0454 2.12346 20.9637C2.12346 20.9365 2.12346 20.9093 2.15068 20.8548C2.20513 20.7187 2.2868 20.6098 2.45014 20.5281C2.58625 20.4737 2.74959 20.4192 2.91293 20.4192C3.10349 20.392 3.3485 20.4192 3.64796 20.4465C3.94741 20.4737 4.30132 20.5554 4.65522 20.637C5.03634 20.7187 5.41747 20.8276 5.82582 20.9909C6.23417 21.127 6.64251 21.2904 7.05086 21.5082C7.07809 21.5082 7.07809 21.5354 7.10531 21.5354C7.07809 21.4537 7.07809 21.4809 7.10531 21.4809Z" fill="#131313"/>
<path d="M2.99465 22.5427C2.99465 22.5971 3.02187 22.6788 3.10354 22.7605C3.18521 22.8694 3.2941 22.9783 3.43022 23.0872C3.56634 23.2233 3.70245 23.3322 3.83857 23.4683C4.00191 23.6044 4.13802 23.7405 4.27414 23.8494C4.41026 23.9583 4.54637 24.0672 4.62804 24.1761C4.73694 24.285 4.79138 24.3394 4.84583 24.3939C4.90027 24.4483 4.90028 24.5028 4.90028 24.53C4.90028 24.5572 4.90027 24.5844 4.87305 24.6117C4.8186 24.6661 4.76416 24.6933 4.62804 24.6389C4.60082 24.6117 4.51915 24.5844 4.41026 24.5028C4.30136 24.4211 4.19247 24.3394 4.02913 24.2305C3.89301 24.1217 3.72968 23.9855 3.56634 23.8766C3.403 23.7405 3.23966 23.6044 3.10354 23.4683C2.9402 23.3322 2.80408 23.1961 2.69519 23.0599C2.5863 22.9238 2.47741 22.8149 2.42296 22.7333C2.34129 22.6244 2.31407 22.4883 2.31407 22.3794C2.31407 22.2432 2.36851 22.1344 2.45018 22.0527C2.53185 21.9438 2.64075 21.8893 2.77686 21.8349C2.9402 21.7805 3.13076 21.7805 3.32133 21.8077C3.53911 21.8349 3.7569 21.8893 4.00191 21.9438C4.24692 21.9982 4.4647 22.0799 4.68249 22.1616C4.90027 22.2432 5.09084 22.3249 5.25418 22.3794C5.82586 22.5971 6.37033 22.8422 6.91479 23.1144C7.45926 23.3866 7.9765 23.6861 8.52096 23.9855C8.57541 24.0128 8.62986 24.04 8.6843 24.0944C8.73875 24.1489 8.82042 24.1761 8.87487 24.2305C8.92931 24.285 8.98376 24.3394 9.01098 24.3939C9.03821 24.4483 9.06543 24.5028 9.06543 24.5844C9.06543 24.6933 9.03821 24.775 8.95654 24.8295C8.87487 24.8839 8.7932 24.8839 8.6843 24.8567C8.62986 24.8295 8.46652 24.7478 8.16706 24.5844C7.86761 24.4211 7.48648 24.2305 7.02369 23.9855C6.56089 23.7677 6.01643 23.5227 5.39029 23.2777C4.76416 23.0327 4.13802 22.8149 3.48467 22.5972C3.45744 22.5972 3.403 22.5699 3.34855 22.5699C3.2941 22.5427 3.21243 22.5427 3.15799 22.5155C3.10354 22.5155 3.0491 22.4883 2.99465 22.4883C2.99465 22.5155 2.99465 22.5155 2.99465 22.5427Z" fill="#131313"/>
<path d="M5.9348 30.5462C6.01647 30.6278 6.04369 30.7095 6.04369 30.8456C6.04369 30.9273 6.01647 31.009 5.98925 31.0634C5.96202 31.1451 5.90758 31.1995 5.82591 31.2267C5.74424 31.254 5.66257 31.2812 5.55367 31.254C5.44478 31.254 5.33589 31.1995 5.17255 31.0906C5.06366 31.009 4.95476 30.9273 4.81865 30.7912C4.68253 30.6551 4.57364 30.5189 4.46474 30.3828C4.35585 30.2467 4.24696 30.0834 4.13807 29.9473C4.02917 29.8111 3.97473 29.675 3.89306 29.5389C3.86583 29.4845 3.81139 29.4572 3.78416 29.43C3.75694 29.43 3.70249 29.43 3.64805 29.43C3.26692 29.5661 2.96747 29.7022 2.74968 29.8656C2.5319 30.0017 2.36856 30.1378 2.23244 30.2195C2.09632 30.3284 2.01465 30.3828 1.96021 30.41C1.90576 30.4373 1.82409 30.4373 1.76965 30.3556C1.74242 30.3012 1.7152 30.2467 1.7152 30.1923C1.7152 30.0289 1.76965 29.8928 1.90576 29.7295C2.04188 29.5661 2.17799 29.4572 2.34133 29.3211C2.50467 29.185 2.66801 29.0761 2.85858 28.9944C3.04914 28.8855 3.18525 28.8039 3.29415 28.7494C3.32137 28.7222 3.34859 28.7222 3.37582 28.7222C3.40304 28.7222 3.43026 28.695 3.45749 28.695C3.40304 28.5316 3.34859 28.3411 3.32137 28.205C3.26692 28.0416 3.26692 27.8783 3.26692 27.7149C3.26692 27.6877 3.26692 27.6333 3.26692 27.6061C3.26692 27.5788 3.26692 27.5244 3.29415 27.4699C3.32137 27.361 3.34859 27.2522 3.37582 27.1705C3.43026 27.0888 3.48471 27.0344 3.56638 26.9799C3.64805 26.9255 3.72972 26.9255 3.83861 26.9527C3.9475 26.9799 4.0564 27.0071 4.19251 27.116C4.43752 27.2794 4.60086 27.4155 4.73698 27.5516C4.87309 27.6877 4.98199 27.7966 5.06366 27.9055C5.14533 28.0144 5.227 28.0688 5.28144 28.1233C5.33589 28.1777 5.41756 28.1777 5.49923 28.1777C5.68979 28.1505 5.90758 28.1233 6.15259 28.1233C6.3976 28.1233 6.61538 28.1505 6.86039 28.205C7.1054 28.2594 7.32319 28.3411 7.51375 28.45C7.70431 28.5589 7.89487 28.695 8.03099 28.8855C8.11266 29.0217 8.19433 29.1578 8.22155 29.3211C8.276 29.4845 8.30322 29.6478 8.30322 29.8111C8.30322 30.0289 8.24877 30.2195 8.13988 30.3828C8.03099 30.5462 7.86765 30.6278 7.62264 30.6278C7.37763 30.6278 7.07818 30.5189 6.72427 30.3012C6.34315 30.0834 5.90758 29.7022 5.39034 29.1578C5.36311 29.1306 5.30867 29.1033 5.28144 29.0761C5.25422 29.0489 5.19977 29.0761 5.1181 29.0761C5.06366 29.0761 4.95476 29.1033 4.84587 29.1306C4.73698 29.1578 4.57364 29.185 4.38308 29.2394C4.49197 29.4028 4.57364 29.5661 4.70975 29.7295C4.81865 29.8656 4.92754 30.0289 5.09088 30.165C5.227 30.3284 5.41756 30.4645 5.5809 30.5734C5.60812 30.6006 5.63534 30.6006 5.66257 30.5734C5.68979 30.5462 5.71701 30.5462 5.74424 30.5189C5.77146 30.4917 5.79868 30.4917 5.82591 30.4917C5.85313 30.4917 5.90758 30.4917 5.9348 30.5462ZM4.00195 28.45C4.00195 28.4772 4.02917 28.4772 4.02917 28.4772C4.02917 28.4772 4.0564 28.4772 4.11084 28.4772C4.13807 28.4772 4.21974 28.45 4.30141 28.4228C4.38308 28.3955 4.49197 28.3683 4.65531 28.3139C4.51919 28.1777 4.38308 28.0416 4.24696 27.9327C4.11084 27.8238 3.97473 27.7149 3.81139 27.6333C3.81139 27.7966 3.83861 27.96 3.86583 28.0688C3.89306 28.1777 3.97473 28.3411 4.00195 28.45ZM7.70431 29.6206C7.64986 29.4845 7.56819 29.3756 7.43208 29.2939C7.29596 29.2122 7.15985 29.1306 7.02373 29.1033C6.88761 29.0489 6.72427 29.0217 6.56094 29.0217C6.3976 28.9944 6.26148 28.9944 6.15259 29.0217C6.34315 29.2122 6.53371 29.3756 6.72427 29.5389C6.91484 29.7022 7.13262 29.8111 7.37763 29.8928C7.40486 29.8928 7.43208 29.92 7.4593 29.92C7.48652 29.92 7.54097 29.92 7.56819 29.92C7.59542 29.92 7.64986 29.92 7.67709 29.92C7.70431 29.92 7.73153 29.8928 7.73153 29.8656C7.73153 29.8384 7.73153 29.8384 7.73153 29.8111C7.73153 29.7839 7.73153 29.7567 7.70431 29.7295C7.70431 29.675 7.70431 29.6478 7.70431 29.6206Z" fill="#131313"/>
<path d="M2.12344 34.7659C2.12344 34.9565 2.17789 35.1743 2.314 35.4465C2.45012 35.7187 2.58624 36.0182 2.7768 36.3176C2.96736 36.6443 3.18515 36.9438 3.40293 37.2705C3.62072 37.5971 3.8385 37.8966 4.02907 38.1416C4.21963 38.4138 4.41019 38.6316 4.54631 38.8222C4.68242 39.0127 4.76409 39.1216 4.79132 39.1489C4.81854 39.2033 4.84576 39.2578 4.84576 39.285C4.84576 39.3394 4.81854 39.3939 4.76409 39.3939C4.70965 39.4211 4.6552 39.3939 4.60075 39.3394C4.57353 39.3122 4.46464 39.2033 4.3013 39.0128C4.13796 38.8222 3.97462 38.6044 3.75683 38.3594C3.53905 38.0872 3.32126 37.8149 3.07625 37.5155C2.83124 37.216 2.61346 36.9166 2.39567 36.6171C2.17789 36.3177 1.98732 36.0726 1.82399 35.8276C1.66065 35.5826 1.55175 35.3921 1.47008 35.2559C1.41564 35.0926 1.36119 34.9293 1.33397 34.7387C1.33397 34.7115 1.33397 34.657 1.33397 34.6026C1.33397 34.3576 1.41564 34.167 1.57898 34.0309C1.74231 33.8948 1.93288 33.8131 2.15066 33.7859C2.45012 33.7859 2.74957 33.8403 3.04903 33.9765C3.34849 34.1126 3.62072 34.2759 3.86573 34.4937C4.11074 34.7115 4.38297 34.9293 4.62798 35.2015C4.87299 35.4465 5.09077 35.6915 5.30856 35.9093C5.33578 35.9365 5.33578 35.9637 5.33578 35.991C5.33578 36.0182 5.363 36.0454 5.41745 36.0454C5.39023 35.9637 5.39023 35.8821 5.39023 35.8004C5.39023 35.746 5.363 35.6643 5.363 35.6098C5.363 35.3921 5.41745 35.2015 5.55357 35.0382C5.68968 34.8748 5.85302 34.7659 6.09803 34.7659C6.31582 34.7659 6.5336 34.7931 6.72417 34.8748C6.91473 34.9565 7.07807 35.0382 7.26863 35.1743C7.45919 35.3104 7.59531 35.3921 7.67698 35.4465C7.75865 35.501 7.84032 35.5554 7.86754 35.6098C7.92199 35.6643 7.94921 35.6915 8.00366 35.746C8.0581 35.8004 8.11255 35.8549 8.19422 35.9365C8.38478 36.1271 8.57534 36.3449 8.82035 36.6443C9.03814 36.9438 9.25593 37.2432 9.47371 37.5699C9.66427 37.8966 9.85484 38.2505 9.99095 38.5772C10.1271 38.9311 10.2087 39.2305 10.2087 39.53C10.2087 39.6389 10.2087 39.7478 10.1815 39.8567C10.1543 39.9656 10.1271 40.0472 10.0726 40.1289C9.96373 40.265 9.85484 40.3467 9.71872 40.3739C9.58261 40.4011 9.44649 40.3467 9.31037 40.2106C9.20148 40.1017 9.06536 39.9656 8.92925 39.8022C8.79313 39.6117 8.65701 39.4211 8.54812 39.2305C8.43923 39.0127 8.33034 38.8222 8.24867 38.6044C8.167 38.3866 8.13977 38.2233 8.13977 38.0599C8.13977 37.9783 8.167 37.9238 8.22144 37.8966C8.27589 37.8694 8.33034 37.8422 8.38478 37.8422C8.43923 37.8422 8.49368 37.8421 8.54812 37.8694C8.60257 37.8966 8.62979 37.9238 8.62979 37.9783V38.0055C8.62979 38.0327 8.60257 38.0599 8.57535 38.0872C8.54812 38.1144 8.5209 38.1144 8.49368 38.0872C8.46645 38.0872 8.46645 38.0599 8.43923 38.0599C8.41201 38.0599 8.41201 38.0599 8.38478 38.0599C8.38478 38.0872 8.38478 38.0872 8.38478 38.1144C8.38478 38.1961 8.41201 38.3049 8.46645 38.4411C8.5209 38.5772 8.60257 38.7405 8.71146 38.8766C8.82036 39.04 8.92925 39.2033 9.06536 39.3666C9.20148 39.53 9.3376 39.6661 9.47371 39.8022C9.50094 39.8294 9.52816 39.8567 9.52816 39.8839C9.55538 39.9111 9.5826 39.9111 9.60983 39.9111C9.63705 39.8839 9.66428 39.8839 9.66428 39.8294C9.66428 39.8022 9.66428 39.7478 9.66428 39.7206C9.66428 39.53 9.63705 39.3394 9.55538 39.1216C9.3376 38.6044 9.09259 38.1416 8.76591 37.706C8.43923 37.2705 8.11255 36.9166 7.78587 36.5899C7.45919 36.2632 7.15974 36.0182 6.86028 35.8549C6.58805 35.6915 6.37026 35.5826 6.23415 35.5826C6.23415 35.6098 6.23415 35.6643 6.23415 35.746C6.23415 35.9093 6.26137 36.0999 6.31582 36.3176C6.37026 36.5354 6.45193 36.7532 6.5336 36.9982C6.61527 37.216 6.69694 37.4338 6.80584 37.6516C6.88751 37.8694 6.96917 38.0327 7.02362 38.1416C7.07807 38.2505 7.13251 38.3322 7.18696 38.4138C7.24141 38.4955 7.26863 38.55 7.29585 38.5772C7.32308 38.6316 7.3503 38.6588 7.37752 38.6861C7.40475 38.7133 7.40475 38.7677 7.40475 38.795C7.40475 38.9583 7.37752 39.0944 7.32308 39.1761C7.26863 39.2578 7.21418 39.3122 7.15974 39.3394C7.10529 39.3667 7.02362 39.3667 6.94195 39.3122C6.86028 39.285 6.80584 39.2033 6.72417 39.1216C6.56083 38.8766 6.37026 38.6316 6.15248 38.3866C5.96192 38.1416 5.74413 37.8966 5.58079 37.6788C5.39023 37.461 5.22689 37.2705 5.09077 37.1071C4.95466 36.9438 4.87299 36.8349 4.81854 36.8077C4.49186 36.4538 4.13796 36.1271 3.8385 35.8549C3.51183 35.5826 3.23959 35.3648 2.99458 35.1743C2.74958 35.0109 2.55901 34.8748 2.42289 34.7931C2.17789 34.7659 2.12344 34.7387 2.12344 34.7659Z" fill="#131313"/>
<path d="M3.43023 39.7748C3.45746 39.8293 3.5119 39.8837 3.62079 39.9654C3.72969 40.0471 3.8658 40.1559 4.02914 40.2648C4.19248 40.3737 4.38304 40.5098 4.57361 40.6187C4.76417 40.7549 4.95473 40.8637 5.14529 40.9999C5.33586 41.136 5.52642 41.2449 5.68976 41.381C5.8531 41.4899 5.98921 41.5988 6.09811 41.7077C6.15255 41.7349 6.17978 41.7893 6.23422 41.8438C6.26145 41.8982 6.28867 41.9527 6.28867 41.9799C6.28867 42.0071 6.28867 42.0343 6.26145 42.0616C6.207 42.116 6.15255 42.1432 6.07088 42.116C5.98921 42.0888 5.93477 42.0616 5.88032 42.0071C5.44475 41.7077 5.0364 41.4627 4.70972 41.2721C4.38304 41.0543 4.08359 40.891 3.83858 40.7276C3.59357 40.5643 3.37578 40.4282 3.23967 40.3193C3.07633 40.2104 2.96744 40.0743 2.88577 39.9654C2.8041 39.8565 2.77687 39.7476 2.77687 39.6387C2.77687 39.4481 2.91299 39.2848 3.18522 39.1759C3.45746 39.067 3.83858 39.067 4.30137 39.1759C4.54638 39.2304 4.81862 39.2848 5.06363 39.3665C5.30863 39.4481 5.52642 39.5026 5.74421 39.5843C5.93477 39.6659 6.12533 39.7204 6.26145 39.7748C6.39756 39.8293 6.50646 39.8837 6.58813 39.9382C6.69702 40.0198 6.75146 40.1015 6.75146 40.1832C6.75146 40.2376 6.72424 40.3193 6.64257 40.3465C6.5609 40.3737 6.47923 40.401 6.39756 40.3737C5.8531 40.2104 5.41753 40.0743 5.0364 39.9654C4.65528 39.8565 4.27415 39.7748 3.92025 39.7476C3.70246 39.7204 3.53913 39.7204 3.43023 39.7748Z" fill="#131313"/>
<path d="M4.30128 41.626C4.62795 41.7893 4.90019 41.9527 5.1452 42.1704C5.3902 42.361 5.60799 42.5788 5.77133 42.7694C5.93467 42.9871 6.07079 43.1777 6.17968 43.3683C6.26135 43.5588 6.31579 43.7222 6.34302 43.8583C6.34302 43.8855 6.34302 43.8855 6.34302 43.9127C6.34302 43.94 6.34302 43.94 6.34302 43.9672C6.34302 44.1033 6.31579 44.2122 6.23412 44.3211C6.15245 44.43 6.07078 44.5116 5.96189 44.5661C5.853 44.6205 5.71688 44.6478 5.58077 44.6478C5.44465 44.6478 5.30854 44.5933 5.17242 44.5116C5.0363 44.4028 4.90019 44.2939 4.76407 44.185C4.62796 44.0489 4.51906 43.9127 4.41017 43.7766C4.30128 43.6405 4.21961 43.4772 4.16516 43.341C4.11071 43.1777 4.08349 43.0416 4.08349 42.9055C4.08349 42.851 4.08349 42.7966 4.11071 42.7421C4.13794 42.6605 4.16516 42.5788 4.19238 42.5516C4.21961 42.5243 4.24683 42.4699 4.24683 42.4699C4.24683 42.4427 4.21961 42.4155 4.13794 42.3882C4.08349 42.361 4.00182 42.3338 3.92015 42.3066C3.83848 42.2793 3.75681 42.2521 3.67514 42.2249C3.59347 42.1977 3.53903 42.1977 3.48458 42.1977C3.34846 42.1977 3.23957 42.2249 3.21235 42.2793C3.1579 42.3338 3.1579 42.4427 3.1579 42.5516C3.18513 42.6877 3.23957 42.8782 3.34846 43.1233C3.45736 43.3683 3.59347 43.6133 3.75681 43.8583C3.92015 44.1033 4.05627 44.3483 4.21961 44.5661C4.38295 44.7839 4.49184 44.9472 4.57351 45.0561C4.65518 45.1378 4.73685 45.2467 4.81852 45.3556C4.87296 45.41 4.87296 45.4645 4.87296 45.5189C4.87296 45.5733 4.84574 45.6278 4.7913 45.655C4.73685 45.6822 4.6824 45.6822 4.62796 45.6822C4.57351 45.655 4.49184 45.6006 4.38295 45.4917C4.27405 45.3828 4.13794 45.2467 4.00182 45.0833C3.86571 44.92 3.72959 44.7567 3.59347 44.5661C3.45736 44.3755 3.32124 44.185 3.18512 43.9944C3.04901 43.8038 2.94011 43.6133 2.83122 43.4499C2.72233 43.2866 2.64066 43.1233 2.58621 43.0144C2.50455 42.7966 2.47732 42.6332 2.47732 42.4699C2.47732 42.1977 2.55899 41.9799 2.72233 41.8165C2.88567 41.6532 3.07623 41.5443 3.32124 41.5171C3.34846 41.5171 3.37569 41.5171 3.45736 41.5171C3.53903 41.5171 3.6207 41.5171 3.70237 41.5443C3.78404 41.5443 3.89293 41.5715 4.00182 41.5988C4.13794 41.5715 4.21961 41.5988 4.30128 41.626ZM4.62796 42.8783C4.62796 42.9055 4.62796 42.9055 4.62796 42.9327C4.62796 42.9871 4.65518 43.0688 4.6824 43.1777C4.70962 43.2594 4.76407 43.3683 4.84574 43.4499C4.90019 43.5588 4.98186 43.6405 5.09075 43.7494C5.17242 43.8311 5.28131 43.9127 5.3902 43.9944C5.4991 44.0488 5.58077 44.0761 5.63521 44.0761C5.68966 44.0488 5.71688 44.0216 5.71688 43.9672V43.94C5.68966 43.8583 5.66244 43.7766 5.60799 43.6949C5.55355 43.6133 5.4991 43.5316 5.44465 43.4499C5.39021 43.3683 5.30854 43.2866 5.25409 43.2049C5.17242 43.1233 5.11797 43.0688 5.06353 43.0144C5.00908 42.9599 4.95463 42.9055 4.90019 42.8783C4.7913 42.851 4.70963 42.851 4.62796 42.8783Z" fill="#131313"/>
<path d="M3.81137 48.1868C3.8386 48.2685 3.8386 48.3229 3.86582 48.3774C3.89304 48.4318 3.92027 48.4863 3.97471 48.5679C4.1925 48.8946 4.38306 49.1668 4.51918 49.303C4.65529 49.4391 4.76419 49.548 4.81863 49.6024C4.84585 49.6296 4.87308 49.6841 4.9003 49.7113C4.92753 49.7385 4.92753 49.7658 4.92753 49.8202C4.92753 49.8746 4.9003 49.9019 4.87308 49.9291C4.81863 50.0108 4.76419 50.0108 4.68252 49.9835C4.60085 49.9563 4.51918 49.9019 4.43751 49.8474C4.32861 49.7385 4.1925 49.6296 4.08361 49.5207C3.97471 49.3846 3.8386 49.2757 3.7297 49.1124C3.62081 48.9763 3.51192 48.8402 3.43025 48.6768C3.34858 48.5407 3.29413 48.4046 3.23968 48.2685C3.21246 48.2413 3.21246 48.214 3.21246 48.1868C3.21246 48.1596 3.21246 48.1324 3.21246 48.1051C3.21246 47.9418 3.26691 47.8057 3.3758 47.6968C3.48469 47.5879 3.62081 47.5334 3.81137 47.5334C3.94749 47.5334 4.13805 47.5607 4.35584 47.6423C4.57362 47.724 4.76419 47.7785 4.95475 47.8329C4.95475 47.7785 4.9003 47.724 4.81863 47.6423C4.73696 47.5607 4.65529 47.4518 4.57362 47.3701C4.49195 47.2884 4.41028 47.2068 4.30139 47.1251C4.1925 47.0434 4.16527 46.989 4.11083 46.9618C3.81137 46.7168 3.59359 46.499 3.45747 46.3629C3.29413 46.2267 3.18524 46.0906 3.10357 45.9273C3.0219 45.7912 2.99468 45.6823 2.99468 45.5734C2.99468 45.41 3.07634 45.2739 3.23968 45.165C3.40302 45.0561 3.64803 45.0561 4.00194 45.1378C4.41028 45.2467 4.76418 45.3828 5.11809 45.5462C5.47199 45.7095 5.82589 45.9273 6.15257 46.1723C6.26146 46.254 6.34313 46.3356 6.39758 46.4173C6.45203 46.499 6.47925 46.5806 6.47925 46.6351C6.47925 46.744 6.4248 46.8256 6.34313 46.8801C6.26146 46.9345 6.17979 46.9345 6.0709 46.8801C6.04368 46.8529 5.98923 46.8256 5.96201 46.7984C5.93478 46.7712 5.88034 46.744 5.82589 46.7168C5.58088 46.5534 5.30865 46.4173 5.09086 46.3084C4.87308 46.1995 4.62807 46.0906 4.43751 46.0089C4.24694 45.9273 4.08361 45.8728 3.94749 45.8456C3.81137 45.8184 3.7297 45.8184 3.70248 45.8184C3.81137 45.9273 3.94749 46.0634 4.11083 46.2267C4.27417 46.3629 4.43751 46.5262 4.62807 46.6895C4.79141 46.8529 4.95475 47.0162 5.11809 47.2068C5.28143 47.3701 5.39032 47.5607 5.49921 47.724C5.55366 47.8329 5.58088 47.9418 5.58088 48.0507C5.58088 48.1868 5.55366 48.2685 5.47199 48.3501C5.39032 48.4318 5.30865 48.459 5.19976 48.4863C5.09086 48.5135 5.0092 48.5135 4.9003 48.4863C4.79141 48.459 4.70974 48.459 4.60085 48.4318C4.57362 48.4318 4.51918 48.4046 4.41028 48.3774C4.32861 48.3501 4.21972 48.3229 4.13805 48.2957C4.02916 48.2685 3.94749 48.2413 3.86582 48.2413C3.86582 48.1868 3.8386 48.1596 3.81137 48.1868Z" fill="#131313"/>
<path d="M7.10531 50.5008C7.10531 50.4464 7.10531 50.4192 7.10531 50.3919C7.10531 50.3647 7.10531 50.3103 7.07809 50.2558C7.07809 50.2014 7.07809 50.1469 7.07809 50.0925C7.07809 50.038 7.05086 49.9836 7.05086 49.9291C7.05086 49.8475 7.05086 49.7658 7.07809 49.6841C7.10531 49.6025 7.15976 49.548 7.26865 49.5208C7.35032 49.4936 7.43199 49.5208 7.48644 49.5752C7.54088 49.6297 7.59533 49.6841 7.62255 49.793C7.64978 49.9019 7.677 49.9836 7.70422 50.0653C7.73144 50.1742 7.73145 50.2558 7.75867 50.3647C7.78589 50.4736 7.78589 50.5825 7.78589 50.637C7.78589 50.7186 7.78589 50.7731 7.81311 50.8003C7.81311 50.8275 7.84034 50.882 7.84034 50.9092C7.86756 50.9364 7.89478 50.9636 7.92201 50.9909C8.08535 51.0997 8.27591 51.2086 8.4937 51.3448C8.68426 51.4809 8.87482 51.5898 9.06538 51.7259C9.22872 51.862 9.39206 51.9709 9.52818 52.0798C9.6643 52.1887 9.74597 52.2703 9.80041 52.3248C9.85486 52.4065 9.88208 52.4881 9.88208 52.5698C9.88208 52.6242 9.85486 52.6787 9.82763 52.7331C9.77319 52.8148 9.71874 52.842 9.6643 52.8693C9.60985 52.8965 9.52818 52.8965 9.44651 52.8693C9.36484 52.842 9.31039 52.8148 9.22872 52.7876C9.14705 52.7604 9.06538 52.7059 9.01094 52.6515C8.71148 52.4881 8.4937 52.3792 8.35758 52.2976C8.19424 52.2159 8.08535 52.1342 8.0309 52.107C7.94923 52.0798 7.92201 52.0526 7.89479 52.0253C7.86756 52.0253 7.86756 51.9981 7.84034 51.9981C7.84034 52.0253 7.84034 52.0798 7.81311 52.2159C7.81311 52.3248 7.78589 52.4609 7.78589 52.597C7.75867 52.7331 7.73144 52.8965 7.677 53.0326C7.62255 53.1687 7.5681 53.2776 7.45921 53.3593C7.35032 53.4409 7.26865 53.4409 7.2142 53.4137C7.13253 53.3865 7.10531 53.3048 7.10531 53.2504C7.10531 53.2232 7.10531 53.1959 7.13253 53.1415C7.18698 53.0054 7.2142 52.8965 7.2142 52.7604C7.24143 52.6242 7.24143 52.5154 7.24143 52.3792C7.24143 52.2703 7.24143 52.1887 7.24143 52.0798C7.24143 51.9709 7.24143 51.8892 7.24143 51.7803C7.24143 51.7259 7.24143 51.6987 7.2142 51.6714C7.18698 51.6442 7.15976 51.6442 7.13253 51.617C6.91475 51.5081 6.66974 51.3992 6.34306 51.2631C6.01638 51.127 5.66248 50.9636 5.30858 50.8275C4.95468 50.6914 4.60077 50.5553 4.24687 50.4464C3.92019 50.3375 3.62074 50.2558 3.40295 50.2014C3.29406 50.1742 3.18516 50.1742 3.07627 50.1469C2.96738 50.1197 2.85849 50.1197 2.74959 50.1197C2.69515 50.1197 2.66792 50.1469 2.6407 50.1469C2.61348 50.1469 2.58625 50.1742 2.55903 50.2558C2.53181 50.3103 2.50458 50.3647 2.45014 50.3919C2.39569 50.4192 2.34124 50.4192 2.2868 50.3919C2.23235 50.3647 2.1779 50.3375 2.15068 50.283C2.12346 50.2286 2.09624 50.1469 2.09624 50.0653C2.09624 50.038 2.09623 50.0108 2.12346 49.9564C2.1779 49.8203 2.25957 49.7114 2.42291 49.6297C2.55903 49.5752 2.72237 49.5208 2.88571 49.5208C3.07627 49.4936 3.32128 49.5208 3.62074 49.548C3.92019 49.5752 4.2741 49.6569 4.628 49.7386C5.00912 49.8203 5.39025 49.9291 5.79859 50.0925C6.20694 50.2286 6.61529 50.3919 7.02364 50.6097C7.05086 50.6097 7.05086 50.637 7.07809 50.637C7.07809 50.5008 7.07809 50.5008 7.10531 50.5008Z" fill="#131313"/>
<path d="M4.3014 55.2649C4.19251 55.1288 4.08361 54.9382 3.97472 54.7749C3.86583 54.5843 3.78416 54.3937 3.75693 54.1759C3.75693 54.1487 3.75693 54.1215 3.75693 54.067C3.75693 53.9582 3.78416 53.8765 3.83861 53.7948C3.89305 53.7131 3.9475 53.6315 4.05639 53.6043C4.13806 53.5498 4.24695 53.5498 4.38307 53.5498C4.51919 53.5498 4.6553 53.6043 4.79142 53.7131C4.98198 53.822 5.14532 53.9582 5.33588 54.0943C5.49922 54.2304 5.66256 54.3937 5.79868 54.5571C5.93479 54.7204 6.04369 54.911 6.12536 55.1015C6.20703 55.2921 6.26147 55.4827 6.2887 55.7004C6.2887 55.7549 6.2887 55.8093 6.26147 55.891C6.26147 55.9455 6.23425 56.0271 6.20702 56.0816C6.1798 56.136 6.15258 56.1905 6.09813 56.2177C6.04368 56.2449 5.98924 56.2721 5.93479 56.2721C5.96202 56.2994 5.98924 56.3266 6.07091 56.3538C6.15258 56.4082 6.1798 56.4355 6.20702 56.4355C6.26147 56.5171 6.31592 56.5988 6.31592 56.6805C6.31592 56.7894 6.26147 56.8983 6.15258 56.9799C6.04369 57.0616 5.88035 57.0616 5.68978 56.9799C5.58089 56.9255 5.41755 56.8438 5.22699 56.7349C5.03643 56.626 4.81864 56.4899 4.60085 56.381C4.38307 56.2721 4.16528 56.1632 3.9475 56.0543C3.72971 55.9454 3.53915 55.891 3.40303 55.891C3.40303 55.9182 3.43026 55.9727 3.51193 56.0816C3.5936 56.1905 3.67527 56.3266 3.81138 56.4899C3.92028 56.6533 4.05639 56.8166 4.19251 57.0072C4.32862 57.1977 4.46474 57.3611 4.57363 57.5244C4.68252 57.6877 4.79142 57.8239 4.87309 57.9327C4.95476 58.0416 4.98198 58.0961 4.98198 58.0961C5.0092 58.1505 5.0092 58.1778 5.0092 58.1778C5.0092 58.2322 4.98198 58.2866 4.92753 58.3411C4.87309 58.3955 4.81864 58.3955 4.73697 58.3683C4.70975 58.3683 4.6553 58.3139 4.54641 58.205C4.43752 58.0961 4.32862 57.96 4.16528 57.8239C4.00194 57.6605 3.86583 57.4972 3.67527 57.3338C3.51193 57.1433 3.34859 56.9799 3.21247 56.8166C3.07635 56.6533 2.94024 56.5171 2.83134 56.381C2.72245 56.2449 2.66801 56.1632 2.64078 56.136C2.58634 56.0271 2.55911 55.891 2.55911 55.7821C2.55911 55.646 2.58634 55.5099 2.66801 55.401C2.74968 55.2921 2.85857 55.2104 2.99469 55.156C3.1308 55.1015 3.32136 55.1015 3.53915 55.1015C3.75694 55.1288 4.00194 55.1832 4.27418 55.3193C4.3014 55.3193 4.32862 55.3465 4.32862 55.3465C4.24695 55.2649 4.27418 55.2649 4.3014 55.2649ZM5.49922 55.9455C5.49922 55.8093 5.44477 55.646 5.36311 55.4827C5.28144 55.3193 5.17254 55.156 5.06365 54.9926C4.95476 54.8293 4.81864 54.7204 4.70975 54.6115C4.57363 54.5026 4.49196 54.4482 4.41029 54.4482C4.41029 54.5571 4.46474 54.7204 4.57363 54.8837C4.68252 55.0471 4.79142 55.2104 4.92753 55.3738C5.06365 55.5371 5.17254 55.6732 5.30866 55.7821C5.39033 55.891 5.472 55.9455 5.49922 55.9455Z" fill="#131313"/>
<path d="M4.70962 60.1652C4.60072 60.0563 4.46461 59.9202 4.30127 59.7568C4.13793 59.5935 3.97459 59.4029 3.78403 59.2124C3.62069 59.0218 3.45735 58.8312 3.32123 58.6407C3.18512 58.4501 3.10345 58.2868 3.049 58.1234C3.049 58.0962 3.049 58.069 3.02178 58.0418C3.02178 58.0145 3.02178 57.9873 3.02178 57.9601C3.02178 57.8512 3.049 57.7695 3.10345 57.6606C3.15789 57.579 3.21234 57.4973 3.32123 57.4429C3.4029 57.3884 3.51179 57.3612 3.64791 57.3612C3.78403 57.3612 3.92014 57.3884 4.08348 57.4701C4.24682 57.5517 4.43738 57.6606 4.68239 57.824C4.9274 57.9873 5.17241 58.1507 5.41742 58.3684C5.66243 58.559 5.85299 58.7768 6.04356 58.9946C6.2069 59.2124 6.31579 59.4029 6.31579 59.6207C6.31579 59.8113 6.26134 59.9474 6.15245 60.0291C6.04356 60.138 5.93466 60.2196 5.77132 60.3013C5.93466 60.4646 6.098 60.6007 6.23412 60.7096C6.37023 60.8185 6.4519 60.9274 6.4519 61.0363C6.4519 61.0908 6.4519 61.118 6.42468 61.1724C6.37024 61.2813 6.31579 61.3358 6.20689 61.363C6.098 61.3902 5.93466 61.363 5.71688 61.3086C5.49909 61.2541 5.17241 61.1452 4.79129 61.0091C4.41016 60.873 3.89292 60.7096 3.29401 60.4919C3.26679 60.5191 3.26679 60.5191 3.26679 60.5463C3.26679 60.5735 3.26678 60.6007 3.23956 60.6007C3.21234 60.7096 3.15789 60.7913 3.07622 60.873C2.99455 60.9546 2.94011 60.9546 2.85844 60.9002C2.80399 60.873 2.77677 60.8185 2.77677 60.7641C2.77677 60.7096 2.77677 60.6552 2.80399 60.6007C2.83121 60.5463 2.83121 60.4919 2.83121 60.4102V60.383C2.83121 60.3285 2.80399 60.2741 2.74954 60.2468C2.6951 60.2196 2.61343 60.1652 2.50454 60.1107C2.39564 60.0563 2.2323 59.9746 2.04174 59.8657C1.85118 59.7568 1.60617 59.5935 1.33394 59.3757C1.19782 59.2668 1.08893 59.1579 0.925587 59.049C0.789471 58.9129 0.653356 58.7768 0.544463 58.6407C0.43557 58.5046 0.326675 58.3412 0.245006 58.1779C0.163336 58.0145 0.10889 57.8512 0.0816669 57.7151C0.0816669 57.5245 0.108891 57.334 0.19056 57.1706C0.27223 57.0073 0.408346 56.8712 0.598909 56.7895C0.707802 56.735 0.816694 56.7078 0.925587 56.735C1.03448 56.7623 1.14337 56.7895 1.25227 56.8439C1.36116 56.8984 1.47005 56.9801 1.57894 57.0617C1.68784 57.1434 1.76951 57.2251 1.8784 57.3067C2.17786 57.6062 2.45009 57.9329 2.64065 58.2868C2.83121 58.6407 2.99455 59.0218 3.13067 59.4301C3.15789 59.539 3.23956 59.6207 3.32123 59.6479C3.53902 59.7296 3.7568 59.8113 3.94737 59.8929C4.16515 59.9746 4.35571 60.0563 4.5735 60.138C4.60072 60.138 4.60073 60.1652 4.62795 60.1652C4.68239 60.1924 4.68239 60.1924 4.70962 60.1652ZM2.55898 59.294C2.50453 59.1579 2.42287 59.0218 2.31397 58.8585C2.2323 58.7223 2.09619 58.5318 1.93285 58.3412C1.76951 58.1507 1.57894 57.9329 1.33394 57.6879C1.27949 57.6334 1.22504 57.579 1.1706 57.5517C1.11615 57.4973 1.0617 57.4701 1.00726 57.4701C0.952811 57.4428 0.925588 57.4701 0.871141 57.4701C0.843918 57.4973 0.816695 57.5517 0.816695 57.6062C0.816695 57.6879 0.843918 57.7695 0.871141 57.8512C0.925588 57.9329 0.980034 58.0145 1.00726 58.069C1.19782 58.314 1.44283 58.559 1.71506 58.7496C2.01452 58.9401 2.28675 59.1307 2.55898 59.294ZM3.92014 58.2323C4.08348 58.4501 4.2196 58.6407 4.38294 58.8312C4.51906 58.9946 4.65517 59.1579 4.79129 59.3213C4.9274 59.4846 5.06352 59.6479 5.19964 59.7568C5.22686 59.784 5.25408 59.8113 5.2813 59.8113C5.36297 59.784 5.44464 59.784 5.49909 59.7568C5.58076 59.7296 5.60798 59.7024 5.60798 59.6207C5.60798 59.5935 5.60798 59.5663 5.58076 59.539C5.52632 59.4301 5.41742 59.3213 5.2813 59.1851C5.14519 59.049 5.00907 58.9401 4.84573 58.8312C4.68239 58.7223 4.54628 58.6134 4.38294 58.5046C4.2196 58.3957 4.08348 58.314 3.97459 58.2595H3.94737C3.94737 58.2595 3.94737 58.2595 3.92014 58.2323Z" fill="#131313"/>
<path d="M4.30128 61.499C4.62795 61.6624 4.90019 61.8257 5.1452 62.0435C5.3902 62.2341 5.60799 62.4518 5.77133 62.6424C5.93467 62.8602 6.07079 63.0508 6.17968 63.2413C6.26135 63.4319 6.31579 63.5952 6.34302 63.7313C6.34302 63.7586 6.34302 63.7586 6.34302 63.7858C6.34302 63.813 6.34302 63.813 6.34302 63.8402C6.34302 63.9764 6.31579 64.0852 6.23412 64.1941C6.15245 64.303 6.07078 64.3847 5.96189 64.4391C5.853 64.4936 5.71688 64.5208 5.58077 64.5208C5.44465 64.5208 5.30854 64.4664 5.17242 64.3847C5.0363 64.2758 4.90019 64.1669 4.76407 64.058C4.62796 63.9219 4.51906 63.7858 4.41017 63.6497C4.30128 63.5136 4.21961 63.3502 4.16516 63.2141C4.11071 63.0508 4.08349 62.9146 4.08349 62.7785C4.08349 62.7241 4.08349 62.6696 4.11071 62.6152C4.13794 62.5335 4.16516 62.4518 4.19238 62.4246C4.21961 62.3974 4.24683 62.343 4.24683 62.343C4.24683 62.3157 4.21961 62.2885 4.13794 62.2613C4.08349 62.2341 4.00182 62.2068 3.92015 62.1796C3.83848 62.1524 3.75681 62.1252 3.67514 62.0979C3.59347 62.0707 3.53903 62.0707 3.48458 62.0707C3.34846 62.0707 3.23957 62.0979 3.21235 62.1524C3.1579 62.2068 3.1579 62.3157 3.1579 62.4246C3.18512 62.5607 3.23957 62.7513 3.34846 62.9963C3.45736 63.2413 3.59347 63.4863 3.75681 63.7313C3.92015 63.9763 4.05627 64.2214 4.21961 64.4391C4.38295 64.6569 4.49184 64.8203 4.57351 64.9292C4.65518 65.0108 4.73685 65.1197 4.81852 65.2286C4.87296 65.2831 4.87296 65.3375 4.87296 65.392C4.87296 65.4464 4.84574 65.5009 4.79129 65.5281C4.73685 65.5553 4.6824 65.5553 4.62796 65.5553C4.57351 65.5281 4.49184 65.4736 4.38295 65.3647C4.27405 65.2558 4.13794 65.1197 4.00182 64.9564C3.8657 64.793 3.72959 64.6297 3.59347 64.4391C3.45736 64.2486 3.32124 64.058 3.18512 63.8675C3.04901 63.6769 2.94011 63.4863 2.83122 63.323C2.72233 63.1596 2.64066 62.9963 2.58621 62.8874C2.50454 62.6696 2.47732 62.5063 2.47732 62.343C2.47732 62.0707 2.55899 61.8529 2.72233 61.6896C2.88567 61.5263 3.07623 61.4174 3.32124 61.3901C3.34846 61.3901 3.37569 61.3901 3.45736 61.3901C3.53903 61.3901 3.6207 61.3901 3.70237 61.4174C3.78403 61.4174 3.89293 61.4446 4.00182 61.4718C4.13794 61.4446 4.21961 61.4718 4.30128 61.499ZM4.62796 62.7785C4.62796 62.8057 4.62796 62.8058 4.62796 62.833C4.62796 62.8874 4.65518 62.9691 4.6824 63.078C4.70962 63.1597 4.76407 63.2685 4.84574 63.3502C4.90019 63.4591 4.98186 63.5408 5.09075 63.6497C5.17242 63.7313 5.28131 63.813 5.3902 63.8947C5.4991 63.9491 5.58077 63.9764 5.63521 63.9764C5.68966 63.9491 5.71688 63.9219 5.71688 63.8675V63.8402C5.68966 63.7586 5.66244 63.6769 5.60799 63.5952C5.55354 63.5136 5.4991 63.4319 5.44465 63.3502C5.39021 63.2685 5.30853 63.1869 5.25409 63.1052C5.17242 63.0235 5.11797 62.9691 5.06353 62.9146C5.00908 62.8602 4.95463 62.8057 4.90019 62.7785C4.79129 62.7241 4.70963 62.7241 4.62796 62.7785Z" fill="#131313"/>
<path d="M3.81113 68.0599C3.83835 68.1415 3.83835 68.196 3.86557 68.2504C3.8928 68.3049 3.92002 68.3593 3.97447 68.441C4.19225 68.7677 4.38282 69.0399 4.51893 69.176C4.68227 69.3393 4.76394 69.421 4.81839 69.4755C4.84561 69.5027 4.87283 69.5571 4.90006 69.5843C4.92728 69.6116 4.92728 69.6388 4.92728 69.6932C4.92728 69.7205 4.90006 69.7749 4.87283 69.8021C4.81839 69.8838 4.76394 69.8838 4.68227 69.8566C4.6006 69.8294 4.51893 69.7749 4.43726 69.7205C4.32837 69.6116 4.19225 69.5027 4.08336 69.3938C3.97447 69.2577 3.83835 69.1488 3.72946 68.9854C3.62056 68.8493 3.51167 68.7132 3.43 68.5499C3.34833 68.4138 3.29388 68.2776 3.23944 68.1415C3.21221 68.1143 3.21222 68.0871 3.21222 68.0599C3.21222 68.0326 3.21222 68.0054 3.21222 67.9782C3.21222 67.8148 3.26666 67.6787 3.37555 67.5698C3.48445 67.4609 3.62057 67.4065 3.81113 67.4065C3.94724 67.4065 4.13781 67.4337 4.35559 67.5154C4.57338 67.5971 4.76394 67.6515 4.9545 67.7059C4.9545 67.6515 4.90006 67.5971 4.81839 67.5154C4.73672 67.4337 4.65505 67.3248 4.57338 67.2432C4.49171 67.1615 4.41004 67.0798 4.30114 66.9981C4.19225 66.9165 4.16503 66.862 4.11058 66.8348C3.81113 66.5898 3.59334 66.372 3.45722 66.2359C3.29389 66.0998 3.18499 65.9637 3.10332 65.8003C3.02165 65.6642 2.99443 65.5553 2.99443 65.4464C2.99443 65.2831 3.0761 65.147 3.23944 65.0381C3.40278 64.9292 3.64779 64.9292 4.00169 65.0109C4.41004 65.1197 4.76394 65.2559 5.11784 65.4192C5.47174 65.5825 5.82565 65.8003 6.15233 66.0453C6.26122 66.127 6.34289 66.2087 6.39734 66.2903C6.45178 66.372 6.479 66.4537 6.479 66.5081C6.479 66.617 6.42456 66.6987 6.34289 66.7531C6.26122 66.8076 6.17955 66.8076 6.07066 66.7531C6.04343 66.7259 5.98899 66.6987 5.96176 66.6715C5.93454 66.6442 5.88009 66.617 5.82565 66.5898C5.58064 66.4265 5.30841 66.2903 5.09062 66.1814C4.84561 66.0726 4.62782 65.9637 4.43726 65.882C4.2467 65.8003 4.08336 65.7459 3.94724 65.7187C3.81113 65.6914 3.72946 65.6914 3.70223 65.6914C3.81113 65.8003 3.94724 65.9364 4.11058 66.0998C4.27392 66.2359 4.43726 66.3992 4.62782 66.5626C4.79116 66.7259 4.9545 66.8893 5.11784 67.0798C5.28118 67.2432 5.39007 67.4337 5.49897 67.5971C5.55341 67.706 5.58064 67.8148 5.58064 67.9237C5.58064 68.0599 5.55341 68.1415 5.47174 68.2232C5.39008 68.3049 5.30841 68.3321 5.19951 68.3593C5.09062 68.3865 5.00895 68.3865 4.90006 68.3593C4.79116 68.3321 4.70949 68.3321 4.6006 68.3049C4.57338 68.3049 4.51893 68.2776 4.41004 68.2504C4.32837 68.2232 4.21948 68.196 4.13781 68.1687C4.02891 68.1415 3.94724 68.1143 3.86557 68.1143C3.86557 68.0599 3.83835 68.0326 3.81113 68.0599Z" fill="#131313"/>
<path d="M5.52645 71.3265C5.49922 71.1904 5.41755 71.0543 5.28144 70.9182C5.17254 70.7821 5.03643 70.6187 4.87309 70.5098C4.70975 70.3737 4.54641 70.2648 4.38307 70.1559C4.21973 70.047 4.05639 69.9654 3.89305 69.9109C3.75694 69.8565 3.62082 69.8293 3.51193 69.8565C3.40303 69.8837 3.37581 69.9382 3.37581 70.047C3.37581 70.2376 3.40303 70.4282 3.4847 70.6187C3.56637 70.8093 3.64804 71.0271 3.78416 71.2176C3.92027 71.4082 4.02917 71.5988 4.16528 71.7621C4.3014 71.9527 4.43752 72.0888 4.54641 72.2249C4.62808 72.3066 4.70975 72.3882 4.79142 72.4699C4.87309 72.5516 4.92754 72.606 4.92754 72.6605C4.92754 72.6877 4.92754 72.6877 4.92754 72.7421C4.92754 72.851 4.87309 72.8783 4.73697 72.851C4.68253 72.8238 4.57363 72.7421 4.41029 72.606C4.27418 72.4699 4.11084 72.2794 3.92027 72.0888C3.72971 71.871 3.56637 71.6532 3.37581 71.381C3.18525 71.1088 3.02191 70.8637 2.88579 70.5915C2.83135 70.4826 2.80412 70.4009 2.80412 70.2921C2.7769 70.2104 2.7769 70.1015 2.7769 70.0198C2.7769 69.8293 2.80412 69.6931 2.88579 69.5842C2.96746 69.4754 3.04913 69.3665 3.18525 69.312C3.29414 69.2576 3.43026 69.2031 3.5936 69.2031C3.75694 69.2031 3.89305 69.2031 4.05639 69.2576C4.41029 69.3665 4.70975 69.5026 5.0092 69.6931C5.28144 69.8837 5.55367 70.1287 5.77146 70.4009C5.93479 70.6187 6.07091 70.8093 6.15258 70.9999C6.23425 71.1904 6.26147 71.3538 6.26147 71.4899C6.26147 71.5988 6.23425 71.7077 6.20703 71.7893C6.1798 71.871 6.12536 71.9255 6.04369 71.9799C5.98924 72.0343 5.90757 72.0616 5.8259 72.0616C5.74423 72.0616 5.66256 72.0343 5.58089 71.9799C5.55367 71.9527 5.49922 71.9254 5.41755 71.871C5.36311 71.8166 5.28144 71.7621 5.22699 71.7077C5.17254 71.6532 5.09087 71.5988 5.06365 71.5443C5.00921 71.4899 4.98198 71.4354 4.98198 71.381C4.98198 71.3265 5.00921 71.2721 5.06365 71.2449C5.1181 71.2176 5.17254 71.2176 5.22699 71.2176C5.28144 71.2449 5.30866 71.2721 5.33588 71.2721C5.36311 71.2993 5.41755 71.2993 5.44478 71.3265C5.44478 71.2993 5.472 71.2993 5.52645 71.3265Z" fill="#131313"/>
<path d="M5.36298 74.9201C5.30853 74.8112 5.19964 74.7023 5.00907 74.5117C4.84574 74.3484 4.65517 74.1578 4.43739 73.94C4.2196 73.7222 4.05626 73.5317 3.8657 73.3411C3.70236 73.1233 3.56624 72.9328 3.5118 72.7694C3.48457 72.6878 3.48457 72.6333 3.48457 72.6061C3.48457 72.4428 3.56625 72.3339 3.70236 72.2522C3.83848 72.1705 4.02904 72.1705 4.27405 72.2522C4.90018 72.4428 5.49909 72.7967 6.01634 73.2595C6.15245 73.3956 6.26134 73.5045 6.31579 73.6134C6.37024 73.7223 6.39746 73.8311 6.39746 73.9128C6.39746 74.0489 6.34301 74.1034 6.26134 74.1578C6.15245 74.185 6.07078 74.1578 6.01634 74.0761C5.79855 73.7767 5.52632 73.5317 5.22686 73.3683C4.92741 73.205 4.62795 73.0417 4.30127 72.9056C4.27405 72.8783 4.24683 72.8783 4.2196 72.8511C4.19238 72.8239 4.16516 72.8239 4.11071 72.8239C4.16516 72.96 4.30127 73.1233 4.49184 73.3139C4.6824 73.5045 4.87296 73.695 5.06352 73.8856C5.25409 74.0762 5.44465 74.2667 5.60799 74.4573C5.77133 74.6478 5.88022 74.8112 5.93466 74.9201C5.96189 74.9745 5.96189 75.029 5.96189 75.0834C5.96189 75.2195 5.90744 75.3012 5.79855 75.4101C5.68966 75.4918 5.52632 75.5462 5.30853 75.5462C5.14519 75.5462 4.95463 75.519 4.79129 75.4918C4.60073 75.4645 4.43739 75.4101 4.30127 75.3556C4.13793 75.3012 4.02904 75.274 3.92015 75.2468C3.81125 75.2195 3.75681 75.2195 3.72958 75.2195V75.3284V75.3829C3.70236 75.519 3.64792 75.6007 3.53902 75.5734C3.45735 75.5734 3.40291 75.519 3.34846 75.4101C3.32124 75.3012 3.26679 75.2195 3.26679 75.1106C3.23957 75.029 3.18512 74.9745 3.10345 74.9201C2.96733 74.8656 2.77677 74.784 2.55898 74.6751C2.3412 74.5662 2.12341 74.4301 1.8784 74.2939C1.6334 74.1578 1.41561 73.9945 1.19782 73.8311C0.980038 73.6678 0.762253 73.4772 0.571691 73.3139C0.381128 73.1233 0.245012 72.9328 0.136119 72.7422C0.0272264 72.5516 -0.0272217 72.3611 -0.0272217 72.1705C-0.0272217 72.0344 2.38419e-06 71.9255 0.0544491 71.7894C0.108895 71.6805 0.190566 71.5716 0.272236 71.4899C0.353905 71.4083 0.462797 71.3538 0.598914 71.3266C0.73503 71.2994 0.871146 71.3266 1.00726 71.381C1.14338 71.4355 1.25227 71.5172 1.38839 71.6261C1.5245 71.7349 1.66062 71.8438 1.76951 71.98C1.90563 72.1161 2.01452 72.2522 2.12341 72.3883C2.23231 72.5244 2.3412 72.6605 2.42287 72.7694C2.64065 73.0689 2.80399 73.3411 2.91289 73.5317C3.02178 73.7222 3.10345 73.8856 3.18512 73.9945C3.23957 74.1034 3.29401 74.185 3.32124 74.2395C3.34846 74.2939 3.40291 74.3212 3.48457 74.3484C3.75681 74.4573 4.00182 74.5662 4.27405 74.6478C4.54628 74.7295 4.81851 74.8112 5.09075 74.8656C5.11797 74.8656 5.17242 74.8928 5.19964 74.8928C5.28131 74.9201 5.30853 74.9201 5.36298 74.9201ZM2.64066 73.94C2.53176 73.7222 2.39565 73.5045 2.20508 73.2322C2.01452 72.9872 1.82396 72.7422 1.6334 72.5516C1.44283 72.3339 1.27949 72.1705 1.11616 72.0616C0.952816 71.9527 0.843922 71.8983 0.789475 71.98C0.707806 72.0344 0.680584 72.1161 0.680584 72.225C0.680584 72.2794 0.707807 72.3611 0.73503 72.4155C0.762253 72.4972 0.8167 72.5516 0.871146 72.6061C1.11615 72.9055 1.38839 73.1506 1.68784 73.3683C1.9873 73.5589 2.31398 73.7495 2.64066 73.94Z" fill="#131313"/>
</g>
<defs>
<clipPath id="clip0">
<rect width="115.399" height="30" fill="white" transform="translate(30 0.600586) rotate(90)"/>
</clipPath>
</defs>
</svg>
